<svg width="24" height="24" viewBox="0 0 24 24" fill="none" xmlns="http://www.w3.org/2000/svg">
<g id="Add">
<path id="Vector" d="M18.75 9.75H14.25V5.25C14.25 4.65326 14.0129 4.08097 13.591 3.65901C13.169 3.23705 12.5967 3 12 3C11.4033 3 10.831 3.23705 10.409 3.65901C9.98705 4.08097 9.75 4.65326 9.75 5.25L9.82988 9.75H5.25C4.65326 9.75 4.08097 9.98705 3.65901 10.409C3.23705 10.831 3 11.4033 3 12C3 12.5967 3.23705 13.169 3.65901 13.591C4.08097 14.0129 4.65326 14.25 5.25 14.25L9.82988 14.1701L9.75 18.75C9.75 19.3467 9.98705 19.919 10.409 20.341C10.831 20.7629 11.4033 21 12 21C12.5967 21 13.169 20.7629 13.591 20.341C14.0129 19.919 14.25 19.3467 14.25 18.75V14.1701L18.75 14.25C19.3467 14.25 19.919 14.0129 20.341 13.591C20.7629 13.169 21 12.5967 21 12C21 11.4033 20.7629 10.831 20.341 10.409C19.919 9.98705 19.3467 9.75 18.75 9.75Z" fill="black"/>
</g>
</svg>
