<svg width="40" height="40" viewBox="0 0 40 40" fill="none" xmlns="http://www.w3.org/2000/svg">
<g id="Alert">
<path id="Alert_2" fill-rule="evenodd" clip-rule="evenodd" d="M20 5C11.7157 5 5 11.7157 5 20C5 28.2843 11.7157 35 20 35C28.2843 35 35 28.2843 35 20C35 11.7157 28.2843 5 20 5ZM20 11.6667C19.0795 11.6667 18.3333 12.4129 18.3333 13.3333V21.6667C18.3333 22.5871 19.0795 23.3333 20 23.3333C20.9205 23.3333 21.6667 22.5871 21.6667 21.6667V13.3333C21.6667 12.4129 20.9205 11.6667 20 11.6667ZM20 25C19.0795 25 18.3333 25.7462 18.3333 26.6667C18.3333 27.5871 19.0795 28.3333 20 28.3333C20.9205 28.3333 21.6667 27.5871 21.6667 26.6667C21.6667 25.7462 20.9205 25 20 25Z" fill="#242424"/>
</g>
</svg>
