<svg width="24" height="24" viewBox="0 0 24 24" fill="none" xmlns="http://www.w3.org/2000/svg">
<g id="arrow" clip-path="url(#clip0_488_12521)">
<path id="Go" d="M19.4374 15.7343C19.4374 16.4247 18.8777 16.9843 18.1874 16.9843C17.497 16.9843 16.9374 16.4247 16.9374 15.7343L16.9374 9.35571C16.9374 9.13298 16.6681 9.02144 16.5106 9.17893L6.69686 18.9927C6.20871 19.4808 5.41726 19.4808 4.9291 18.9927C4.44095 18.5045 4.44095 17.7131 4.9291 17.2249L14.7428 7.41118C14.9003 7.25369 14.7888 6.9844 14.5661 6.9844L8.18744 6.9844C7.49709 6.9844 6.93745 6.42476 6.93745 5.73441C6.93745 5.04406 7.49709 4.48442 8.18744 4.48442L18.1874 4.48442C18.8777 4.48442 19.4374 5.04406 19.4374 5.73441L19.4374 15.7343Z" fill="#242424" stroke="#242424" stroke-linecap="round" stroke-linejoin="round"/>
</g>
<defs>
<clipPath id="clip0_488_12521">
<rect width="24" height="24" fill="white"/>
</clipPath>
</defs>
</svg>
