<svg width="24" height="24" viewBox="0 0 24 24" fill="none" xmlns="http://www.w3.org/2000/svg">
<path d="M9.43713 3.96621C9.92528 3.47806 10.7167 3.47806 11.2049 3.96621C11.693 4.45436 11.693 5.24581 11.2049 5.73397L6.69451 10.2443C6.53702 10.4018 6.64856 10.6711 6.87128 10.6711H20.75C21.4404 10.6711 22 11.2308 22 11.9211C22 12.6115 21.4404 13.1711 20.75 13.1711H6.87128C6.64856 13.1711 6.53702 13.4404 6.69451 13.5979L11.2049 18.1082C11.693 18.5964 11.693 19.3878 11.2049 19.876C10.7167 20.3641 9.92528 20.3641 9.43713 19.876L2.36611 12.805C1.87796 12.3168 1.87796 11.5254 2.36611 11.0372L9.43713 3.96621Z" fill="white" stroke="white" stroke-linecap="round" stroke-linejoin="round"/>
</svg>
