<svg width="24" height="24" viewBox="0 0 24 24" fill="none" xmlns="http://www.w3.org/2000/svg">
<g id="Back">
<path id="Back_2" d="M9.43713 3.96572C9.92528 3.47757 10.7167 3.47757 11.2049 3.96572C11.693 4.45387 11.693 5.24533 11.2049 5.73348L6.69451 10.2439C6.53702 10.4013 6.64856 10.6706 6.87128 10.6706H20.75C21.4404 10.6706 22 11.2303 22 11.9206C22 12.611 21.4404 13.1706 20.75 13.1706H6.87128C6.64856 13.1706 6.53702 13.4399 6.69451 13.5974L11.2049 18.1078C11.693 18.5959 11.693 19.3874 11.2049 19.8755C10.7167 20.3637 9.92528 20.3637 9.43713 19.8755L2.36611 12.8045C1.87796 12.3163 1.87796 11.5249 2.36611 11.0367L9.43713 3.96572Z" fill="black" stroke="black" stroke-linecap="round" stroke-linejoin="round"/>
</g>
</svg>
