<svg width="252" height="252" viewBox="0 0 252 252" fill="none" xmlns="http://www.w3.org/2000/svg">
<path d="M48.2966 114.019L48.2957 114.018C44.5685 110.308 44.5674 104.271 48.2966 100.542L89.8405 58.9977C107.681 41.157 136.597 41.157 154.437 58.9977L172.851 77.4118L173.157 77.7178L173.463 78.0238L191.877 96.4378C209.718 114.279 209.718 143.194 191.877 161.035L150.333 202.579L150.333 202.579C146.623 206.307 140.586 206.308 136.857 202.579L130.899 196.621L130.898 196.62C111.352 177.092 109.888 146.344 126.475 125.102L125.773 124.4C104.55 140.987 73.7838 139.506 54.2545 119.977L48.2966 114.019Z" fill="#FD7B8A" stroke="#242424"/>
</svg>
