<svg width="60" height="60" viewBox="0 0 60 60" fill="none" xmlns="http://www.w3.org/2000/svg">
<path fill-rule="evenodd" clip-rule="evenodd" d="M15.4365 15H20.9951C21.5537 15 22.0065 15.4528 22.0065 16.0114V17.2714C22.0065 17.83 21.5537 18.2829 20.9951 18.2829H15.4365C14.8779 18.2829 14.4251 17.83 14.4251 17.2714V16.0114C14.4251 15.4528 14.8779 15 15.4365 15ZM35.0395 15H40.0709C40.6295 15 41.0823 15.4528 41.0823 16.0114V17.2714C41.0823 17.83 40.6295 18.2829 40.0709 18.2829H35.0395C34.4809 18.2829 34.028 17.83 34.028 17.2714V16.0114C34.028 15.4528 34.4809 15 35.0395 15ZM24.7624 30.2871H23.5024C22.9438 30.2871 22.4909 30.74 22.4909 31.2986V36.0986C22.4909 36.6572 22.9438 37.11 23.5024 37.11H24.7624C25.321 37.11 25.7738 36.6572 25.7738 36.0986V31.2986C25.7738 30.74 25.321 30.2871 24.7624 30.2871ZM15.9425 22.4529H17.2025C17.7611 22.4529 18.2139 22.9057 18.2139 23.4643V24.7243C18.2139 25.2829 17.7611 25.7357 17.2025 25.7357H15.9425C15.3839 25.7357 14.9311 25.2829 14.9311 24.7243V23.4643C14.9311 22.9057 15.3839 22.4529 15.9425 22.4529ZM21.248 22.4529H19.988C19.4294 22.4529 18.9766 22.9057 18.9766 23.4643V24.7243C18.9766 25.2829 19.4294 25.7357 19.988 25.7357H21.248C21.8066 25.7357 22.2594 25.2829 22.2594 24.7243V23.4643C22.2594 22.9057 21.8066 22.4529 21.248 22.4529ZM23.6267 26.1943H24.8867C25.4453 26.1943 25.8981 26.6471 25.8981 27.2057V28.4657C25.8981 29.0243 25.4453 29.4771 24.8867 29.4771H23.6267C23.0681 29.4771 22.6152 29.0243 22.6152 28.4657V27.2057C22.6152 26.6471 23.0681 26.1943 23.6267 26.1943ZM40.0708 37.4871H38.8108C38.2522 37.4871 37.7994 37.94 37.7994 38.4986V39.7586C37.7994 40.3172 38.2522 40.77 38.8108 40.77H40.0708C40.6294 40.77 41.0822 40.3172 41.0822 39.7586V38.4986C41.0822 37.94 40.6294 37.4871 40.0708 37.4871ZM19.7352 37.6157H20.9952C21.5538 37.6157 22.0066 38.0686 22.0066 38.6272V43.68C22.0066 44.2386 21.5538 44.6914 20.9952 44.6914H19.7352C19.1766 44.6914 18.7238 44.2386 18.7238 43.68V38.6272C18.7238 38.0686 19.1766 37.6157 19.7352 37.6157ZM17.2665 37.6157H16.0065C15.4479 37.6157 14.9951 38.0686 14.9951 38.6272V39.8872C14.9951 40.4458 15.4479 40.8986 16.0065 40.8986H17.2665C17.8251 40.8986 18.278 40.4458 18.278 39.8872V38.6272C18.278 38.0686 17.8251 37.6157 17.2665 37.6157ZM23.6267 37.6157H24.8867C25.4453 37.6157 25.8981 38.0686 25.8981 38.6272V39.8872C25.8981 40.4458 25.4453 40.8986 24.8867 40.8986H23.6267C23.0681 40.8986 22.6152 40.4458 22.6152 39.8872V38.6272C22.6152 38.0686 23.0681 37.6157 23.6267 37.6157ZM28.7781 37.6157H27.5181C26.9595 37.6157 26.5067 38.0686 26.5067 38.6272V39.8872C26.5067 40.4458 26.9595 40.8986 27.5181 40.8986H28.7781C29.3367 40.8986 29.7896 40.4458 29.7896 39.8872V38.6272C29.7896 38.0686 29.3367 37.6157 28.7781 37.6157ZM31.058 33.8228H36.4109C36.9695 33.8228 37.4223 34.2757 37.4223 34.8343V36.0943C37.4223 36.6529 36.9695 37.1057 36.4109 37.1057H31.058C30.4994 37.1057 30.0466 36.6529 30.0466 36.0943V34.8343C30.0466 34.2757 30.4994 33.8228 31.058 33.8228ZM13.414 18.6643H12.154C11.5954 18.6643 11.1426 19.1171 11.1426 19.6757V20.9357C11.1426 21.4943 11.5954 21.9471 12.154 21.9471H13.414C13.9726 21.9471 14.4254 21.4943 14.4254 20.9357V19.6757C14.4254 19.1171 13.9726 18.6643 13.414 18.6643ZM42.3553 41.4043H43.8596C44.4182 41.4043 44.871 41.8571 44.871 42.4157V43.6757C44.871 44.2343 44.4182 44.6871 43.8596 44.6871H42.3553C41.7967 44.6871 41.3439 44.2343 41.3439 43.6757V42.4157C41.3439 41.8571 41.7967 41.4043 42.3553 41.4043ZM47.5239 33.4457H46.2639C45.7053 33.4457 45.2525 33.8985 45.2525 34.4571V40.0157C45.2525 40.5743 45.7053 41.0271 46.2639 41.0271H47.5239C48.0825 41.0271 48.5354 40.5743 48.5354 40.0157V34.4571C48.5354 33.8985 48.0825 33.4457 47.5239 33.4457ZM42.5223 30.0343H44.0266C44.5852 30.0343 45.038 30.4871 45.038 31.0457V32.3057C45.038 32.8643 44.5852 33.3171 44.0266 33.3171H42.5223C41.9637 33.3171 41.5109 32.8643 41.5109 32.3057V31.0457C41.5109 30.4871 41.9637 30.0343 42.5223 30.0343ZM24.9083 15H23.404C22.8454 15 22.3926 15.4528 22.3926 16.0114V17.2714C22.3926 17.83 22.8454 18.2829 23.404 18.2829H24.9083C25.4669 18.2829 25.9197 17.83 25.9197 17.2714V16.0114C25.9197 15.4528 25.4669 15 24.9083 15ZM27.0594 18.5357H32.6137C33.1723 18.5357 33.6251 18.9885 33.6251 19.5471V20.8071C33.6251 21.3657 33.1723 21.8186 32.6137 21.8186H27.0594C26.5008 21.8186 26.048 21.3657 26.048 20.8071V19.5471C26.048 18.9885 26.5008 18.5357 27.0594 18.5357ZM43.6323 18.6643H42.1281C41.5695 18.6643 41.1166 19.1171 41.1166 19.6757V20.9357C41.1166 21.4943 41.5695 21.9471 42.1281 21.9471H43.6323C44.1909 21.9471 44.6438 21.4943 44.6438 20.9357V19.6757C44.6438 19.1171 44.1909 18.6643 43.6323 18.6643ZM38.5622 22.9586H40.0665C40.6251 22.9586 41.0779 23.4114 41.0779 23.97V28.77C41.0779 29.3286 40.6251 29.7814 40.0665 29.7814H38.5622C38.0036 29.7814 37.5508 29.3286 37.5508 28.77V23.97C37.5508 23.4114 38.0036 22.9586 38.5622 22.9586Z" fill="#FD7B8A"/>
</svg>
