<svg width="252" height="252" viewBox="0 0 252 252" fill="none" xmlns="http://www.w3.org/2000/svg">
<path d="M54.4695 203.383C56.8209 202.636 59.1327 201.746 61.4198 200.816C66.4494 198.769 71.4146 196.484 76.0135 193.586C78.4491 192.053 80.8154 190.337 82.9193 188.363C84.7559 186.642 86.4935 184.614 87.5726 182.325C88.1271 181.153 88.6023 179.951 88.8003 178.665C89.0478 177.048 89.0825 175.436 88.934 173.808C88.6914 171.088 88.1073 168.19 86.4538 165.945C84.9984 163.977 83.0381 162.429 80.5926 161.899C78.4541 161.439 76.2116 161.573 74.1324 162.251C70.3107 163.497 66.489 166.252 64.7415 169.956C63.7416 172.072 63.2911 174.343 63.8851 176.657C64.4792 178.972 66.2662 181.054 68.3305 182.359C69.9097 183.358 71.9493 183.65 73.7809 183.591C75.9195 183.522 78.0778 183.071 80.0976 182.379C85.1915 180.628 89.9092 177.597 93.5725 173.645C95.6318 171.425 97.4387 168.902 98.7506 166.167C100.33 162.879 101.255 159.486 101.671 155.871C101.864 154.194 101.904 152.508 101.815 150.821C101.721 148.991 100.265 147.231 98.305 147.315C96.4833 147.394 94.6962 148.858 94.7952 150.821C94.8893 152.661 94.8299 154.506 94.5923 156.336L94.716 155.406C94.5279 156.796 94.2457 158.166 93.8497 159.511C93.6665 160.129 93.4636 160.742 93.2359 161.35C93.127 161.637 93.0131 161.919 92.8992 162.201C93.3992 160.94 92.919 162.137 92.7755 162.448C92.2458 163.576 91.6369 164.664 90.9538 165.708C90.6171 166.227 90.2557 166.726 89.8894 167.221C89.5775 167.646 90.4439 166.514 90.1171 166.924C90.0231 167.043 89.929 167.162 89.83 167.28C89.627 167.532 89.4191 167.78 89.2063 168.022C88.4439 168.897 87.6271 169.728 86.7608 170.51C86.335 170.895 85.8945 171.271 85.444 171.632C85.3499 171.707 85.2509 171.786 85.1569 171.86C84.9539 172.023 85.9638 171.252 85.4341 171.647C85.2113 171.815 84.9836 171.983 84.7559 172.147C83.0381 173.368 81.2015 174.402 79.2758 175.248C78.7214 175.49 80.1916 174.872 79.6273 175.099C79.5134 175.144 79.3996 175.193 79.2857 175.238C79.0283 175.337 78.7758 175.435 78.5135 175.525C78.0333 175.698 77.5432 175.856 77.0531 175.994C76.1422 176.256 75.2165 176.459 74.2759 176.588L75.2066 176.464C74.1918 176.598 73.1621 176.647 72.1473 176.514L73.078 176.637C72.8106 176.598 72.5433 176.553 72.276 176.484C71.8008 176.36 71.083 175.895 72.3602 176.578C72.1473 176.464 71.9344 176.365 71.7364 176.227C71.4344 176.024 70.8899 175.505 71.9196 176.39C71.776 176.266 71.6225 176.148 71.4839 176.019C71.2315 175.787 71.0087 175.534 70.781 175.277C70.4741 174.941 71.3849 176.103 71.1424 175.742C71.0928 175.668 71.0384 175.599 70.9889 175.525C70.8998 175.391 70.8206 175.257 70.7414 175.119C70.6721 174.995 70.6176 174.862 70.5533 174.738C71.1919 175.945 70.8305 175.431 70.7117 175.055C70.6226 174.773 70.5632 174.486 70.5236 174.199L70.6473 175.129C70.5879 174.659 70.5929 174.189 70.6572 173.724L70.5335 174.654C70.5879 174.268 70.677 173.888 70.8008 173.517C70.8305 173.428 70.8651 173.339 70.8948 173.25C71.078 172.72 70.7216 173.66 70.6721 173.754C70.7711 173.561 70.8503 173.358 70.9542 173.165C71.1473 172.799 71.3602 172.453 71.5978 172.117C71.6621 172.023 71.7315 171.934 71.8008 171.84C72.0582 171.479 71.1127 172.691 71.4889 172.246C71.6324 172.077 71.7711 171.904 71.9245 171.741C72.2215 171.415 72.5334 171.108 72.8601 170.816C73.0334 170.663 73.2067 170.52 73.3849 170.371C73.8799 169.966 72.7859 170.821 72.9938 170.668C73.0928 170.599 73.1918 170.52 73.2908 170.45C74.0482 169.911 74.8551 169.471 75.6967 169.08C76.1026 168.892 74.6423 169.501 75.271 169.263C75.3848 169.219 75.4937 169.174 75.6076 169.135C75.8452 169.051 76.0878 168.972 76.3303 168.897C76.8204 168.754 77.3155 168.645 77.8204 168.576L76.8897 168.7C77.6372 168.601 78.3947 168.586 79.1422 168.685L78.2115 168.561C78.5778 168.616 78.9342 168.69 79.2857 168.799C79.4491 168.848 79.6075 168.912 79.7708 168.972C80.2015 169.125 78.7461 168.492 79.2709 168.764C79.3352 168.799 79.4045 168.828 79.4689 168.863C79.6471 168.952 79.8154 169.056 79.9837 169.164C80.3104 169.377 80.7609 169.891 79.7659 168.972C80.0481 169.234 80.3352 169.471 80.5926 169.763C80.657 169.837 80.7164 169.911 80.7807 169.985C81.0877 170.346 80.1322 169.09 80.4887 169.615C80.6025 169.783 80.7213 169.951 80.8253 170.129C80.9292 170.307 81.0381 170.5 81.1372 170.693C81.1966 170.806 81.2461 170.92 81.3005 171.039C81.5777 171.627 81.0035 170.292 81.1223 170.609C81.5134 171.657 81.7807 172.72 81.9391 173.828L81.8154 172.898C82.0233 174.432 82.1173 176.054 81.9292 177.592L82.053 176.662C81.9688 177.3 81.8203 177.923 81.6074 178.531C81.553 178.685 81.4936 178.838 81.4342 178.991C81.2659 179.436 81.8748 178.012 81.5926 178.611C81.4441 178.932 81.2857 179.249 81.1174 179.555C80.7807 180.154 80.3946 180.712 79.9936 181.271C79.7511 181.608 80.6817 180.411 80.1421 181.078C80.0283 181.222 79.9095 181.365 79.7857 181.504C79.5382 181.791 79.2857 182.072 79.0283 182.344C78.5036 182.898 77.9491 183.428 77.3798 183.937C77.0927 184.194 76.8006 184.441 76.5036 184.689C76.2066 184.936 74.9987 185.861 76.1472 184.99C74.8007 186.009 73.4096 186.964 71.9691 187.849C69.1176 189.61 66.1276 191.138 63.0782 192.532C62.3802 192.849 61.6822 193.16 60.9793 193.467C60.8208 193.536 60.6674 193.601 60.509 193.67C60.41 193.709 60.2912 193.744 60.202 193.803C60.1377 193.843 61.1624 193.403 60.7367 193.581C60.405 193.719 60.0733 193.858 59.7417 193.991C58.5981 194.461 57.4447 194.911 56.2813 195.341C55.0635 195.796 53.8359 196.242 52.5983 196.632C50.8508 197.186 49.5488 199.095 50.1478 200.945C50.7171 202.696 52.5884 203.986 54.4645 203.393L54.4695 203.383Z" fill="white"/>
<path d="M189.323 61.6229C191.551 59.3974 193.783 57.1669 196.011 54.9414C196.328 54.6249 196.645 54.3084 196.961 53.9918C197.6 53.3539 197.991 52.4142 197.991 51.5141C197.991 50.614 197.61 49.6298 196.961 49.0364C196.313 48.4429 195.417 47.9681 194.481 48.0077C193.546 48.0472 192.674 48.3638 192.001 49.0364C189.773 51.2619 187.541 53.4923 185.313 55.7178C184.996 56.0344 184.679 56.3509 184.363 56.6674C183.724 57.3054 183.333 58.245 183.333 59.1451C183.333 60.0452 183.714 61.0294 184.363 61.6229C185.011 62.2163 185.907 62.6911 186.843 62.6516C187.778 62.612 188.65 62.2955 189.323 61.6229Z" fill="white"/>
<path d="M191.56 100.179L172.456 81.0935L151.907 60.5644C137.358 46.0293 113.77 46.0293 99.2204 60.5644L51.8008 107.938L67.5281 123.65C82.4535 138.561 105.408 140.534 122.472 129.59C111.517 146.637 113.492 169.57 128.418 184.481L144.145 200.193L191.565 152.819C206.114 138.284 206.114 114.719 191.565 100.183L191.56 100.179Z" fill="#242424"/>
<path d="M188.035 71.5091C188.035 72.429 187.971 73.3389 187.847 74.2489L187.971 73.3192C187.852 74.15 187.689 74.9759 187.471 75.787C187.372 76.1629 187.258 76.5338 187.134 76.8998C187.011 77.2658 186.907 77.8246 186.674 78.1362C186.674 78.1362 187.06 77.2608 186.837 77.7504C186.803 77.8246 186.773 77.8988 186.738 77.973C186.659 78.1461 186.58 78.3192 186.496 78.4923C186.303 78.883 186.1 79.2687 185.887 79.6446C185.481 80.3518 185.03 81.0194 184.55 81.6821C184.218 82.1421 185.095 81.0096 184.654 81.5486C184.535 81.697 184.417 81.8404 184.293 81.9838C184.016 82.3102 183.723 82.6317 183.422 82.9433C182.857 83.5219 182.258 84.0709 181.629 84.5803C181.55 84.6446 181.461 84.7385 181.377 84.783C181.308 84.8226 182.065 84.2687 181.763 84.4814C181.61 84.5902 181.461 84.7088 181.303 84.8176C180.951 85.0699 180.59 85.3073 180.219 85.5348C179.526 85.9601 178.803 86.3458 178.06 86.6871C177.961 86.7316 177.862 86.7761 177.763 86.8206C177.333 87.0184 178.115 86.6871 178.149 86.6574C177.981 86.786 177.654 86.8552 177.456 86.9245C177.016 87.0877 176.57 87.2311 176.12 87.3597C175.204 87.6218 174.273 87.8147 173.328 87.9482L174.258 87.8246C172.432 88.0669 170.595 88.0669 168.768 87.8246L169.699 87.9482C168.867 87.8295 168.041 87.6663 167.229 87.4487C166.853 87.3498 166.481 87.236 166.115 87.1124C165.749 86.9888 165.189 86.8849 164.877 86.6525C164.877 86.6525 165.754 87.0382 165.264 86.8157C165.189 86.7811 165.115 86.7514 165.041 86.7168C164.868 86.6376 164.694 86.5585 164.521 86.4744C164.13 86.2815 163.744 86.0788 163.368 85.8661C162.66 85.4606 161.991 85.0105 161.328 84.5308C160.868 84.1995 162.001 85.0748 161.462 84.6347C161.313 84.516 161.17 84.3973 161.026 84.2736C160.699 83.9967 160.378 83.7049 160.066 83.4032C159.486 82.8394 158.937 82.241 158.427 81.6129C158.363 81.5338 158.269 81.4448 158.224 81.3607C158.185 81.2915 158.739 82.0481 158.526 81.7464C158.417 81.5931 158.298 81.4448 158.189 81.2865C157.937 80.9354 157.699 80.5743 157.472 80.2034C157.046 79.511 156.66 78.789 156.318 78.0472C156.274 77.9482 156.229 77.8493 156.185 77.7504C155.987 77.3202 156.318 78.1016 156.348 78.1362C156.219 77.968 156.15 77.6416 156.081 77.4438C155.917 77.0036 155.774 76.5585 155.645 76.1085C155.383 75.1935 155.19 74.2638 155.056 73.3192L155.18 74.2489C154.937 72.424 154.937 70.5892 155.18 68.7643L155.056 69.6941C155.175 68.8632 155.338 68.0373 155.556 67.2262C155.655 66.8503 155.769 66.4794 155.892 66.1135C156.016 65.7475 156.12 65.1886 156.353 64.8771C156.353 64.8771 155.967 65.7524 156.19 65.2628C156.224 65.1886 156.254 65.1144 156.288 65.0403C156.368 64.8672 156.447 64.6941 156.531 64.521C156.724 64.1303 156.927 63.7445 157.14 63.3686C157.546 62.6614 157.996 61.9938 158.477 61.3311C158.808 60.8711 157.932 62.0037 158.373 61.4646C158.491 61.3162 158.61 61.1728 158.734 61.0294C159.011 60.703 159.303 60.3815 159.605 60.07C160.17 59.4913 160.769 58.9424 161.397 58.433C161.477 58.3687 161.566 58.2747 161.65 58.2302C161.719 58.1906 160.962 58.7445 161.264 58.5319C161.417 58.4231 161.566 58.3044 161.724 58.1956C162.075 57.9433 162.437 57.706 162.808 57.4785C163.501 57.0531 164.224 56.6674 164.967 56.3261C165.066 56.2816 165.165 56.2371 165.264 56.1926C165.694 55.9948 164.912 56.3261 164.877 56.3558C165.046 56.2272 165.372 56.158 165.57 56.0887C166.011 55.9255 166.457 55.7821 166.907 55.6535C167.823 55.3914 168.754 55.1986 169.699 55.065L168.768 55.1887C170.595 54.9463 172.432 54.9463 174.258 55.1887L173.328 55.065C174.159 55.1837 174.986 55.3469 175.798 55.5645C176.174 55.6634 176.545 55.7772 176.912 55.9008C177.278 56.0245 177.837 56.1283 178.149 56.3608C178.149 56.3608 177.273 55.975 177.763 56.1975C177.837 56.2322 177.912 56.2618 177.986 56.2965C178.159 56.3756 178.333 56.4547 178.506 56.5388C178.897 56.7317 179.283 56.9344 179.659 57.1471C180.367 57.5526 181.035 58.0027 181.699 58.4824C182.159 58.8138 181.026 57.9384 181.565 58.3786C181.714 58.4972 181.857 58.6159 182.001 58.7396C182.327 59.0165 182.649 59.3083 182.961 59.61C183.54 60.1738 184.09 60.7722 184.6 61.4003C184.664 61.4794 184.758 61.5685 184.803 61.6525C184.842 61.7218 184.288 60.9651 184.501 61.2668C184.61 61.4201 184.728 61.5685 184.837 61.7267C185.09 62.0779 185.327 62.4389 185.555 62.8098C185.981 63.5022 186.367 64.2242 186.709 64.9661C186.753 65.065 186.798 65.1639 186.842 65.2628C187.04 65.6931 186.709 64.9117 186.679 64.8771C186.808 65.0452 186.877 65.3716 186.946 65.5694C187.11 66.0096 187.253 66.4547 187.382 66.9047C187.644 67.8197 187.837 68.7495 187.971 69.6941L187.847 68.7643C187.966 69.6743 188.03 70.5892 188.035 71.5041C188.045 73.339 189.644 75.0946 191.545 75.0106C193.446 74.9265 195.06 73.4725 195.055 71.5041C195.035 66.7514 193.599 61.9245 190.807 58.0521C188.015 54.1797 184.05 51.0789 179.412 49.3628C170.442 46.0443 159.665 48.9473 153.586 56.3212C150.353 60.243 148.447 64.882 148.061 69.9512C147.7 74.6644 148.908 79.5605 151.353 83.601C153.744 87.5526 157.358 90.9057 161.59 92.7949C166.278 94.8918 171.323 95.5001 176.372 94.5011C185.58 92.6811 193.258 84.8028 194.693 75.5101C194.901 74.1797 195.05 72.8493 195.055 71.4992C195.065 69.6644 193.436 67.9087 191.545 67.9928C189.654 68.0768 188.045 69.5308 188.035 71.4992V71.5091Z" fill="white"/>
<path d="M69.7859 120.134C70.8651 119.056 71.9394 117.983 73.0185 116.905C75.6076 114.318 78.1966 111.732 80.7856 109.145C83.9192 106.015 87.0528 102.884 90.1864 99.7534C92.9091 97.0333 95.6318 94.3133 98.3545 91.5932C99.6713 90.2777 101.018 88.9918 102.305 87.6466C102.325 87.6268 102.345 87.607 102.359 87.5922C103.656 86.2965 103.755 83.9176 102.359 82.6367C100.963 81.3558 98.7852 81.252 97.3991 82.6367C96.3199 83.7149 95.2457 84.7881 94.1665 85.8662C91.5775 88.4527 88.9884 91.0393 86.3994 93.6258C83.2658 96.7564 80.1322 99.8869 76.9986 103.017C74.2759 105.738 71.5532 108.458 68.8305 111.178C67.5137 112.493 66.1672 113.779 64.8801 115.124C64.8603 115.144 64.8405 115.164 64.8256 115.179C63.5286 116.474 63.4296 118.853 64.8256 120.134C66.2217 121.415 68.3998 121.519 69.7859 120.134Z" fill="white"/>
<path d="M134.092 189.728C135.171 188.65 136.245 187.577 137.324 186.499C139.913 183.912 142.502 181.326 145.091 178.739C148.225 175.609 151.358 172.478 154.492 169.348C157.215 166.628 159.937 163.907 162.66 161.187C163.977 159.872 165.323 158.586 166.611 157.241C166.63 157.221 166.65 157.201 166.665 157.186C167.962 155.891 168.061 153.512 166.665 152.231C165.269 150.95 163.091 150.846 161.705 152.231C160.626 153.309 159.551 154.382 158.472 155.46C155.883 158.047 153.294 160.633 150.705 163.22C147.571 166.351 144.438 169.481 141.304 172.612C138.582 175.332 135.859 178.052 133.136 180.772C131.819 182.087 130.473 183.373 129.186 184.719C129.166 184.738 129.146 184.758 129.131 184.773C127.834 186.069 127.735 188.447 129.131 189.728C130.527 191.009 132.705 191.113 134.092 189.728Z" fill="white"/>
<path d="M89.4539 133.7C91.2806 131.875 93.1073 130.05 94.9389 128.22C97.8695 125.292 100.8 122.364 103.731 119.437C104.399 118.769 105.072 118.096 105.741 117.429C107.038 116.133 107.137 113.754 105.741 112.473C104.345 111.192 102.166 111.088 100.78 112.473C98.9536 114.298 97.127 116.123 95.2953 117.953C92.3647 120.881 89.4341 123.808 86.5035 126.736C85.8352 127.404 85.1619 128.076 84.4936 128.744C83.1966 130.04 83.0976 132.419 84.4936 133.7C85.8896 134.98 88.0678 135.084 89.4539 133.7Z" fill="white"/>
<path d="M124.087 165.98C125.913 164.155 127.74 162.33 129.572 160.5C132.502 157.572 135.433 154.645 138.364 151.717C139.032 151.049 139.705 150.377 140.373 149.709C141.67 148.413 141.769 146.034 140.373 144.753C138.977 143.473 136.799 143.369 135.413 144.753C133.586 146.578 131.76 148.403 129.928 150.233C126.998 153.161 124.067 156.089 121.136 159.016C120.468 159.684 119.795 160.357 119.126 161.024C117.829 162.32 117.73 164.699 119.126 165.98C120.522 167.261 122.701 167.365 124.087 165.98Z" fill="white"/>
</svg>
