<svg width="252" height="252" viewBox="0 0 252 252" fill="none" xmlns="http://www.w3.org/2000/svg">
<path d="M48.2966 114.018L48.2957 114.018C44.5685 110.308 44.5674 104.271 48.2966 100.542L89.8405 58.9975C107.681 41.1568 136.597 41.1568 154.437 58.9975L172.851 77.4115L173.157 77.7175L173.463 78.0235L191.877 96.4375C209.718 114.278 209.718 143.194 191.877 161.034L150.333 202.578L150.333 202.579C146.623 206.306 140.586 206.308 136.857 202.578L130.899 196.62L130.898 196.62C111.352 177.091 109.888 146.343 126.475 125.102L125.773 124.4C104.55 140.986 73.7838 139.506 54.2545 119.976L48.2966 114.018Z" fill="#252525" stroke="#242424"/>
</svg>
