<svg width="18" height="18" viewBox="0 0 18 18" fill="none" xmlns="http://www.w3.org/2000/svg">
<path id="Back" fill-rule="evenodd" clip-rule="evenodd" d="M9 0C4.02944 0 0 4.02944 0 9C0 13.9706 4.02944 18 9 18C13.9706 18 18 13.9706 18 9C18 4.02944 13.9706 0 9 0ZM5.29289 9.70711C5.10536 9.89464 5 10.149 5 10.4142V12.5C5 12.7761 5.22386 13 5.5 13H7.58579C7.851 13 8.10536 12.8946 8.29289 12.7071L12.2929 8.70711C12.6834 8.31658 12.6834 7.68342 12.2929 7.29289L10.7071 5.70711C10.3166 5.31658 9.68342 5.31658 9.29289 5.70711L5.29289 9.70711Z" fill="#242424"/>
</svg>
