<svg width="20" height="20" viewBox="0 0 20 20" fill="none" xmlns="http://www.w3.org/2000/svg">
<path fill-rule="evenodd" clip-rule="evenodd" d="M5.83333 2.5C3.99238 2.5 2.5 3.99238 2.5 5.83333V14.1667C2.5 16.0076 3.99238 17.5 5.83333 17.5H14.1667C16.0076 17.5 17.5 16.0076 17.5 14.1667V5.83333C17.5 3.99238 16.0076 2.5 14.1667 2.5H5.83333ZM10.1446 5.03444C10.1174 4.87108 9.8826 4.87108 9.85537 5.03444C9.44339 7.50634 7.50634 9.44339 5.03444 9.85537C4.87108 9.8826 4.87108 10.1174 5.03444 10.1446C7.50634 10.5566 9.44339 12.4937 9.85537 14.9656C9.8826 15.1289 10.1174 15.1289 10.1446 14.9656C10.5566 12.4937 12.4937 10.5566 14.9656 10.1446C15.1289 10.1174 15.1289 9.8826 14.9656 9.85537C12.4937 9.44339 10.5566 7.50634 10.1446 5.03444Z" fill="#F7F7F7"/>
</svg>
