<svg width="20" height="20" viewBox="0 0 20 20" fill="none" xmlns="http://www.w3.org/2000/svg">
<path fill-rule="evenodd" clip-rule="evenodd" d="M10 2.5C5.85786 2.5 2.5 5.85786 2.5 10C2.5 14.1421 5.85786 17.5 10 17.5C14.1421 17.5 17.5 14.1421 17.5 10C17.5 5.85786 14.1421 2.5 10 2.5ZM13.0893 8.92259C13.4147 8.59715 13.4147 8.06951 13.0893 7.74408C12.7638 7.41864 12.2362 7.41864 11.9107 7.74408L9.16667 10.4882L8.08926 9.41074C7.76382 9.08531 7.23618 9.08531 6.91074 9.41074C6.58531 9.73618 6.58531 10.2638 6.91074 10.5893L8.57741 12.2559C8.90285 12.5814 9.43049 12.5814 9.75592 12.2559L13.0893 8.92259Z" fill="#242424"/>
</svg>
