<svg width="252" height="252" viewBox="0 0 252 252" fill="none" xmlns="http://www.w3.org/2000/svg">
<path d="M189.893 124.962L189.174 125.681C188.84 125.999 188.503 126.312 188.164 126.62L187.794 126.957L188.131 127.327C204.007 144.752 203.509 171.772 186.671 188.61C169.832 205.449 142.848 205.929 125.422 190.106L125.07 189.785L124.733 190.122L124.708 190.147L124.7 190.155L124.697 190.158L124.697 190.158L124.697 190.158L125.05 190.512L124.697 190.158L124.697 190.159C107.36 207.513 79.2367 207.513 61.8818 190.158L61.8817 190.158C44.5344 172.829 44.527 144.721 61.8604 127.365L62.4443 127.073L61.8988 126.582C61.3631 126.1 60.8299 125.602 60.3159 125.088L60.3157 125.088C42.9613 107.752 42.961 79.6283 60.3159 62.2734L60.316 62.2732C77.6526 44.9188 105.776 44.9186 123.131 62.2734C123.667 62.8096 124.183 63.3433 124.679 63.893L125.049 64.3025L125.42 63.8942C125.957 63.3041 126.509 62.7162 127.078 62.1474L127.078 62.1472C144.415 44.7928 172.538 44.7926 189.893 62.1474L189.893 62.1476C207.247 79.4842 207.248 107.607 189.893 124.962Z" fill="#89E481" stroke="#242424"/>
</svg>
