<svg width="252" height="252" viewBox="0 0 252 252" fill="none" xmlns="http://www.w3.org/2000/svg">
<path d="M173.731 120.811C187.884 106.672 187.884 83.7489 173.731 69.6046C159.578 55.4651 136.633 55.4651 122.475 69.6046C122.01 70.0695 121.564 70.5442 121.128 71.0289C120.722 70.5789 120.302 70.1387 119.871 69.7084C105.718 55.569 82.7729 55.569 68.6148 69.7084C54.4617 83.8479 54.4617 106.771 68.6148 120.91C69.0356 121.33 69.4663 121.736 69.9019 122.132C69.892 122.142 69.8821 122.151 69.8673 122.161C55.7142 136.301 55.7142 159.224 69.8673 173.368C84.0204 187.507 106.965 187.507 121.123 173.368C121.133 173.358 121.143 173.348 121.153 173.333C135.376 186.241 157.39 185.836 171.122 172.112C184.869 158.378 185.26 136.36 172.305 122.151C172.79 121.716 173.266 121.271 173.726 120.806L173.731 120.811ZM121.217 119.491C121.242 119.515 121.267 119.545 121.292 119.57C120.807 120.005 120.331 120.45 119.871 120.915C119.861 120.925 119.851 120.935 119.841 120.95C119.851 120.94 119.861 120.93 119.876 120.92C120.341 120.455 120.787 119.98 121.222 119.496L121.217 119.491Z" fill="#242424"/>
<path d="M220.186 167.487C219.438 165.138 218.547 162.829 217.617 160.544C215.567 155.519 213.28 150.559 210.379 145.964C208.844 143.531 207.127 141.167 205.152 139.065C203.429 137.23 201.399 135.494 199.107 134.416C197.934 133.862 196.731 133.388 195.444 133.19C193.825 132.942 192.211 132.908 190.583 133.056C187.86 133.299 184.959 133.882 182.711 135.534C180.741 136.988 179.192 138.946 178.662 141.39C178.202 143.526 178.335 145.766 179.014 147.844C180.261 151.662 183.018 155.479 186.726 157.225C188.845 158.224 191.117 158.674 193.434 158.081C195.845 157.463 197.835 155.702 199.142 153.64C200.142 152.062 200.434 150.025 200.374 148.195C200.305 146.058 199.855 143.902 199.162 141.884C197.409 136.795 194.375 132.082 190.419 128.422C188.197 126.365 185.672 124.56 182.934 123.249C179.642 121.672 176.246 120.747 172.628 120.331C170.949 120.138 169.261 120.099 167.573 120.188C165.742 120.282 163.979 121.736 164.063 123.694C164.143 125.514 165.608 127.3 167.573 127.201C169.415 127.107 171.261 127.166 173.093 127.403L172.162 127.28C173.553 127.468 174.925 127.75 176.271 128.145C176.89 128.328 177.504 128.531 178.113 128.759C178.4 128.867 178.682 128.981 178.964 129.095C177.702 128.595 178.9 129.075 179.212 129.218C180.34 129.748 181.429 130.356 182.474 131.038C182.994 131.375 183.494 131.736 183.989 132.102C184.414 132.413 183.281 131.548 183.692 131.874C183.81 131.968 183.929 132.062 184.048 132.161C184.301 132.364 184.548 132.572 184.791 132.784C185.667 133.546 186.498 134.362 187.281 135.227C187.667 135.653 188.043 136.093 188.404 136.543C188.479 136.637 188.558 136.736 188.632 136.83C188.795 137.032 188.023 136.024 188.419 136.553C188.588 136.775 188.756 137.003 188.919 137.23C190.142 138.946 191.177 140.781 192.023 142.705C192.266 143.259 191.647 141.79 191.875 142.354C191.919 142.468 191.969 142.581 192.013 142.695C192.112 142.952 192.211 143.205 192.3 143.467C192.474 143.946 192.632 144.436 192.771 144.926C193.033 145.836 193.236 146.76 193.365 147.7L193.241 146.77C193.375 147.784 193.424 148.813 193.29 149.827L193.414 148.897C193.375 149.164 193.33 149.431 193.261 149.698C193.137 150.173 192.672 150.89 193.355 149.614C193.241 149.827 193.142 150.039 193.003 150.237C192.8 150.539 192.281 151.083 193.167 150.054C193.043 150.198 192.924 150.351 192.795 150.489C192.563 150.742 192.31 150.964 192.053 151.192C191.716 151.498 192.88 150.588 192.518 150.831C192.444 150.88 192.375 150.935 192.3 150.984C192.167 151.073 192.033 151.152 191.894 151.231C191.771 151.3 191.637 151.355 191.513 151.419C192.721 150.781 192.206 151.142 191.83 151.261C191.548 151.35 191.261 151.409 190.974 151.449L191.904 151.325C191.434 151.385 190.964 151.38 190.498 151.315L191.429 151.439C191.043 151.385 190.662 151.296 190.291 151.172C190.201 151.142 190.112 151.108 190.023 151.078C189.493 150.895 190.434 151.251 190.528 151.3C190.335 151.202 190.132 151.122 189.939 151.019C189.573 150.826 189.226 150.613 188.89 150.376C188.795 150.311 188.706 150.242 188.612 150.173C188.251 149.916 189.464 150.86 189.018 150.484C188.85 150.341 188.677 150.203 188.513 150.049C188.187 149.753 187.88 149.441 187.588 149.115C187.434 148.941 187.291 148.768 187.142 148.59C186.736 148.096 187.593 149.189 187.439 148.981C187.37 148.882 187.291 148.783 187.221 148.684C186.682 147.928 186.241 147.121 185.85 146.281C185.662 145.875 186.271 147.334 186.033 146.706C185.989 146.592 185.944 146.484 185.904 146.37C185.82 146.132 185.741 145.89 185.667 145.648C185.523 145.158 185.414 144.664 185.345 144.159L185.469 145.089C185.37 144.342 185.355 143.585 185.454 142.839L185.33 143.768C185.385 143.402 185.459 143.046 185.568 142.695C185.617 142.532 185.682 142.374 185.741 142.211C185.895 141.78 185.261 143.234 185.533 142.71C185.568 142.646 185.598 142.576 185.632 142.512C185.721 142.334 185.825 142.166 185.934 141.998C186.147 141.671 186.662 141.221 185.741 142.215C186.003 141.934 186.241 141.647 186.533 141.39C186.607 141.325 186.682 141.266 186.756 141.202C187.117 140.895 185.86 141.849 186.385 141.493C186.553 141.38 186.721 141.261 186.899 141.157C187.078 141.053 187.271 140.944 187.464 140.846C187.578 140.786 187.692 140.737 187.81 140.682C188.399 140.405 187.063 140.979 187.38 140.86C188.429 140.47 189.493 140.203 190.602 140.044L189.672 140.168C191.206 139.96 192.83 139.866 194.37 140.054L193.439 139.931C194.078 140.015 194.701 140.163 195.31 140.376C195.464 140.43 195.617 140.489 195.771 140.549C196.216 140.717 194.79 140.109 195.389 140.391C195.711 140.539 196.028 140.697 196.335 140.865C196.934 141.202 197.493 141.587 198.053 141.988C198.389 142.23 197.191 141.301 197.86 141.84C198.003 141.953 198.147 142.072 198.285 142.196C198.572 142.443 198.855 142.695 199.127 142.952C199.681 143.477 200.211 144.03 200.721 144.599C200.978 144.886 201.226 145.178 201.473 145.475C201.721 145.771 202.647 146.978 201.775 145.831C202.795 147.176 203.751 148.566 204.637 150.005C206.399 152.853 207.929 155.841 209.325 158.887C209.641 159.584 209.953 160.282 210.26 160.984C210.33 161.142 210.394 161.296 210.463 161.454C210.503 161.553 210.538 161.671 210.597 161.76C210.637 161.825 210.196 160.801 210.374 161.226C210.513 161.558 210.651 161.889 210.785 162.22C211.255 163.363 211.706 164.515 212.136 165.677C212.592 166.894 213.037 168.12 213.429 169.357C213.983 171.103 215.894 172.403 217.745 171.805C219.498 171.236 220.79 169.367 220.196 167.492L220.186 167.487Z" fill="white"/>
<path d="M110.292 109.13C109.96 109.461 109.574 109.778 109.257 110.119C109.871 109.441 109.688 109.793 109.396 109.971C109.297 110.03 109.198 110.084 109.094 110.139C108.767 110.292 108.891 110.248 109.465 109.995C109.079 110.074 108.718 110.228 108.326 110.287L109.257 110.163C108.807 110.218 108.371 110.218 107.921 110.163L108.851 110.287C108.574 110.248 108.302 110.188 108.029 110.109C107.921 110.074 107.817 110.03 107.708 110C108.609 110.262 108.307 110.277 108.079 110.144C107.95 110.07 107.188 109.555 107.703 109.956C108.218 110.356 107.633 109.877 107.515 109.763C107.371 109.624 107.232 109.481 107.094 109.342C106.312 108.561 105.525 107.775 104.742 106.993C102.832 105.084 100.916 103.17 99.005 101.261C98.802 101.059 98.599 100.861 98.401 100.658C98.3515 100.609 98.3069 100.564 98.2574 100.51C98.1832 100.431 98.1089 100.317 98.0248 100.243C98.6188 100.772 98.3762 100.717 98.1733 100.381C98.1139 100.282 98.0644 100.178 98.005 100.079C97.6782 99.5354 98.2575 100.861 98.0941 100.292C98 99.9657 97.9109 99.6492 97.8614 99.3129L97.9852 100.243C97.9307 99.7926 97.9307 99.3574 97.9852 98.9073L97.8614 99.8371C97.9109 99.5008 97.9951 99.1793 98.0941 98.8579C98.2723 98.2891 97.6832 99.6145 98.005 99.0705C98.0792 98.9469 98.1436 98.8183 98.2179 98.6947C98.6089 98.0715 97.8367 99.1051 98.0792 98.8381C98.1782 98.7293 98.2772 98.6155 98.3812 98.5067C98.5 98.3831 98.6238 98.2644 98.7426 98.1457C98.8465 98.0418 98.9455 97.938 99.0544 97.8341C99.1238 97.7698 99.198 97.7105 99.2673 97.6462C99.6733 97.2753 98.5198 98.1556 98.995 97.8589C99.0842 97.8044 99.8663 97.394 99.8614 97.3692C99.8713 97.478 98.9257 97.6907 99.7376 97.4682C99.9356 97.4138 100.139 97.3791 100.346 97.3445L99.4158 97.4682C99.8415 97.4138 100.257 97.4187 100.683 97.4682L99.7525 97.3445C100.074 97.3989 100.371 97.4879 100.683 97.5769C100.95 97.6561 101.094 97.8786 100.346 97.4335C100.445 97.4929 100.554 97.5374 100.658 97.5918C100.896 97.7204 101.114 97.8687 101.337 98.0122C101.549 98.1506 101.807 98.4375 100.96 97.7105C101.02 97.7599 101.094 97.8094 101.148 97.8638C101.277 97.9924 101.406 98.121 101.535 98.2495L103.886 100.599C105.812 102.523 107.737 104.446 109.663 106.37C109.861 106.568 110.064 106.766 110.262 106.969C110.312 107.018 110.361 107.068 110.411 107.122C110.49 107.211 110.564 107.305 110.643 107.389C109.995 106.707 110.331 106.979 110.495 107.251C110.554 107.349 110.604 107.453 110.663 107.552C110.99 108.096 110.411 106.771 110.574 107.34C110.668 107.666 110.757 107.982 110.807 108.319L110.683 107.389C110.737 107.839 110.737 108.274 110.683 108.724L110.807 107.795C110.772 108.017 110.732 108.235 110.673 108.452C110.643 108.561 110.609 108.665 110.574 108.774C110.406 109.318 110.901 108.126 110.698 108.487C110.584 108.685 110.46 108.883 110.351 109.085C110.168 109.427 110.851 108.512 110.584 108.798C110.48 108.907 110.386 109.021 110.282 109.13C109.005 110.45 108.871 112.79 110.282 114.085C111.693 115.381 113.881 115.495 115.242 114.085C118.495 110.717 118.514 105.406 115.242 102.043C114.41 101.187 113.549 100.351 112.703 99.5057C111.222 98.027 109.737 96.5433 108.257 95.0646C107.346 94.1546 106.475 93.1951 105.455 92.4039C103.579 90.9548 101.322 90.208 98.9456 90.5245C96.9902 90.7867 95.2526 91.7115 93.8566 93.1012C92.5744 94.3821 91.4655 95.8954 91.1289 97.7204C90.718 99.936 90.9903 102.305 92.2972 104.199C93.1635 105.455 94.307 106.479 95.3813 107.552C96.8713 109.041 98.3614 110.529 99.8515 112.018C100.747 112.913 101.629 113.818 102.535 114.699C104.069 116.192 105.96 116.993 108.074 117.181C110.376 117.389 112.628 116.439 114.341 114.956C114.658 114.684 114.945 114.372 115.237 114.08C116.534 112.785 116.633 110.406 115.237 109.125C113.841 107.844 111.663 107.74 110.277 109.125L110.292 109.13Z" fill="white"/>
<path d="M141.153 141.489C140.821 141.82 140.435 142.137 140.118 142.478C140.732 141.8 140.549 142.151 140.257 142.329C140.158 142.389 140.059 142.443 139.955 142.498C139.628 142.651 139.752 142.606 140.326 142.354C139.94 142.433 139.579 142.587 139.188 142.646L140.118 142.522C139.668 142.577 139.232 142.577 138.782 142.522L139.713 142.646C139.435 142.606 139.163 142.547 138.891 142.468C138.782 142.433 138.678 142.389 138.569 142.359C139.47 142.621 139.168 142.636 138.94 142.503C138.812 142.428 138.049 141.914 138.564 142.315C139.079 142.715 138.495 142.236 138.376 142.122C138.232 141.983 138.094 141.84 137.955 141.701L135.604 139.352C133.693 137.443 131.777 135.529 129.866 133.62C129.663 133.418 129.46 133.22 129.262 133.017C129.213 132.967 129.168 132.923 129.119 132.869C129.045 132.789 128.97 132.676 128.886 132.602C129.48 133.131 129.238 133.076 129.035 132.74C128.975 132.641 128.926 132.537 128.866 132.438C128.54 131.894 129.119 133.22 128.955 132.651C128.861 132.325 128.772 132.008 128.723 131.672L128.847 132.602C128.792 132.151 128.792 131.716 128.847 131.266L128.723 132.196C128.772 131.86 128.856 131.538 128.955 131.217C129.134 130.648 128.545 131.973 128.866 131.429C128.941 131.306 129.005 131.177 129.079 131.054C129.47 130.43 128.698 131.464 128.941 131.197C129.04 131.088 129.139 130.974 129.243 130.866C129.361 130.742 129.485 130.623 129.604 130.505C129.708 130.401 129.807 130.297 129.916 130.193C129.985 130.129 130.059 130.069 130.129 130.005C130.535 129.634 129.381 130.514 129.856 130.218C129.945 130.163 130.728 129.753 130.723 129.728C130.733 129.837 129.787 130.05 130.599 129.827C130.797 129.773 131 129.738 131.208 129.703L130.277 129.827C130.703 129.773 131.119 129.778 131.544 129.827L130.614 129.703C130.936 129.758 131.233 129.847 131.544 129.936C131.812 130.015 131.955 130.238 131.208 129.792C131.307 129.852 131.416 129.896 131.52 129.951C131.757 130.079 131.975 130.228 132.198 130.371C132.411 130.51 132.668 130.796 131.822 130.069C131.881 130.119 131.955 130.168 132.01 130.223C132.139 130.351 132.267 130.48 132.396 130.608L134.747 132.958C136.673 134.881 138.599 136.805 140.524 138.729C140.722 138.927 140.925 139.125 141.123 139.327C141.173 139.377 141.222 139.426 141.272 139.481C141.351 139.57 141.425 139.664 141.505 139.748C140.856 139.065 141.193 139.337 141.356 139.609C141.415 139.708 141.465 139.812 141.524 139.911C141.851 140.455 141.272 139.13 141.435 139.698C141.529 140.025 141.618 140.341 141.668 140.678L141.544 139.748C141.599 140.198 141.599 140.633 141.544 141.083L141.668 140.153C141.633 140.376 141.594 140.594 141.534 140.811C141.505 140.92 141.47 141.024 141.435 141.133C141.267 141.677 141.762 140.485 141.559 140.846C141.445 141.044 141.321 141.241 141.213 141.444C141.029 141.785 141.713 140.871 141.445 141.157C141.341 141.266 141.247 141.38 141.143 141.489C139.866 142.809 139.732 145.148 141.143 146.444C142.554 147.74 144.742 147.854 146.104 146.444C149.356 143.076 149.376 137.765 146.104 134.402C145.272 133.546 144.41 132.71 143.564 131.865C142.084 130.386 140.599 128.902 139.119 127.423C138.208 126.513 137.336 125.554 136.317 124.763C134.44 123.314 132.183 122.567 129.807 122.883C127.851 123.146 126.114 124.07 124.718 125.46C123.436 126.741 122.327 128.254 121.99 130.079C121.579 132.295 121.852 134.664 123.159 136.558C124.025 137.814 125.168 138.838 126.243 139.911C127.733 141.4 129.223 142.888 130.713 144.377C131.609 145.272 132.49 146.177 133.396 147.057C134.931 148.551 136.822 149.352 138.935 149.54C141.237 149.748 143.49 148.798 145.203 147.315C145.519 147.043 145.806 146.731 146.099 146.439C147.396 145.144 147.495 142.765 146.099 141.484C144.703 140.203 142.524 140.099 141.138 141.484L141.153 141.489Z" fill="white"/>
<path d="M124.287 114.085C125.505 115.302 126.782 116.291 128.445 116.835C130.608 117.542 132.995 117.206 134.994 116.187C136.43 115.455 137.564 114.125 138.692 113.002C141.148 110.549 143.613 108.116 146.054 105.648C148.811 102.859 149.519 98.2495 147.232 94.931C145.004 91.7015 140.95 89.4117 136.989 90.8212C135.024 91.5185 133.628 92.7104 132.207 94.1298C130.787 95.5492 129.341 96.9933 127.906 98.4275L124.51 101.82C122.158 104.169 121.034 107.77 122.317 110.955C122.797 112.147 123.386 113.146 124.287 114.08C125.564 115.401 127.98 115.46 129.247 114.08C130.514 112.7 130.608 110.534 129.247 109.125C129.163 109.041 129.084 108.952 129.005 108.863C128.658 108.492 129.252 109.12 129.227 109.155C129.237 109.14 128.856 108.521 128.836 108.487C128.638 108.151 129.099 109.229 128.99 108.853C128.96 108.744 128.915 108.64 128.886 108.531C128.816 108.289 128.767 108.042 128.727 107.794L128.851 108.724C128.797 108.274 128.797 107.839 128.851 107.389L128.727 108.319C128.767 108.042 128.826 107.77 128.906 107.498C128.94 107.389 128.985 107.285 129.014 107.176C128.752 108.076 128.737 107.775 128.871 107.547C128.945 107.424 129.009 107.295 129.084 107.171C129.272 106.87 129.475 106.86 128.891 107.384C129.024 107.265 129.128 107.107 129.252 106.983C129.391 106.84 129.534 106.701 129.673 106.563L132.064 104.174C133.98 102.26 135.891 100.351 137.806 98.4374C137.994 98.2495 138.173 98.0516 138.366 97.8785C138.43 97.8192 138.509 97.7747 138.569 97.7104C138.574 97.7055 137.772 98.2791 138.192 98.0121C138.326 97.928 138.45 97.839 138.583 97.7549C138.678 97.6956 138.777 97.6412 138.871 97.5868C138.975 97.5324 139.074 97.478 139.183 97.4285L138.673 97.6412C138.95 97.4532 139.455 97.3939 139.772 97.3444L138.841 97.4681C139.267 97.4137 139.683 97.4137 140.108 97.4681L139.178 97.3444C139.381 97.3791 139.583 97.4137 139.786 97.4681C140.158 97.567 140.385 97.8192 139.663 97.3692C139.92 97.5274 140.207 97.656 140.465 97.8142C141.049 98.1703 139.97 97.384 140.207 97.6016C140.281 97.6708 140.361 97.7302 140.43 97.7945C140.549 97.9033 140.663 98.022 140.781 98.1407C140.9 98.2594 141.019 98.3731 141.133 98.4918C141.217 98.5808 141.301 98.6748 141.385 98.7589C141.836 99.2188 140.955 98.0962 141.257 98.6105C141.346 98.7589 141.43 98.9072 141.514 99.0556C141.821 99.6046 141.262 98.2396 141.425 98.8429C141.514 99.1693 141.608 99.4859 141.658 99.8222L141.534 98.8924C141.588 99.3425 141.588 99.7776 141.534 100.228L141.658 99.2979C141.618 99.5749 141.559 99.8469 141.479 100.119C141.445 100.228 141.4 100.332 141.371 100.44C141.633 99.5403 141.648 99.8419 141.514 100.069C141.44 100.198 140.925 100.96 141.326 100.445C141.727 99.931 141.247 100.515 141.133 100.633C140.994 100.777 140.851 100.915 140.712 101.054L138.361 103.403L132.623 109.135C132.42 109.337 132.222 109.54 132.019 109.738C131.97 109.788 131.925 109.832 131.871 109.881C131.792 109.956 131.678 110.03 131.603 110.114C132.133 109.52 132.079 109.763 131.742 109.966C131.643 110.025 131.539 110.074 131.44 110.134C130.896 110.46 132.222 109.881 131.653 110.045C131.326 110.139 131.009 110.228 130.673 110.277L131.603 110.153C131.153 110.208 130.717 110.208 130.267 110.153L131.198 110.277C130.802 110.218 130.44 110.099 130.059 109.985C131.049 110.272 130.505 110.178 130.203 110.005C129.866 109.812 129.648 109.431 130.267 110.109C129.955 109.763 129.569 109.451 129.232 109.12C127.935 107.824 125.554 107.725 124.272 109.12C122.99 110.515 122.886 112.691 124.272 114.075L124.287 114.085Z" fill="white"/>
<path d="M93.4265 146.449C94.6443 147.666 95.9215 148.655 97.5848 149.199C99.7481 149.906 102.134 149.57 104.134 148.551C105.57 147.819 106.703 146.488 107.832 145.366C110.287 142.913 112.753 140.48 115.193 138.012C117.951 135.222 118.658 130.613 116.371 127.295C114.084 123.976 110.089 121.775 106.129 123.185C104.164 123.882 102.768 125.074 101.347 126.493L97.0452 130.791C95.9116 131.924 94.7828 133.051 93.6492 134.184C91.2978 136.533 90.1741 140.133 91.4562 143.318C91.9364 144.51 92.5255 145.509 93.4265 146.444C94.7037 147.764 97.1194 147.824 98.3867 146.444C99.654 145.064 99.7481 142.898 98.3867 141.488C98.3026 141.404 98.2234 141.315 98.1442 141.226C97.7977 140.855 98.3917 141.484 98.3669 141.518C98.3768 141.503 97.9957 140.885 97.9759 140.851C97.7779 140.514 98.2382 141.592 98.1293 141.216C98.0996 141.108 98.0551 141.004 98.0254 140.895C97.9561 140.653 97.9065 140.405 97.8669 140.158L97.9907 141.088C97.9362 140.638 97.9362 140.203 97.9907 139.753L97.8669 140.682C97.9065 140.405 97.9659 140.133 98.0451 139.861C98.0798 139.753 98.1244 139.649 98.1541 139.54C97.8917 140.44 97.8769 140.138 98.0105 139.911C98.0848 139.787 98.1491 139.659 98.2234 139.535C98.4115 139.233 98.6145 139.223 98.0303 139.748C98.164 139.629 98.2679 139.471 98.3917 139.347C98.5303 139.204 98.6739 139.065 98.8125 138.927L101.203 136.538C103.119 134.624 105.03 132.715 106.946 130.801C107.134 130.613 107.312 130.415 107.505 130.242C107.57 130.183 107.649 130.138 107.708 130.074C107.713 130.069 106.911 130.643 107.332 130.376C107.466 130.292 107.589 130.203 107.723 130.119C107.817 130.059 107.916 130.005 108.01 129.95C108.114 129.896 108.213 129.842 108.322 129.792L107.812 130.005C108.089 129.817 108.594 129.758 108.911 129.708L107.981 129.832C108.406 129.777 108.822 129.777 109.248 129.832L108.317 129.708C108.52 129.743 108.723 129.777 108.926 129.832C109.297 129.931 109.525 130.183 108.802 129.733C109.06 129.891 109.347 130.02 109.604 130.178C110.188 130.534 109.109 129.748 109.347 129.965C109.421 130.035 109.5 130.094 109.57 130.158C109.688 130.267 109.802 130.386 109.921 130.504C110.04 130.623 110.159 130.737 110.273 130.855C110.357 130.944 110.441 131.038 110.525 131.123C110.976 131.582 110.094 130.46 110.396 130.974C110.485 131.123 110.57 131.271 110.654 131.419C110.961 131.968 110.401 130.603 110.565 131.207C110.654 131.533 110.748 131.85 110.797 132.186L110.674 131.256C110.728 131.706 110.728 132.141 110.674 132.591L110.797 131.662C110.758 131.939 110.698 132.211 110.619 132.483C110.584 132.591 110.54 132.695 110.51 132.804C110.773 131.904 110.787 132.206 110.654 132.433C110.58 132.562 110.065 133.323 110.466 132.809C110.867 132.295 110.386 132.878 110.273 132.997C110.134 133.14 109.99 133.279 109.852 133.417C109.07 134.199 108.283 134.985 107.5 135.766C105.59 137.675 103.674 139.589 101.763 141.498C101.56 141.701 101.362 141.904 101.159 142.102C101.109 142.151 101.065 142.196 101.01 142.245C100.931 142.319 100.817 142.394 100.743 142.478C101.273 141.884 101.218 142.126 100.882 142.329C100.783 142.389 100.679 142.438 100.58 142.497C100.035 142.824 101.362 142.245 100.793 142.408C100.466 142.502 100.149 142.591 99.8125 142.641L100.743 142.517C100.293 142.572 99.857 142.572 99.4065 142.517L100.337 142.641C99.9411 142.581 99.5798 142.463 99.1986 142.349C100.189 142.636 99.6441 142.542 99.3421 142.369C99.0055 142.176 98.7877 141.795 99.4065 142.473C99.0946 142.126 98.7085 141.815 98.3719 141.484C97.0749 140.188 94.6937 140.089 93.4116 141.484C92.1295 142.878 92.0255 145.054 93.4116 146.439L93.4265 146.449Z" fill="white"/>
</svg>
