<svg width="140" height="140" viewBox="0 0 140 140" fill="none" xmlns="http://www.w3.org/2000/svg">
<path fill-rule="evenodd" clip-rule="evenodd" d="M55.5395 27L40.4136 27C38.8211 27 37.5301 28.291 37.5301 29.8835V33.4756C37.5301 35.068 38.8211 36.359 40.4136 36.359H55.5395C57.132 36.359 58.423 35.068 58.423 33.4756V29.8835C58.423 28.291 57.132 27 55.5395 27ZM52.2165 49.334H55.8086C57.4011 49.334 58.6921 50.625 58.6921 52.2175V55.8096C58.6921 57.4021 57.4011 58.6931 55.8086 58.6931H52.2165C50.624 58.6931 49.3331 57.4021 49.3331 55.8096V52.2175C49.3331 50.625 50.624 49.334 52.2165 49.334ZM64.9 58.706H61.3079C59.7154 58.706 58.4244 59.997 58.4244 61.5895V65.1816C58.4244 66.7741 59.7154 68.065 61.3079 68.065H64.9C66.4925 68.065 67.7834 66.7741 67.7834 65.1816V61.5895C67.7834 59.997 66.4925 58.706 64.9 58.706ZM40.6962 59.0598H44.2883C45.8808 59.0598 47.1718 60.3507 47.1718 61.9432L47.1718 77.0692C47.1718 78.6616 45.8808 79.9526 44.2883 79.9526H40.6962C39.1037 79.9526 37.8128 78.6616 37.8128 77.0692L37.8128 61.9432C37.8128 60.3507 39.1037 59.0598 40.6962 59.0598ZM94.7244 59.0598H98.3165C99.909 59.0598 101.2 60.3507 101.2 61.9432V77.0692C101.2 78.6616 99.909 79.9526 98.3165 79.9526H94.7244C93.1319 79.9526 91.841 78.6616 91.841 77.0692V61.9432C91.841 60.3507 93.1319 59.0598 94.7244 59.0598ZM77.4243 70.9487H73.8322C72.2397 70.9487 70.9487 72.2397 70.9487 73.8321V77.4242C70.9487 79.0167 72.2397 80.3077 73.8322 80.3077H77.4243C79.0167 80.3077 80.3077 79.0167 80.3077 77.4242V73.8321C80.3077 72.2397 79.0167 70.9487 77.4243 70.9487ZM83.1903 80.3068H86.7824C88.3749 80.3068 89.6658 81.5978 89.6658 83.1903V86.7824C89.6658 88.3749 88.3749 89.6658 86.7824 89.6658H83.1903C81.5978 89.6658 80.3068 88.3749 80.3068 86.7824V83.1903C80.3068 81.5978 81.5978 80.3068 83.1903 80.3068ZM77.4243 58.706H73.8322C72.2397 58.706 70.9487 59.997 70.9487 61.5895V65.1816C70.9487 66.7741 72.2397 68.065 73.8322 68.065H77.4243C79.0167 68.065 80.3077 66.7741 80.3077 65.1816V61.5895C80.3077 59.997 79.0167 58.706 77.4243 58.706ZM83.1903 49.334H86.7824C88.3749 49.334 89.6658 50.625 89.6658 52.2175V55.8096C89.6658 57.4021 88.3749 58.6931 86.7824 58.6931H83.1903C81.5978 58.6931 80.3068 57.4021 80.3068 55.8096V52.2175C80.3068 50.625 81.5978 49.334 83.1903 49.334ZM64.9 70.9487H61.3079C59.7154 70.9487 58.4244 72.2397 58.4244 73.8321V77.4242C58.4244 79.0167 59.7154 80.3077 61.3079 80.3077H64.9C66.4925 80.3077 67.7834 79.0167 67.7834 77.4242V73.8321C67.7834 72.2397 66.4925 70.9487 64.9 70.9487ZM52.2165 80.3068H55.8086C57.4011 80.3068 58.6921 81.5978 58.6921 83.1903V86.7824C58.6921 88.3749 57.4011 89.6658 55.8086 89.6658H52.2165C50.624 89.6658 49.3331 88.3749 49.3331 86.7824V83.1903C49.3331 81.5978 50.624 80.3068 52.2165 80.3068ZM83.5559 27H98.6819C100.274 27 101.565 28.291 101.565 29.8835V33.4756C101.565 35.068 100.274 36.359 98.6819 36.359H83.5559C81.9634 36.359 80.6725 35.068 80.6725 33.4756V29.8835C80.6725 28.291 81.9634 27 83.5559 27ZM55.4545 102.642H40.3286C38.7361 102.642 37.4451 103.933 37.4451 105.525L37.4451 109.117C37.4451 110.71 38.7361 112.001 40.3286 112.001H55.4545C57.047 112.001 58.3379 110.71 58.3379 109.117V105.525C58.3379 103.933 57.047 102.642 55.4545 102.642ZM83.5559 102.642L98.6819 102.642C100.274 102.642 101.565 103.933 101.565 105.525V109.117C101.565 110.71 100.274 112.001 98.6819 112.001L83.5559 112.001C81.9634 112.001 80.6725 110.71 80.6725 109.117V105.525C80.6725 103.933 81.9634 102.642 83.5559 102.642ZM33.4756 37.2999H29.8835C28.291 37.2999 27 38.5909 27 40.1833L27 55.3093C27 56.9018 28.291 58.1927 29.8835 58.1927H33.4756C35.0681 58.1927 36.359 56.9018 36.359 55.3093V40.1833C36.359 38.5909 35.0681 37.2999 33.4756 37.2999ZM105.525 37.4461L109.117 37.4461C110.71 37.4461 112.001 38.7371 112.001 40.3296V55.4555C112.001 57.048 110.71 58.339 109.117 58.339H105.525C103.933 58.339 102.642 57.048 102.642 55.4555V40.3296C102.642 38.7371 103.933 37.4461 105.525 37.4461ZM77.0682 37.8128L61.9422 37.8128C60.3498 37.8128 59.0588 39.1037 59.0588 40.6962V44.2883C59.0588 45.8808 60.3498 47.1718 61.9422 47.1718L77.0682 47.1718C78.6607 47.1718 79.9516 45.8808 79.9516 44.2883V40.6962C79.9516 39.1037 78.6607 37.8128 77.0682 37.8128ZM61.9422 91.841H77.0682C78.6607 91.841 79.9516 93.1319 79.9516 94.7244V98.3165C79.9516 99.909 78.6607 101.2 77.0682 101.2H61.9422C60.3498 101.2 59.0588 99.909 59.0588 98.3165V94.7244C59.0588 93.1319 60.3498 91.841 61.9422 91.841ZM33.4756 80.6003H29.8835C28.291 80.6003 27 81.8913 27 83.4838V98.6097C27 100.202 28.291 101.493 29.8835 101.493H33.4756C35.0681 101.493 36.359 100.202 36.359 98.6097V83.4838C36.359 81.8913 35.0681 80.6003 33.4756 80.6003ZM105.525 80.6003H109.117C110.71 80.6003 112.001 81.8913 112.001 83.4838L112.001 98.6097C112.001 100.202 110.71 101.493 109.117 101.493H105.525C103.933 101.493 102.642 100.202 102.642 98.6097L102.642 83.4838C102.642 81.8913 103.933 80.6003 105.525 80.6003Z" fill="#3D3D3D"/>
</svg>
