<svg width="60" height="60" viewBox="0 0 60 60" fill="none" xmlns="http://www.w3.org/2000/svg">
<path fill-rule="evenodd" clip-rule="evenodd" d="M25.0111 15H19.7054C19.1468 15 18.6939 15.4528 18.6939 16.0114V17.2714C18.6939 17.83 19.1468 18.2829 19.7054 18.2829H25.0111C25.5697 18.2829 26.0225 17.83 26.0225 17.2714V16.0114C26.0225 15.4528 25.5697 15 25.0111 15ZM23.8454 22.8343H25.1054C25.664 22.8343 26.1168 23.2871 26.1168 23.8457V25.1057C26.1168 25.6643 25.664 26.1171 25.1054 26.1171H23.8454C23.2868 26.1171 22.834 25.6643 22.834 25.1057V23.8457C22.834 23.2871 23.2868 22.8343 23.8454 22.8343ZM28.2942 26.1214H27.0342C26.4756 26.1214 26.0227 26.5743 26.0227 27.1329V28.3929C26.0227 28.9515 26.4756 29.4043 27.0342 29.4043H28.2942C28.8528 29.4043 29.3056 28.9515 29.3056 28.3929V27.1329C29.3056 26.5743 28.8528 26.1214 28.2942 26.1214ZM19.8041 26.2457H21.0641C21.6227 26.2457 22.0755 26.6985 22.0755 27.2571V32.5628C22.0755 33.1214 21.6227 33.5743 21.0641 33.5743H19.8041C19.2455 33.5743 18.7927 33.1214 18.7927 32.5628V27.2571C18.7927 26.6985 19.2455 26.2457 19.8041 26.2457ZM38.7554 26.2457H40.0154C40.574 26.2457 41.0269 26.6985 41.0269 27.2571V32.5628C41.0269 33.1214 40.574 33.5743 40.0154 33.5743H38.7554C38.1968 33.5743 37.744 33.1214 37.744 32.5628V27.2571C37.744 26.6985 38.1968 26.2457 38.7554 26.2457ZM32.687 30.4157H31.427C30.8684 30.4157 30.4156 30.8685 30.4156 31.4271V32.6871C30.4156 33.2457 30.8684 33.6986 31.427 33.6986H32.687C33.2456 33.6986 33.6985 33.2457 33.6985 32.6871V31.4271C33.6985 30.8685 33.2456 30.4157 32.687 30.4157ZM34.71 33.6986H35.9699C36.5285 33.6986 36.9814 34.1514 36.9814 34.71V35.97C36.9814 36.5286 36.5285 36.9814 35.9699 36.9814H34.71C34.1514 36.9814 33.6985 36.5286 33.6985 35.97V34.71C33.6985 34.1514 34.1514 33.6986 34.71 33.6986ZM32.687 26.1214H31.427C30.8684 26.1214 30.4156 26.5743 30.4156 27.1329V28.3929C30.4156 28.9515 30.8684 29.4043 31.427 29.4043H32.687C33.2456 29.4043 33.6985 28.9515 33.6985 28.3929V27.1329C33.6985 26.5743 33.2456 26.1214 32.687 26.1214ZM34.71 22.8343H35.9699C36.5285 22.8343 36.9814 23.2871 36.9814 23.8457V25.1057C36.9814 25.6643 36.5285 26.1171 35.9699 26.1171H34.71C34.1514 26.1171 33.6985 25.6643 33.6985 25.1057V23.8457C33.6985 23.2871 34.1514 22.8343 34.71 22.8343ZM28.2942 30.4157H27.0342C26.4756 30.4157 26.0227 30.8685 26.0227 31.4271V32.6871C26.0227 33.2457 26.4756 33.6986 27.0342 33.6986H28.2942C28.8528 33.6986 29.3056 33.2457 29.3056 32.6871V31.4271C29.3056 30.8685 28.8528 30.4157 28.2942 30.4157ZM23.8454 33.6986H25.1054C25.664 33.6986 26.1168 34.1514 26.1168 34.71V35.97C26.1168 36.5286 25.664 36.9814 25.1054 36.9814H23.8454C23.2868 36.9814 22.834 36.5286 22.834 35.97V34.71C22.834 34.1514 23.2868 33.6986 23.8454 33.6986ZM34.8384 15H40.1442C40.7028 15 41.1556 15.4528 41.1556 16.0114V17.2714C41.1556 17.83 40.7028 18.2829 40.1442 18.2829H34.8384C34.2798 18.2829 33.827 17.83 33.827 17.2714V16.0114C33.827 15.4528 34.2798 15 34.8384 15ZM24.9813 41.5328H19.6756C19.117 41.5328 18.6642 41.9857 18.6642 42.5443V43.8043C18.6642 44.3629 19.117 44.8157 19.6756 44.8157H24.9813C25.5399 44.8157 25.9928 44.3629 25.9928 43.8043V42.5443C25.9928 41.9857 25.5399 41.5328 24.9813 41.5328ZM34.8384 41.5328H40.1442C40.7028 41.5328 41.1556 41.9857 41.1556 42.5443V43.8043C41.1556 44.3629 40.7028 44.8157 40.1442 44.8157H34.8384C34.2798 44.8157 33.827 44.3629 33.827 43.8043V42.5443C33.827 41.9857 34.2798 41.5328 34.8384 41.5328ZM17.2714 18.6129H16.0114C15.4528 18.6129 15 19.0657 15 19.6243V24.93C15 25.4886 15.4528 25.9414 16.0114 25.9414H17.2714C17.83 25.9414 18.2829 25.4886 18.2829 24.93V19.6243C18.2829 19.0657 17.83 18.6129 17.2714 18.6129ZM42.5439 18.6643H43.8039C44.3625 18.6643 44.8154 19.1171 44.8154 19.6757V24.9814C44.8154 25.54 44.3625 25.9928 43.8039 25.9928H42.5439C41.9853 25.9928 41.5325 25.54 41.5325 24.9814V19.6757C41.5325 19.1171 41.9853 18.6643 42.5439 18.6643ZM32.5625 18.7928H27.2568C26.6982 18.7928 26.2454 19.2457 26.2454 19.8043V21.0643C26.2454 21.6229 26.6982 22.0757 27.2568 22.0757H32.5625C33.1211 22.0757 33.574 21.6229 33.574 21.0643V19.8043C33.574 19.2457 33.1211 18.7928 32.5625 18.7928ZM27.2568 37.7443H32.5625C33.1211 37.7443 33.574 38.1971 33.574 38.7557V40.0157C33.574 40.5743 33.1211 41.0271 32.5625 41.0271H27.2568C26.6982 41.0271 26.2454 40.5743 26.2454 40.0157V38.7557C26.2454 38.1971 26.6982 37.7443 27.2568 37.7443ZM17.2714 33.8014H16.0114C15.4528 33.8014 15 34.2543 15 34.8129V40.1186C15 40.6772 15.4528 41.13 16.0114 41.13H17.2714C17.83 41.13 18.2829 40.6772 18.2829 40.1186V34.8129C18.2829 34.2543 17.83 33.8014 17.2714 33.8014ZM42.5439 33.8014H43.8039C44.3625 33.8014 44.8154 34.2543 44.8154 34.8129V40.1186C44.8154 40.6772 44.3625 41.13 43.8039 41.13H42.5439C41.9853 41.13 41.5325 40.6772 41.5325 40.1186V34.8129C41.5325 34.2543 41.9853 33.8014 42.5439 33.8014Z" fill="#89E481"/>
</svg>
