<svg width="252" height="252" viewBox="0 0 252 252" fill="none" xmlns="http://www.w3.org/2000/svg">
<path d="M189.893 124.963L189.174 125.681C188.84 125.999 188.503 126.312 188.164 126.62L187.794 126.957L188.131 127.327C204.007 144.752 203.509 171.772 186.671 188.611C169.832 205.449 142.848 205.93 125.422 190.106L125.07 189.786L124.733 190.123L124.708 190.147L124.7 190.156L124.697 190.158L124.697 190.158L124.697 190.159L125.05 190.512L124.697 190.159L124.697 190.159C107.36 207.513 79.2367 207.513 61.8818 190.159L61.8817 190.158C44.5344 172.829 44.527 144.722 61.8604 127.365L62.4443 127.073L61.8988 126.582C61.3631 126.1 60.8299 125.603 60.3159 125.089L60.3157 125.088C42.9613 107.752 42.961 79.6285 60.3159 62.2737L60.316 62.2735C77.6526 44.9191 105.776 44.9188 123.131 62.2737C123.667 62.8099 124.183 63.3435 124.679 63.8933L125.049 64.3027L125.42 63.8945C125.957 63.3044 126.509 62.7164 127.078 62.1476L127.078 62.1475C144.415 44.7931 172.538 44.7928 189.893 62.1476L189.893 62.1478C207.247 79.4844 207.248 107.608 189.893 124.963Z" fill="#252525" stroke="#242424"/>
</svg>
