<svg width="104" height="104" viewBox="0 0 104 104" fill="none" xmlns="http://www.w3.org/2000/svg">
<path d="M95.2591 51.4386C106.914 39.6663 106.914 20.5893 95.2591 8.82916C83.6046 -2.94305 64.7184 -2.94305 53.0758 8.82916C52.6933 9.21553 52.3228 9.61399 51.9642 10.0124C51.6295 9.63814 51.2828 9.27591 50.9242 8.91369C39.2697 -2.85853 20.3834 -2.85853 8.74088 8.91369C-2.91363 20.6859 -2.91363 39.7629 8.74088 51.5231C9.08753 51.8732 9.44611 52.2113 9.80471 52.5373C9.80471 52.5373 9.78081 52.5494 9.78081 52.5614C-1.87369 64.3337 -1.87369 83.4107 9.78081 95.1708C21.4353 106.943 40.3216 106.943 51.9642 95.1708C51.9642 95.1708 51.9761 95.1588 51.9881 95.1467C63.6904 105.881 81.8116 105.555 93.1195 94.1325C104.427 82.7104 104.762 64.382 94.0997 52.5614C94.4941 52.1992 94.8886 51.8249 95.2711 51.4386H95.2591Z" fill="#3D3D3D"/>
</svg>
