<svg width="200" height="200" viewBox="0 0 200 200" fill="none" xmlns="http://www.w3.org/2000/svg">
<path d="M161.799 99.1975C178.448 82.3801 178.448 55.1272 161.799 38.327C145.149 21.5095 118.169 21.5095 101.537 38.327C100.99 38.8789 100.461 39.4481 99.9488 40.0173C99.4707 39.4826 98.9754 38.9652 98.4631 38.4477C81.8138 21.6303 54.8335 21.6303 38.2013 38.4477C21.552 55.2652 21.552 82.5181 38.2013 99.3183C38.6965 99.8185 39.2087 100.301 39.721 100.767C39.721 100.767 39.6869 100.784 39.6869 100.802C23.0376 117.619 23.0376 144.872 39.6869 161.672C56.3362 178.49 83.3166 178.49 99.9488 161.672C99.9488 161.672 99.9659 161.655 99.9829 161.638C116.701 176.972 142.588 176.506 158.742 160.189C174.896 143.872 175.374 117.688 160.142 100.802C160.706 100.284 161.269 99.7495 161.816 99.1975H161.799Z" fill="#89E481"/>
</svg>
