<svg width="32" height="32" viewBox="0 0 32 32" fill="none" xmlns="http://www.w3.org/2000/svg">
<path fill-rule="evenodd" clip-rule="evenodd" d="M12.6952 6.17188H9.23784C8.87384 6.17188 8.57876 6.46695 8.57876 6.83095V7.652C8.57876 8.016 8.87384 8.31108 9.23784 8.31108H12.6952C13.0592 8.31108 13.3543 8.016 13.3543 7.652V6.83095C13.3543 6.46695 13.0592 6.17188 12.6952 6.17188ZM11.9357 11.2768H12.7567C13.1207 11.2768 13.4158 11.5719 13.4158 11.9359V12.7569C13.4158 13.1209 13.1207 13.416 12.7567 13.416H11.9357C11.5717 13.416 11.2766 13.1209 11.2766 12.7569V11.9359C11.2766 11.5719 11.5717 11.2768 11.9357 11.2768ZM14.8347 13.419H14.0137C13.6497 13.419 13.3546 13.714 13.3546 14.078V14.8991C13.3546 15.2631 13.6497 15.5582 14.0137 15.5582H14.8347C15.1987 15.5582 15.4938 15.2631 15.4938 14.8991V14.078C15.4938 13.714 15.1987 13.419 14.8347 13.419ZM9.30243 13.4998H10.1235C10.4875 13.4998 10.7826 13.7949 10.7826 14.1589V17.6163C10.7826 17.9802 10.4875 18.2753 10.1235 18.2753H9.30243C8.93844 18.2753 8.64336 17.9802 8.64336 17.6163V14.1589C8.64336 13.7949 8.93844 13.4998 9.30243 13.4998ZM21.6517 13.4998H22.4728C22.8368 13.4998 23.1319 13.7949 23.1319 14.1589V17.6163C23.1319 17.9802 22.8368 18.2753 22.4728 18.2753H21.6517C21.2877 18.2753 20.9927 17.9802 20.9927 17.6163V14.1589C20.9927 13.7949 21.2877 13.4998 21.6517 13.4998ZM17.6974 16.2173H16.8764C16.5124 16.2173 16.2173 16.5124 16.2173 16.8764V17.6974C16.2173 18.0614 16.5124 18.3565 16.8764 18.3565H17.6974C18.0614 18.3565 18.3565 18.0614 18.3565 17.6974V16.8764C18.3565 16.5124 18.0614 16.2173 17.6974 16.2173ZM19.0154 18.3563H19.8364C20.2004 18.3563 20.4955 18.6514 20.4955 19.0154V19.8364C20.4955 20.2004 20.2004 20.4955 19.8364 20.4955H19.0154C18.6514 20.4955 18.3563 20.2004 18.3563 19.8364V19.0154C18.3563 18.6514 18.6514 18.3563 19.0154 18.3563ZM17.6974 13.419H16.8764C16.5124 13.419 16.2173 13.714 16.2173 14.078V14.8991C16.2173 15.2631 16.5124 15.5582 16.8764 15.5582H17.6974C18.0614 15.5582 18.3565 15.2631 18.3565 14.8991V14.078C18.3565 13.714 18.0614 13.419 17.6974 13.419ZM19.0154 11.2768H19.8364C20.2004 11.2768 20.4955 11.5719 20.4955 11.9359V12.7569C20.4955 13.1209 20.2004 13.416 19.8364 13.416H19.0154C18.6514 13.416 18.3563 13.1209 18.3563 12.7569V11.9359C18.3563 11.5719 18.6514 11.2768 19.0154 11.2768ZM14.8347 16.2173H14.0137C13.6497 16.2173 13.3546 16.5124 13.3546 16.8764V17.6974C13.3546 18.0614 13.6497 18.3565 14.0137 18.3565H14.8347C15.1987 18.3565 15.4938 18.0614 15.4938 17.6974V16.8764C15.4938 16.5124 15.1987 16.2173 14.8347 16.2173ZM11.9357 18.3563H12.7567C13.1207 18.3563 13.4158 18.6514 13.4158 19.0154V19.8364C13.4158 20.2004 13.1207 20.4955 12.7567 20.4955H11.9357C11.5717 20.4955 11.2766 20.2004 11.2766 19.8364V19.0154C11.2766 18.6514 11.5717 18.3563 11.9357 18.3563ZM19.0989 6.17188H22.5563C22.9203 6.17188 23.2154 6.46695 23.2154 6.83095V7.652C23.2154 8.016 22.9203 8.31108 22.5563 8.31108H19.0989C18.7349 8.31108 18.4399 8.016 18.4399 7.652V6.83095C18.4399 6.46695 18.7349 6.17188 19.0989 6.17188ZM12.6758 23.4614H9.21841C8.85441 23.4614 8.55934 23.7565 8.55934 24.1205V24.9416C8.55934 25.3056 8.85441 25.6006 9.21841 25.6006H12.6758C13.0398 25.6006 13.3348 25.3056 13.3348 24.9416V24.1205C13.3348 23.7565 13.0398 23.4614 12.6758 23.4614ZM19.0989 23.4614H22.5563C22.9203 23.4614 23.2154 23.7565 23.2154 24.1205V24.9416C23.2154 25.3056 22.9203 25.6006 22.5563 25.6006H19.0989C18.7349 25.6006 18.4399 25.3056 18.4399 24.9416V24.1205C18.4399 23.7565 18.7349 23.4614 19.0989 23.4614ZM7.65201 8.52613H6.83096C6.46696 8.52613 6.17188 8.82121 6.17188 9.18521V12.6426C6.17188 13.0066 6.46696 13.3016 6.83096 13.3016H7.65201C8.016 13.3016 8.31108 13.0066 8.31108 12.6426V9.18521C8.31108 8.82121 8.016 8.52613 7.65201 8.52613ZM24.1205 8.55956H24.9416C25.3056 8.55956 25.6006 8.85464 25.6006 9.21864V12.676C25.6006 13.04 25.3056 13.3351 24.9416 13.3351H24.1205C23.7565 13.3351 23.4614 13.04 23.4614 12.676V9.21864C23.4614 8.85464 23.7565 8.55956 24.1205 8.55956ZM17.616 8.64336H14.1587C13.7947 8.64336 13.4996 8.93844 13.4996 9.30244V10.1235C13.4996 10.4875 13.7947 10.7826 14.1587 10.7826H17.616C17.98 10.7826 18.2751 10.4875 18.2751 10.1235V9.30244C18.2751 8.93844 17.98 8.64336 17.616 8.64336ZM14.1587 20.9927H17.616C17.98 20.9927 18.2751 21.2877 18.2751 21.6517V22.4728C18.2751 22.8368 17.98 23.1319 17.616 23.1319H14.1587C13.7947 23.1319 13.4996 22.8368 13.4996 22.4728V21.6517C13.4996 21.2877 13.7947 20.9927 14.1587 20.9927ZM7.65201 18.4234H6.83096C6.46696 18.4234 6.17188 18.7185 6.17188 19.0825V22.5398C6.17188 22.9038 6.46696 23.1989 6.83096 23.1989H7.65201C8.016 23.1989 8.31108 22.9038 8.31108 22.5398V19.0825C8.31108 18.7185 8.016 18.4234 7.65201 18.4234ZM24.1205 18.4234H24.9416C25.3056 18.4234 25.6006 18.7185 25.6006 19.0825V22.5398C25.6006 22.9038 25.3056 23.1989 24.9416 23.1989H24.1205C23.7565 23.1989 23.4614 22.9038 23.4614 22.5398V19.0825C23.4614 18.7185 23.7565 18.4234 24.1205 18.4234Z" fill="#89E481"/>
</svg>
