<svg width="20" height="20" viewBox="0 0 20 20" fill="none" xmlns="http://www.w3.org/2000/svg">
<g id="Frame /  Crop">
<path id="Back" fill-rule="evenodd" clip-rule="evenodd" d="M6.66667 3.33333C6.66667 2.8731 6.29357 2.5 5.83333 2.5C5.3731 2.5 5 2.8731 5 3.33333V5L3.33333 5C2.8731 5 2.5 5.3731 2.5 5.83333C2.5 6.29357 2.8731 6.66667 3.33333 6.66667H5V10.8333C5 13.1345 6.86548 15 9.16667 15H13.3333V16.6667C13.3333 17.1269 13.7064 17.5 14.1667 17.5C14.6269 17.5 15 17.1269 15 16.6667V15H16.6667C17.1269 15 17.5 14.6269 17.5 14.1667C17.5 13.7064 17.1269 13.3333 16.6667 13.3333H15L15 9.16667C15 6.86548 13.1345 5 10.8333 5L6.66667 5V3.33333ZM6.66667 6.66667V10.8333C6.66667 12.214 7.78595 13.3333 9.16667 13.3333H13.3333L13.3333 9.16667C13.3333 7.78595 12.214 6.66667 10.8333 6.66667L6.66667 6.66667Z" fill="#171717"/>
</g>
</svg>
