<svg width="20" height="20" viewBox="0 0 20 20" fill="none" xmlns="http://www.w3.org/2000/svg">
<path fill-rule="evenodd" clip-rule="evenodd" d="M10 2.5C5.85786 2.5 2.5 5.85786 2.5 10C2.5 14.1421 5.85786 17.5 10 17.5C14.1421 17.5 17.5 14.1421 17.5 10C17.5 5.85786 14.1421 2.5 10 2.5ZM10 7.08333C10.4602 7.08333 10.8333 7.45643 10.8333 7.91667V9.16667H12.0833C12.5436 9.16667 12.9167 9.53976 12.9167 10C12.9167 10.4602 12.5436 10.8333 12.0833 10.8333H10.8333V12.0833C10.8333 12.5436 10.4602 12.9167 10 12.9167C9.53976 12.9167 9.16667 12.5436 9.16667 12.0833V10.8333H7.91667C7.45643 10.8333 7.08333 10.4602 7.08333 10C7.08333 9.53976 7.45643 9.16667 7.91667 9.16667H9.16667V7.91667C9.16667 7.45643 9.53976 7.08333 10 7.08333Z" fill="#A5A5A5"/>
</svg>
