<svg width="60" height="60" viewBox="0 0 60 60" fill="none" xmlns="http://www.w3.org/2000/svg">
<path fill-rule="evenodd" clip-rule="evenodd" d="M32.6402 11.1431H38.1988C38.7574 11.1431 39.2102 11.5959 39.2102 12.1545V13.4145C39.2102 13.9731 38.7574 14.4259 38.1988 14.4259H32.6402C32.0816 14.4259 31.6288 13.9731 31.6288 13.4145V12.1545C31.6288 11.5959 32.0816 11.1431 32.6402 11.1431ZM30.2917 14.9445H29.0317C28.4731 14.9445 28.0202 15.3973 28.0202 15.9559V17.2159C28.0202 17.7745 28.4731 18.2273 29.0317 18.2273H30.2917C30.8502 18.2273 31.3031 17.7745 31.3031 17.2159V15.9559C31.3031 15.3973 30.8502 14.9445 30.2917 14.9445ZM34.0802 18.7459H32.8202C32.2616 18.7459 31.8087 19.1988 31.8087 19.7573V21.0173C31.8087 21.5759 32.2616 22.0288 32.8202 22.0288H34.0802C34.6388 22.0288 35.0916 21.5759 35.0916 21.0173V19.7573C35.0916 19.1988 34.6388 18.7459 34.0802 18.7459ZM36.7543 41.3016H38.0143C38.5729 41.3016 39.0257 41.7545 39.0257 42.3131V43.5731C39.0257 44.1317 38.5729 44.5845 38.0143 44.5845H36.7543C36.1957 44.5845 35.7429 44.1317 35.7429 43.5731V42.3131C35.7429 41.7545 36.1957 41.3016 36.7543 41.3016ZM13.8689 45.2788H15.1289C15.6875 45.2788 16.1403 45.7316 16.1403 46.2902V47.5502C16.1403 48.1088 15.6875 48.5616 15.1289 48.5616H13.8689C13.3103 48.5616 12.8574 48.1088 12.8574 47.5502V46.2902C12.8574 45.7316 13.3103 45.2788 13.8689 45.2788ZM29.0317 22.5388H30.2917C30.8502 22.5388 31.3031 22.9916 31.3031 23.5502V24.8102C31.3031 25.3688 30.8502 25.8216 30.2917 25.8216H29.0317C28.4731 25.8216 28.0202 25.3688 28.0202 24.8102V23.5502C28.0202 22.9916 28.4731 22.5388 29.0317 22.5388ZM17.6615 26.3273H18.9215C19.4801 26.3273 19.933 26.7802 19.933 27.3388V28.5988C19.933 29.1574 19.4801 29.6102 18.9215 29.6102H17.6615C17.1029 29.6102 16.6501 29.1574 16.6501 28.5988V27.3388C16.6501 26.7802 17.1029 26.3273 17.6615 26.3273ZM37.9845 18.6302H36.4973C35.9387 18.6302 35.4859 19.0831 35.4859 19.6417V24.7545C35.4859 25.3131 35.9387 25.7659 36.4973 25.7659H37.9845C38.5431 25.7659 38.9959 25.3131 38.9959 24.7545V19.6417C38.9959 19.0831 38.5431 18.6302 37.9845 18.6302ZM40.4014 18.7459H45.7071C46.2657 18.7459 46.7185 19.1988 46.7185 19.7573V21.0173C46.7185 21.5759 46.2657 22.0288 45.7071 22.0288H40.4014C39.8428 22.0288 39.3899 21.5759 39.3899 21.0173V19.7573C39.3899 19.1988 39.8428 18.7459 40.4014 18.7459ZM38.0016 26.2245H32.6959C32.1373 26.2245 31.6844 26.6773 31.6844 27.2359V28.4959C31.6844 29.0545 32.1373 29.5074 32.6959 29.5074H38.0016C38.5602 29.5074 39.013 29.0545 39.013 28.4959V27.2359C39.013 26.6773 38.5602 26.2245 38.0016 26.2245ZM17.6615 37.4445H18.9215C19.4801 37.4445 19.933 37.8973 19.933 38.4559V44.0145C19.933 44.5731 19.4801 45.0259 18.9215 45.0259H17.6615C17.1029 45.0259 16.6501 44.5731 16.6501 44.0145V38.4559C16.6501 37.8973 17.1029 37.4445 17.6615 37.4445ZM15.1289 29.8631H13.8689C13.3103 29.8631 12.8574 30.3159 12.8574 30.8745V36.4331C12.8574 36.9917 13.3103 37.4445 13.8689 37.4445H15.1289C15.6875 37.4445 16.1403 36.9917 16.1403 36.4331V30.8745C16.1403 30.3159 15.6875 29.8631 15.1289 29.8631ZM40.4014 29.8631H41.6614C42.2199 29.8631 42.6728 30.3159 42.6728 30.8745V40.2902C42.6728 40.8488 42.2199 41.3016 41.6614 41.3016H40.4014C39.8428 41.3016 39.3899 40.8488 39.3899 40.2902V30.8745C39.3899 30.3159 39.8428 29.8631 40.4014 29.8631ZM41.6614 14.9445H40.4014C39.8428 14.9445 39.3899 15.3973 39.3899 15.9559V17.2159C39.3899 17.7745 39.8428 18.2273 40.4014 18.2273H41.6614C42.2199 18.2273 42.6728 17.7745 42.6728 17.2159V15.9559C42.6728 15.3973 42.2199 14.9445 41.6614 14.9445ZM34.3457 45.2788H17.4171C16.8585 45.2788 16.4057 45.7316 16.4057 46.2902V47.5502C16.4057 48.1088 16.8585 48.5616 17.4171 48.5616H34.3457C34.9043 48.5616 35.3571 48.1088 35.3571 47.5502V46.2902C35.3571 45.7316 34.9043 45.2788 34.3457 45.2788ZM21.1972 22.5388H26.5115C27.0701 22.5388 27.523 22.9916 27.523 23.5502V24.8102C27.523 25.3688 27.0701 25.8216 26.5115 25.8216H21.1972C20.6387 25.8216 20.1858 25.3688 20.1858 24.8102V23.5502C20.1858 22.9916 20.6387 22.5388 21.1972 22.5388Z" fill="#FEDB61"/>
</svg>
