<svg width="252" height="252" viewBox="0 0 252 252" fill="none" xmlns="http://www.w3.org/2000/svg">
<path d="M125.592 70.3072C90.1228 70.3072 61.3661 99.0361 61.3661 134.471C61.3661 144.976 63.8958 154.892 68.3709 163.64L61.3711 184.817C60.1038 188.645 62.1879 192.77 66.0195 194.036C77.9796 197.982 90.3258 197.666 101.405 193.922C108.87 196.959 117.033 198.63 125.592 198.63C161.062 198.63 189.818 169.901 189.818 134.466C189.818 99.0312 161.062 70.3022 125.592 70.3022V70.3072Z" fill="#242424"/>
<path d="M141.919 110.945C142.829 112.107 142.518 111.786 142.364 111.489C142.305 111.376 142.74 112.622 142.636 112.117C142.602 111.949 142.557 111.786 142.532 111.618L142.656 112.548C142.493 111.336 142.631 110.075 142.79 108.873L142.666 109.803C142.874 108.28 143.191 106.771 143.592 105.292C143.81 104.491 144.052 103.695 144.324 102.909C144.463 102.503 144.612 102.103 144.765 101.702C144.844 101.499 144.923 101.296 145.003 101.099C145.042 101 145.087 100.896 145.126 100.797C145.324 100.307 144.696 101.791 144.988 101.133C145.711 99.5061 146.532 97.9285 147.552 96.4646C147.676 96.2866 147.8 96.1135 147.928 95.9404C147.993 95.8563 148.057 95.7722 148.121 95.6832C147.384 96.6971 147.656 96.2767 147.834 96.0591C148.121 95.703 148.418 95.3568 148.73 95.0205C149.012 94.7188 149.309 94.4221 149.611 94.1402C149.74 94.0264 149.864 93.9127 149.998 93.7989C150.265 93.5665 151.072 93.0225 149.923 93.8336C150.705 93.2797 151.493 92.8148 152.354 92.3944C151.087 93.0126 151.923 92.5724 152.27 92.4537C152.493 92.3746 152.72 92.3054 152.953 92.2411C153.423 92.1125 153.898 92.0185 154.379 91.9542L153.448 92.0779C154.443 91.9542 155.443 91.9641 156.438 92.0927L155.507 91.9691C156.78 92.1422 157.958 92.523 159.156 92.9631C157.923 92.5131 159.077 92.9384 159.388 93.0967C159.72 93.2648 160.042 93.4429 160.359 93.6407C160.621 93.8039 160.874 93.977 161.126 94.155C161.581 94.4765 160.418 93.5813 160.819 93.9176C160.948 94.0215 161.076 94.1303 161.2 94.2391C161.616 94.61 161.982 95.0156 162.349 95.4359C162.715 95.8563 161.735 94.5754 162.141 95.1788C162.215 95.2876 162.289 95.3914 162.359 95.5002C162.507 95.7277 162.646 95.9602 162.774 96.2025C162.953 96.5388 163.245 97.4389 162.779 96.1333C162.859 96.3608 162.953 96.5833 163.027 96.8157C163.18 97.3004 163.289 97.79 163.359 98.2945L163.235 97.3647C163.334 98.1412 163.339 98.9176 163.24 99.6941L163.364 98.7643C163.26 99.516 163.052 100.218 162.784 100.926C163.309 99.516 162.839 100.757 162.611 101.133C162.522 101.287 162.423 101.435 162.319 101.578C162.27 101.648 162.215 101.717 162.166 101.791C162.893 100.747 162.69 101.133 162.497 101.356C162.27 101.613 162.037 101.865 161.774 102.088C161.185 102.597 162.502 101.588 162.017 101.905C161.878 101.999 161.74 102.093 161.591 102.177C161.443 102.261 161.294 102.335 161.146 102.409C160.824 102.572 162.245 101.994 161.477 102.261C161.141 102.38 160.794 102.454 160.443 102.503L161.374 102.38C160.898 102.439 160.423 102.434 159.948 102.38L160.878 102.503C160.477 102.449 160.081 102.355 159.7 102.226C159.601 102.192 159.507 102.157 159.408 102.122C158.849 101.925 160.195 102.478 159.854 102.31C159.656 102.211 159.453 102.122 159.26 102.014C159.037 101.89 158.819 101.756 158.606 101.618C158.329 101.435 157.606 100.812 158.606 101.648C158.181 101.292 157.76 100.93 157.369 100.535C157.205 100.372 157.047 100.203 156.893 100.025C156.829 99.9512 156.77 99.8721 156.705 99.7979C157.507 100.683 157.195 100.451 157.022 100.203C156.809 99.8968 156.611 99.5853 156.443 99.2539C156.403 99.1748 156.364 99.0907 156.324 99.0066C156.106 98.5714 156.695 99.9512 156.537 99.5111C156.478 99.3429 156.413 99.1748 156.359 99.0066C156.245 98.6357 156.166 98.2599 156.116 97.8741L156.24 98.8039C156.156 98.1065 156.166 97.4043 156.26 96.7069L156.136 97.6367C156.26 96.7663 156.512 95.9354 156.824 95.1145C157.022 94.6001 156.532 95.7722 156.631 95.5645C156.685 95.4508 156.73 95.337 156.785 95.2233C156.884 95.0106 156.987 94.798 157.101 94.5902C157.339 94.1402 157.596 93.7 157.874 93.2698C158.151 92.8395 158.453 92.4142 158.76 91.9987C158.794 91.9493 158.834 91.8998 158.869 91.8504C159.072 91.5685 158.428 92.4043 158.507 92.3153C158.606 92.2065 158.69 92.0878 158.78 91.974C158.968 91.7416 159.161 91.519 159.354 91.2915C160.116 90.4162 160.938 89.5902 161.799 88.8088C162.27 88.3786 162.755 87.9632 163.245 87.5626C163.468 87.3796 163.695 87.2015 163.923 87.0185C164.329 86.6971 163.185 87.5724 163.735 87.1669C163.873 87.0631 164.012 86.9592 164.151 86.8553C165.235 86.0591 166.354 85.3173 167.507 84.6249C168.66 83.9325 169.938 83.2352 171.195 82.6269C171.824 82.3202 172.462 82.0284 173.106 81.7515C173.18 81.7169 173.254 81.6872 173.329 81.6575C173.71 81.4894 172.551 81.979 172.943 81.8207C173.096 81.7614 173.244 81.6971 173.398 81.6377C173.754 81.4943 174.111 81.3558 174.467 81.2223C177.551 80.0651 180.749 79.2342 184.017 78.7891L183.086 78.9127C186.219 78.4973 189.393 78.4429 192.531 78.8534L191.6 78.7297C192.15 78.8039 192.695 78.8929 193.239 78.9919C194.185 79.165 195.09 79.1353 195.942 78.6407C196.67 78.2154 197.363 77.3796 197.556 76.5438C197.947 74.8227 197.036 72.5923 195.105 72.2312C188.546 71.0146 181.794 71.5735 175.423 73.5072C169.354 75.3519 163.7 78.3143 158.74 82.251C154.849 85.337 151.196 89.3825 149.72 94.2193C149.067 96.3558 148.933 98.8039 149.626 100.955C150.503 103.685 152.394 105.713 154.666 107.38C156.898 109.017 159.586 109.664 162.309 109.254C164.552 108.918 166.537 107.503 167.893 105.743C170.873 101.885 171.091 96.3459 168.557 92.1916C167.096 89.793 164.829 87.8692 162.269 86.7366C159.71 85.6041 156.879 84.798 154.027 85.0156C151.577 85.2035 149.196 85.9157 147.126 87.2609C145.057 88.6061 143.409 90.342 141.933 92.3202C139.428 95.6684 137.795 99.7534 136.74 103.774C136.245 105.658 135.914 107.572 135.701 109.506C135.547 110.896 135.528 112.271 135.795 113.651C135.968 114.536 136.409 115.213 136.958 115.906C137.473 116.563 138.646 116.934 139.438 116.934C140.3 116.934 141.324 116.554 141.919 115.906C142.513 115.258 142.988 114.363 142.948 113.428C142.904 112.439 142.527 111.722 141.919 110.95V110.945Z" fill="white"/>
<path d="M206.333 76.5091C206.333 77.429 206.269 78.339 206.145 79.2489L206.269 78.3192C206.15 79.15 205.987 79.9759 205.769 80.787C205.67 81.1629 205.556 81.5338 205.432 81.8998C205.308 82.2658 205.204 82.8246 204.972 83.1362C204.972 83.1362 205.358 82.2608 205.135 82.7504C205.1 82.8246 205.071 82.8988 205.036 82.973C204.957 83.1461 204.878 83.3192 204.794 83.4923C204.6 83.883 204.398 84.2687 204.185 84.6446C203.779 85.3518 203.328 86.0194 202.848 86.6822C202.516 87.1421 203.393 86.0096 202.952 86.5486C202.833 86.697 202.714 86.8404 202.591 86.9838C202.313 87.3102 202.021 87.6317 201.719 87.9433C201.155 88.5219 200.556 89.0709 199.927 89.5803C199.848 89.6446 199.759 89.7385 199.675 89.783C199.606 89.8226 200.363 89.2687 200.061 89.4814C199.908 89.5902 199.759 89.7089 199.601 89.8177C199.249 90.0699 198.888 90.3073 198.516 90.5348C197.823 90.9601 197.101 91.3458 196.358 91.6871C196.259 91.7316 196.16 91.7761 196.061 91.8206C195.63 92.0184 196.413 91.6871 196.447 91.6574C196.279 91.786 195.952 91.8552 195.754 91.9245C195.314 92.0877 194.868 92.2311 194.418 92.3597C193.502 92.6218 192.571 92.8147 191.626 92.9482L192.556 92.8246C190.73 93.0669 188.893 93.0669 187.066 92.8246L187.997 92.9482C187.165 92.8295 186.339 92.6663 185.527 92.4487C185.15 92.3498 184.779 92.236 184.413 92.1124C184.046 91.9888 183.487 91.8849 183.175 91.6525C183.175 91.6525 184.051 92.0382 183.561 91.8157C183.487 91.7811 183.413 91.7514 183.339 91.7168C183.165 91.6376 182.992 91.5585 182.819 91.4744C182.428 91.2816 182.042 91.0788 181.665 90.8661C180.957 90.4606 180.289 90.0105 179.626 89.5308C179.165 89.1995 180.299 90.0748 179.76 89.6347C179.611 89.516 179.467 89.3973 179.324 89.2736C178.997 88.9967 178.675 88.7049 178.363 88.4032C177.784 87.8394 177.235 87.241 176.725 86.6129C176.661 86.5338 176.567 86.4448 176.522 86.3607C176.482 86.2915 177.037 87.0481 176.824 86.7465C176.715 86.5931 176.596 86.4448 176.487 86.2865C176.235 85.9354 175.997 85.5743 175.769 85.2034C175.344 84.511 174.958 83.789 174.616 83.0472C174.572 82.9482 174.527 82.8493 174.482 82.7504C174.284 82.3202 174.616 83.1016 174.646 83.1362C174.517 82.968 174.448 82.6416 174.378 82.4438C174.215 82.0036 174.072 81.5585 173.943 81.1085C173.68 80.1936 173.487 79.2638 173.354 78.3192L173.477 79.2489C173.235 77.424 173.235 75.5892 173.477 73.7643L173.354 74.6941C173.473 73.8632 173.636 73.0373 173.854 72.2262C173.953 71.8503 174.067 71.4794 174.19 71.1135C174.314 70.7475 174.418 70.1886 174.651 69.8771C174.651 69.8771 174.265 70.7524 174.487 70.2628C174.522 70.1886 174.552 70.1144 174.586 70.0403C174.666 69.8672 174.745 69.6941 174.829 69.521C175.022 69.1303 175.225 68.7445 175.438 68.3687C175.844 67.6614 176.294 66.9938 176.774 66.3311C177.106 65.8711 176.23 67.0037 176.67 66.4646C176.789 66.3162 176.908 66.1728 177.032 66.0294C177.309 65.703 177.601 65.3815 177.903 65.07C178.467 64.4913 179.066 63.9424 179.695 63.433C179.774 63.3687 179.863 63.2747 179.948 63.2302C180.017 63.1906 179.26 63.7445 179.561 63.5319C179.715 63.4231 179.863 63.3044 180.022 63.1956C180.373 62.9433 180.735 62.706 181.106 62.4785C181.799 62.0531 182.522 61.6674 183.264 61.3261C183.363 61.2816 183.462 61.2371 183.561 61.1926C183.992 60.9948 183.21 61.3261 183.175 61.3558C183.344 61.2272 183.67 61.158 183.868 61.0888C184.309 60.9256 184.754 60.7821 185.205 60.6535C186.121 60.3914 187.051 60.1986 187.997 60.065L187.066 60.1887C188.893 59.9463 190.73 59.9463 192.556 60.1887L191.626 60.065C192.457 60.1837 193.284 60.3469 194.096 60.5645C194.472 60.6634 194.843 60.7772 195.21 60.9008C195.576 61.0245 196.135 61.1283 196.447 61.3608C196.447 61.3608 195.571 60.975 196.061 61.1976C196.135 61.2322 196.21 61.2619 196.284 61.2965C196.457 61.3756 196.63 61.4547 196.804 61.5388C197.195 61.7317 197.581 61.9345 197.957 62.1471C198.665 62.5526 199.333 63.0027 199.997 63.4824C200.457 63.8138 199.323 62.9384 199.863 63.3786C200.011 63.4973 200.155 63.616 200.299 63.7396C200.625 64.0165 200.947 64.3083 201.259 64.61C201.838 65.1738 202.388 65.7722 202.898 66.4003C202.962 66.4794 203.056 66.5685 203.1 66.6525C203.14 66.7218 202.586 65.9651 202.799 66.2668C202.907 66.4201 203.026 66.5685 203.135 66.7267C203.388 67.0779 203.625 67.4389 203.853 67.8098C204.279 68.5022 204.665 69.2242 205.006 69.9661C205.051 70.065 205.096 70.1639 205.14 70.2628C205.338 70.6931 205.006 69.9117 204.977 69.8771C205.105 70.0452 205.175 70.3716 205.244 70.5694C205.407 71.0096 205.551 71.4547 205.68 71.9048C205.942 72.8197 206.135 73.7495 206.269 74.6941L206.145 73.7643C206.264 74.6743 206.328 75.5892 206.333 76.5041C206.343 78.339 207.942 80.0946 209.843 80.0106C211.744 79.9265 213.358 78.4725 213.353 76.5041C213.333 71.7514 211.897 66.9245 209.105 63.0522C206.313 59.1798 202.348 56.0789 197.71 54.3628C188.74 51.0443 177.963 53.9473 171.883 61.3212C168.651 65.243 166.745 69.882 166.359 74.9512C165.997 79.6644 167.205 84.5605 169.651 88.601C172.042 92.5526 175.656 95.9057 179.888 97.7949C184.576 99.8918 189.621 100.5 194.67 99.5011C203.878 97.6811 211.556 89.8028 212.991 80.5101C213.199 79.1797 213.348 77.8493 213.353 76.4992C213.363 74.6644 211.734 72.9087 209.843 72.9928C207.952 73.0769 206.343 74.5309 206.333 76.4992V76.5091Z" fill="white"/>
<path d="M114.246 168.057C117.375 171.183 120.508 174.313 123.637 177.439C128.617 182.414 133.597 187.389 138.577 192.365C139.706 193.492 140.839 194.625 141.968 195.752C143.265 197.048 145.646 197.147 146.928 195.752C148.21 194.358 148.314 192.182 146.928 190.797C143.8 187.671 140.666 184.541 137.537 181.415C132.557 176.44 127.577 171.465 122.597 166.489C121.469 165.362 120.335 164.229 119.206 163.102C117.909 161.806 115.528 161.707 114.246 163.102C112.959 164.501 112.86 166.672 114.246 168.057Z" fill="white"/>
<path d="M142.186 167.839C144.438 170.089 146.685 172.335 148.938 174.585C152.542 178.185 156.146 181.786 159.749 185.386C160.571 186.207 161.398 187.033 162.22 187.854C163.517 189.15 165.898 189.249 167.18 187.854C168.462 186.459 168.566 184.283 167.18 182.899C164.928 180.648 162.68 178.403 160.428 176.153C156.824 172.552 153.22 168.952 149.616 165.352C148.794 164.531 147.968 163.705 147.146 162.884C145.849 161.588 143.468 161.489 142.186 162.884C140.903 164.278 140.799 166.454 142.186 167.839Z" fill="white"/>
</svg>
