<svg width="60" height="60" viewBox="0 0 60 60" fill="none" xmlns="http://www.w3.org/2000/svg">
<path fill-rule="evenodd" clip-rule="evenodd" d="M32.6402 11.1428H38.1988C38.7574 11.1428 39.2102 11.5957 39.2102 12.1543V13.4143C39.2102 13.9728 38.7574 14.4257 38.1988 14.4257H32.6402C32.0816 14.4257 31.6288 13.9728 31.6288 13.4143V12.1543C31.6288 11.5957 32.0816 11.1428 32.6402 11.1428ZM30.2917 14.9442H29.0317C28.4731 14.9442 28.0202 15.3971 28.0202 15.9557V17.2157C28.0202 17.7743 28.4731 18.2271 29.0317 18.2271H30.2917C30.8502 18.2271 31.3031 17.7743 31.3031 17.2157V15.9557C31.3031 15.3971 30.8502 14.9442 30.2917 14.9442ZM34.0802 18.7457H32.8202C32.2616 18.7457 31.8087 19.1985 31.8087 19.7571V21.0171C31.8087 21.5757 32.2616 22.0285 32.8202 22.0285H34.0802C34.6388 22.0285 35.0916 21.5757 35.0916 21.0171V19.7571C35.0916 19.1985 34.6388 18.7457 34.0802 18.7457ZM36.7543 41.3014H38.0143C38.5729 41.3014 39.0257 41.7542 39.0257 42.3128V43.5728C39.0257 44.1314 38.5729 44.5843 38.0143 44.5843H36.7543C36.1957 44.5843 35.7429 44.1314 35.7429 43.5728V42.3128C35.7429 41.7542 36.1957 41.3014 36.7543 41.3014ZM13.8689 45.2785H15.1289C15.6875 45.2785 16.1403 45.7314 16.1403 46.29V47.55C16.1403 48.1086 15.6875 48.5614 15.1289 48.5614H13.8689C13.3103 48.5614 12.8574 48.1086 12.8574 47.55V46.29C12.8574 45.7314 13.3103 45.2785 13.8689 45.2785ZM29.0317 22.5385H30.2917C30.8502 22.5385 31.3031 22.9914 31.3031 23.55V24.81C31.3031 25.3686 30.8502 25.8214 30.2917 25.8214H29.0317C28.4731 25.8214 28.0202 25.3686 28.0202 24.81V23.55C28.0202 22.9914 28.4731 22.5385 29.0317 22.5385ZM17.6615 26.3271H18.9215C19.4801 26.3271 19.933 26.7799 19.933 27.3385V28.5985C19.933 29.1571 19.4801 29.61 18.9215 29.61H17.6615C17.1029 29.61 16.6501 29.1571 16.6501 28.5985V27.3385C16.6501 26.7799 17.1029 26.3271 17.6615 26.3271ZM37.9845 18.63H36.4973C35.9387 18.63 35.4859 19.0828 35.4859 19.6414V24.7543C35.4859 25.3129 35.9387 25.7657 36.4973 25.7657H37.9845C38.5431 25.7657 38.9959 25.3129 38.9959 24.7543V19.6414C38.9959 19.0828 38.5431 18.63 37.9845 18.63ZM40.4014 18.7457H45.7071C46.2657 18.7457 46.7185 19.1985 46.7185 19.7571V21.0171C46.7185 21.5757 46.2657 22.0285 45.7071 22.0285H40.4014C39.8428 22.0285 39.3899 21.5757 39.3899 21.0171V19.7571C39.3899 19.1985 39.8428 18.7457 40.4014 18.7457ZM38.0016 26.2243H32.6959C32.1373 26.2243 31.6844 26.6771 31.6844 27.2357V28.4957C31.6844 29.0543 32.1373 29.5071 32.6959 29.5071H38.0016C38.5602 29.5071 39.013 29.0543 39.013 28.4957V27.2357C39.013 26.6771 38.5602 26.2243 38.0016 26.2243ZM17.6615 37.4442H18.9215C19.4801 37.4442 19.933 37.8971 19.933 38.4557V44.0142C19.933 44.5728 19.4801 45.0257 18.9215 45.0257H17.6615C17.1029 45.0257 16.6501 44.5728 16.6501 44.0142V38.4557C16.6501 37.8971 17.1029 37.4442 17.6615 37.4442ZM15.1289 29.8628H13.8689C13.3103 29.8628 12.8574 30.3157 12.8574 30.8742V36.4328C12.8574 36.9914 13.3103 37.4442 13.8689 37.4442H15.1289C15.6875 37.4442 16.1403 36.9914 16.1403 36.4328V30.8742C16.1403 30.3157 15.6875 29.8628 15.1289 29.8628ZM40.4014 29.8628H41.6614C42.2199 29.8628 42.6728 30.3157 42.6728 30.8742V40.29C42.6728 40.8486 42.2199 41.3014 41.6614 41.3014H40.4014C39.8428 41.3014 39.3899 40.8486 39.3899 40.29V30.8742C39.3899 30.3157 39.8428 29.8628 40.4014 29.8628ZM41.6614 14.9442H40.4014C39.8428 14.9442 39.3899 15.3971 39.3899 15.9557V17.2157C39.3899 17.7743 39.8428 18.2271 40.4014 18.2271H41.6614C42.2199 18.2271 42.6728 17.7743 42.6728 17.2157V15.9557C42.6728 15.3971 42.2199 14.9442 41.6614 14.9442ZM34.3457 45.2785H17.4171C16.8585 45.2785 16.4057 45.7314 16.4057 46.29V47.55C16.4057 48.1086 16.8585 48.5614 17.4171 48.5614H34.3457C34.9043 48.5614 35.3571 48.1086 35.3571 47.55V46.29C35.3571 45.7314 34.9043 45.2785 34.3457 45.2785ZM21.1972 22.5385H26.5115C27.0701 22.5385 27.523 22.9914 27.523 23.55V24.81C27.523 25.3686 27.0701 25.8214 26.5115 25.8214H21.1972C20.6387 25.8214 20.1858 25.3686 20.1858 24.81V23.55C20.1858 22.9914 20.6387 22.5385 21.1972 22.5385Z" fill="#242424"/>
</svg>
