<svg width="252" height="252" viewBox="0 0 252 252" fill="none" xmlns="http://www.w3.org/2000/svg">
<path d="M55.5488 162.859L55.4833 163.057L46.8074 189.318L55.5488 162.859ZM55.5488 162.859L55.454 162.673M55.5488 162.859L55.454 162.673M55.454 162.673C49.9449 151.869 46.8325 139.653 46.8325 126.702C46.8325 83.0251 82.2438 47.6108 125.92 47.606C169.595 47.6108 205.007 83.0251 205.007 126.702C205.007 170.382 169.59 205.798 125.911 205.798C115.375 205.798 105.323 203.723 96.1289 199.985L95.9565 199.915L95.7802 199.974C82.1634 204.585 66.9748 204.978 52.2493 200.117L52.2491 200.117M55.454 162.673L52.2491 200.117M52.2491 200.117C47.7598 198.638 45.3279 193.809 46.8073 189.319L52.2491 200.117Z" fill="#FEDB61" stroke="#242424"/>
</svg>
