<svg width="140" height="140" viewBox="0 0 140 140" fill="none" xmlns="http://www.w3.org/2000/svg">
<path fill-rule="evenodd" clip-rule="evenodd" d="M102.611 18L91.293 18C88.7568 18 86.7009 20.0593 86.7009 22.5997C86.7009 25.14 88.7568 27.1994 91.293 27.1994H102.611C105.147 27.1994 107.203 25.14 107.203 22.5997C107.203 20.0593 105.147 18 102.611 18ZM91.2099 28.8327C93.746 28.8327 95.8019 30.892 95.8019 33.4324C95.8019 35.9727 93.746 38.032 91.2099 38.032C88.6737 38.032 86.6178 35.9727 86.6178 33.4324C86.6178 30.892 88.6737 28.8327 91.2099 28.8327ZM81.3058 39.4972H69.244C66.7079 39.4972 64.652 41.5566 64.652 44.0969C64.652 46.6372 66.7079 48.6966 69.244 48.6966H81.3058C83.8419 48.6966 85.8979 46.6372 85.8979 44.0969C85.8979 41.5566 83.8419 39.4972 81.3058 39.4972ZM59.3886 49.3691C61.9247 49.3691 63.9807 51.4284 63.9807 53.9688V66.1105C63.9807 68.6508 61.9247 70.7102 59.3886 70.7102C56.8524 70.7102 54.7965 68.6508 54.7965 66.1105L54.7965 53.9688C54.7965 51.4284 56.8524 49.3691 59.3886 49.3691ZM97.216 54.7734C97.216 52.2331 95.1601 50.1737 92.6239 50.1737C90.0878 50.1737 88.0318 52.2331 88.0318 54.7734C88.0318 57.3137 90.0878 59.3731 92.6239 59.3731C95.1601 59.3731 97.216 57.3137 97.216 54.7734ZM80.5976 60.8023C83.1337 60.8023 85.1896 62.8616 85.1896 65.4019C85.1896 67.9423 83.1337 70.0016 80.5976 70.0016C78.0614 70.0016 76.0055 67.9423 76.0055 65.4019C76.0055 62.8616 78.0614 60.8023 80.5976 60.8023ZM69.952 71.3106C72.4882 71.3106 74.5441 73.37 74.5441 75.9103V86.6469C74.5441 89.1872 72.4882 91.2466 69.952 91.2466C67.4159 91.2466 65.36 89.1872 65.36 86.6469V75.9103C65.36 73.37 67.4159 71.3106 69.952 71.3106ZM112.408 28.8327C114.944 28.8327 117 30.892 117 33.4324V65.3059C117 67.8462 114.944 69.9055 112.408 69.9055C109.872 69.9055 107.816 67.8462 107.816 65.3059V33.4324C107.816 30.892 109.872 28.8327 112.408 28.8327ZM91.785 82.0352L80.4667 82.0352C77.9306 82.0352 75.8746 84.0946 75.8746 86.6349C75.8746 89.1753 77.9306 91.2346 80.4667 91.2346L91.785 91.2346C94.3212 91.2346 96.3771 89.1753 96.3771 86.6349C96.3771 84.0946 94.3212 82.0352 91.785 82.0352ZM101.808 71.3106C104.345 71.3106 106.401 73.37 106.401 75.9103C106.401 78.4507 104.345 80.51 101.808 80.51C99.2723 80.51 97.2164 78.4507 97.2164 75.9103C97.2164 73.37 99.2723 71.3106 101.808 71.3106ZM44.1973 97.1673C44.1973 99.7077 46.2532 101.767 48.7894 101.767C51.3255 101.767 53.3814 99.7077 53.3814 97.1673C53.3814 94.627 51.3255 92.5677 48.7894 92.5677C46.2532 92.5677 44.1973 94.627 44.1973 97.1673ZM69.9632 101.767C67.427 101.767 65.3711 99.7077 65.3711 97.1673C65.3711 94.627 67.427 92.5677 69.9632 92.5677C72.4993 92.5677 74.5553 94.627 74.5553 97.1673C74.5553 99.7077 72.4993 101.767 69.9632 101.767ZM48.7658 91.2466H59.4007C61.9368 91.2466 63.9928 89.1872 63.9928 86.6469C63.9928 84.1066 61.9368 82.0472 59.4007 82.0472H48.7658C46.2296 82.0472 44.1737 84.1066 44.1737 86.6469C44.1737 89.1872 46.2296 91.2466 48.7658 91.2466ZM59.3763 112.54H48.7653C46.2292 112.54 44.1732 110.48 44.1732 107.94C44.1732 105.4 46.2292 103.34 48.7653 103.34H59.3763C61.9124 103.34 63.9684 105.4 63.9684 107.94C63.9684 110.48 61.9124 112.54 59.3763 112.54ZM23 118.4C23 120.941 25.056 123 27.5921 123C30.1282 123 32.1842 120.941 32.1842 118.4C32.1842 115.86 30.1282 113.801 27.5921 113.801C25.056 113.801 23 115.86 23 118.4ZM38.1897 112.383C35.6536 112.383 33.5977 110.324 33.5977 107.784C33.5977 105.243 35.6536 103.184 38.1897 103.184C40.7259 103.184 42.7818 105.243 42.7818 107.784C42.7818 110.324 40.7259 112.383 38.1897 112.383Z" fill="#3D3D3D"/>
</svg>
