<svg width="32" height="32" viewBox="0 0 32 32" fill="none" xmlns="http://www.w3.org/2000/svg">
<path fill-rule="evenodd" clip-rule="evenodd" d="M23.454 4.11426H20.867C20.2873 4.11426 19.8173 4.58497 19.8173 5.16561C19.8173 5.74626 20.2873 6.21697 20.867 6.21697H23.454C24.0337 6.21697 24.5036 5.74626 24.5036 5.16561C24.5036 4.58497 24.0337 4.11426 23.454 4.11426ZM20.848 6.5903C21.4277 6.5903 21.8976 7.06101 21.8976 7.64165C21.8976 8.2223 21.4277 8.69301 20.848 8.69301C20.2683 8.69301 19.7983 8.2223 19.7983 7.64165C19.7983 7.06101 20.2683 6.5903 20.848 6.5903ZM18.5842 9.02791H15.8272C15.2475 9.02791 14.7776 9.49862 14.7776 10.0793C14.7776 10.6599 15.2475 11.1306 15.8272 11.1306H18.5842C19.1639 11.1306 19.6338 10.6599 19.6338 10.0793C19.6338 9.49862 19.1639 9.02791 18.5842 9.02791ZM13.5745 11.2843C14.1542 11.2843 14.6241 11.755 14.6241 12.3357V15.1109C14.6241 15.6916 14.1542 16.1623 13.5745 16.1623C12.9948 16.1623 12.5249 15.6916 12.5249 15.1109V12.3357C12.5249 11.755 12.9948 11.2843 13.5745 11.2843ZM22.2208 12.5196C22.2208 11.939 21.7509 11.4683 21.1712 11.4683C20.5915 11.4683 20.1216 11.939 20.1216 12.5196C20.1216 13.1003 20.5915 13.571 21.1712 13.571C21.7509 13.571 22.2208 13.1003 22.2208 12.5196ZM18.4223 13.8976C19.002 13.8976 19.4719 14.3683 19.4719 14.949C19.4719 15.5296 19.002 16.0003 18.4223 16.0003C17.8426 16.0003 17.3727 15.5296 17.3727 14.949C17.3727 14.3683 17.8426 13.8976 18.4223 13.8976ZM15.989 16.2995C16.5687 16.2995 17.0387 16.7703 17.0387 17.3509V19.805C17.0387 20.3856 16.5687 20.8563 15.989 20.8563C15.4093 20.8563 14.9394 20.3856 14.9394 19.805V17.3509C14.9394 16.7703 15.4093 16.2995 15.989 16.2995ZM25.6933 6.5903C26.273 6.5903 26.7429 7.06101 26.7429 7.64165V14.927C26.7429 15.5077 26.273 15.9784 25.6933 15.9784C25.1136 15.9784 24.6437 15.5077 24.6437 14.927V7.64165C24.6437 7.06101 25.1136 6.5903 25.6933 6.5903ZM20.9794 18.7509H18.3924C17.8127 18.7509 17.3428 19.2216 17.3428 19.8022C17.3428 20.3829 17.8127 20.8536 18.3924 20.8536H20.9794C21.5591 20.8536 22.0291 20.3829 22.0291 19.8022C22.0291 19.2216 21.5591 18.7509 20.9794 18.7509ZM23.2705 16.2995C23.8502 16.2995 24.3201 16.7703 24.3201 17.3509C24.3201 17.9316 23.8502 18.4023 23.2705 18.4023C22.6908 18.4023 22.2209 17.9316 22.2209 17.3509C22.2209 16.7703 22.6908 16.2995 23.2705 16.2995ZM10.1022 22.2097C10.1022 22.7903 10.5722 23.261 11.1519 23.261C11.7315 23.261 12.2015 22.7903 12.2015 22.2097C12.2015 21.629 11.7315 21.1583 11.1519 21.1583C10.5722 21.1583 10.1022 21.629 10.1022 22.2097ZM15.9916 23.261C15.4119 23.261 14.942 22.7903 14.942 22.2097C14.942 21.629 15.4119 21.1583 15.9916 21.1583C16.5713 21.1583 17.0412 21.629 17.0412 22.2097C17.0412 22.7903 16.5713 23.261 15.9916 23.261ZM11.1465 20.8563H13.5773C14.157 20.8563 14.6269 20.3856 14.6269 19.805C14.6269 19.2243 14.157 18.7536 13.5773 18.7536H11.1465C10.5668 18.7536 10.0968 19.2243 10.0968 19.805C10.0968 20.3856 10.5668 20.8563 11.1465 20.8563ZM13.5717 25.7233H11.1464C10.5667 25.7233 10.0967 25.2526 10.0967 24.672C10.0967 24.0913 10.5667 23.6206 11.1464 23.6206H13.5717C14.1514 23.6206 14.6213 24.0913 14.6213 24.672C14.6213 25.2526 14.1514 25.7233 13.5717 25.7233ZM5.25714 27.0629C5.25714 27.6436 5.72708 28.1143 6.30676 28.1143C6.88645 28.1143 7.35638 27.6436 7.35638 27.0629C7.35638 26.4823 6.88645 26.0115 6.30676 26.0115C5.72708 26.0115 5.25714 26.4823 5.25714 27.0629ZM8.72908 25.6876C8.14939 25.6876 7.67946 25.2169 7.67946 24.6363C7.67946 24.0556 8.14939 23.5849 8.72908 23.5849C9.30877 23.5849 9.7787 24.0556 9.7787 24.6363C9.7787 25.2169 9.30877 25.6876 8.72908 25.6876Z" fill="#FEDB61"/>
</svg>
