<svg width="60" height="60" viewBox="0 0 60 60" fill="none" xmlns="http://www.w3.org/2000/svg">
<path fill-rule="evenodd" clip-rule="evenodd" d="M27.6129 11.1428H32.9186C33.4772 11.1428 33.93 11.5957 33.93 12.1543V13.4143C33.93 13.9728 33.4772 14.4257 32.9186 14.4257H27.6129C27.0543 14.4257 26.6014 13.9728 26.6014 13.4143V12.1543C26.6014 11.5957 27.0543 11.1428 27.6129 11.1428ZM25.2342 14.8286H23.9742C23.4156 14.8286 22.9628 15.2814 22.9628 15.84V21.1457C22.9628 21.7043 23.4156 22.1571 23.9742 22.1571H25.2342C25.7928 22.1571 26.2456 21.7043 26.2456 21.1457V15.84C26.2456 15.2814 25.7928 14.8286 25.2342 14.8286ZM16.2469 22.5514H21.5526C22.1112 22.5514 22.5641 23.0042 22.5641 23.5628V24.8228C22.5641 25.3814 22.1112 25.8342 21.5526 25.8342H16.2469C15.6883 25.8342 15.2355 25.3814 15.2355 24.8228V23.5628C15.2355 23.0042 15.6883 22.5514 16.2469 22.5514ZM12.5827 26.1771H13.8427C14.4013 26.1771 14.8541 26.6299 14.8541 27.1885V32.4943C14.8541 33.0529 14.4013 33.5057 13.8427 33.5057H12.5827C12.0241 33.5057 11.5713 33.0529 11.5713 32.4943V27.1885C11.5713 26.6299 12.0241 26.1771 12.5827 26.1771ZM25.2342 26.1771H23.9742C23.4156 26.1771 22.9628 26.6299 22.9628 27.1885V32.4943C22.9628 33.0529 23.4156 33.5057 23.9742 33.5057H25.2342C25.7928 33.5057 26.2456 33.0529 26.2456 32.4943V27.1885C26.2456 26.6299 25.7928 26.1771 25.2342 26.1771ZM23.9399 37.5514H25.1999C25.7585 37.5514 26.2113 38.0042 26.2113 38.5628V43.8685C26.2113 44.4271 25.7585 44.88 25.1999 44.88H23.9399C23.3813 44.88 22.9284 44.4271 22.9284 43.8685V38.5628C22.9284 38.0042 23.3813 37.5514 23.9399 37.5514ZM36.5871 37.5514H35.3271C34.7685 37.5514 34.3157 38.0042 34.3157 38.5628V43.8685C34.3157 44.4271 34.7685 44.88 35.3271 44.88H36.5871C37.1457 44.88 37.5986 44.4271 37.5986 43.8685V38.5628C37.5986 38.0042 37.1457 37.5514 36.5871 37.5514ZM35.3271 26.1771H36.5871C37.1457 26.1771 37.5986 26.6299 37.5986 27.1885V32.4943C37.5986 33.0529 37.1457 33.5057 36.5871 33.5057H35.3271C34.7685 33.5057 34.3157 33.0529 34.3157 32.4943V27.1885C34.3157 26.6299 34.7685 26.1771 35.3271 26.1771ZM35.3271 14.8286H36.5871C37.1457 14.8286 37.5986 15.2814 37.5986 15.84V21.1457C37.5986 21.7043 37.1457 22.1571 36.5871 22.1571H35.3271C34.7685 22.1571 34.3157 21.7043 34.3157 21.1457V15.84C34.3157 15.2814 34.7685 14.8286 35.3271 14.8286ZM47.82 26.1771H46.56C46.0014 26.1771 45.5485 26.6299 45.5485 27.1885V32.4943C45.5485 33.0529 46.0014 33.5057 46.56 33.5057H47.82C48.3786 33.5057 48.8314 33.0529 48.8314 32.4943V27.1885C48.8314 26.6299 48.3786 26.1771 47.82 26.1771ZM32.9186 22.5171H27.6129C27.0543 22.5171 26.6014 22.97 26.6014 23.5286V24.7886C26.6014 25.3471 27.0543 25.8 27.6129 25.8H32.9186C33.4772 25.8 33.93 25.3471 33.93 24.7886V23.5286C33.93 22.97 33.4772 22.5171 32.9186 22.5171ZM27.6129 33.8871H32.9186C33.4772 33.8871 33.93 34.3399 33.93 34.8985V36.1585C33.93 36.7171 33.4772 37.17 32.9186 37.17H27.6129C27.0543 37.17 26.6014 36.7171 26.6014 36.1585V34.8985C26.6014 34.3399 27.0543 33.8871 27.6129 33.8871ZM32.9186 45.2571H27.6129C27.0543 45.2571 26.6014 45.71 26.6014 46.2686V47.5286C26.6014 48.0872 27.0543 48.54 27.6129 48.54H32.9186C33.4772 48.54 33.93 48.0872 33.93 47.5286V46.2686C33.93 45.71 33.4772 45.2571 32.9186 45.2571ZM38.9872 33.9214H44.2929C44.8515 33.9214 45.3043 34.3742 45.3043 34.9328V36.1928C45.3043 36.7514 44.8515 37.2043 44.2929 37.2043H38.9872C38.4286 37.2043 37.9757 36.7514 37.9757 36.1928V34.9328C37.9757 34.3742 38.4286 33.9214 38.9872 33.9214ZM44.2929 22.5171H38.9872C38.4286 22.5171 37.9757 22.97 37.9757 23.5286V24.7886C37.9757 25.3471 38.4286 25.8 38.9872 25.8H44.2929C44.8515 25.8 45.3043 25.3471 45.3043 24.7886V23.5286C45.3043 22.97 44.8515 22.5171 44.2929 22.5171ZM16.2469 33.8871H21.5526C22.1112 33.8871 22.5641 34.3399 22.5641 34.8985V36.1585C22.5641 36.7171 22.1112 37.17 21.5526 37.17H16.2469C15.6883 37.17 15.2355 36.7171 15.2355 36.1585V34.8985C15.2355 34.3399 15.6883 33.8871 16.2469 33.8871Z" fill="#242424"/>
</svg>
