<svg width="252" height="252" viewBox="0 0 252 252" fill="none" xmlns="http://www.w3.org/2000/svg">
<path d="M190.247 123.139L184.26 117.428L190.551 112.053C203.636 100.873 195.442 79.4526 178.234 79.8608L169.962 80.0572L170.61 71.8074C171.957 54.649 151.016 45.2966 139.139 57.7525L133.428 63.74L128.053 57.4494C116.873 44.3641 95.4526 52.5583 95.8608 69.7662L96.0572 78.0377L87.8074 77.3897C70.649 76.0428 61.2966 96.9836 73.7525 108.861L79.74 114.572L73.4494 119.947C60.3641 131.127 68.5583 152.547 85.7662 152.139L94.0377 151.943L93.3897 160.193C92.0428 177.351 112.984 186.703 124.861 174.247L130.572 168.26L135.947 174.551C147.127 187.636 168.547 179.442 168.139 162.234L167.943 153.962L176.193 154.61C193.351 155.957 202.703 135.016 190.247 123.139Z" fill="#242424"/>
<path d="M62.898 194.915C63.2148 193.911 63.5713 192.917 63.9326 191.933C64.3237 190.86 64.7346 189.791 65.1603 188.733C65.4177 188.085 65.6851 187.437 65.9573 186.789C66.1405 186.344 65.5266 187.803 65.8435 187.066C65.9078 186.908 65.9771 186.755 66.0464 186.597C66.2098 186.226 66.3682 185.85 66.5365 185.479C67.883 182.452 69.3632 179.48 71.0513 176.626C71.9077 175.182 72.8136 173.763 73.7987 172.403C74.0462 172.061 74.3037 171.73 74.5512 171.394C74.5809 171.349 73.9324 172.185 74.2344 171.809C74.2839 171.745 74.3383 171.681 74.3878 171.616C74.5413 171.424 74.6947 171.231 74.8531 171.043C75.3531 170.444 75.868 169.856 76.4125 169.297C76.9967 168.694 77.6056 168.12 78.2491 167.586C78.4026 167.457 78.5659 167.334 78.7194 167.205C77.6798 168.061 78.3036 167.526 78.5709 167.334C78.8877 167.111 79.2095 166.893 79.5362 166.696C79.8629 166.498 80.1847 166.32 80.5213 166.152C80.6847 166.067 80.853 165.998 81.0213 165.919C81.4173 165.731 80.3778 166.171 80.457 166.156C80.5659 166.137 80.6748 166.067 80.7787 166.033C81.4569 165.781 82.1599 165.603 82.8777 165.504L81.947 165.627C83.4915 165.434 85.1103 165.533 86.6449 165.741L85.7143 165.617C86.8083 165.771 87.8528 166.038 88.8924 166.414C89.3726 166.587 87.8924 165.964 88.5063 166.25C88.6201 166.305 88.7389 166.359 88.8528 166.414C89.0459 166.508 89.234 166.611 89.4171 166.725C89.6003 166.839 89.7637 166.948 89.932 167.061C90.4518 167.418 89.1993 166.463 89.5607 166.77C89.635 166.834 89.7092 166.893 89.7835 166.958C90.0755 167.215 90.3181 167.502 90.5755 167.784C89.6548 166.785 90.1746 167.244 90.3825 167.566C90.4864 167.724 90.5805 167.882 90.6646 168.051C90.7042 168.125 90.7389 168.204 90.7785 168.283C91.0458 168.807 90.4171 167.348 90.5706 167.784C90.63 167.947 90.6894 168.105 90.7438 168.268C90.8528 168.619 90.927 168.98 90.9815 169.341L90.8577 168.412C90.9567 169.163 90.9419 169.915 90.8429 170.662L90.9666 169.732C90.8379 170.622 90.5854 171.478 90.2637 172.319C90.0508 172.882 90.6201 171.527 90.4617 171.854C90.4122 171.953 90.3726 172.052 90.328 172.151C90.229 172.358 90.125 172.566 90.0161 172.769C89.7983 173.179 89.5558 173.575 89.2983 173.956C89.1746 174.139 89.0459 174.312 88.9221 174.49C88.6053 174.935 89.5706 173.684 89.2241 174.104C89.1449 174.198 89.0706 174.292 88.9914 174.386C88.6993 174.732 88.3875 175.068 88.0607 175.385C87.9073 175.533 87.7538 175.672 87.5954 175.81C87.5162 175.879 87.437 175.944 87.3578 176.013C87.3182 176.048 87.2736 176.077 87.239 176.112C86.9024 176.409 88.0706 175.494 87.7043 175.751C87.338 176.008 87.0063 176.245 86.635 176.458C86.442 176.567 86.2489 176.666 86.0509 176.76C85.7341 176.908 85.2143 177.027 86.4964 176.582C86.3974 176.616 86.2984 176.661 86.1994 176.696C85.7737 176.849 85.338 176.953 84.8925 177.017L85.8232 176.893C85.3529 176.953 84.8826 176.958 84.4173 176.903L85.3479 177.027C85.0559 176.987 84.7687 176.923 84.4915 176.839C84.3034 176.78 83.7094 176.532 84.4569 176.849C85.2044 177.165 84.6054 176.903 84.4272 176.809C84.2985 176.74 84.1747 176.666 84.0509 176.582C83.9767 176.532 83.9074 176.483 83.8331 176.433C83.3975 176.142 84.6103 177.081 84.2688 176.77C84.0163 176.542 83.7589 176.32 83.5262 176.067C83.3975 175.929 83.2886 175.761 83.1549 175.632C83.1896 175.667 83.7985 176.503 83.4816 176.048C83.4272 175.969 83.3727 175.894 83.3183 175.815C83.1846 175.612 83.0807 175.405 82.9668 175.192C83.6599 176.483 83.1846 175.751 83.0609 175.276C82.9916 175.014 82.9421 174.747 82.9074 174.475L83.0312 175.405C82.8975 174.391 82.947 173.362 83.0807 172.348L82.9569 173.278C83.1945 171.547 83.6896 169.851 84.3331 168.229C84.3777 168.115 84.4272 168.001 84.4717 167.887C84.6499 167.437 84.0806 168.783 84.2836 168.333C84.3876 168.105 84.4866 167.873 84.5905 167.645C84.8083 167.18 85.0361 166.715 85.2737 166.26C85.7786 165.306 86.3331 164.381 86.9321 163.491C87.234 163.046 87.5459 162.606 87.8677 162.175C87.9023 162.126 87.9419 162.081 87.9766 162.032C88.2588 161.656 87.6103 162.482 87.6499 162.452C87.739 162.383 87.8083 162.249 87.8776 162.165C88.0706 161.928 88.2637 161.691 88.4667 161.453C89.2142 160.578 90.0161 159.742 90.8627 158.961C91.3032 158.55 91.7587 158.155 92.224 157.779C92.3428 157.685 92.4616 157.591 92.5804 157.492C93.0458 157.121 92.1003 157.853 92.2834 157.719C92.5507 157.526 92.8131 157.329 93.0804 157.136C94.0903 156.428 95.1497 155.786 96.2437 155.222C96.5506 155.064 96.8576 154.91 97.1744 154.767C97.3427 154.688 97.511 154.613 97.6793 154.539C98.3922 154.228 97.0704 154.782 97.4863 154.618C98.1694 154.346 98.8625 154.089 99.5654 153.867C101.065 153.397 102.605 153.065 104.159 152.853L103.229 152.976C105.06 152.739 106.902 152.68 108.748 152.774C110.595 152.868 112.337 151.097 112.258 149.267C112.169 147.289 110.719 145.86 108.748 145.761C102.046 145.42 95.1843 147.151 89.6498 151.003C85.0212 154.223 81.1599 158.614 78.7144 163.708C76.7937 167.699 75.2937 172.373 76.2294 176.829C76.7095 179.129 78.3036 180.983 80.1352 182.358C82.0609 183.797 84.4321 184.119 86.7538 183.768C90.7042 183.174 94.1101 179.841 95.9764 176.483C98.0456 172.759 98.8872 167.808 96.4368 164.035C94.9566 161.755 92.7289 160.301 90.1746 159.455C88.7043 158.966 87.135 158.758 85.6004 158.629C84.0658 158.501 82.4124 158.53 80.8233 158.783C78.1699 159.203 75.8333 160.632 73.7542 162.264C71.675 163.896 69.8285 166.082 68.185 168.273C64.9772 172.546 62.5069 177.358 60.3535 182.23C58.8585 185.617 57.4674 189.059 56.2992 192.571C56.2447 192.739 56.1902 192.902 56.1358 193.07C55.5813 194.816 56.7892 196.972 58.5862 197.383C60.502 197.818 62.3089 196.809 62.903 194.935L62.898 194.915Z" fill="white"/>
<path d="M148.218 119.797C148.218 120.717 148.153 121.627 148.03 122.537L148.153 121.607C148.035 122.438 147.871 123.264 147.654 124.075C147.554 124.45 147.441 124.821 147.317 125.187C147.193 125.553 147.089 126.112 146.856 126.424C146.856 126.424 147.243 125.548 147.02 126.038C146.985 126.112 146.956 126.186 146.921 126.261C146.842 126.434 146.762 126.607 146.678 126.78C146.485 127.171 146.282 127.556 146.069 127.932C145.663 128.639 145.213 129.307 144.733 129.97C144.401 130.43 145.277 129.297 144.837 129.836C144.718 129.985 144.599 130.128 144.475 130.271C144.198 130.598 143.906 130.919 143.604 131.231C143.04 131.81 142.441 132.358 141.812 132.868C141.733 132.932 141.644 133.026 141.56 133.071C141.49 133.11 142.248 132.556 141.946 132.769C141.792 132.878 141.644 132.996 141.485 133.105C141.134 133.357 140.772 133.595 140.401 133.822C139.708 134.248 138.985 134.633 138.243 134.975C138.144 135.019 138.045 135.064 137.946 135.108C137.515 135.306 138.297 134.975 138.332 134.945C138.164 135.074 137.837 135.143 137.639 135.212C137.198 135.375 136.753 135.519 136.302 135.647C135.386 135.909 134.456 136.102 133.51 136.236L134.441 136.112C132.614 136.355 130.778 136.355 128.951 136.112L129.882 136.236C129.05 136.117 128.223 135.954 127.411 135.736C127.035 135.637 126.664 135.524 126.298 135.4C125.931 135.276 125.372 135.173 125.06 134.94C125.06 134.94 125.936 135.326 125.446 135.103C125.372 135.069 125.298 135.039 125.223 135.004C125.05 134.925 124.877 134.846 124.704 134.762C124.312 134.569 123.926 134.366 123.55 134.154C122.842 133.748 122.174 133.298 121.511 132.818C121.05 132.487 122.184 133.362 121.644 132.922C121.496 132.804 121.352 132.685 121.209 132.561C120.882 132.284 120.56 131.993 120.248 131.691C119.669 131.127 119.12 130.529 118.61 129.901C118.545 129.821 118.451 129.732 118.407 129.648C118.367 129.579 118.922 130.336 118.709 130.034C118.6 129.881 118.481 129.732 118.372 129.574C118.12 129.223 117.882 128.862 117.654 128.491C117.229 127.799 116.842 127.077 116.501 126.335C116.456 126.236 116.412 126.137 116.367 126.038C116.169 125.608 116.501 126.389 116.531 126.424C116.402 126.256 116.333 125.929 116.263 125.731C116.1 125.291 115.956 124.846 115.828 124.396C115.565 123.481 115.372 122.551 115.238 121.607L115.362 122.537C115.12 120.712 115.12 118.877 115.362 117.052L115.238 117.982C115.357 117.151 115.521 116.325 115.738 115.514C115.837 115.138 115.951 114.767 116.075 114.401C116.199 114.035 116.303 113.476 116.535 113.165C116.535 113.165 116.149 114.04 116.372 113.55C116.407 113.476 116.436 113.402 116.471 113.328C116.55 113.155 116.63 112.982 116.714 112.809C116.907 112.418 117.11 112.032 117.323 111.656C117.729 110.949 118.179 110.281 118.659 109.619C118.991 109.159 118.115 110.291 118.555 109.752C118.674 109.604 118.793 109.46 118.917 109.317C119.194 108.991 119.486 108.669 119.788 108.358C120.352 107.779 120.951 107.23 121.58 106.721C121.659 106.656 121.748 106.562 121.832 106.518C121.902 106.478 121.144 107.032 121.446 106.819C121.6 106.711 121.748 106.592 121.907 106.483C122.258 106.231 122.619 105.994 122.991 105.766C123.684 105.341 124.407 104.955 125.149 104.614C125.248 104.569 125.347 104.525 125.446 104.48C125.877 104.282 125.095 104.614 125.06 104.643C125.228 104.515 125.555 104.446 125.753 104.376C126.194 104.213 126.639 104.07 127.09 103.941C128.005 103.679 128.936 103.486 129.882 103.353L128.951 103.476C130.778 103.234 132.614 103.234 134.441 103.476L133.51 103.353C134.342 103.471 135.169 103.635 135.981 103.852C136.357 103.951 136.728 104.065 137.094 104.188C137.461 104.312 138.02 104.416 138.332 104.648C138.332 104.648 137.456 104.263 137.946 104.485C138.02 104.52 138.094 104.549 138.169 104.584C138.342 104.663 138.515 104.742 138.688 104.826C139.079 105.019 139.466 105.222 139.842 105.435C140.55 105.84 141.218 106.29 141.881 106.77C142.342 107.101 141.208 106.226 141.748 106.666C141.896 106.785 142.04 106.904 142.183 107.027C142.51 107.304 142.832 107.596 143.144 107.898C143.723 108.461 144.272 109.06 144.782 109.688C144.847 109.767 144.941 109.856 144.985 109.94C145.025 110.009 144.47 109.253 144.683 109.554C144.792 109.708 144.911 109.856 145.02 110.014C145.272 110.365 145.51 110.726 145.738 111.097C146.163 111.79 146.55 112.512 146.891 113.254C146.936 113.353 146.98 113.451 147.025 113.55C147.223 113.981 146.891 113.199 146.861 113.165C146.99 113.333 147.059 113.659 147.129 113.857C147.292 114.297 147.436 114.742 147.564 115.192C147.827 116.107 148.02 117.037 148.153 117.982L148.03 117.052C148.149 117.962 148.213 118.877 148.218 119.792C148.228 121.627 149.827 123.382 151.728 123.298C153.629 123.214 155.242 121.76 155.237 119.792C155.218 115.039 153.782 110.212 150.99 106.34C148.198 102.467 144.233 99.3665 139.594 97.6504C130.624 94.3319 119.847 97.2349 113.768 104.609C110.536 108.531 108.63 113.17 108.244 118.239C107.882 122.952 109.09 127.848 111.536 131.889C113.981 135.929 117.54 139.193 121.773 141.082C126.461 143.179 131.505 143.788 136.555 142.789C145.762 140.969 153.44 133.09 154.876 123.798C155.084 122.467 155.233 121.137 155.237 119.787C155.247 117.952 153.619 116.196 151.728 116.28C149.837 116.364 148.228 117.818 148.218 119.787V119.797Z" fill="white"/>
</svg>
