<svg width="60" height="60" viewBox="0 0 60 60" fill="none" xmlns="http://www.w3.org/2000/svg">
<path fill-rule="evenodd" clip-rule="evenodd" d="M27.6129 11.1431H32.9186C33.4772 11.1431 33.93 11.5959 33.93 12.1545V13.4145C33.93 13.9731 33.4772 14.4259 32.9186 14.4259H27.6129C27.0543 14.4259 26.6014 13.9731 26.6014 13.4145V12.1545C26.6014 11.5959 27.0543 11.1431 27.6129 11.1431ZM25.2342 14.8288H23.9742C23.4156 14.8288 22.9628 15.2816 22.9628 15.8402V21.1459C22.9628 21.7045 23.4156 22.1574 23.9742 22.1574H25.2342C25.7928 22.1574 26.2456 21.7045 26.2456 21.1459V15.8402C26.2456 15.2816 25.7928 14.8288 25.2342 14.8288ZM16.2469 22.5516H21.5526C22.1112 22.5516 22.5641 23.0045 22.5641 23.5631V24.8231C22.5641 25.3817 22.1112 25.8345 21.5526 25.8345H16.2469C15.6883 25.8345 15.2355 25.3817 15.2355 24.8231V23.5631C15.2355 23.0045 15.6883 22.5516 16.2469 22.5516ZM12.5827 26.1774H13.8427C14.4013 26.1774 14.8541 26.6302 14.8541 27.1888V32.4945C14.8541 33.0531 14.4013 33.5059 13.8427 33.5059H12.5827C12.0241 33.5059 11.5713 33.0531 11.5713 32.4945V27.1888C11.5713 26.6302 12.0241 26.1774 12.5827 26.1774ZM25.2342 26.1774H23.9742C23.4156 26.1774 22.9628 26.6302 22.9628 27.1888V32.4945C22.9628 33.0531 23.4156 33.5059 23.9742 33.5059H25.2342C25.7928 33.5059 26.2456 33.0531 26.2456 32.4945V27.1888C26.2456 26.6302 25.7928 26.1774 25.2342 26.1774ZM23.9399 37.5516H25.1999C25.7585 37.5516 26.2113 38.0045 26.2113 38.5631V43.8688C26.2113 44.4274 25.7585 44.8802 25.1999 44.8802H23.9399C23.3813 44.8802 22.9284 44.4274 22.9284 43.8688V38.5631C22.9284 38.0045 23.3813 37.5516 23.9399 37.5516ZM36.5871 37.5516H35.3271C34.7685 37.5516 34.3157 38.0045 34.3157 38.5631V43.8688C34.3157 44.4274 34.7685 44.8802 35.3271 44.8802H36.5871C37.1457 44.8802 37.5986 44.4274 37.5986 43.8688V38.5631C37.5986 38.0045 37.1457 37.5516 36.5871 37.5516ZM35.3271 26.1774H36.5871C37.1457 26.1774 37.5986 26.6302 37.5986 27.1888V32.4945C37.5986 33.0531 37.1457 33.5059 36.5871 33.5059H35.3271C34.7685 33.5059 34.3157 33.0531 34.3157 32.4945V27.1888C34.3157 26.6302 34.7685 26.1774 35.3271 26.1774ZM35.3271 14.8288H36.5871C37.1457 14.8288 37.5986 15.2816 37.5986 15.8402V21.1459C37.5986 21.7045 37.1457 22.1574 36.5871 22.1574H35.3271C34.7685 22.1574 34.3157 21.7045 34.3157 21.1459V15.8402C34.3157 15.2816 34.7685 14.8288 35.3271 14.8288ZM47.82 26.1774H46.56C46.0014 26.1774 45.5485 26.6302 45.5485 27.1888V32.4945C45.5485 33.0531 46.0014 33.5059 46.56 33.5059H47.82C48.3786 33.5059 48.8314 33.0531 48.8314 32.4945V27.1888C48.8314 26.6302 48.3786 26.1774 47.82 26.1774ZM32.9186 22.5174H27.6129C27.0543 22.5174 26.6014 22.9702 26.6014 23.5288V24.7888C26.6014 25.3474 27.0543 25.8002 27.6129 25.8002H32.9186C33.4772 25.8002 33.93 25.3474 33.93 24.7888V23.5288C33.93 22.9702 33.4772 22.5174 32.9186 22.5174ZM27.6129 33.8874H32.9186C33.4772 33.8874 33.93 34.3402 33.93 34.8988V36.1588C33.93 36.7174 33.4772 37.1702 32.9186 37.1702H27.6129C27.0543 37.1702 26.6014 36.7174 26.6014 36.1588V34.8988C26.6014 34.3402 27.0543 33.8874 27.6129 33.8874ZM32.9186 45.2574H27.6129C27.0543 45.2574 26.6014 45.7102 26.6014 46.2688V47.5288C26.6014 48.0874 27.0543 48.5402 27.6129 48.5402H32.9186C33.4772 48.5402 33.93 48.0874 33.93 47.5288V46.2688C33.93 45.7102 33.4772 45.2574 32.9186 45.2574ZM38.9872 33.9216H44.2929C44.8515 33.9216 45.3043 34.3745 45.3043 34.9331V36.1931C45.3043 36.7517 44.8515 37.2045 44.2929 37.2045H38.9872C38.4286 37.2045 37.9757 36.7517 37.9757 36.1931V34.9331C37.9757 34.3745 38.4286 33.9216 38.9872 33.9216ZM44.2929 22.5174H38.9872C38.4286 22.5174 37.9757 22.9702 37.9757 23.5288V24.7888C37.9757 25.3474 38.4286 25.8002 38.9872 25.8002H44.2929C44.8515 25.8002 45.3043 25.3474 45.3043 24.7888V23.5288C45.3043 22.9702 44.8515 22.5174 44.2929 22.5174ZM16.2469 33.8874H21.5526C22.1112 33.8874 22.5641 34.3402 22.5641 34.8988V36.1588C22.5641 36.7174 22.1112 37.1702 21.5526 37.1702H16.2469C15.6883 37.1702 15.2355 36.7174 15.2355 36.1588V34.8988C15.2355 34.3402 15.6883 33.8874 16.2469 33.8874Z" fill="#F4B1FF"/>
</svg>
