<svg width="32" height="32" viewBox="0 0 32 32" fill="none" xmlns="http://www.w3.org/2000/svg">
<path fill-rule="evenodd" clip-rule="evenodd" d="M14.3486 4.11426H17.7335C18.0899 4.11426 18.3788 4.40316 18.3788 4.75953V5.56339C18.3788 5.91977 18.0899 6.20867 17.7335 6.20867H14.3486C13.9922 6.20867 13.7033 5.91977 13.7033 5.56339V4.75953C13.7033 4.40316 13.9922 4.11426 14.3486 4.11426ZM12.831 6.4657H12.0271C11.6708 6.4657 11.3819 6.7546 11.3819 7.11097V10.4959C11.3819 10.8523 11.6708 11.1412 12.0271 11.1412H12.831C13.1874 11.1412 13.4763 10.8523 13.4763 10.4959V7.11097C13.4763 6.7546 13.1874 6.4657 12.831 6.4657ZM7.09727 11.3928H10.4822C10.8386 11.3928 11.1275 11.6817 11.1275 12.038V12.8419C11.1275 13.1983 10.8386 13.4872 10.4822 13.4872H7.09727C6.74089 13.4872 6.45199 13.1983 6.45199 12.8419V12.038C6.45199 11.6817 6.74089 11.3928 7.09727 11.3928ZM4.75956 13.7059H5.56343C5.9198 13.7059 6.2087 13.9948 6.2087 14.3512V17.7361C6.2087 18.0925 5.9198 18.3814 5.56343 18.3814H4.75956C4.40319 18.3814 4.11429 18.0925 4.11429 17.7361V14.3512C4.11429 13.9948 4.40319 13.7059 4.75956 13.7059ZM12.831 13.7059H12.0271C11.6708 13.7059 11.3819 13.9948 11.3819 14.3512V17.7361C11.3819 18.0925 11.6708 18.3814 12.0271 18.3814H12.831C13.1874 18.3814 13.4763 18.0925 13.4763 17.7361V14.3512C13.4763 13.9948 13.1874 13.7059 12.831 13.7059ZM12.0052 20.9625H12.8091C13.1655 20.9625 13.4544 21.2514 13.4544 21.6078V24.9928C13.4544 25.3491 13.1655 25.638 12.8091 25.638H12.0052C11.6489 25.638 11.36 25.3491 11.36 24.9928V21.6078C11.36 21.2514 11.6489 20.9625 12.0052 20.9625ZM20.074 20.9625H19.2702C18.9138 20.9625 18.6249 21.2514 18.6249 21.6078V24.9928C18.6249 25.3491 18.9138 25.638 19.2702 25.638H20.074C20.4304 25.638 20.7193 25.3491 20.7193 24.9928V21.6078C20.7193 21.2514 20.4304 20.9625 20.074 20.9625ZM19.2702 13.7059H20.074C20.4304 13.7059 20.7193 13.9948 20.7193 14.3512V17.7361C20.7193 18.0925 20.4304 18.3814 20.074 18.3814H19.2702C18.9138 18.3814 18.6249 18.0925 18.6249 17.7361V14.3512C18.6249 13.9948 18.9138 13.7059 19.2702 13.7059ZM19.2702 6.4657H20.074C20.4304 6.4657 20.7193 6.7546 20.7193 7.11097V10.4959C20.7193 10.8523 20.4304 11.1412 20.074 11.1412H19.2702C18.9138 11.1412 18.6249 10.8523 18.6249 10.4959V7.11097C18.6249 6.7546 18.9138 6.4657 19.2702 6.4657ZM27.2404 13.7059H26.4365C26.0802 13.7059 25.7913 13.9948 25.7913 14.3512V17.7361C25.7913 18.0925 26.0802 18.3814 26.4365 18.3814H27.2404C27.5968 18.3814 27.8857 18.0925 27.8857 17.7361V14.3512C27.8857 13.9948 27.5968 13.7059 27.2404 13.7059ZM17.7335 11.3709H14.3486C13.9922 11.3709 13.7033 11.6598 13.7033 12.0162V12.82C13.7033 13.1764 13.9922 13.4653 14.3486 13.4653H17.7335C18.0899 13.4653 18.3788 13.1764 18.3788 12.82V12.0162C18.3788 11.6598 18.0899 11.3709 17.7335 11.3709ZM14.3486 18.6248H17.7335C18.0899 18.6248 18.3788 18.9137 18.3788 19.27V20.0739C18.3788 20.4303 18.0899 20.7192 17.7335 20.7192H14.3486C13.9922 20.7192 13.7033 20.4303 13.7033 20.0739V19.27C13.7033 18.9137 13.9922 18.6248 14.3486 18.6248ZM17.7335 25.8787H14.3486C13.9922 25.8787 13.7033 26.1676 13.7033 26.5239V27.3278C13.7033 27.6842 13.9922 27.9731 14.3486 27.9731H17.7335C18.0899 27.9731 18.3788 27.6842 18.3788 27.3278V26.5239C18.3788 26.1676 18.0899 25.8787 17.7335 25.8787ZM21.6052 18.6466H24.9902C25.3465 18.6466 25.6354 18.9355 25.6354 19.2919V20.0958C25.6354 20.4522 25.3465 20.7411 24.9902 20.7411H21.6052C21.2488 20.7411 20.9599 20.4522 20.9599 20.0958V19.2919C20.9599 18.9355 21.2488 18.6466 21.6052 18.6466ZM24.9902 11.3709H21.6052C21.2488 11.3709 20.9599 11.6598 20.9599 12.0162V12.82C20.9599 13.1764 21.2488 13.4653 21.6052 13.4653H24.9902C25.3465 13.4653 25.6354 13.1764 25.6354 12.82V12.0162C25.6354 11.6598 25.3465 11.3709 24.9902 11.3709ZM7.09727 18.6248H10.4822C10.8386 18.6248 11.1275 18.9137 11.1275 19.27V20.0739C11.1275 20.4303 10.8386 20.7192 10.4822 20.7192H7.09727C6.74089 20.7192 6.45199 20.4303 6.45199 20.0739V19.27C6.45199 18.9137 6.74089 18.6248 7.09727 18.6248Z" fill="#F4B1FF"/>
</svg>
