<svg width="104" height="104" viewBox="0 0 104 104" fill="none" xmlns="http://www.w3.org/2000/svg">
<path d="M98.598 57.711L93.808 53.1424L98.8405 48.8423C109.309 39.8982 102.753 22.7621 88.9871 23.0886L82.3699 23.2458L82.8882 16.6459C83.9657 2.91917 67.2131 -4.56273 57.711 5.40201L53.1425 10.192L48.8423 5.15954C39.8982 -5.30869 22.7621 1.24663 23.0886 15.0129L23.2458 21.6301L16.6459 21.1118C2.91917 20.0343 -4.56273 36.7869 5.40201 46.289L10.192 50.8575L5.15954 55.1577C-5.30869 64.1018 1.24663 81.2379 15.0129 80.9114L21.6301 80.7542L21.1118 87.3541C20.0343 101.081 36.7869 108.563 46.289 98.598L50.8576 93.808L55.1577 98.8405C64.1018 109.309 81.2379 102.753 80.9113 88.9871L80.7542 82.3699L87.3541 82.8882C101.081 83.9657 108.563 67.2131 98.598 57.711Z" fill="#3D3D3D"/>
</svg>
