<svg width="252" height="252" viewBox="0 0 252 252" fill="none" xmlns="http://www.w3.org/2000/svg">
<path d="M195.266 133.699L188.053 126.82L195.631 120.345C211.393 106.877 201.523 81.0742 180.794 81.566L170.83 81.8026L171.61 71.8647C173.233 51.1954 148.007 39.9294 133.699 54.934L126.82 62.1466L120.345 54.5689C106.877 38.8061 81.0742 48.6769 81.566 69.4058L81.8025 79.3698L71.8647 78.5893C51.1954 76.9668 39.9294 102.192 54.934 116.5L62.1466 123.38L54.5689 129.855C38.8061 143.322 48.6769 169.125 69.4058 168.634L79.3698 168.397L78.5893 178.335C76.9668 199.004 102.192 210.27 116.5 195.266L123.38 188.053L129.855 195.631C143.322 211.393 169.125 201.523 168.634 180.794L168.397 170.83L178.335 171.61C199.004 173.233 210.27 148.007 195.266 133.699Z" fill="#F4B1FF"/>
</svg>
