<svg width="140" height="140" viewBox="0 0 140 140" fill="none" xmlns="http://www.w3.org/2000/svg">
<path fill-rule="evenodd" clip-rule="evenodd" d="M62.7749 18H77.5842C79.1433 18 80.4072 19.2639 80.4072 20.8231V24.34C80.4072 25.8991 79.1433 27.1631 77.5842 27.1631H62.7749C61.2158 27.1631 59.9519 25.8991 59.9519 24.34V20.8231C59.9519 19.2639 61.2158 18 62.7749 18ZM56.1356 28.2875L52.6187 28.2875C51.0596 28.2875 49.7957 29.5515 49.7957 31.1106V45.9199C49.7957 47.479 51.0596 48.7429 52.6187 48.7429H56.1356C57.6948 48.7429 58.9587 47.479 58.9587 45.9199V31.1106C58.9587 29.5515 57.6948 28.2875 56.1356 28.2875ZM31.0505 49.8434H45.8598C47.4189 49.8434 48.6828 51.1073 48.6828 52.6665V56.1834C48.6828 57.7425 47.4189 59.0065 45.8598 59.0065H31.0505C29.4914 59.0065 28.2275 57.7425 28.2275 56.1834L28.2275 52.6665C28.2275 51.1073 29.4914 49.8434 31.0505 49.8434ZM20.8231 59.9635H24.34C25.8991 59.9635 27.1631 61.2274 27.1631 62.7865V77.5958C27.1631 79.1549 25.8991 80.4188 24.34 80.4188H20.8231C19.2639 80.4188 18 79.1549 18 77.5958V62.7865C18 61.2274 19.2639 59.9635 20.8231 59.9635ZM56.1356 59.9635H52.6187C51.0596 59.9635 49.7957 61.2274 49.7957 62.7865V77.5958C49.7957 79.1549 51.0596 80.4188 52.6187 80.4188H56.1356C57.6948 80.4188 58.9587 79.1549 58.9587 77.5958V62.7865C58.9587 61.2274 57.6948 59.9635 56.1356 59.9635ZM52.5229 91.7112H56.0398C57.599 91.7112 58.8629 92.9751 58.8629 94.5342L58.8629 109.343C58.8629 110.903 57.599 112.167 56.0398 112.167H52.5229C50.9638 112.167 49.6999 110.903 49.6999 109.343V94.5342C49.6999 92.9751 50.9638 91.7112 52.5229 91.7112ZM87.8238 91.7112H84.3069C82.7478 91.7112 81.4838 92.9751 81.4838 94.5342L81.4838 109.343C81.4838 110.903 82.7478 112.167 84.3069 112.167H87.8238C89.383 112.167 90.6469 110.903 90.6469 109.343V94.5342C90.6469 92.9751 89.383 91.7112 87.8238 91.7112ZM84.3069 59.9635H87.8238C89.383 59.9635 90.6469 61.2274 90.6469 62.7865L90.6469 77.5958C90.6469 79.1549 89.383 80.4188 87.8238 80.4188H84.3069C82.7478 80.4188 81.4838 79.1549 81.4838 77.5958V62.7865C81.4838 61.2274 82.7478 59.9635 84.3069 59.9635ZM84.3069 28.2875H87.8238C89.383 28.2875 90.6469 29.5515 90.6469 31.1106V45.9199C90.6469 47.479 89.383 48.7429 87.8238 48.7429H84.3069C82.7478 48.7429 81.4838 47.479 81.4838 45.9199V31.1106C81.4838 29.5515 82.7478 28.2875 84.3069 28.2875ZM119.177 59.9635H115.66C114.101 59.9635 112.837 61.2274 112.837 62.7865L112.837 77.5958C112.837 79.1549 114.101 80.4188 115.66 80.4188H119.177C120.736 80.4188 122 79.1549 122 77.5958L122 62.7865C122 61.2274 120.736 59.9635 119.177 59.9635ZM77.5842 49.7478H62.7749C61.2158 49.7478 59.9519 51.0117 59.9519 52.5708V56.0877C59.9519 57.6469 61.2158 58.9108 62.7749 58.9108H77.5842C79.1433 58.9108 80.4072 57.6469 80.4072 56.0877V52.5708C80.4072 51.0117 79.1433 49.7478 77.5842 49.7478ZM62.7749 81.4835H77.5842C79.1433 81.4835 80.4072 82.7474 80.4072 84.3066V87.8234C80.4072 89.3826 79.1433 90.6465 77.5842 90.6465L62.7749 90.6465C61.2158 90.6465 59.9519 89.3826 59.9519 87.8234V84.3066C59.9519 82.7474 61.2158 81.4835 62.7749 81.4835ZM77.5842 113.219L62.7749 113.219C61.2158 113.219 59.9519 114.483 59.9519 116.042V119.559C59.9519 121.118 61.2158 122.382 62.7749 122.382L77.5842 122.382C79.1433 122.382 80.4072 121.118 80.4072 119.559V116.042C80.4072 114.483 79.1433 113.219 77.5842 113.219ZM94.5227 81.5792L109.332 81.5792C110.891 81.5792 112.155 82.8431 112.155 84.4023V87.9192C112.155 89.4783 110.891 90.7422 109.332 90.7422H94.5227C92.9636 90.7422 91.6996 89.4783 91.6996 87.9192V84.4023C91.6996 82.8431 92.9636 81.5792 94.5227 81.5792ZM109.332 49.7478H94.5227C92.9636 49.7478 91.6996 51.0117 91.6996 52.5708V56.0877C91.6996 57.6469 92.9636 58.9108 94.5227 58.9108L109.332 58.9108C110.891 58.9108 112.155 57.6469 112.155 56.0877V52.5708C112.155 51.0117 110.891 49.7478 109.332 49.7478ZM31.0505 81.4835H45.8598C47.4189 81.4835 48.6828 82.7474 48.6828 84.3066V87.8234C48.6828 89.3826 47.4189 90.6465 45.8598 90.6465H31.0505C29.4914 90.6465 28.2275 89.3826 28.2275 87.8234V84.3066C28.2275 82.7474 29.4914 81.4835 31.0505 81.4835Z" fill="#3D3D3D"/>
</svg>
