<svg width="200" height="200" viewBox="0 0 200 200" fill="none" xmlns="http://www.w3.org/2000/svg">
<path d="M166.569 108.159L159.726 101.632L166.915 95.4891C181.87 82.7118 172.505 58.2316 152.839 58.6981L143.385 58.9226L144.126 49.4942C145.665 29.8846 121.733 19.1962 108.159 33.4315L101.632 40.2744L95.489 33.0851C82.7117 18.1305 58.2315 27.4953 58.698 47.1614L58.9225 56.6145L49.4941 55.874C29.8845 54.3348 19.196 78.2671 33.4314 91.8415L40.2743 98.368L33.085 104.511C18.1304 117.288 27.4951 141.769 47.1613 141.302L56.6144 141.078L55.8739 150.506C54.3346 170.116 78.267 180.804 91.8414 166.569L98.3679 159.726L104.511 166.915C117.288 181.87 141.768 172.505 141.302 152.839L141.077 143.386L150.506 144.126C170.115 145.665 180.804 121.733 166.569 108.159Z" fill="#F4B1FF"/>
</svg>
