<svg width="25" height="24" viewBox="0 0 25 24" fill="none" xmlns="http://www.w3.org/2000/svg">
<path fill-rule="evenodd" clip-rule="evenodd" d="M12.5 3C7.52944 3 3.5 7.02944 3.5 12C3.5 16.9706 7.52944 21 12.5 21C17.4706 21 21.5 16.9706 21.5 12C21.5 7.02944 17.4706 3 12.5 3ZM9 12C9 11.4477 9.44771 11 10 11H12.5858L11.7929 10.2071C11.4024 9.81658 11.4024 9.18342 11.7929 8.79289C12.1834 8.40237 12.8166 8.40237 13.2071 8.79289L15.7071 11.2929C15.8946 11.4804 16 11.7348 16 12C16 12.2652 15.8944 12.5198 15.7068 12.7074L13.2071 15.2071C12.8166 15.5976 12.1834 15.5976 11.7929 15.2071C11.4024 14.8166 11.4024 14.1834 11.7929 13.7929L12.5858 13H10C9.44772 13 9 12.5523 9 12Z" fill="white"/>
</svg>
