<svg width="24" height="24" viewBox="0 0 24 24" fill="none" xmlns="http://www.w3.org/2000/svg">
<g id="Go">
<path id="Go_2" fill-rule="evenodd" clip-rule="evenodd" d="M12 3C7.02944 3 3 7.02944 3 12C3 16.9706 7.02944 21 12 21C16.9706 21 21 16.9706 21 12C21 7.02944 16.9706 3 12 3ZM8.5 12C8.5 11.4477 8.94771 11 9.5 11H12.0858L11.2929 10.2071C10.9024 9.81658 10.9024 9.18342 11.2929 8.79289C11.6834 8.40237 12.3166 8.40237 12.7071 8.79289L15.2071 11.2929C15.3946 11.4804 15.5 11.7348 15.5 12C15.5 12.2652 15.3944 12.5198 15.2068 12.7074L12.7071 15.2071C12.3166 15.5976 11.6834 15.5976 11.2929 15.2071C10.9024 14.8166 10.9024 14.1834 11.2929 13.7929L12.0858 13H9.5C8.94772 13 8.5 12.5523 8.5 12Z" fill="#242424"/>
</g>
</svg>
