<svg width="24" height="24" viewBox="0 0 24 24" fill="none" xmlns="http://www.w3.org/2000/svg">
<path d="M12.6644 4.92862C12.2855 4.59183 11.7145 4.59183 11.3356 4.92862L3.66437 11.7475C3.25159 12.1144 2.61952 12.0773 2.2526 11.6645C1.88568 11.2517 1.92286 10.6196 2.33565 10.2527L10.0069 3.4338C11.1436 2.42343 12.8564 2.42343 13.9931 3.4338L17.6671 6.69961C17.7961 6.81426 18 6.7227 18 6.55013V5.50012C18 5.22397 18.2239 5.00012 18.5 5.00012H19.5C19.7762 5.00012 20 5.22397 20 5.50012V8.32421C20 8.60984 20.1222 8.88185 20.3356 9.07161L21.6644 10.2527C22.0772 10.6196 22.1143 11.2517 21.7474 11.6645C21.3805 12.0773 20.7484 12.1144 20.3356 11.7475L12.6644 4.92862Z" fill="black"/>
<path fill-rule="evenodd" clip-rule="evenodd" d="M16 21.0002H8.00001C5.79087 21.0002 4.00001 19.2093 4.00001 17.0002V14.9077C4.00001 14.331 4.24897 13.7824 4.683 13.4026L11.3415 7.5764C11.7185 7.2465 12.2815 7.2465 12.6585 7.5764L19.317 13.4026C19.7511 13.7824 20 14.331 20 14.9077V17.0002C20 19.2093 18.2092 21.0002 16 21.0002ZM10 14.0002C10 13.4479 10.4477 13.0002 11 13.0002H13C13.5523 13.0002 14 13.4479 14 14.0002V18.0002C14 18.5525 13.5523 19.0002 13 19.0002H11C10.4477 19.0002 10 18.5525 10 18.0002V14.0002Z" fill="black"/>
</svg>
