<svg width="24" height="24" viewBox="0 0 24 24" fill="none" xmlns="http://www.w3.org/2000/svg">
<g id="House">
<g id="Back">
<path d="M12.6644 4.92837C12.2855 4.59158 11.7145 4.59158 11.3356 4.92837L3.66437 11.7473C3.25159 12.1142 2.61952 12.077 2.2526 11.6642C1.88568 11.2515 1.92286 10.6194 2.33565 10.2525L10.0069 3.43355C11.1436 2.42319 12.8564 2.42319 13.9931 3.43355L17.6671 6.69936C17.7961 6.81401 18 6.72245 18 6.54988V5.49987C18 5.22373 18.2239 4.99987 18.5 4.99987H19.5C19.7762 4.99987 20 5.22373 20 5.49987V8.32396C20 8.6096 20.1222 8.8816 20.3356 9.07137L21.6644 10.2525C22.0772 10.6194 22.1143 11.2515 21.7474 11.6642C21.3805 12.077 20.7484 12.1142 20.3356 11.7473L12.6644 4.92837Z" fill="black"/>
<path fill-rule="evenodd" clip-rule="evenodd" d="M16 21H8.00001C5.79087 21 4.00001 19.2091 4.00001 17V14.9075C4.00001 14.3308 4.24897 13.7821 4.683 13.4023L11.3415 7.57615C11.7185 7.24625 12.2815 7.24625 12.6585 7.57615L19.317 13.4023C19.7511 13.7821 20 14.3308 20 14.9075V17C20 19.2091 18.2092 21 16 21ZM10 14C10 13.4477 10.4477 13 11 13H13C13.5523 13 14 13.4477 14 14V18C14 18.5522 13.5523 19 13 19H11C10.4477 19 10 18.5522 10 18V14Z" fill="black"/>
</g>
</g>
</svg>
