<svg width="252" height="252" viewBox="0 0 252 252" fill="none" xmlns="http://www.w3.org/2000/svg">
<path d="M186.611 56H135.909C106.944 56 83.4648 79.4569 83.4648 108.394V159.046C83.4648 164.62 87.9895 169.14 93.5686 169.14H144.275C173.24 169.14 196.719 145.683 196.719 116.747V66.0939C196.719 60.5203 192.195 56 186.616 56H186.611Z" fill="#242424"/>
<path d="M61.9705 194.565C64.0596 192.478 66.1486 190.391 68.2327 188.309C71.5297 185.016 74.8266 181.722 78.1236 178.428C78.8909 177.661 79.6582 176.895 80.4255 176.128C81.7225 174.833 81.8215 172.454 80.4255 171.173C79.0295 169.892 76.8513 169.788 75.4652 171.173C73.3761 173.26 71.2871 175.347 69.203 177.429C65.906 180.723 62.6091 184.017 59.3121 187.31C58.5448 188.077 57.7775 188.843 57.0102 189.61C55.7132 190.906 55.6142 193.285 57.0102 194.565C58.4062 195.846 60.5844 195.95 61.9705 194.565Z" fill="white"/>
<path d="M108.602 145.995C110.474 144.125 112.345 142.256 114.216 140.386C118.711 135.896 123.201 131.41 127.696 126.92C133.131 121.489 138.567 116.059 144.002 110.629C148.7 105.936 153.398 101.242 158.096 96.5488C160.373 94.2738 162.7 92.0335 164.938 89.714C164.967 89.6843 165.002 89.6497 165.032 89.62C166.329 88.3243 166.428 85.9455 165.032 84.6646C163.636 83.3836 161.457 83.2798 160.071 84.6646C158.2 86.534 156.329 88.4034 154.458 90.2728C149.963 94.7634 145.473 99.2491 140.978 103.74C135.542 109.17 130.107 114.6 124.671 120.03C119.973 124.724 115.275 129.417 110.578 134.111C108.3 136.385 105.974 138.626 103.736 140.945C103.706 140.975 103.672 141.01 103.642 141.039C102.345 142.335 102.246 144.714 103.642 145.995C105.038 147.276 107.216 147.38 108.602 145.995Z" fill="white"/>
<path d="M98.3749 141.094C98.4145 141.054 98.9244 140.579 98.9194 140.569C98.9491 140.624 98.0828 141.128 98.6175 140.817C98.7412 140.747 98.8551 140.668 98.9788 140.599C99.0778 140.545 99.1867 140.5 99.2907 140.446C98.3947 140.935 98.6372 140.708 98.959 140.609C99.2164 140.53 99.4739 140.475 99.7362 140.441L98.8056 140.564C99.2412 140.515 99.6719 140.52 100.112 140.574L99.1818 140.451C99.4194 140.49 99.6521 140.535 99.8798 140.604C99.9837 140.634 100.083 140.673 100.187 140.708C100.711 140.871 99.3451 140.287 99.8253 140.559C100.013 140.668 100.207 140.762 100.39 140.886C100.682 141.079 100.786 141.336 100.098 140.649C100.172 140.723 100.261 140.792 100.34 140.866C100.479 141 100.979 141.603 100.548 141.049C100.117 140.495 100.612 141.183 100.707 141.366C100.781 141.504 100.959 141.924 100.702 141.316C100.444 140.708 100.622 141.133 100.667 141.282C100.751 141.554 100.81 141.831 100.85 142.112L100.726 141.183C100.85 142.3 100.741 143.403 101.043 144.516C101.414 145.886 102.187 147.196 103.187 148.195C104.187 149.194 105.449 149.926 106.795 150.312C107.939 150.644 109.063 150.525 110.211 150.653L109.281 150.53C109.538 150.564 109.795 150.614 110.043 150.693C110.152 150.728 110.261 150.772 110.37 150.802C109.444 150.55 109.706 150.505 110.028 150.673C110.226 150.777 110.404 150.911 110.592 151.024C109.607 150.436 110.236 150.738 110.523 151.039C110.578 151.099 110.677 151.252 110.741 151.282C110.672 151.252 110.172 150.47 110.469 150.935C110.597 151.138 110.716 151.341 110.83 151.554C111.073 152.004 110.533 150.757 110.657 151.133C110.691 151.237 110.731 151.336 110.766 151.44C110.845 151.687 110.899 151.944 110.939 152.201L110.815 151.272C110.875 151.707 110.875 152.137 110.825 152.577L110.949 151.647C110.909 151.939 110.83 152.206 110.756 152.488C110.587 153.121 111.087 151.845 110.909 152.157C110.83 152.295 110.766 152.449 110.681 152.587C110.642 152.651 110.434 152.899 110.444 152.943C110.414 152.839 111.107 152.162 110.617 152.686C110.434 152.884 110.226 153.057 110.038 153.255C108.548 154.803 107.677 156.9 107.677 159.051C107.677 161.202 108.548 163.294 110.038 164.847C110.226 165.04 110.434 165.218 110.617 165.416C110.86 165.673 110.924 165.975 110.444 165.159C110.513 165.282 110.607 165.391 110.681 165.515C110.756 165.639 110.815 165.757 110.88 165.881C111.152 166.385 110.583 165.03 110.736 165.55C110.825 165.851 110.904 166.143 110.949 166.455L110.825 165.525C110.875 165.96 110.87 166.39 110.815 166.83L110.939 165.901C110.899 166.138 110.855 166.37 110.785 166.598C110.756 166.702 110.716 166.801 110.681 166.905C110.518 167.429 111.102 166.064 110.83 166.544C110.721 166.732 110.627 166.924 110.503 167.107C110.31 167.399 110.053 167.503 110.741 166.816C110.667 166.89 110.597 166.979 110.523 167.058C110.389 167.196 109.785 167.696 110.34 167.266C110.894 166.835 110.206 167.33 110.023 167.424C109.885 167.498 109.464 167.676 110.073 167.419C110.681 167.162 110.256 167.34 110.107 167.384C109.835 167.468 109.558 167.528 109.276 167.567L110.206 167.444C109.087 167.567 107.984 167.459 106.87 167.76C105.498 168.131 104.187 168.903 103.187 169.902C102.187 170.901 101.454 172.162 101.068 173.507C100.736 174.649 100.855 175.772 100.726 176.919L100.85 175.99C100.815 176.247 100.766 176.504 100.687 176.751C100.652 176.86 100.607 176.969 100.578 177.078C100.83 176.153 100.875 176.415 100.707 176.736C100.603 176.934 100.469 177.112 100.355 177.3C100.944 176.316 100.642 176.944 100.34 177.231C100.281 177.285 100.127 177.384 100.098 177.449C100.127 177.379 100.909 176.88 100.444 177.177C100.241 177.305 100.038 177.424 99.8253 177.538C99.3748 177.78 100.622 177.241 100.246 177.365C100.142 177.399 100.043 177.439 99.9392 177.473C99.6917 177.552 99.4342 177.607 99.1768 177.646L100.108 177.523C99.6719 177.582 99.2412 177.582 98.8006 177.533L99.7313 177.656C99.4392 177.617 99.1719 177.538 98.8897 177.463C98.2561 177.295 99.5333 177.795 99.2214 177.617C99.0828 177.538 98.9293 177.473 98.7907 177.389C98.7263 177.35 98.4788 177.142 98.4343 177.152C98.5382 177.122 99.2164 177.815 98.6917 177.325C98.4937 177.142 98.3204 176.934 98.1224 176.746C96.5729 175.258 94.474 174.387 92.3206 174.387C90.1672 174.387 88.0732 175.258 86.5187 176.746C86.3257 176.934 86.1475 177.142 85.9494 177.325C85.692 177.567 85.3901 177.632 86.2069 177.152C86.0831 177.221 85.9742 177.315 85.8504 177.389C85.7267 177.463 85.6079 177.523 85.4841 177.587C84.9792 177.859 86.3356 177.29 85.8158 177.444C85.5138 177.533 85.2217 177.612 84.9099 177.656L85.8405 177.533C85.4049 177.582 84.9742 177.577 84.5336 177.523L85.4643 177.646C85.2267 177.607 84.994 177.562 84.7663 177.493C84.6623 177.463 84.5633 177.424 84.4594 177.389C83.9346 177.226 85.3009 177.81 84.8208 177.538C84.6326 177.429 84.4396 177.335 84.2564 177.211C83.9643 177.018 83.8604 176.761 84.5485 177.449C84.4742 177.374 84.3851 177.305 84.3059 177.231C84.1673 177.097 83.6673 176.494 84.098 177.048C84.5287 177.602 84.0336 176.914 83.9396 176.732C83.8653 176.593 83.6871 176.173 83.9445 176.781C84.202 177.389 84.0238 176.964 83.9792 176.816C83.895 176.544 83.8356 176.267 83.796 175.985L83.9198 176.914C83.796 175.797 83.9049 174.694 83.603 173.581C83.2317 172.211 82.4594 170.901 81.4595 169.902C80.4595 168.903 79.1971 168.171 77.8506 167.785C76.7071 167.454 75.5834 167.572 74.4349 167.444L75.3656 167.567C75.1081 167.533 74.8507 167.483 74.6032 167.404C74.4943 167.37 74.3854 167.325 74.2765 167.295C75.2022 167.548 74.9398 167.592 74.618 167.424C74.42 167.32 74.2418 167.187 74.0537 167.073C75.0388 167.661 74.4101 167.36 74.123 167.058C74.0686 166.999 73.9695 166.845 73.9052 166.816C73.9745 166.845 74.4745 167.627 74.1775 167.162C74.0487 166.959 73.9299 166.756 73.8161 166.544C73.5735 166.094 74.1131 167.34 73.9893 166.964C73.9547 166.86 73.9151 166.761 73.8804 166.657C73.8012 166.41 73.7468 166.153 73.7072 165.896L73.8309 166.825C73.7715 166.39 73.7715 165.96 73.821 165.52L73.6973 166.45C73.7369 166.158 73.8161 165.891 73.8903 165.609C74.0586 164.976 73.5587 166.252 73.7369 165.94C73.8161 165.802 73.8804 165.648 73.9646 165.51C74.0042 165.446 74.2121 165.198 74.2022 165.154C74.2319 165.258 73.5389 165.935 74.0289 165.411C74.2121 165.213 74.42 165.04 74.6081 164.842C76.0982 163.294 76.9695 161.197 76.9695 159.046C76.9695 156.895 76.0982 154.803 74.6081 153.25C74.42 153.057 74.2121 152.879 74.0289 152.681C73.7864 152.424 73.722 152.122 74.2022 152.938C74.1329 152.815 74.0388 152.706 73.9646 152.582C73.8903 152.459 73.8309 152.34 73.7666 152.216C73.4943 151.712 74.0636 153.067 73.9101 152.548C73.821 152.246 73.7418 151.954 73.6973 151.643L73.821 152.572C73.7715 152.137 73.7765 151.707 73.8309 151.267L73.7072 152.196C73.7468 151.959 73.7913 151.727 73.8606 151.499C73.8903 151.395 73.9299 151.296 73.9646 151.192C74.128 150.668 73.5438 152.033 73.8161 151.554C73.925 151.366 74.0191 151.173 74.1428 150.99C74.3359 150.698 74.5933 150.594 73.9052 151.282C73.9794 151.207 74.0487 151.118 74.123 151.039C74.2567 150.901 74.8606 150.401 74.3062 150.831C73.7517 151.262 74.4398 150.767 74.623 150.673C74.7616 150.599 75.1824 150.421 74.5735 150.678C73.9646 150.935 74.3903 150.757 74.5388 150.713C74.8111 150.629 75.0883 150.569 75.3705 150.53L74.4398 150.653C75.5586 150.53 76.6625 150.639 77.7764 150.337C79.1476 149.966 80.4595 149.194 81.4595 148.195C82.4594 147.196 83.1921 145.935 83.5782 144.59C83.9099 143.448 83.7911 142.325 83.9198 141.178L83.796 142.107C83.8307 141.85 83.8802 141.593 83.9594 141.346C83.994 141.237 84.0386 141.128 84.0683 141.019C83.8158 141.944 83.7713 141.682 83.9396 141.361C84.0435 141.163 84.1772 140.985 84.2911 140.797C83.702 141.781 84.004 141.153 84.3059 140.866C84.3653 140.812 84.5188 140.713 84.5485 140.649C84.5188 140.718 83.7366 141.217 84.202 140.921C84.4049 140.792 84.6079 140.673 84.8208 140.559C85.2712 140.317 84.0238 140.856 84.4 140.733C84.5039 140.698 84.6029 140.658 84.7069 140.624C84.9544 140.545 85.2118 140.49 85.4692 140.451L84.5386 140.574C84.9742 140.515 85.4049 140.515 85.8455 140.564L84.9148 140.441C85.1326 140.47 85.3504 140.515 85.5633 140.574C85.6475 140.599 85.7316 140.629 85.8207 140.653C86.3405 140.797 85.1475 140.317 85.4247 140.48C85.6277 140.599 85.8356 140.698 86.0336 140.822C86.3009 140.985 86.3752 141.247 85.7316 140.574C85.8009 140.644 85.8851 140.703 85.9544 140.772C86.5138 141.291 86.9989 141.781 87.6227 142.236C88.2464 142.691 88.9692 143.003 89.7018 143.28C92.6621 144.377 96.2413 143.364 98.365 141.099C99.6174 139.758 99.7907 137.454 98.365 136.143C96.9393 134.833 94.7413 134.714 93.4047 136.143C93.2711 136.287 92.6176 136.845 93.1176 136.46C93.6176 136.074 92.9097 136.554 92.7612 136.643C92.3552 136.875 93.073 136.494 93.1473 136.494C93.0631 136.494 92.9196 136.578 92.8354 136.603C92.573 136.687 92.3057 136.741 92.0384 136.781L92.9691 136.657C92.5334 136.707 92.1028 136.707 91.6671 136.657L92.5978 136.781C92.38 136.746 92.1671 136.707 91.9542 136.648C91.8503 136.618 91.7414 136.583 91.6424 136.549C91.3057 136.42 91.4345 136.474 92.0236 136.712C91.8503 136.588 91.6226 136.489 91.4394 136.38C90.8998 136.069 92.0236 136.929 91.6077 136.509C90.9246 135.822 90.2315 135.154 89.39 134.654C87.5237 133.537 85.2564 133.275 83.1574 133.779C81.0585 134.284 79.3704 135.594 78.2021 137.31C77.6823 138.072 77.2813 138.982 77.0982 139.887C76.8853 140.925 76.9596 141.895 76.8507 142.923L76.9744 141.994C76.9398 142.241 76.8952 142.483 76.821 142.721C76.7913 142.825 76.7417 142.928 76.717 143.032C76.6427 143.374 77.0734 142.355 76.8804 142.642C76.7517 142.839 76.6378 143.062 76.519 143.265C76.2616 143.685 76.7714 142.923 76.7764 142.938C76.7863 142.993 76.5388 143.195 76.5041 143.23C76.4299 143.304 76.3358 143.369 76.2715 143.448C76.0635 143.7 76.9002 143.052 76.6031 143.195C76.3952 143.299 76.1873 143.448 75.9843 143.571C75.5537 143.829 76.3853 143.403 76.3804 143.413C76.3606 143.458 76.123 143.507 76.0735 143.522C75.8061 143.606 75.5388 143.655 75.2665 143.695L76.1972 143.571C75.1923 143.68 74.2418 143.616 73.227 143.804C72.3211 143.972 71.3904 144.363 70.633 144.882C68.8905 146.069 67.544 147.8 67.044 149.872C66.544 151.944 66.8014 154.175 67.8855 156.039C68.3806 156.89 69.0637 157.543 69.7172 158.25C70.2469 158.824 69.336 157.612 69.6479 158.146C69.7568 158.329 69.8558 158.556 69.9795 158.73C69.7419 158.141 69.6875 158.017 69.8162 158.349C69.8508 158.453 69.8855 158.556 69.9152 158.66C69.9746 158.873 70.0142 159.086 70.0488 159.303L69.9251 158.373C69.9746 158.809 69.9746 159.239 69.9251 159.674L70.0488 158.744C70.0142 158.962 69.9746 159.175 69.9152 159.387C69.8855 159.491 69.8508 159.6 69.8162 159.699C69.6875 160.035 69.7419 159.907 69.9795 159.318C69.8558 159.491 69.7568 159.719 69.6479 159.902C69.336 160.441 70.1974 159.318 69.7766 159.734C69.0885 160.416 68.4202 161.108 67.9202 161.949C66.8014 163.814 66.539 166.079 67.044 168.176C67.5489 170.273 68.8608 171.959 70.5785 173.126C71.3409 173.645 72.2518 174.046 73.1577 174.229C74.1973 174.442 75.1675 174.368 76.1972 174.476L75.2665 174.353C75.5141 174.387 75.7566 174.432 75.9942 174.506C76.0982 174.536 76.2022 174.585 76.3061 174.61C76.6477 174.684 75.6279 174.254 75.915 174.447C76.1131 174.575 76.3358 174.689 76.5388 174.808C76.9596 175.065 76.1972 174.555 76.2121 174.551C76.2665 174.541 76.4695 174.788 76.5041 174.823C76.5784 174.897 76.6427 174.991 76.7219 175.055C76.9744 175.263 76.3259 174.427 76.4695 174.724C76.5734 174.931 76.7219 175.139 76.8457 175.342C77.1031 175.772 76.6774 174.941 76.6873 174.946C76.7318 174.966 76.7814 175.203 76.7962 175.253C76.8804 175.52 76.9299 175.787 76.9695 176.059L76.8457 175.129C76.9546 176.133 76.8903 177.083 77.0784 178.096C77.2467 179.002 77.6378 179.931 78.1576 180.688C79.3456 182.429 81.0783 183.774 83.1525 184.274C85.2267 184.773 87.4593 184.516 89.3256 183.433C90.1771 182.938 90.8305 182.256 91.5384 181.603C92.1127 181.074 90.8998 181.984 91.4345 181.672C91.6176 181.563 91.8453 181.464 92.0186 181.341C91.4295 181.578 91.3057 181.633 91.6374 181.504C91.7414 181.469 91.8453 181.435 91.9493 181.405C92.1622 181.346 92.375 181.306 92.5928 181.272L91.6622 181.395C92.0978 181.346 92.5285 181.346 92.9641 181.395L92.0334 181.272C92.2513 181.306 92.4641 181.346 92.677 181.405C92.781 181.435 92.8899 181.469 92.9889 181.504C93.3255 181.633 93.1968 181.578 92.6077 181.341C92.781 181.464 93.0087 181.563 93.1918 181.672C93.7314 181.984 92.6077 181.123 93.0235 181.544C93.7067 182.231 94.3997 182.899 95.2413 183.398C97.1076 184.516 99.3749 184.778 101.474 184.274C103.573 183.769 105.261 182.458 106.429 180.742C106.949 179.981 107.35 179.071 107.533 178.166C107.746 177.127 107.672 176.158 107.781 175.129L107.657 176.059C107.691 175.812 107.736 175.569 107.81 175.332C107.84 175.228 107.889 175.124 107.914 175.02C107.989 174.679 107.558 175.698 107.751 175.411C107.88 175.213 107.993 174.991 108.112 174.788C108.37 174.368 107.86 175.129 107.855 175.114C107.845 175.06 108.092 174.857 108.127 174.823C108.201 174.748 108.295 174.684 108.36 174.605C108.568 174.353 107.731 175.001 108.028 174.857C108.236 174.753 108.444 174.605 108.647 174.481C109.078 174.224 108.246 174.649 108.251 174.64C108.271 174.595 108.508 174.546 108.558 174.531C108.825 174.447 109.092 174.397 109.365 174.358L108.434 174.481C109.439 174.372 110.389 174.437 111.404 174.249C112.31 174.081 113.241 173.69 113.998 173.171C115.741 171.984 117.087 170.253 117.587 168.181C118.087 166.108 117.83 163.878 116.746 162.013C116.251 161.163 115.568 160.51 114.914 159.803C114.384 159.229 115.295 160.441 114.983 159.907C114.874 159.724 114.775 159.496 114.652 159.323C114.889 159.912 114.944 160.035 114.815 159.704C114.78 159.6 114.746 159.496 114.716 159.392C114.657 159.18 114.617 158.967 114.582 158.749L114.706 159.679C114.657 159.244 114.657 158.814 114.706 158.378L114.582 159.308C114.617 159.091 114.657 158.878 114.716 158.665C114.746 158.561 114.78 158.453 114.815 158.354C114.944 158.017 114.889 158.146 114.652 158.735C114.775 158.561 114.874 158.334 114.983 158.151C115.295 157.612 114.434 158.735 114.855 158.319C115.543 157.637 116.211 156.944 116.711 156.103C117.83 154.239 118.092 151.974 117.587 149.877C117.082 147.78 115.77 146.094 114.053 144.926C113.29 144.407 112.379 144.007 111.474 143.824C110.434 143.611 109.464 143.685 108.434 143.576L109.365 143.7C109.117 143.665 108.875 143.621 108.637 143.547C108.533 143.517 108.429 143.467 108.325 143.443C107.984 143.369 109.003 143.799 108.716 143.606C108.518 143.477 108.295 143.364 108.092 143.245C107.672 142.988 108.434 143.497 108.419 143.502C108.365 143.512 108.162 143.265 108.127 143.23C108.053 143.156 107.988 143.062 107.909 142.998C107.657 142.79 108.305 143.626 108.162 143.329C108.058 143.121 107.909 142.914 107.786 142.711C107.528 142.281 107.954 143.111 107.944 143.106C107.899 143.087 107.85 142.849 107.835 142.8C107.751 142.533 107.701 142.266 107.662 141.994L107.786 142.923C107.687 142.018 107.736 141.153 107.597 140.238C107.469 139.387 107.147 138.576 106.751 137.815C106.013 136.41 104.716 135.169 103.3 134.471C100.023 132.859 95.9244 133.349 93.4097 136.133C92.182 137.493 91.9641 139.763 93.4097 141.089C94.7512 142.32 97.0581 142.543 98.3699 141.089L98.3749 141.094Z" fill="white"/>
</svg>
