<svg width="60" height="60" viewBox="0 0 60 60" fill="none" xmlns="http://www.w3.org/2000/svg">
<path fill-rule="evenodd" clip-rule="evenodd" d="M41.7432 11.1431H37.6974C36.7909 11.1431 36.056 11.878 36.056 12.7845C36.056 13.691 36.7909 14.4259 37.6974 14.4259H41.7432C42.6497 14.4259 43.3846 13.691 43.3846 12.7845C43.3846 11.878 42.6497 11.1431 41.7432 11.1431ZM37.6677 15.0088C38.5743 15.0088 39.3092 15.7437 39.3092 16.6502C39.3092 17.5568 38.5743 18.2916 37.6677 18.2916C36.7612 18.2916 36.0263 17.5568 36.0263 16.6502C36.0263 15.7437 36.7612 15.0088 37.6677 15.0088ZM34.1276 18.8145H29.8162C28.9096 18.8145 28.1747 19.5494 28.1747 20.4559C28.1747 21.3625 28.9096 22.0974 29.8162 22.0974H34.1276C35.0341 22.0974 35.769 21.3625 35.769 20.4559C35.769 19.5494 35.0341 18.8145 34.1276 18.8145ZM26.2934 22.3373C27.2 22.3373 27.9349 23.0722 27.9349 23.9788V28.3116C27.9349 29.2182 27.2 29.9531 26.2934 29.9531C25.3869 29.9531 24.652 29.2182 24.652 28.3116V23.9788C24.652 23.0722 25.3869 22.3373 26.2934 22.3373ZM39.8147 24.2659C39.8147 23.3594 39.0798 22.6245 38.1733 22.6245C37.2668 22.6245 36.5319 23.3594 36.5319 24.2659C36.5319 25.1724 37.2668 25.9073 38.1733 25.9073C39.0798 25.9073 39.8147 25.1724 39.8147 24.2659ZM33.8746 26.4174C34.7812 26.4174 35.516 27.1523 35.516 28.0588C35.516 28.9653 34.7812 29.7002 33.8746 29.7002C32.9681 29.7002 32.2332 28.9653 32.2332 28.0588C32.2332 27.1523 32.9681 26.4174 33.8746 26.4174ZM30.069 30.1674C30.9755 30.1674 31.7104 30.9023 31.7104 31.8088V35.6402C31.7104 36.5468 30.9755 37.2816 30.069 37.2816C29.1624 37.2816 28.4275 36.5468 28.4275 35.6402V31.8088C28.4275 30.9023 29.1624 30.1674 30.069 30.1674ZM45.2447 15.0088C46.1513 15.0088 46.8862 15.7437 46.8862 16.6502V28.0245C46.8862 28.931 46.1513 29.6659 45.2447 29.6659C44.3382 29.6659 43.6033 28.931 43.6033 28.0245V16.6502C43.6033 15.7437 44.3382 15.0088 45.2447 15.0088ZM37.873 33.9945H33.8273C32.9208 33.9945 32.1859 34.7294 32.1859 35.6359C32.1859 36.5425 32.9208 37.2774 33.8273 37.2774H37.873C38.7796 37.2774 39.5145 36.5425 39.5145 35.6359C39.5145 34.7294 38.7796 33.9945 37.873 33.9945ZM41.4562 30.1674C42.3628 30.1674 43.0977 30.9023 43.0977 31.8088C43.0977 32.7153 42.3628 33.4502 41.4562 33.4502C40.5497 33.4502 39.8148 32.7153 39.8148 31.8088C39.8148 30.9023 40.5497 30.1674 41.4562 30.1674ZM20.8631 39.3945C20.8631 40.301 21.598 41.0359 22.5046 41.0359C23.4111 41.0359 24.146 40.301 24.146 39.3945C24.146 38.488 23.4111 37.7531 22.5046 37.7531C21.598 37.7531 20.8631 38.488 20.8631 39.3945ZM30.0732 41.0359C29.1667 41.0359 28.4318 40.301 28.4318 39.3945C28.4318 38.488 29.1667 37.7531 30.0732 37.7531C30.9797 37.7531 31.7146 38.488 31.7146 39.3945C31.7146 40.301 30.9797 41.0359 30.0732 41.0359ZM22.4963 37.2816H26.2977C27.2042 37.2816 27.9391 36.5467 27.9391 35.6402C27.9391 34.7337 27.2042 33.9988 26.2977 33.9988H22.4963C21.5897 33.9988 20.8548 34.7337 20.8548 35.6402C20.8548 36.5467 21.5897 37.2816 22.4963 37.2816ZM26.2889 44.8802H22.496C21.5895 44.8802 20.8546 44.1453 20.8546 43.2388C20.8546 42.3322 21.5895 41.5973 22.496 41.5973H26.2889C27.1954 41.5973 27.9303 42.3322 27.9303 43.2388C27.9303 44.1453 27.1954 44.8802 26.2889 44.8802ZM13.2861 46.9716C13.2861 47.8782 14.021 48.6131 14.9276 48.6131C15.8341 48.6131 16.569 47.8782 16.569 46.9716C16.569 46.0651 15.8341 45.3302 14.9276 45.3302C14.021 45.3302 13.2861 46.0651 13.2861 46.9716ZM18.7161 44.8245C17.8095 44.8245 17.0746 44.0896 17.0746 43.1831C17.0746 42.2765 17.8095 41.5416 18.7161 41.5416C19.6226 41.5416 20.3575 42.2765 20.3575 43.1831C20.3575 44.0896 19.6226 44.8245 18.7161 44.8245Z" fill="#9FA9FF"/>
</svg>
