<svg width="60" height="60" viewBox="0 0 60 60" fill="none" xmlns="http://www.w3.org/2000/svg">
<path fill-rule="evenodd" clip-rule="evenodd" d="M41.7432 11.1428H37.6974C36.7909 11.1428 36.056 11.8777 36.056 12.7843C36.056 13.6908 36.7909 14.4257 37.6974 14.4257H41.7432C42.6497 14.4257 43.3846 13.6908 43.3846 12.7843C43.3846 11.8777 42.6497 11.1428 41.7432 11.1428ZM37.6677 15.0085C38.5743 15.0085 39.3092 15.7434 39.3092 16.65C39.3092 17.5565 38.5743 18.2914 37.6677 18.2914C36.7612 18.2914 36.0263 17.5565 36.0263 16.65C36.0263 15.7434 36.7612 15.0085 37.6677 15.0085ZM34.1276 18.8143H29.8162C28.9096 18.8143 28.1747 19.5492 28.1747 20.4557C28.1747 21.3622 28.9096 22.0971 29.8162 22.0971H34.1276C35.0341 22.0971 35.769 21.3622 35.769 20.4557C35.769 19.5492 35.0341 18.8143 34.1276 18.8143ZM26.2934 22.3371C27.2 22.3371 27.9349 23.072 27.9349 23.9785V28.3114C27.9349 29.2179 27.2 29.9528 26.2934 29.9528C25.3869 29.9528 24.652 29.2179 24.652 28.3114V23.9785C24.652 23.072 25.3869 22.3371 26.2934 22.3371ZM39.8147 24.2657C39.8147 23.3591 39.0798 22.6242 38.1733 22.6242C37.2668 22.6242 36.5319 23.3591 36.5319 24.2657C36.5319 25.1722 37.2668 25.9071 38.1733 25.9071C39.0798 25.9071 39.8147 25.1722 39.8147 24.2657ZM33.8746 26.4171C34.7812 26.4171 35.516 27.152 35.516 28.0585C35.516 28.9651 34.7812 29.7 33.8746 29.7C32.9681 29.7 32.2332 28.9651 32.2332 28.0585C32.2332 27.152 32.9681 26.4171 33.8746 26.4171ZM30.069 30.1671C30.9755 30.1671 31.7104 30.902 31.7104 31.8085V35.64C31.7104 36.5465 30.9755 37.2814 30.069 37.2814C29.1624 37.2814 28.4275 36.5465 28.4275 35.64V31.8085C28.4275 30.902 29.1624 30.1671 30.069 30.1671ZM45.2447 15.0085C46.1513 15.0085 46.8862 15.7434 46.8862 16.65V28.0243C46.8862 28.9308 46.1513 29.6657 45.2447 29.6657C44.3382 29.6657 43.6033 28.9308 43.6033 28.0243V16.65C43.6033 15.7434 44.3382 15.0085 45.2447 15.0085ZM37.873 33.9943H33.8273C32.9208 33.9943 32.1859 34.7291 32.1859 35.6357C32.1859 36.5422 32.9208 37.2771 33.8273 37.2771H37.873C38.7796 37.2771 39.5145 36.5422 39.5145 35.6357C39.5145 34.7291 38.7796 33.9943 37.873 33.9943ZM41.4562 30.1671C42.3628 30.1671 43.0977 30.902 43.0977 31.8085C43.0977 32.7151 42.3628 33.45 41.4562 33.45C40.5497 33.45 39.8148 32.7151 39.8148 31.8085C39.8148 30.902 40.5497 30.1671 41.4562 30.1671ZM20.8631 39.3942C20.8631 40.3008 21.598 41.0357 22.5046 41.0357C23.4111 41.0357 24.146 40.3008 24.146 39.3942C24.146 38.4877 23.4111 37.7528 22.5046 37.7528C21.598 37.7528 20.8631 38.4877 20.8631 39.3942ZM30.0732 41.0357C29.1667 41.0357 28.4318 40.3008 28.4318 39.3942C28.4318 38.4877 29.1667 37.7528 30.0732 37.7528C30.9797 37.7528 31.7146 38.4877 31.7146 39.3942C31.7146 40.3008 30.9797 41.0357 30.0732 41.0357ZM22.4963 37.2814H26.2977C27.2042 37.2814 27.9391 36.5465 27.9391 35.64C27.9391 34.7334 27.2042 33.9985 26.2977 33.9985H22.4963C21.5897 33.9985 20.8548 34.7334 20.8548 35.64C20.8548 36.5465 21.5897 37.2814 22.4963 37.2814ZM26.2889 44.88H22.496C21.5895 44.88 20.8546 44.1451 20.8546 43.2385C20.8546 42.332 21.5895 41.5971 22.496 41.5971H26.2889C27.1954 41.5971 27.9303 42.332 27.9303 43.2385C27.9303 44.1451 27.1954 44.88 26.2889 44.88ZM13.2861 46.9714C13.2861 47.8779 14.021 48.6128 14.9276 48.6128C15.8341 48.6128 16.569 47.8779 16.569 46.9714C16.569 46.0649 15.8341 45.33 14.9276 45.33C14.021 45.33 13.2861 46.0649 13.2861 46.9714ZM18.7161 44.8242C17.8095 44.8242 17.0746 44.0893 17.0746 43.1828C17.0746 42.2763 17.8095 41.5414 18.7161 41.5414C19.6226 41.5414 20.3575 42.2763 20.3575 43.1828C20.3575 44.0893 19.6226 44.8242 18.7161 44.8242Z" fill="#242424"/>
</svg>
