<svg width="24" height="24" viewBox="0 0 24 24" fill="none" xmlns="http://www.w3.org/2000/svg">
<g clip-path="url(#clip0_577_69989)">
<path d="M4.56265 8.26615C4.56265 7.5758 5.12229 7.01616 5.81264 7.01616C6.50299 7.01616 7.06263 7.5758 7.06263 8.26615L7.06263 14.6448C7.06263 14.8675 7.33191 14.979 7.4894 14.8216L17.3031 5.00782C17.7913 4.51966 18.5827 4.51967 19.0709 5.00782C19.559 5.49597 19.559 6.28742 19.0709 6.77557L9.25715 16.5893C9.09966 16.7468 9.21121 17.0161 9.43393 17.0161L15.8126 17.0161C16.5029 17.0161 17.0626 17.5757 17.0626 18.2661C17.0626 18.9564 16.5029 19.5161 15.8126 19.5161L5.81264 19.5161C5.12229 19.5161 4.56265 18.9564 4.56265 18.2661L4.56265 8.26615Z" fill="#FFA63F" stroke="#FFA63F" stroke-linecap="round" stroke-linejoin="round"/>
</g>
<defs>
<clipPath id="clip0_577_69989">
<rect width="24" height="24" fill="white" transform="matrix(-1 0 0 -1 24 24)"/>
</clipPath>
</defs>
</svg>
