<svg width="270" height="90" viewBox="0 0 270 90" fill="none" xmlns="http://www.w3.org/2000/svg">
<g opacity="0.2">
<path d="M45.0763 42.7872H3.88331C2.14361 42.7872 0.733305 44.1975 0.733305 45.9372V69.1144H0.674805V87.1594C0.674805 88.6506 1.88364 89.8594 3.3748 89.8594H7.64305C9.13422 89.8594 10.3431 88.6506 10.3431 87.1594V74.1679H45.0763C53.7411 74.1679 60.7678 67.1434 60.7678 58.4764C60.7678 49.8117 53.7433 42.7849 45.0763 42.7849V42.7872ZM45.0763 64.4997H10.4038V52.4554H45.0786C48.3996 52.4554 51.0996 55.1577 51.0996 58.4764C51.0996 61.7952 48.3973 64.4974 45.0786 64.4974L45.0763 64.4997Z" fill="#3D3D3D"/>
<path d="M153.787 35.585C151.799 35.585 150.188 37.1967 150.188 39.185V86.1515C150.188 88.1397 151.799 89.7515 153.788 89.7515H186.858C196.778 89.7515 204.833 81.6965 204.833 71.7762C204.833 62.8689 198.339 55.4654 189.832 54.0463C190.54 52.4298 190.933 50.6443 190.933 48.7677C190.933 41.4912 185.027 35.585 177.75 35.585H153.787Z" fill="#3D3D3D"/>
<path fill-rule="evenodd" clip-rule="evenodd" d="M148.388 66.1286C148.388 79.1452 137.835 89.6973 124.819 89.6973C111.802 89.6973 101.25 79.1452 101.25 66.1286C101.25 53.1119 111.802 42.5598 124.819 42.5598C137.835 42.5598 148.388 53.1119 148.388 66.1286ZM131.225 75.9363C131.661 76.3728 132.233 76.5911 132.802 76.5911C133.373 76.5911 133.945 76.3728 134.381 75.9363C135.252 75.0656 135.252 73.6526 134.381 72.7796L118.881 57.2793C118.01 56.4086 116.597 56.4086 115.724 57.2793C114.853 58.1501 114.853 59.5631 115.724 60.4361L131.225 75.9363Z" fill="#3D3D3D"/>
<path d="M232.715 44.1416H213.248C211.965 44.1416 210.924 45.1822 210.924 46.4659V49.8116C210.924 51.0952 211.965 52.1359 213.248 52.1359H232.715C233.999 52.1359 235.04 51.0952 235.04 49.8116V46.4659C235.04 45.1822 233.999 44.1416 232.715 44.1416Z" fill="#3D3D3D"/>
<path d="M237.361 52.003H240.707C241.991 52.003 243.031 53.0436 243.031 54.3272V79.3877C243.031 80.6714 241.991 81.712 240.707 81.712H237.361C236.078 81.712 235.037 80.6714 235.037 79.3877V54.3272C235.037 53.0436 236.078 52.003 237.361 52.003Z" fill="#3D3D3D"/>
<path d="M212.476 52.903H205.254C203.97 52.903 202.93 53.9436 202.93 55.2272V58.573C202.93 59.8566 203.97 60.8972 205.254 60.8972H212.476C213.76 60.8972 214.801 59.8566 214.801 58.573V55.2272C214.801 53.9436 213.76 52.903 212.476 52.903Z" fill="#3D3D3D"/>
<path d="M250.501 81.703H243.279C241.995 81.703 240.955 82.7436 240.955 84.0272V87.373C240.955 88.6566 241.995 89.6972 243.279 89.6972H250.501C251.785 89.6972 252.826 88.6566 252.826 87.373V84.0272C252.826 82.7436 251.785 81.703 250.501 81.703Z" fill="#3D3D3D"/>
<path d="M221.391 60.3954H232.713C233.997 60.3954 235.037 61.436 235.037 62.7197V66.0654C235.037 67.3491 233.997 68.3897 232.713 68.3897H221.391C220.107 68.3897 219.067 67.3491 219.067 66.0654V62.7197C219.067 61.436 220.107 60.3954 221.391 60.3954Z" fill="#3D3D3D"/>
<path d="M232.713 81.712H221.391C220.107 81.712 219.067 82.7526 219.067 84.0362V87.382C219.067 88.6656 220.107 89.7062 221.391 89.7062H232.713C233.997 89.7062 235.037 88.6656 235.037 87.382V84.0362C235.037 82.7526 233.997 81.712 232.713 81.712Z" fill="#3D3D3D"/>
<path d="M212.98 67.8565H216.724C218.008 67.8565 219.049 68.8971 219.049 70.1807V80.1865C219.049 81.4701 218.008 82.5107 216.724 82.5107H212.98C211.697 82.5107 210.656 81.4701 210.656 80.1865V70.1807C210.656 68.8971 211.697 67.8565 212.98 67.8565Z" fill="#3D3D3D"/>
<path d="M79.3994 3.39947L64.9685 17.8304C63.2152 19.5836 63.2152 22.4262 64.9685 24.1794L72.2911 31.5021C74.0444 33.2553 76.8869 33.2553 78.6402 31.5021L93.0711 17.0712C94.8243 15.3179 94.8243 12.4754 93.0711 10.7222L85.7484 3.39947C83.9951 1.64624 81.1526 1.64624 79.3994 3.39947Z" fill="#242424"/>
<path d="M82.014 37.79C76.9593 37.79 72.3549 39.7478 68.921 42.9441C69.3057 39.8704 69.9646 37.8676 69.9851 37.8063C70.7095 35.6932 69.5881 33.392 67.4762 32.6604C65.3561 31.9246 63.0436 33.0487 62.311 35.1618C62.1473 35.6359 58.3164 46.9456 62.4051 59.1259C62.3192 67.3619 63.9195 79.534 72.6045 88.3709C73.3985 89.1802 74.4504 89.5848 75.5023 89.5848C76.5541 89.5848 77.5569 89.1965 78.3468 88.424C79.9471 86.8545 79.9717 84.2876 78.4 82.6895C75.8583 80.1022 74.1066 77.0653 72.9115 73.9221C75.6251 75.3813 78.7233 76.2151 82.014 76.2151C92.6227 76.2151 101.25 67.5949 101.25 57.0046C101.25 46.4143 92.6186 37.7941 82.014 37.7941V37.79ZM82.014 68.1058C75.8829 68.1058 70.8978 63.1233 70.8978 57.0046C70.8978 50.8858 75.887 45.9034 82.014 45.9034C88.141 45.9034 93.1302 50.8858 93.1302 57.0046C93.1302 63.1233 88.141 68.1058 82.014 68.1058Z" fill="#3D3D3D"/>
<path d="M259.622 37.858C259.908 36.616 261.166 35.8588 262.397 36.1886L267.237 37.4854C268.468 37.8152 269.18 39.1005 268.806 40.3187L262.772 59.9841C262.417 61.142 261.209 61.8109 260.039 61.4975L256.625 60.5829C255.455 60.2694 254.744 59.086 255.015 57.9056L259.622 37.858Z" fill="#3D3D3D"/>
<g clip-path="url(#clip0_2182_29205)">
<path d="M75.9797 15.8374L78.3875 16.4825L79.0195 14.1241C79.5371 12.1922 81.5169 11.0432 83.4402 11.5586C85.671 12.1563 86.992 14.4562 86.3916 16.697C85.8739 18.629 83.8941 19.7779 81.9708 19.2626L79.563 18.6174L78.9311 20.9758C78.4134 22.9078 76.4336 24.0567 74.5103 23.5414C72.2796 22.9436 70.9586 20.6437 71.559 18.4029C72.0766 16.471 74.0564 15.322 75.9797 15.8374Z" fill="#F7F7F7"/>
</g>
<g clip-path="url(#clip1_2182_29205)">
<rect width="14.4" height="14.4" transform="translate(250.509 60.0317) rotate(15)" fill="#F7F7F7"/>
<path d="M259.913 69.9458C261.385 69.0865 261.892 67.1911 261.048 65.7124C260.203 64.2326 258.327 63.7298 256.857 64.5895C256.808 64.6177 256.761 64.6474 256.715 64.6774C256.691 64.6313 256.666 64.5861 256.641 64.5406C255.796 63.0607 253.92 62.558 252.449 63.4176C250.978 64.2769 250.47 66.1723 251.315 67.651C251.34 67.695 251.367 67.7381 251.394 67.78C251.394 67.78 251.391 67.7806 251.391 67.7818C249.92 68.6411 249.412 70.5365 250.257 72.0151C251.101 73.495 252.977 73.9978 254.448 73.1381C254.448 73.1381 254.449 73.1372 254.451 73.1364C255.327 74.5143 257.137 74.9644 258.564 74.1306C259.992 73.2968 260.513 71.4847 259.768 70.0265C259.817 70.001 259.866 69.9743 259.914 69.9461L259.913 69.9458Z" fill="#3D3D3D"/>
</g>
<path d="M183.587 74.2264L182.663 73.3453L183.633 72.516C185.652 70.7911 184.388 67.4863 181.733 67.5492L180.457 67.5795L180.557 66.3067C180.765 63.6594 177.534 62.2165 175.701 64.1383L174.82 65.062L173.991 64.0915C172.266 62.0726 168.961 63.3369 169.024 65.9918L169.054 67.268L167.782 67.168C165.134 66.9602 163.691 70.1911 165.613 72.0236L166.537 72.9047L165.566 73.734C163.547 75.4589 164.812 78.7638 167.467 78.7008L168.743 78.6705L168.643 79.9433C168.435 82.5906 171.666 84.0335 173.498 82.1118L174.38 81.188L175.209 82.1585C176.934 84.1774 180.239 82.9132 180.176 80.2582L180.145 78.9821L181.418 79.082C184.065 79.2898 185.508 76.059 183.587 74.2264Z" fill="#F7F7F7"/>
</g>
<defs>
<clipPath id="clip0_2182_29205">
<rect width="16.2" height="16.2" fill="white" transform="translate(73.2471 7.62964) rotate(15)"/>
</clipPath>
<clipPath id="clip1_2182_29205">
<rect width="14.4" height="14.4" fill="white" transform="translate(250.509 60.0317) rotate(15)"/>
</clipPath>
</defs>
</svg>
