<svg width="1195" height="399" viewBox="0 0 1195 399" fill="none" xmlns="http://www.w3.org/2000/svg">
<rect width="1194.73" height="398.375" fill="white"/>
<path d="M197.34 189.165H14.26C6.52801 189.165 0.26 195.433 0.26 203.165V306.175H0V386.375C0 393.002 5.37258 398.375 12 398.375H30.97C37.5974 398.375 42.97 393.002 42.97 386.375V328.635H197.34C235.85 328.635 267.08 297.415 267.08 258.895C267.08 220.385 235.86 189.155 197.34 189.155V189.165ZM197.34 285.665H43.24V232.135H197.35C212.11 232.135 224.11 244.145 224.11 258.895C224.11 273.645 212.1 285.655 197.35 285.655L197.34 285.665Z" fill="#3D3D3D"/>
<path d="M680.5 157.155C671.663 157.155 664.5 164.318 664.5 173.155V381.895C664.5 390.732 671.663 397.895 680.5 397.895H827.48C871.57 397.895 907.37 362.095 907.37 318.005C907.37 278.417 878.508 245.513 840.698 239.206C843.844 232.021 845.59 224.086 845.59 215.745C845.59 183.405 819.34 157.155 787 157.155H680.5Z" fill="#3D3D3D"/>
<path fill-rule="evenodd" clip-rule="evenodd" d="M656.5 292.905C656.5 350.757 609.602 397.655 551.75 397.655C493.898 397.655 447 350.757 447 292.905C447 235.053 493.898 188.155 551.75 188.155C609.602 188.155 656.5 235.053 656.5 292.905ZM580.221 336.495C582.16 338.435 584.7 339.405 587.23 339.405C589.771 339.405 592.311 338.435 594.25 336.495C598.12 332.625 598.12 326.345 594.25 322.465L525.36 253.575C521.49 249.705 515.21 249.705 511.33 253.575C507.46 257.445 507.46 263.725 511.33 267.605L580.221 336.495Z" fill="#3D3D3D"/>
<path d="M1031.29 195.185H944.77C939.065 195.185 934.44 199.81 934.44 205.515V220.385C934.44 226.09 939.065 230.715 944.77 230.715H1031.29C1037 230.715 1041.62 226.09 1041.62 220.385V205.515C1041.62 199.81 1037 195.185 1031.29 195.185Z" fill="#3D3D3D"/>
<path d="M1051.94 230.125H1066.81C1072.52 230.125 1077.14 234.75 1077.14 240.455V351.835C1077.14 357.54 1072.52 362.165 1066.81 362.165H1051.94C1046.24 362.165 1041.61 357.54 1041.61 351.835V240.455C1041.61 234.75 1046.24 230.125 1051.94 230.125Z" fill="#3D3D3D"/>
<path d="M941.34 234.125H909.24C903.535 234.125 898.91 238.75 898.91 244.455V259.325C898.91 265.03 903.535 269.655 909.24 269.655H941.34C947.045 269.655 951.67 265.03 951.67 259.325V244.455C951.67 238.75 947.045 234.125 941.34 234.125Z" fill="#3D3D3D"/>
<path d="M1110.34 362.125H1078.24C1072.54 362.125 1067.91 366.75 1067.91 372.455V387.325C1067.91 393.03 1072.54 397.655 1078.24 397.655H1110.34C1116.05 397.655 1120.67 393.03 1120.67 387.325V372.455C1120.67 366.75 1116.05 362.125 1110.34 362.125Z" fill="#3D3D3D"/>
<path d="M980.96 267.425H1031.28C1036.99 267.425 1041.61 272.049 1041.61 277.755V292.625C1041.61 298.33 1036.99 302.955 1031.28 302.955H980.96C975.255 302.955 970.63 298.33 970.63 292.625V277.755C970.63 272.049 975.255 267.425 980.96 267.425Z" fill="#3D3D3D"/>
<path d="M1031.28 362.165H980.96C975.255 362.165 970.63 366.79 970.63 372.495V387.365C970.63 393.07 975.255 397.695 980.96 397.695H1031.28C1036.99 397.695 1041.61 393.07 1041.61 387.365V372.495C1041.61 366.79 1036.99 362.165 1031.28 362.165Z" fill="#3D3D3D"/>
<path d="M943.58 300.585H960.22C965.925 300.585 970.55 305.21 970.55 310.915V355.385C970.55 361.09 965.925 365.715 960.22 365.715H943.58C937.875 365.715 933.25 361.09 933.25 355.385V310.915C933.25 305.21 937.875 300.585 943.58 300.585Z" fill="#3D3D3D"/>
<path d="M349.888 14.109L285.751 78.2463C277.958 86.0385 277.958 98.672 285.751 106.464L318.296 139.009C326.088 146.802 338.721 146.802 346.514 139.009L410.651 74.8721C418.443 67.0799 418.443 54.4464 410.651 46.6543L378.106 14.109C370.314 6.31683 357.68 6.31682 349.888 14.109Z" fill="#242424"/>
<path d="M361.505 166.956C339.04 166.956 318.575 175.657 303.314 189.863C305.024 176.202 307.952 167.301 308.043 167.028C311.263 157.637 306.279 147.409 296.892 144.157C287.47 140.888 277.192 145.883 273.936 155.275C273.208 157.382 256.182 207.648 274.354 261.782C273.972 298.387 281.085 352.485 319.685 391.76C323.214 395.357 327.889 397.155 332.564 397.155C337.239 397.155 341.696 395.429 345.206 391.996C352.319 385.02 352.428 373.612 345.443 366.509C334.146 355.01 326.361 341.513 321.049 327.543C333.11 334.028 346.88 337.734 361.505 337.734C408.655 337.734 447 299.422 447 252.354C447 205.286 408.636 166.974 361.505 166.974V166.956ZM361.505 301.693C334.256 301.693 312.1 279.548 312.1 252.354C312.1 225.16 334.274 203.015 361.505 203.015C388.736 203.015 410.91 225.16 410.91 252.354C410.91 279.548 388.736 301.693 361.505 301.693Z" fill="#3D3D3D"/>
<path d="M1150.88 167.257C1152.15 161.738 1157.74 158.372 1163.21 159.838L1184.72 165.601C1190.19 167.067 1193.35 172.779 1191.69 178.194L1164.88 265.596C1163.3 270.742 1157.93 273.715 1152.73 272.322L1137.56 268.257C1132.36 266.864 1129.19 261.604 1130.4 256.358L1150.88 167.257Z" fill="#3D3D3D"/>
<g clip-path="url(#clip0_2085_60872)">
<path d="M334.686 69.3886L345.388 72.256L348.196 61.774C350.497 53.1877 359.296 48.0812 367.844 50.3717C377.759 53.0283 383.63 63.2502 380.961 73.2092C378.661 81.7956 369.861 86.902 361.313 84.6116L350.612 81.7442L347.804 92.2261C345.503 100.812 336.704 105.919 328.156 103.629C318.241 100.972 312.37 90.75 315.038 80.791C317.339 72.2046 326.138 67.0981 334.686 69.3886Z" fill="#81E4BB"/>
</g>
<g clip-path="url(#clip1_2085_60872)">
<path d="M1152.17 309.87C1158.71 306.051 1160.96 297.627 1157.21 291.055C1153.46 284.478 1145.12 282.244 1138.58 286.064C1138.37 286.19 1138.16 286.322 1137.95 286.455C1137.85 286.251 1137.74 286.05 1137.62 285.847C1133.87 279.27 1125.53 277.035 1119 280.856C1112.46 284.675 1110.2 293.099 1113.96 299.671C1114.07 299.867 1114.18 300.058 1114.3 300.245C1114.3 300.245 1114.29 300.247 1114.29 300.253C1107.75 304.072 1105.5 312.496 1109.25 319.067C1113 325.645 1121.34 327.879 1127.88 324.058C1127.88 324.058 1127.88 324.055 1127.89 324.051C1131.79 330.175 1139.83 332.175 1146.17 328.469C1152.52 324.764 1154.83 316.71 1151.52 310.229C1151.74 310.116 1151.96 309.997 1152.17 309.872L1152.17 309.87Z" fill="#89E481"/>
</g>
<path d="M812.941 328.895L808.836 324.979L813.149 321.293C822.122 313.627 816.503 298.939 804.703 299.219L799.031 299.354L799.476 293.696C800.399 281.931 786.04 275.518 777.895 284.059L773.979 288.165L770.294 283.851C762.627 274.878 747.939 280.497 748.219 292.297L748.354 297.969L742.697 297.524C730.931 296.601 724.518 310.96 733.059 319.105L737.165 323.021L732.851 326.707C723.878 334.373 729.497 349.061 741.297 348.781L746.969 348.647L746.525 354.304C745.601 366.069 759.96 372.482 768.105 363.941L772.021 359.835L775.707 364.149C783.373 373.122 798.061 367.503 797.781 355.703L797.647 350.031L803.304 350.476C815.069 351.399 821.482 337.04 812.941 328.895Z" fill="#F4B1FF"/>
<defs>
<clipPath id="clip0_2085_60872">
<rect width="72" height="72" fill="white" transform="translate(322.544 32.9092) rotate(15)"/>
</clipPath>
<clipPath id="clip1_2085_60872">
<rect width="64" height="64" fill="white" transform="translate(1110.37 265.808) rotate(15)"/>
</clipPath>
</defs>
</svg>
