<svg width="60" height="60" viewBox="0 0 60 60" fill="none" xmlns="http://www.w3.org/2000/svg">
<path fill-rule="evenodd" clip-rule="evenodd" d="M19.6756 11.1431H39.8913C40.4499 11.1431 40.9028 11.5959 40.9028 12.1545V13.4145C40.9028 13.9731 40.4499 14.4259 39.8913 14.4259H19.6756C19.117 14.4259 18.6642 13.9731 18.6642 13.4145V12.1545C18.6642 11.5959 19.117 11.1431 19.6756 11.1431ZM16.0114 14.9316H17.2714C17.83 14.9316 18.2829 15.3845 18.2829 15.9431V17.203C18.2829 17.7616 17.83 18.2145 17.2714 18.2145H16.0114C15.4528 18.2145 15 17.7616 15 17.203V15.9431C15 15.3845 15.4528 14.9316 16.0114 14.9316ZM24.8187 22.3331H23.5587C23.0001 22.3331 22.5473 22.7859 22.5473 23.3445V36.3388C22.5473 36.8974 23.0001 37.3502 23.5587 37.3502H24.8187C25.3773 37.3502 25.8302 36.8974 25.8302 36.3388V23.3445C25.8302 22.7859 25.3773 22.3331 24.8187 22.3331ZM27.0045 45.2573H28.2645C28.8231 45.2573 29.2759 45.7102 29.2759 46.2688V47.5288C29.2759 48.0874 28.8231 48.5402 28.2645 48.5402H27.0045C26.4459 48.5402 25.993 48.0874 25.993 47.5288V46.2688C25.993 45.7102 26.4459 45.2573 27.0045 45.2573ZM32.3057 37.6673H31.0457C30.4872 37.6673 30.0343 38.1202 30.0343 38.6788V43.6673C30.0343 44.2259 30.4872 44.6788 31.0457 44.6788H32.3057C32.8643 44.6788 33.3172 44.2259 33.3172 43.6673V38.6788C33.3172 38.1202 32.8643 37.6673 32.3057 37.6673ZM31.0457 30.0559H32.3057C32.8643 30.0559 33.3172 30.5088 33.3172 31.0674V32.3274C33.3172 32.886 32.8643 33.3388 32.3057 33.3388H31.0457C30.4872 33.3388 30.0343 32.886 30.0343 32.3274V31.0674C30.0343 30.5088 30.4872 30.0559 31.0457 30.0559ZM28.5172 26.2373H27.2572C26.6986 26.2373 26.2458 26.6902 26.2458 27.2488V28.5088C26.2458 29.0674 26.6986 29.5202 27.2572 29.5202H28.5172C29.0758 29.5202 29.5287 29.0674 29.5287 28.5088V27.2488C29.5287 26.6902 29.0758 26.2373 28.5172 26.2373ZM31.0457 22.4445H32.3057C32.8643 22.4445 33.3172 22.8973 33.3172 23.4559V24.7159C33.3172 25.2745 32.8643 25.7273 32.3057 25.7273H31.0457C30.4872 25.7273 30.0343 25.2745 30.0343 24.7159V23.4559C30.0343 22.8973 30.4872 22.4445 31.0457 22.4445ZM28.5172 33.8145H27.2572C26.6986 33.8145 26.2458 34.2673 26.2458 34.8259V36.0859C26.2458 36.6445 26.6986 37.0973 27.2572 37.0973H28.5172C29.0758 37.0973 29.5287 36.6445 29.5287 36.0859V34.8259C29.5287 34.2673 29.0758 33.8145 28.5172 33.8145ZM27.2572 41.0831H28.5172C29.0758 41.0831 29.5287 41.5359 29.5287 42.0945V43.6716C29.5287 44.2302 29.0758 44.6831 28.5172 44.6831H27.2572C26.6986 44.6831 26.2458 44.2302 26.2458 43.6716V42.0945C26.2458 41.5359 26.6986 41.0831 27.2572 41.0831ZM25.0715 37.6802H23.8115C23.2529 37.6802 22.8001 38.133 22.8001 38.6916V40.2688C22.8001 40.8274 23.2529 41.2802 23.8115 41.2802H25.0715C25.6301 41.2802 26.0829 40.8274 26.0829 40.2688V38.6916C26.0829 38.133 25.6301 37.6802 25.0715 37.6802ZM34.9627 22.3331H36.2227C36.7813 22.3331 37.2342 22.7859 37.2342 23.3445V39.8102C37.2342 40.3688 36.7813 40.8216 36.2227 40.8216H34.9627C34.4041 40.8216 33.9513 40.3688 33.9513 39.8102V23.3445C33.9513 22.7859 34.4041 22.3331 34.9627 22.3331ZM39.8913 18.7245H19.6756C19.117 18.7245 18.6642 19.1773 18.6642 19.7359V20.9959C18.6642 21.5545 19.117 22.0073 19.6756 22.0073H39.8913C40.4499 22.0073 40.9028 21.5545 40.9028 20.9959V19.7359C40.9028 19.1773 40.4499 18.7245 39.8913 18.7245ZM42.4159 14.9316H43.6759C44.2345 14.9316 44.6873 15.3845 44.6873 15.9431V17.203C44.6873 17.7616 44.2345 18.2145 43.6759 18.2145H42.4159C41.8573 18.2145 41.4044 17.7616 41.4044 17.203V15.9431C41.4044 15.3845 41.8573 14.9316 42.4159 14.9316Z" fill="#B073FF"/>
</svg>
