<svg width="252" height="252" viewBox="0 0 252 252" fill="none" xmlns="http://www.w3.org/2000/svg">
<path d="M155.532 69.6416H97.5408C78.0269 69.6416 62.2031 85.4455 62.2031 104.945V143.679C62.2031 151.326 66.049 158.457 72.4391 162.665L111.334 188.278C120.465 194.291 132.296 194.305 141.441 188.311L180.588 162.661C187.001 158.457 190.865 151.308 190.865 143.647V104.95C190.865 85.4547 175.046 69.6462 155.528 69.6462L155.532 69.6416Z" fill="#242424"/>
<path d="M114.716 189.107C115.867 188.292 117.017 187.477 118.168 186.662C120.932 184.702 123.701 182.746 126.465 180.786C129.811 178.414 133.162 176.046 136.508 173.674C139.419 171.613 142.325 169.557 145.236 167.496C146.643 166.498 148.06 165.513 149.458 164.506C149.476 164.492 149.499 164.478 149.517 164.465C150.223 163.966 150.773 163.384 151.012 162.523C151.227 161.744 151.131 160.71 150.686 160.023C149.802 158.653 147.725 157.811 146.24 158.859C145.089 159.675 143.939 160.49 142.788 161.305C140.024 163.265 137.255 165.22 134.491 167.18C131.145 169.553 127.794 171.92 124.448 174.292C121.537 176.353 118.631 178.409 115.72 180.47C114.313 181.468 112.896 182.453 111.498 183.461C111.48 183.474 111.457 183.488 111.439 183.502C110.733 184.001 110.183 184.583 109.944 185.443C109.729 186.222 109.825 187.257 110.27 187.944C111.154 189.313 113.231 190.156 114.716 189.107Z" fill="white"/>
<path d="M94.5335 177.613C96.4862 176.23 98.439 174.847 100.392 173.464C103.523 171.247 106.653 169.031 109.784 166.814C110.499 166.306 111.219 165.798 111.934 165.294C112.649 164.79 113.19 164.213 113.428 163.352C113.644 162.574 113.548 161.539 113.103 160.852C112.218 159.482 110.142 158.64 108.657 159.688C106.704 161.071 104.751 162.455 102.798 163.838C99.6675 166.054 96.5367 168.27 93.4058 170.487C92.6907 170.995 91.971 171.504 91.256 172.007C90.5409 172.511 89.9999 173.088 89.7616 173.949C89.5461 174.728 89.6424 175.763 90.087 176.449C90.9717 177.819 93.0483 178.661 94.5335 177.613Z" fill="white"/>
<path d="M77.1331 164.112C78.2836 163.297 79.4342 162.482 80.5848 161.666C83.3489 159.706 86.1176 157.751 88.8817 155.791C92.228 153.419 95.5789 151.051 98.9252 148.679C101.836 146.618 104.742 144.562 107.653 142.501C109.06 141.503 110.477 140.518 111.875 139.511C111.893 139.497 111.916 139.483 111.934 139.47C112.64 138.97 113.19 138.389 113.429 137.528C113.644 136.749 113.548 135.714 113.103 135.027C112.219 133.658 110.142 132.816 108.657 133.864C107.506 134.679 106.356 135.495 105.205 136.31C102.441 138.27 99.6723 140.225 96.9082 142.185C93.5619 144.557 90.2111 146.925 86.8648 149.297C83.954 151.358 81.0478 153.414 78.137 155.475C76.7297 156.473 75.3132 157.458 73.9151 158.465C73.8968 158.479 73.8739 158.493 73.8556 158.507C73.1496 159.006 72.5996 159.587 72.3612 160.448C72.1457 161.227 72.242 162.262 72.6866 162.949C73.5713 164.318 75.6479 165.161 77.1331 164.112Z" fill="white"/>
<path d="M186.336 111.69H66.7917C66.4754 111.69 66.1637 111.69 65.8474 111.69C65.7878 111.69 65.7328 111.69 65.6732 111.69C65.5357 111.69 65.3982 111.69 65.2561 111.681C64.926 111.672 64.6006 111.626 64.2705 111.603C65.2423 111.663 64.6051 111.645 64.3622 111.603C64.1743 111.567 63.9817 111.526 63.7984 111.48C63.4867 111.407 63.1795 111.315 62.8816 111.214C62.7257 111.159 62.5103 111.036 62.3453 111.017C62.8403 111.063 62.8999 111.269 62.5974 111.123C61.9419 110.807 61.3368 110.449 60.7271 110.051C60.4704 109.882 60.3742 109.616 60.8601 110.166C60.7638 110.056 60.6125 109.964 60.5025 109.868C60.2458 109.643 59.9937 109.41 59.7553 109.167C59.5399 108.943 59.3382 108.709 59.1365 108.471C58.7881 108.073 59.2832 108.636 59.3015 108.686C59.2236 108.48 58.999 108.26 58.8752 108.073C58.5314 107.541 58.3114 106.955 57.9905 106.419C58.4031 107.111 58.1601 106.845 58.073 106.58C58.0226 106.429 57.9676 106.282 57.9172 106.131C57.8026 105.765 57.7017 105.394 57.6238 105.018C57.5917 104.858 57.5688 104.702 57.5367 104.542C57.445 104.093 57.6146 105.412 57.5596 104.725C57.5367 104.395 57.5046 104.066 57.5 103.736C57.5 103.64 57.5 103.539 57.5 103.443C57.4817 97.3108 57.5 91.1834 57.5 85.0515C57.5 81.9923 57.5 78.9378 57.5 75.8787C57.5 75.1322 57.4771 74.3812 57.5413 73.6347C57.5505 73.5065 57.5734 73.3737 57.5826 73.2455C57.523 74.2163 57.5413 73.5798 57.5826 73.3371C57.6421 73.0211 57.7155 72.7097 57.8026 72.4029C57.8897 72.096 57.9997 71.7984 58.1005 71.4961C58.3114 70.8687 57.8209 72.0502 58.0226 71.661C58.1235 71.4686 58.206 71.2626 58.3068 71.0656C58.5864 70.5207 59.054 70.0261 59.2969 69.4811C59.0036 70.1451 59.0219 69.8292 59.2511 69.5544C59.3336 69.4582 59.4115 69.3666 59.4986 69.275C59.7508 69.0003 60.012 68.7347 60.2871 68.4874C60.4246 68.3637 60.5713 68.2446 60.7088 68.121C60.9334 67.9241 61.0251 68.0523 60.4933 68.2859C60.7638 68.1668 61.0113 67.9195 61.2635 67.7592C61.5568 67.5761 61.8548 67.4112 62.1619 67.2555C62.304 67.1868 62.4461 67.1227 62.5882 67.054C63.175 66.7701 61.9327 67.283 62.5103 67.0906C63.1887 66.8662 63.8442 66.683 64.5456 66.5411C64.8206 66.4815 64.9581 66.6098 64.2613 66.5731C64.4493 66.5823 64.6602 66.5319 64.8481 66.5182C65.114 66.4999 65.3798 66.4907 65.6457 66.4907C65.7878 66.4907 65.9299 66.4907 66.0766 66.4907H82.7576C89.5922 66.4907 96.4223 66.4907 103.257 66.4907C111.215 66.4907 119.172 66.4907 127.13 66.4907H150.838C157.503 66.4907 164.173 66.4907 170.838 66.4907C175.087 66.4907 179.341 66.4907 183.591 66.4907C184.443 66.4907 185.291 66.4907 186.144 66.4907C186.199 66.4907 186.254 66.4907 186.309 66.4907C186.511 66.4907 186.717 66.4953 186.919 66.5044C187.12 66.5136 187.313 66.5365 187.51 66.5502C188.197 66.6006 186.873 66.4358 187.327 66.5273C187.707 66.6052 188.083 66.6739 188.459 66.7746C188.766 66.8571 189.064 66.967 189.366 67.0631C189.632 67.1501 189.903 67.3929 189.206 66.9807C189.362 67.0769 189.554 67.1364 189.719 67.2188C189.999 67.3562 190.274 67.5074 190.544 67.6676C190.842 67.8462 191.159 68.1714 191.475 68.2905C191.425 68.2721 190.861 67.7821 191.26 68.1256C191.402 68.2492 191.544 68.3637 191.681 68.492C191.91 68.7026 192.135 68.9178 192.346 69.1422C192.557 69.3666 192.731 69.6506 192.956 69.8475C192.401 69.3575 192.671 69.4582 192.841 69.7147C192.96 69.8979 193.089 70.0719 193.203 70.2596C193.368 70.5253 193.524 70.7954 193.666 71.0748C193.753 71.2442 193.831 71.4137 193.914 71.5831C194.06 71.8808 193.854 71.8258 193.808 71.3312C193.836 71.6106 194.037 71.9495 194.12 72.2288C194.23 72.5952 194.322 72.9707 194.395 73.3508C194.441 73.5935 194.459 74.2255 194.395 73.2592C194.404 73.3874 194.422 73.5203 194.436 73.6485C194.464 73.9782 194.477 74.3079 194.477 74.6422C194.477 74.6835 194.477 74.7247 194.477 74.7659C194.477 75.5352 194.477 76.3046 194.477 77.0694C194.477 80.4811 194.477 83.8974 194.477 87.3092C194.477 91.0964 194.477 94.8883 194.477 98.6755C194.477 100.69 194.565 102.728 194.418 104.734C194.367 105.421 194.532 104.098 194.441 104.551C194.409 104.711 194.386 104.867 194.354 105.027C194.29 105.339 194.207 105.65 194.115 105.957C194.037 106.223 193.822 106.58 193.804 106.855L193.987 106.429C193.937 106.543 193.886 106.658 193.831 106.772C193.776 106.887 193.721 106.996 193.666 107.111C193.524 107.39 193.368 107.661 193.203 107.926C193.102 108.086 193.001 108.242 192.896 108.393C192.846 108.471 192.461 108.961 192.818 108.517C193.176 108.073 192.777 108.558 192.722 108.622C192.603 108.764 192.479 108.902 192.351 109.039C192.14 109.263 191.915 109.483 191.686 109.689C191.594 109.772 191.503 109.854 191.406 109.937C191.122 110.179 190.833 110.166 191.48 109.891C191.214 110.001 190.952 110.266 190.709 110.417C190.444 110.582 190.173 110.738 189.894 110.88C189.756 110.953 189.609 111.017 189.472 111.086C189.128 111.26 189.041 111.077 189.641 111.017C189.362 111.045 189.023 111.246 188.743 111.329C188.436 111.42 188.124 111.498 187.812 111.567C187.638 111.603 187.4 111.603 187.239 111.672C187.78 111.448 187.84 111.608 187.519 111.631C187.12 111.663 186.726 111.69 186.327 111.69C184.627 111.704 182.999 113.174 183.077 114.937C183.155 116.7 184.503 118.198 186.327 118.184C192.997 118.125 199.162 113.444 200.602 106.845C201.138 104.391 200.978 101.817 200.978 99.3212C200.978 92.0169 200.978 84.7126 200.978 77.4128C200.978 76.5565 200.978 75.7001 200.978 74.8483C200.978 72.4899 200.45 70.2688 199.446 68.1393C197.081 63.1477 191.736 60.0382 186.281 60.0061C183.907 59.9924 181.537 60.0061 179.163 60.0061C173.639 60.0061 168.111 60.0061 162.587 60.0061C155.129 60.0061 147.671 60.0061 140.213 60.0061H66.0262C62.2811 60.0061 58.834 61.238 55.9782 63.6651C53.6358 65.6527 51.8985 68.611 51.3209 71.6289C51.0733 72.9158 51 74.1889 51 75.4895C51 82.3862 51 89.2875 51 96.1843C51 98.5793 51 100.974 51 103.374C51.0092 108.906 54.1217 114.337 59.2282 116.7C61.5247 117.763 63.913 118.193 66.4204 118.193H130.435C138.324 118.193 146.213 118.193 154.107 118.193C160.57 118.193 167.033 118.193 173.497 118.193H186.332C188.032 118.193 189.66 116.7 189.582 114.947C189.504 113.193 188.156 111.7 186.332 111.7L186.336 111.69Z" fill="white"/>
</svg>
