<svg width="140" height="140" viewBox="0 0 140 140" fill="none" xmlns="http://www.w3.org/2000/svg">
<path fill-rule="evenodd" clip-rule="evenodd" d="M41.0719 18L97.591 18C99.1528 18 100.419 19.2714 100.419 20.8398V24.3775C100.419 25.9459 99.1528 27.2173 97.591 27.2173L41.0719 27.2173C39.5102 27.2173 38.2441 25.9459 38.2441 24.3775V20.8398C38.2441 19.2714 39.5102 18 41.0719 18ZM30.8278 28.6371H34.3505C35.9122 28.6371 37.1782 29.9086 37.1782 31.4769V35.0146C37.1782 36.583 35.9122 37.8544 34.3505 37.8544H30.8278C29.266 37.8544 28 36.583 28 35.0146L28 31.4769C28 29.9086 29.266 28.6371 30.8278 28.6371ZM55.4511 49.4182H51.9283C50.3666 49.4182 49.1006 50.6896 49.1006 52.258L49.1006 88.7421C49.1006 90.3104 50.3666 91.5818 51.9283 91.5818H55.4511C57.0128 91.5818 58.2788 90.3104 58.2788 88.7421L58.2788 52.258C58.2788 50.6896 57.0128 49.4182 55.4511 49.4182ZM61.5621 113.783H65.0848C66.6466 113.783 67.9126 115.054 67.9126 116.622V120.16C67.9126 121.729 66.6466 123 65.0848 123H61.5621C60.0004 123 58.7344 121.729 58.7344 120.16V116.622C58.7344 115.054 60.0004 113.783 61.5621 113.783ZM76.3837 92.4722H72.861C71.2992 92.4722 70.0332 93.7436 70.0332 95.312L70.0332 109.318C70.0332 110.887 71.2992 112.158 72.861 112.158H76.3837C77.9454 112.158 79.2114 110.887 79.2114 109.318L79.2114 95.312C79.2114 93.7436 77.9454 92.4722 76.3837 92.4722ZM72.861 71.1017H76.3837C77.9454 71.1017 79.2114 72.3731 79.2114 73.9415V77.4792C79.2114 79.0475 77.9454 80.3189 76.3837 80.3189H72.861C71.2992 80.3189 70.0332 79.0475 70.0332 77.4792V73.9415C70.0332 72.3731 71.2992 71.1017 72.861 71.1017ZM65.7919 60.3802H62.2692C60.7074 60.3802 59.4414 61.6516 59.4414 63.22V66.7577C59.4414 68.3261 60.7074 69.5975 62.2692 69.5975H65.7919C67.3536 69.5975 68.6196 68.3261 68.6196 66.7577V63.22C68.6196 61.6516 67.3536 60.3802 65.7919 60.3802ZM72.861 49.731H76.3837C77.9454 49.731 79.2114 51.0025 79.2114 52.5708V56.1085C79.2114 57.6769 77.9454 58.9483 76.3837 58.9483H72.861C71.2992 58.9483 70.0332 57.6769 70.0332 56.1085V52.5708C70.0332 51.0025 71.2992 49.731 72.861 49.731ZM65.7919 81.6546H62.2692C60.7074 81.6546 59.4414 82.926 59.4414 84.4944V88.0321C59.4414 89.6004 60.7074 90.8718 62.2692 90.8718H65.7919C67.3536 90.8718 68.6196 89.6004 68.6196 88.0321V84.4944C68.6196 82.926 67.3536 81.6546 65.7919 81.6546ZM62.2692 102.063H65.7919C67.3536 102.063 68.6196 103.334 68.6196 104.902L68.6196 109.331C68.6196 110.899 67.3536 112.17 65.7919 112.17H62.2692C60.7074 112.17 59.4414 110.899 59.4414 109.331V104.902C59.4414 103.334 60.7074 102.063 62.2692 102.063ZM56.1581 92.5084H52.6354C51.0736 92.5084 49.8076 93.7798 49.8076 95.3481V99.7763C49.8076 101.345 51.0736 102.616 52.6354 102.616H56.1581C57.7198 102.616 58.9858 101.345 58.9858 99.7763V95.3481C58.9858 93.7798 57.7198 92.5084 56.1581 92.5084ZM83.8121 49.4182H87.3348C88.8966 49.4182 90.1626 50.6896 90.1626 52.258V98.4888C90.1626 100.057 88.8966 101.329 87.3348 101.329L83.8121 101.329C82.2504 101.329 80.9844 100.057 80.9844 98.4888V52.258C80.9844 50.6896 82.2504 49.4182 83.8121 49.4182ZM97.591 39.2863L41.0719 39.2863C39.5102 39.2863 38.2441 40.5577 38.2441 42.1261V45.6638C38.2441 47.2322 39.5102 48.5036 41.0719 48.5036L97.591 48.5036C99.1528 48.5036 100.419 47.2322 100.419 45.6638V42.1261C100.419 40.5577 99.1528 39.2863 97.591 39.2863ZM104.649 28.6371L108.172 28.6371C109.733 28.6371 111 29.9086 111 31.4769V35.0146C111 36.583 109.733 37.8544 108.172 37.8544H104.649C103.087 37.8544 101.821 36.583 101.821 35.0146V31.4769C101.821 29.9086 103.087 28.6371 104.649 28.6371Z" fill="#3D3D3D"/>
</svg>
