<svg width="60" height="60" viewBox="0 0 60 60" fill="none" xmlns="http://www.w3.org/2000/svg">
<path fill-rule="evenodd" clip-rule="evenodd" d="M19.6756 11.1428H39.8913C40.4499 11.1428 40.9028 11.5957 40.9028 12.1543V13.4142C40.9028 13.9728 40.4499 14.4257 39.8913 14.4257H19.6756C19.117 14.4257 18.6642 13.9728 18.6642 13.4142V12.1543C18.6642 11.5957 19.117 11.1428 19.6756 11.1428ZM16.0114 14.9314H17.2714C17.83 14.9314 18.2829 15.3842 18.2829 15.9428V17.2028C18.2829 17.7614 17.83 18.2142 17.2714 18.2142H16.0114C15.4528 18.2142 15 17.7614 15 17.2028V15.9428C15 15.3842 15.4528 14.9314 16.0114 14.9314ZM24.8187 22.3328H23.5587C23.0001 22.3328 22.5473 22.7856 22.5473 23.3442V36.3385C22.5473 36.8971 23.0001 37.35 23.5587 37.35H24.8187C25.3773 37.35 25.8302 36.8971 25.8302 36.3385V23.3442C25.8302 22.7856 25.3773 22.3328 24.8187 22.3328ZM27.0045 45.2571H28.2645C28.8231 45.2571 29.2759 45.7099 29.2759 46.2685V47.5285C29.2759 48.0871 28.8231 48.54 28.2645 48.54H27.0045C26.4459 48.54 25.993 48.0871 25.993 47.5285V46.2685C25.993 45.7099 26.4459 45.2571 27.0045 45.2571ZM32.3057 37.6671H31.0457C30.4872 37.6671 30.0343 38.1199 30.0343 38.6785V43.6671C30.0343 44.2257 30.4872 44.6785 31.0457 44.6785H32.3057C32.8643 44.6785 33.3172 44.2257 33.3172 43.6671V38.6785C33.3172 38.1199 32.8643 37.6671 32.3057 37.6671ZM31.0457 30.0557H32.3057C32.8643 30.0557 33.3172 30.5085 33.3172 31.0671V32.3271C33.3172 32.8857 32.8643 33.3385 32.3057 33.3385H31.0457C30.4872 33.3385 30.0343 32.8857 30.0343 32.3271V31.0671C30.0343 30.5085 30.4872 30.0557 31.0457 30.0557ZM28.5172 26.2371H27.2572C26.6986 26.2371 26.2458 26.6899 26.2458 27.2485V28.5085C26.2458 29.0671 26.6986 29.52 27.2572 29.52H28.5172C29.0758 29.52 29.5287 29.0671 29.5287 28.5085V27.2485C29.5287 26.6899 29.0758 26.2371 28.5172 26.2371ZM31.0457 22.4442H32.3057C32.8643 22.4442 33.3172 22.8971 33.3172 23.4557V24.7157C33.3172 25.2743 32.8643 25.7271 32.3057 25.7271H31.0457C30.4872 25.7271 30.0343 25.2743 30.0343 24.7157V23.4557C30.0343 22.8971 30.4872 22.4442 31.0457 22.4442ZM28.5172 33.8142H27.2572C26.6986 33.8142 26.2458 34.2671 26.2458 34.8257V36.0857C26.2458 36.6443 26.6986 37.0971 27.2572 37.0971H28.5172C29.0758 37.0971 29.5287 36.6443 29.5287 36.0857V34.8257C29.5287 34.2671 29.0758 33.8142 28.5172 33.8142ZM27.2572 41.0828H28.5172C29.0758 41.0828 29.5287 41.5356 29.5287 42.0942V43.6714C29.5287 44.23 29.0758 44.6828 28.5172 44.6828H27.2572C26.6986 44.6828 26.2458 44.23 26.2458 43.6714V42.0942C26.2458 41.5356 26.6986 41.0828 27.2572 41.0828ZM25.0715 37.68H23.8115C23.2529 37.68 22.8001 38.1328 22.8001 38.6914V40.2685C22.8001 40.8271 23.2529 41.28 23.8115 41.28H25.0715C25.6301 41.28 26.0829 40.8271 26.0829 40.2685V38.6914C26.0829 38.1328 25.6301 37.68 25.0715 37.68ZM34.9627 22.3328H36.2227C36.7813 22.3328 37.2342 22.7856 37.2342 23.3442V39.81C37.2342 40.3686 36.7813 40.8214 36.2227 40.8214H34.9627C34.4041 40.8214 33.9513 40.3686 33.9513 39.81V23.3442C33.9513 22.7856 34.4041 22.3328 34.9627 22.3328ZM39.8913 18.7242H19.6756C19.117 18.7242 18.6642 19.1771 18.6642 19.7357V20.9957C18.6642 21.5543 19.117 22.0071 19.6756 22.0071H39.8913C40.4499 22.0071 40.9028 21.5543 40.9028 20.9957V19.7357C40.9028 19.1771 40.4499 18.7242 39.8913 18.7242ZM42.4159 14.9314H43.6759C44.2345 14.9314 44.6873 15.3842 44.6873 15.9428V17.2028C44.6873 17.7614 44.2345 18.2142 43.6759 18.2142H42.4159C41.8573 18.2142 41.4044 17.7614 41.4044 17.2028V15.9428C41.4044 15.3842 41.8573 14.9314 42.4159 14.9314Z" fill="#242424"/>
</svg>
