<svg width="32" height="32" viewBox="0 0 32 32" fill="none" xmlns="http://www.w3.org/2000/svg">
<path fill-rule="evenodd" clip-rule="evenodd" d="M9.38789 4.11426H22.3065C22.6635 4.11426 22.9529 4.40487 22.9529 4.76335V5.57197C22.9529 5.93045 22.6635 6.22106 22.3065 6.22106H9.38789C9.03092 6.22106 8.74154 5.93045 8.74154 5.57197V4.76335C8.74154 4.40487 9.03092 4.11426 9.38789 4.11426ZM7.04637 6.5456H7.85156C8.20853 6.5456 8.4979 6.83621 8.4979 7.1947V8.00331C8.4979 8.3618 8.20853 8.65241 7.85156 8.65241H7.04637C6.6894 8.65241 6.40002 8.3618 6.40002 8.00331V7.1947C6.40002 6.83621 6.6894 6.5456 7.04637 6.5456ZM12.6746 11.2956H11.8694C11.5124 11.2956 11.223 11.5862 11.223 11.9446V20.2839C11.223 20.6424 11.5124 20.933 11.8694 20.933H12.6746C13.0315 20.933 13.3209 20.6424 13.3209 20.2839V11.9446C13.3209 11.5862 13.0315 11.2956 12.6746 11.2956ZM14.0714 26.0075H14.8766C15.2335 26.0075 15.5229 26.2981 15.5229 26.6565V27.4652C15.5229 27.8236 15.2335 28.1143 14.8766 28.1143H14.0714C13.7144 28.1143 13.425 27.8236 13.425 27.4652V26.6565C13.425 26.2981 13.7144 26.0075 14.0714 26.0075ZM17.4591 21.1365H16.654C16.297 21.1365 16.0076 21.4271 16.0076 21.7856V24.987C16.0076 25.3455 16.297 25.6361 16.654 25.6361H17.4591C17.8161 25.6361 18.1055 25.3455 18.1055 24.987V21.7856C18.1055 21.4271 17.8161 21.1365 17.4591 21.1365ZM16.654 16.2518H17.4591C17.8161 16.2518 18.1055 16.5424 18.1055 16.9009V17.7095C18.1055 18.068 17.8161 18.3586 17.4591 18.3586H16.654C16.297 18.3586 16.0076 18.068 16.0076 17.7095V16.9009C16.0076 16.5424 16.297 16.2518 16.654 16.2518ZM15.0382 13.8012H14.233C13.876 13.8012 13.5866 14.0918 13.5866 14.4503V15.2589C13.5866 15.6174 13.876 15.908 14.233 15.908H15.0382C15.3951 15.908 15.6845 15.6174 15.6845 15.2589V14.4503C15.6845 14.0918 15.3951 13.8012 15.0382 13.8012ZM16.654 11.3671H17.4591C17.8161 11.3671 18.1055 11.6577 18.1055 12.0162V12.8248C18.1055 13.1833 17.8161 13.4739 17.4591 13.4739H16.654C16.297 13.4739 16.0076 13.1833 16.0076 12.8248V12.0162C16.0076 11.6577 16.297 11.3671 16.654 11.3671ZM15.0382 18.6639H14.233C13.876 18.6639 13.5866 18.9545 13.5866 19.313V20.1216C13.5866 20.4801 13.876 20.7707 14.233 20.7707H15.0382C15.3951 20.7707 15.6845 20.4801 15.6845 20.1216V19.313C15.6845 18.9545 15.3951 18.6639 15.0382 18.6639ZM14.233 23.3286H15.0382C15.3951 23.3286 15.6845 23.6192 15.6845 23.9777V24.9898C15.6845 25.3483 15.3951 25.6389 15.0382 25.6389H14.233C13.876 25.6389 13.5866 25.3483 13.5866 24.9898V23.9777C13.5866 23.6192 13.876 23.3286 14.233 23.3286ZM12.8362 21.1447H12.031C11.674 21.1447 11.3846 21.4353 11.3846 21.7938V22.806C11.3846 23.1645 11.674 23.4551 12.031 23.4551H12.8362C13.1931 23.4551 13.4825 23.1645 13.4825 22.806V21.7938C13.4825 21.4353 13.1931 21.1447 12.8362 21.1447ZM19.1571 11.2956H19.9623C20.3192 11.2956 20.6086 11.5862 20.6086 11.9446V22.5117C20.6086 22.8702 20.3192 23.1608 19.9623 23.1608H19.1571C18.8001 23.1608 18.5107 22.8702 18.5107 22.5117V11.9446C18.5107 11.5862 18.8001 11.2956 19.1571 11.2956ZM22.3065 8.9797H9.38789C9.03092 8.9797 8.74154 9.27031 8.74154 9.6288V10.4374C8.74154 10.7959 9.03092 11.0865 9.38789 11.0865H22.3065C22.6635 11.0865 22.9529 10.7959 22.9529 10.4374V9.6288C22.9529 9.27031 22.6635 8.9797 22.3065 8.9797ZM23.9198 6.5456H24.725C25.082 6.5456 25.3713 6.83621 25.3713 7.1947V8.00331C25.3713 8.3618 25.082 8.65241 24.725 8.65241H23.9198C23.5628 8.65241 23.2735 8.3618 23.2735 8.00331V7.1947C23.2735 6.83621 23.5628 6.5456 23.9198 6.5456Z" fill="#C190FF"/>
</svg>
