<svg width="20" height="20" viewBox="0 0 20 20" fill="none" xmlns="http://www.w3.org/2000/svg">
<g id="Note">
<g id="Back">
<path d="M6.45872 12.6418C6.82837 12.3965 7.65613 11.8471 8.25565 11.4553C8.22667 11.6258 8.20035 11.8203 8.19502 12.0255L8.19471 12.0309C8.19179 12.0778 8.17197 12.3959 8.29564 12.6814C8.3776 12.8707 8.52799 13.0722 8.77576 13.203C9.0113 13.3274 9.25549 13.3457 9.45744 13.327C9.64299 13.3099 9.85781 13.2479 10.0162 13.1985C10.1965 13.1422 10.3948 13.072 10.5788 13.0039C10.8859 12.8903 11.1805 12.772 11.3127 12.7189L11.3705 12.6958C11.8198 12.518 12.2607 12.3412 12.6994 12.1653C13.2881 11.9292 13.8735 11.6944 14.4703 11.461C14.8989 11.2933 15.1104 10.8099 14.9427 10.3813C14.775 9.95269 14.2917 9.74117 13.863 9.90884C13.2663 10.1423 12.6638 10.3839 12.0653 10.6239C11.626 10.8 11.1887 10.9754 10.7573 11.146L10.6837 11.1754C10.5445 11.2313 10.2814 11.3368 10.0004 11.4409L9.95005 11.4594C9.97497 11.3295 10.0027 11.1806 10.0222 11.0393L10.0256 11.0151C10.0467 10.8616 10.0711 10.6855 10.087 10.5057L10.0889 10.4963L10.0903 10.4893C10.0947 10.468 10.1059 10.4145 10.1134 10.3642C10.1314 10.2444 10.1604 9.96982 10.0076 9.67976C9.90937 9.49322 9.75222 9.34094 9.55177 9.25157C9.3665 9.16898 9.19173 9.16089 9.07056 9.16925C8.84597 9.18474 8.65345 9.26833 8.54832 9.3184C8.37599 9.40048 8.16581 9.53426 8.06756 9.59681C8.04594 9.61056 8.02974 9.62088 8.02055 9.62643C7.64916 9.85095 6.03637 10.9217 5.51653 11.2668L5.37337 11.3618C4.98959 11.6158 4.8844 12.1328 5.13842 12.5166C5.39245 12.9004 5.90949 13.0056 6.29328 12.7516L6.45872 12.6418Z" fill="#171717"/>
<path fill-rule="evenodd" clip-rule="evenodd" d="M2.5 5.83333C2.5 3.99238 3.99238 2.5 5.83333 2.5H14.1667C16.0076 2.5 17.5 3.99238 17.5 5.83333V14.1667C17.5 16.0076 16.0076 17.5 14.1667 17.5H5.83333C3.99238 17.5 2.5 16.0076 2.5 14.1667V5.83333ZM4.16667 8.33333C4.16667 7.41286 4.91286 6.66667 5.83333 6.66667H14.1667C15.0871 6.66667 15.8333 7.41286 15.8333 8.33333V14.1667C15.8333 15.0871 15.0871 15.8333 14.1667 15.8333H5.83333C4.91286 15.8333 4.16667 15.0871 4.16667 14.1667V8.33333Z" fill="#171717"/>
</g>
</g>
</svg>
