<svg width="20" height="20" viewBox="0 0 20 20" fill="none" xmlns="http://www.w3.org/2000/svg">
<g id="Order">
<path id="Back" fill-rule="evenodd" clip-rule="evenodd" d="M5.83333 2.5C3.99238 2.5 2.5 3.99238 2.5 5.83333V14.1667C2.5 16.0076 3.99238 17.5 5.83333 17.5H14.1667C16.0076 17.5 17.5 16.0076 17.5 14.1667V5.83333C17.5 3.99238 16.0076 2.5 14.1667 2.5H5.83333ZM13.3333 8.33333L6.66667 8.33333C6.20643 8.33333 5.83333 8.70643 5.83333 9.16667V10.8333C5.83333 11.2936 6.20643 11.6667 6.66667 11.6667H7.5C7.96024 11.6667 8.33333 12.0398 8.33333 12.5C8.33333 12.9602 7.96024 13.3333 7.5 13.3333H6.66667C5.28596 13.3333 4.16667 12.214 4.16667 10.8333V9.16667C4.16667 7.78596 5.28595 6.66667 6.66667 6.66667H13.3333C14.714 6.66667 15.8333 7.78595 15.8333 9.16667V10.8333C15.8333 12.214 14.714 13.3333 13.3333 13.3333H12.0118L12.6726 13.9941C12.998 14.3195 12.998 14.8472 12.6726 15.1726C12.3472 15.498 11.8195 15.498 11.4941 15.1726L9.41074 13.0893C9.08531 12.7638 9.08531 12.2362 9.41074 11.9107L11.4941 9.82741C11.8195 9.50197 12.3472 9.50197 12.6726 9.82741C12.998 10.1528 12.998 10.6805 12.6726 11.0059L12.0118 11.6667H13.3333C13.7936 11.6667 14.1667 11.2936 14.1667 10.8333L14.1667 9.16667C14.1667 8.70643 13.7936 8.33333 13.3333 8.33333Z" fill="#171717"/>
</g>
</svg>
