<svg width="24" height="24" viewBox="0 0 24 24" fill="none" xmlns="http://www.w3.org/2000/svg">
<g id="Pen">
<g id="Back">
<path d="M14.7071 5.29274C14.3166 5.68327 14.3166 6.31643 14.7071 6.70695L17.2929 9.29274C17.6834 9.68327 18.3166 9.68327 18.7071 9.29274L20.2929 7.70696C20.6834 7.31643 20.6834 6.68327 20.2929 6.29274L17.7071 3.70696C17.3166 3.31643 16.6834 3.31643 16.2929 3.70696L14.7071 5.29274Z" fill="#171717"/>
<path d="M4.17157 15.8283C3.42143 16.5784 3 17.5958 3 18.6567V19.9998C3 20.5521 3.44772 20.9998 4 20.9998H5.34315C6.40401 20.9998 7.42143 20.5784 8.17157 19.8283L16.2929 11.707C16.6834 11.3164 16.6834 10.6833 16.2929 10.2927L13.7071 7.70696C13.3166 7.31643 12.6834 7.31643 12.2929 7.70695L4.17157 15.8283Z" fill="#171717"/>
</g>
</g>
</svg>
