<svg width="140" height="140" viewBox="0 0 140 140" fill="none" xmlns="http://www.w3.org/2000/svg">
<path fill-rule="evenodd" clip-rule="evenodd" d="M46.2455 17H51.2176C52.7906 17 54.0657 18.2664 54.0657 19.8286V24.7666C54.0657 26.3288 52.7906 27.5952 51.2176 27.5952H46.2455C44.6726 27.5952 43.3975 26.3288 43.3975 24.7666V19.8286C43.3975 18.2664 44.6726 17 46.2455 17ZM72.5174 17.1917H67.5453C65.9724 17.1917 64.6973 18.4581 64.6973 20.0203V24.9584C64.6973 26.5205 65.9724 27.7869 67.5453 27.7869H72.5174C74.0904 27.7869 75.3655 26.5205 75.3655 24.9584V20.0203C75.3655 18.4581 74.0904 17.1917 72.5174 17.1917ZM56.8657 27.5952L61.8377 27.5952C63.4107 27.5952 64.6858 28.8616 64.6858 30.4238V35.3619C64.6858 36.924 63.4107 38.1904 61.8377 38.1904H56.8657C55.2927 38.1904 54.0176 36.924 54.0176 35.3619V30.4238C54.0176 28.8616 55.2927 27.5952 56.8657 27.5952ZM30.0369 38.4061H25.0649C23.4919 38.4061 22.2168 39.6725 22.2168 41.2347V46.1727C22.2168 47.7349 23.4919 49.0013 25.0649 49.0013H30.0369C31.6099 49.0013 32.885 47.7349 32.885 46.1727V41.2347C32.885 39.6725 31.6099 38.4061 30.0369 38.4061ZM40.4881 48.5938H35.516C33.9431 48.5938 32.668 49.8602 32.668 51.4224L32.668 56.3604C32.668 57.9226 33.9431 59.189 35.516 59.189H40.4881C42.0611 59.189 43.3362 57.9226 43.3362 56.3604V51.4224C43.3362 49.8602 42.0611 48.5938 40.4881 48.5938ZM24.8481 59.4048H29.8201C31.3931 59.4048 32.6682 60.6712 32.6682 62.2334V67.1714C32.6682 68.7336 31.3931 70 29.8201 70H24.8481C23.2751 70 22 68.7336 22 67.1714V62.2334C22 60.6712 23.2751 59.4048 24.8481 59.4048ZM61.8496 80.1757H46.9213C45.3484 80.1757 44.0732 81.4421 44.0732 83.0043V87.9423C44.0732 89.5045 45.3484 90.7709 46.9213 90.7709H61.8496C63.4226 90.7709 64.6977 89.5045 64.6977 87.9423V83.0043C64.6977 81.4421 63.4226 80.1757 61.8496 80.1757ZM78.2123 59.4048H83.1844C84.7574 59.4048 86.0325 60.6712 86.0325 62.2334V67.1714C86.0325 68.7336 84.7574 70 83.1844 70H78.2123C76.6394 70 75.3643 68.7336 75.3643 67.1714V62.2334C75.3643 60.6712 76.6394 59.4048 78.2123 59.4048ZM72.5174 70.1918H67.5453C65.9724 70.1918 64.6973 71.4582 64.6973 73.0203V77.9584C64.6973 79.5205 65.9724 80.7869 67.5453 80.7869H72.5174C74.0904 80.7869 75.3655 79.5205 75.3655 77.9584V73.0203C75.3655 71.4582 74.0904 70.1918 72.5174 70.1918ZM77.2368 80.4034H82.2088C83.7818 80.4034 85.0569 81.6698 85.0569 83.232V88.1701C85.0569 89.7322 83.7818 90.9986 82.2088 90.9986L77.2368 90.9986C75.6638 90.9986 74.3887 89.7322 74.3887 88.1701V83.232C74.3887 81.6698 75.6638 80.4034 77.2368 80.4034ZM93.0936 69.5446H88.1215C86.5486 69.5446 85.2734 70.811 85.2734 72.3731V77.3112C85.2734 78.8734 86.5486 80.1398 88.1215 80.1398H93.0936C94.6665 80.1398 95.9417 78.8734 95.9417 77.3112L95.9417 72.3731C95.9417 70.811 94.6665 69.5446 93.0936 69.5446ZM88.8823 80.4034H103.992C105.565 80.4034 106.84 81.6698 106.84 83.232V88.1701C106.84 89.7322 105.565 90.9986 103.992 90.9986H88.8823C87.3093 90.9986 86.0342 89.7322 86.0342 88.1701V83.232C86.0342 81.6698 87.3093 80.4034 88.8823 80.4034ZM104.003 112.405H88.351C86.7781 112.405 85.5029 113.671 85.5029 115.233V120.171C85.5029 121.734 86.7781 123 88.351 123H104.003C105.576 123 106.851 121.734 106.851 120.171V115.233C106.851 113.671 105.576 112.405 104.003 112.405ZM67.5453 101.606L83.1977 101.606C84.7707 101.606 86.0458 102.872 86.0458 104.434V109.372C86.0458 110.935 84.7707 112.201 83.1977 112.201L67.5453 112.201C65.9724 112.201 64.6973 110.935 64.6973 109.372V104.434C64.6973 102.872 65.9724 101.606 67.5453 101.606ZM114.152 91.1784H109.18C107.607 91.1784 106.332 92.4448 106.332 94.007V109.217C106.332 110.779 107.607 112.045 109.18 112.045H114.152C115.725 112.045 117 110.779 117 109.217V94.007C117 92.4448 115.725 91.1784 114.152 91.1784ZM88.8344 38.3462H93.8065C95.3794 38.3462 96.6546 39.6126 96.6546 41.1748V55.6893C96.6546 57.2514 95.3794 58.5178 93.8065 58.5178H88.8344C87.2615 58.5178 85.9863 57.2514 85.9863 55.6893V41.1748C85.9863 39.6126 87.2615 38.3462 88.8344 38.3462ZM40.4881 70.1918H35.516C33.9431 70.1918 32.668 71.4582 32.668 73.0203V77.9584C32.668 79.5205 33.9431 80.7869 35.516 80.7869H40.4881C42.0611 80.7869 43.3362 79.5205 43.3362 77.9584V73.0203C43.3362 71.4582 42.0611 70.1918 40.4881 70.1918ZM78.2123 27.5952H83.1844C84.7574 27.5952 86.0325 28.8616 86.0325 30.4238V35.3619C86.0325 36.924 84.7574 38.1904 83.1844 38.1904H78.2123C76.6394 38.1904 75.3643 36.924 75.3643 35.3619V30.4238C75.3643 28.8616 76.6394 27.5952 78.2123 27.5952ZM51.1688 38.2024H46.1967C44.6238 38.2024 43.3486 39.4688 43.3486 41.031V45.969C43.3486 47.5312 44.6238 48.7976 46.1967 48.7976H51.1688C52.7417 48.7976 54.0169 47.5312 54.0169 45.969V41.031C54.0169 39.4688 52.7417 38.2024 51.1688 38.2024Z" fill="#3D3D3D"/>
</svg>
