<svg width="32" height="32" viewBox="0 0 32 32" fill="none" xmlns="http://www.w3.org/2000/svg">
<path fill-rule="evenodd" clip-rule="evenodd" d="M10.5704 3.88574H11.7069C12.0664 3.88574 12.3579 4.17521 12.3579 4.53228V5.66097C12.3579 6.01804 12.0664 6.3075 11.7069 6.3075H10.5704C10.2109 6.3075 9.91941 6.01804 9.91941 5.66097V4.53228C9.91941 4.17521 10.2109 3.88574 10.5704 3.88574ZM16.5754 3.92957H15.4389C15.0794 3.92957 14.7879 4.21903 14.7879 4.5761V5.70479C14.7879 6.06186 15.0794 6.35133 15.4389 6.35133H16.5754C16.9349 6.35133 17.2264 6.06186 17.2264 5.70479V4.5761C17.2264 4.21903 16.9349 3.92957 16.5754 3.92957ZM12.9979 6.30751H14.1343C14.4939 6.30751 14.7853 6.59697 14.7853 6.95404V8.08274C14.7853 8.43981 14.4939 8.72927 14.1343 8.72927H12.9979C12.6383 8.72927 12.3469 8.43981 12.3469 8.08274V6.95404C12.3469 6.59697 12.6383 6.30751 12.9979 6.30751ZM6.86558 8.77857H5.72911C5.36958 8.77857 5.07812 9.06803 5.07812 9.4251V10.5538C5.07812 10.9109 5.36958 11.2003 5.72911 11.2003H6.86558C7.22511 11.2003 7.51657 10.9109 7.51657 10.5538V9.4251C7.51657 9.06803 7.22511 8.77857 6.86558 8.77857ZM9.25442 11.1072H8.11795C7.75842 11.1072 7.46696 11.3966 7.46696 11.7537V12.8824C7.46696 13.2395 7.75842 13.5289 8.11795 13.5289H9.25442C9.61395 13.5289 9.90541 13.2395 9.90541 12.8824V11.7537C9.90541 11.3966 9.61395 11.1072 9.25442 11.1072ZM5.67955 13.5783H6.81603C7.17556 13.5783 7.46702 13.8677 7.46702 14.2248V15.3535C7.46702 15.7106 7.17556 16 6.81603 16H5.67955C5.32002 16 5.02856 15.7106 5.02856 15.3535V14.2248C5.02856 13.8677 5.32002 13.5783 5.67955 13.5783ZM14.137 18.3259H10.7249C10.3653 18.3259 10.0739 18.6154 10.0739 18.9724V20.1011C10.0739 20.4582 10.3653 20.7477 10.7249 20.7477H14.137C14.4966 20.7477 14.788 20.4582 14.788 20.1011V18.9724C14.788 18.6154 14.4966 18.3259 14.137 18.3259ZM17.8771 13.5783H19.0136C19.3731 13.5783 19.6646 13.8677 19.6646 14.2248V15.3535C19.6646 15.7106 19.3731 16 19.0136 16H17.8771C17.5176 16 17.2261 15.7106 17.2261 15.3535V14.2248C17.2261 13.8677 17.5176 13.5783 17.8771 13.5783ZM16.5754 16.0439H15.4389C15.0794 16.0439 14.7879 16.3333 14.7879 16.6904V17.8191C14.7879 18.1762 15.0794 18.4656 15.4389 18.4656H16.5754C16.9349 18.4656 17.2264 18.1762 17.2264 17.8191V16.6904C17.2264 16.3333 16.9349 16.0439 16.5754 16.0439ZM17.6541 18.378H18.7906C19.1501 18.378 19.4416 18.6674 19.4416 19.0245V20.1532C19.4416 20.5103 19.1501 20.7997 18.7906 20.7997H17.6541C17.2946 20.7997 17.0031 20.5103 17.0031 20.1532V19.0245C17.0031 18.6674 17.2946 18.378 17.6541 18.378ZM21.2785 15.8959H20.1421C19.7825 15.8959 19.4911 16.1854 19.4911 16.5425V17.6712C19.4911 18.0282 19.7825 18.3177 20.1421 18.3177H21.2785C21.6381 18.3177 21.9295 18.0282 21.9295 17.6712V16.5425C21.9295 16.1854 21.6381 15.8959 21.2785 15.8959ZM20.3159 18.378H23.7695C24.129 18.378 24.4205 18.6674 24.4205 19.0245V20.1532C24.4205 20.5103 24.129 20.7997 23.7695 20.7997H20.3159C19.9564 20.7997 19.6649 20.5103 19.6649 20.1532V19.0245C19.6649 18.6674 19.9564 18.378 20.3159 18.378ZM23.7722 25.6926H20.1945C19.835 25.6926 19.5435 25.982 19.5435 26.3391V27.4678C19.5435 27.8248 19.835 28.1143 20.1945 28.1143H23.7722C24.1317 28.1143 24.4232 27.8248 24.4232 27.4678V26.3391C24.4232 25.982 24.1317 25.6926 23.7722 25.6926ZM15.4389 23.2242H19.0166C19.3761 23.2242 19.6676 23.5137 19.6676 23.8708V24.9994C19.6676 25.3565 19.3761 25.646 19.0166 25.646H15.4389C15.0794 25.646 14.7879 25.3565 14.7879 24.9994V23.8708C14.7879 23.5137 15.0794 23.2242 15.4389 23.2242ZM26.0919 20.8408H24.9554C24.5959 20.8408 24.3045 21.1303 24.3045 21.4873V24.9638C24.3045 25.3209 24.5959 25.6104 24.9554 25.6104H26.0919C26.4515 25.6104 26.7429 25.3209 26.7429 24.9638V21.4873C26.7429 21.1303 26.4515 20.8408 26.0919 20.8408ZM20.305 8.76488H21.4415C21.801 8.76488 22.0925 9.05434 22.0925 9.41141V12.729C22.0925 13.0861 21.801 13.3755 21.4415 13.3755H20.305C19.9455 13.3755 19.654 13.0861 19.654 12.729V9.41141C19.654 9.05434 19.9455 8.76488 20.305 8.76488ZM9.25442 16.0439H8.11795C7.75842 16.0439 7.46696 16.3333 7.46696 16.6904V17.8191C7.46696 18.1762 7.75842 18.4656 8.11795 18.4656H9.25442C9.61395 18.4656 9.90541 18.1762 9.90541 17.8191V16.6904C9.90541 16.3333 9.61395 16.0439 9.25442 16.0439ZM17.8771 6.30751H19.0136C19.3731 6.30751 19.6646 6.59697 19.6646 6.95404V8.08274C19.6646 8.43981 19.3731 8.72927 19.0136 8.72927H17.8771C17.5176 8.72927 17.2261 8.43981 17.2261 8.08274V6.95404C17.2261 6.59697 17.5176 6.30751 17.8771 6.30751ZM11.6957 8.732H10.5592C10.1997 8.732 9.90825 9.02147 9.90825 9.37854V10.5072C9.90825 10.8643 10.1997 11.1538 10.5592 11.1538H11.6957C12.0552 11.1538 12.3467 10.8643 12.3467 10.5072V9.37854C12.3467 9.02147 12.0552 8.732 11.6957 8.732Z" fill="#FFA1AD"/>
</svg>
