<svg width="252" height="252" viewBox="0 0 252 252" fill="none" xmlns="http://www.w3.org/2000/svg">
<path d="M159.793 80.1815L138.026 58.4358C128.17 48.5891 112.19 48.5891 102.334 58.4358L58.8052 101.922C48.949 111.769 48.949 127.733 58.8052 137.58L80.572 159.326C102.448 181.18 137.917 181.18 159.798 159.326C181.673 137.471 181.673 102.036 159.798 80.1766L159.793 80.1815Z" fill="#242424"/>
<path d="M201 197.179C200.253 194.83 199.362 192.521 198.431 190.236C196.382 185.211 194.095 180.251 191.194 175.656C189.659 173.223 187.941 170.859 185.966 168.757C184.243 166.922 182.214 165.186 179.922 164.108C178.748 163.554 177.545 163.079 176.258 162.882C174.64 162.634 173.026 162.6 171.397 162.748C168.674 162.99 165.773 163.574 163.526 165.226C161.556 166.68 160.006 168.638 159.477 171.081C159.016 173.218 159.15 175.458 159.828 177.535C161.076 181.353 163.833 185.171 167.541 186.917C169.659 187.916 171.932 188.366 174.248 187.773C176.565 187.179 178.649 185.394 179.956 183.332C180.956 181.754 181.248 179.716 181.189 177.887C181.12 175.75 180.669 173.594 179.976 171.576C178.224 166.487 175.189 161.774 171.234 158.114C169.011 156.057 166.486 154.252 163.749 152.941C160.457 151.363 157.061 150.439 153.442 150.023C151.764 149.83 150.076 149.791 148.388 149.88C146.556 149.974 144.794 151.428 144.878 153.386C144.957 155.206 146.422 156.991 148.388 156.893C150.229 156.799 152.076 156.858 153.907 157.095L152.977 156.972C154.368 157.16 155.739 157.442 157.086 157.837C157.704 158.02 158.318 158.223 158.927 158.45C159.214 158.559 159.496 158.673 159.779 158.787C158.516 158.287 159.714 158.767 160.026 158.91C161.155 159.44 162.244 160.048 163.288 160.73C163.808 161.067 164.308 161.428 164.803 161.794C165.229 162.105 164.095 161.24 164.506 161.566C164.625 161.66 164.744 161.754 164.863 161.853C165.115 162.056 165.363 162.263 165.605 162.476C166.481 163.238 167.313 164.054 168.095 164.919C168.481 165.345 168.858 165.785 169.219 166.235C169.293 166.329 169.372 166.428 169.447 166.522C169.61 166.724 168.838 165.715 169.234 166.245C169.402 166.467 169.57 166.695 169.734 166.922C170.956 168.638 171.991 170.473 172.838 172.397C173.08 172.951 172.461 171.482 172.689 172.046C172.734 172.16 172.783 172.273 172.828 172.387C172.927 172.644 173.026 172.896 173.115 173.159C173.288 173.638 173.446 174.128 173.585 174.618C173.847 175.528 174.05 176.452 174.179 177.392L174.055 176.462C174.189 177.476 174.239 178.505 174.105 179.519L174.229 178.589C174.189 178.856 174.144 179.123 174.075 179.39C173.951 179.865 173.486 180.582 174.169 179.306C174.055 179.519 173.956 179.731 173.818 179.929C173.615 180.231 173.095 180.775 173.981 179.746C173.857 179.89 173.739 180.043 173.61 180.181C173.377 180.434 173.125 180.656 172.867 180.884C172.531 181.19 173.694 180.28 173.333 180.523C173.258 180.572 173.189 180.626 173.115 180.676C172.981 180.765 172.848 180.844 172.709 180.923C172.585 180.992 172.451 181.047 172.328 181.111C173.536 180.473 173.021 180.834 172.645 180.953C172.362 181.042 172.075 181.101 171.788 181.141L172.719 181.017C172.249 181.076 171.778 181.072 171.313 181.007L172.244 181.131C171.857 181.076 171.476 180.987 171.105 180.864C171.016 180.834 170.927 180.799 170.838 180.77C170.308 180.587 171.249 180.943 171.343 180.992C171.15 180.893 170.947 180.814 170.753 180.71C170.387 180.518 170.041 180.305 169.704 180.068C169.61 180.003 169.521 179.934 169.427 179.865C169.065 179.608 170.278 180.552 169.833 180.176C169.664 180.033 169.491 179.894 169.328 179.741C169.001 179.444 168.694 179.133 168.402 178.806C168.249 178.633 168.105 178.46 167.957 178.282C167.551 177.788 168.407 178.881 168.254 178.673C168.184 178.574 168.105 178.475 168.036 178.376C167.496 177.62 167.056 176.813 166.664 175.973C166.476 175.567 167.085 177.026 166.848 176.398C166.803 176.284 166.759 176.175 166.719 176.062C166.635 175.824 166.556 175.582 166.481 175.34C166.338 174.85 166.229 174.355 166.16 173.851L166.283 174.781C166.184 174.034 166.169 173.277 166.268 172.53L166.145 173.46C166.199 173.094 166.273 172.738 166.382 172.387C166.432 172.224 166.496 172.066 166.556 171.902C166.709 171.472 166.075 172.926 166.348 172.402C166.382 172.338 166.412 172.268 166.447 172.204C166.536 172.026 166.64 171.858 166.749 171.69C166.962 171.363 167.476 170.913 166.556 171.907C166.818 171.625 167.056 171.339 167.348 171.081C167.422 171.017 167.496 170.958 167.57 170.894C167.932 170.587 166.674 171.541 167.199 171.185C167.367 171.072 167.536 170.953 167.714 170.849C167.892 170.745 168.085 170.636 168.278 170.537C168.392 170.478 168.506 170.429 168.625 170.374C169.214 170.097 167.877 170.671 168.194 170.552C169.244 170.162 170.308 169.894 171.417 169.736L170.486 169.86C172.021 169.652 173.645 169.558 175.184 169.746L174.253 169.622C174.892 169.707 175.516 169.855 176.125 170.068C176.278 170.122 176.432 170.181 176.585 170.241C177.031 170.409 175.605 169.801 176.204 170.082C176.526 170.231 176.842 170.389 177.149 170.557C177.748 170.894 178.308 171.279 178.867 171.68C179.204 171.922 178.006 170.992 178.674 171.531C178.818 171.645 178.961 171.764 179.1 171.888C179.387 172.135 179.669 172.387 179.941 172.644C180.496 173.168 181.026 173.722 181.535 174.291C181.793 174.578 182.04 174.87 182.288 175.167C182.535 175.463 183.461 176.67 182.59 175.523C183.61 176.868 184.565 178.257 185.451 179.697C187.213 182.545 188.743 185.532 190.139 188.579C190.456 189.276 190.768 189.974 191.075 190.676C191.144 190.834 191.208 190.987 191.278 191.146C191.317 191.245 191.352 191.363 191.411 191.452C191.451 191.517 191.01 190.493 191.189 190.918C191.327 191.25 191.466 191.581 191.6 191.912C192.07 193.055 192.52 194.207 192.951 195.369C193.406 196.586 193.852 197.812 194.243 199.049C194.797 200.795 196.708 202.095 198.56 201.497C200.312 200.928 201.604 199.059 201.01 197.184L201 197.179Z" fill="white"/>
<path d="M71.0135 150.414C71.7214 149.707 72.4293 148.999 73.1372 148.292C75.0728 146.358 77.0034 144.43 78.939 142.496C81.7904 139.647 84.6369 136.804 87.4883 133.955C90.9783 130.468 94.4683 126.982 97.9583 123.495L109.384 112.081C113.23 108.238 117.072 104.4 120.918 100.557C124.502 96.9768 128.086 93.3962 131.675 89.8107C134.705 86.784 137.735 83.7573 140.769 80.7256C142.957 78.5397 145.145 76.3537 147.333 74.1678C148.363 73.1391 149.408 72.1203 150.427 71.0768C150.472 71.0323 150.516 70.9878 150.561 70.9433C151.858 69.6475 151.957 67.2687 150.561 65.9878C149.165 64.7069 146.987 64.603 145.601 65.9878C144.893 66.695 144.185 67.4022 143.477 68.1094C141.541 70.0432 139.611 71.9719 137.675 73.9057C134.824 76.7543 131.977 79.598 129.126 82.4467C125.636 85.9333 122.146 89.42 118.656 92.9066C114.849 96.7098 111.037 100.518 107.23 104.321C103.424 108.124 99.5425 112.002 95.696 115.844C92.1119 119.425 88.5279 123.005 84.9389 126.591L75.845 135.676C73.657 137.862 71.4689 140.048 69.2808 142.234C68.2512 143.263 67.2066 144.281 66.1868 145.325C66.1423 145.369 66.0977 145.414 66.0532 145.458C64.7562 146.754 64.6572 149.133 66.0532 150.414C67.4492 151.695 69.6274 151.799 71.0135 150.414Z" fill="white"/>
<path d="M70.3396 97.5952C70.008 97.9265 69.6218 98.243 69.305 98.5843C69.9189 97.9067 69.7357 98.2579 69.4436 98.4359C69.3446 98.4953 69.2456 98.5497 69.1416 98.6041C68.8149 98.7574 68.9387 98.7129 69.5129 98.4606C69.1268 98.5398 68.7654 98.6931 68.3743 98.7524L69.305 98.6288C68.8545 98.6832 68.4189 98.6832 67.9684 98.6288L68.8991 98.7524C68.6219 98.7129 68.3496 98.6535 68.0773 98.5744C67.9684 98.5398 67.8645 98.4953 67.7555 98.4656C68.6565 98.7277 68.3545 98.7425 68.1268 98.609C67.9981 98.5348 67.2358 98.0205 67.7506 98.4211C68.2654 98.8217 67.6813 98.342 67.5625 98.2282C67.4189 98.0897 67.2803 97.9463 67.1417 97.8078L64.7903 95.4587C62.8794 93.5497 60.9636 91.6357 59.0528 89.7267C58.8498 89.524 58.6469 89.3261 58.4488 89.1234C58.3993 89.0739 58.3548 89.0294 58.3053 88.975C58.231 88.8959 58.1568 88.7821 58.0726 88.708C58.6667 89.2371 58.4241 89.1827 58.2211 88.8464C58.1617 88.7475 58.1122 88.6437 58.0528 88.5447C57.7261 88.0007 58.3053 89.3261 58.1419 88.7574C58.0479 88.431 57.9588 88.1145 57.9093 87.7782L58.033 88.708C57.9786 88.2579 57.9786 87.8227 58.033 87.3726L57.9093 88.3024C57.9588 87.9661 58.0429 87.6446 58.1419 87.3232C58.3201 86.7544 57.731 88.0799 58.0528 87.5358C58.1271 87.4122 58.1914 87.2836 58.2657 87.16C58.6568 86.5368 57.8845 87.5705 58.1271 87.3034C58.2261 87.1946 58.3251 87.0809 58.429 86.9721C58.5479 86.8484 58.6716 86.7297 58.7904 86.611C58.8944 86.5072 58.9934 86.4033 59.1023 86.2994C59.1716 86.2352 59.2459 86.1758 59.3152 86.1115C59.7211 85.7406 58.5677 86.6209 59.0429 86.3242C59.132 86.2698 59.9142 85.8593 59.9092 85.8346C59.9191 85.9434 58.9736 86.156 59.7854 85.9335C59.9835 85.8791 60.1864 85.8445 60.3943 85.8098L59.4637 85.9335C59.8894 85.8791 60.3052 85.884 60.731 85.9335L59.8003 85.8098C60.1221 85.8642 60.4191 85.9533 60.731 86.0423C60.9983 86.1214 61.1418 86.344 60.3943 85.8989C60.4933 85.9582 60.6023 86.0027 60.7062 86.0571C60.9438 86.1857 61.1616 86.3341 61.3844 86.4775C61.5973 86.616 61.8547 86.9028 61.0082 86.1758C61.0676 86.2253 61.1418 86.2747 61.1963 86.3291C61.325 86.4577 61.4537 86.5863 61.5824 86.7149C62.3646 87.4963 63.1517 88.2826 63.9339 89.064C65.8596 90.9879 67.7852 92.9117 69.7109 94.8355C69.909 95.0333 70.1119 95.2312 70.3099 95.4339C70.3594 95.4834 70.4089 95.5329 70.4584 95.5873C70.5377 95.6763 70.6119 95.7703 70.6911 95.8543C70.0426 95.1718 70.3792 95.4438 70.5426 95.7158C70.602 95.8148 70.6515 95.9186 70.7109 96.0175C71.0376 96.5615 70.4584 95.2361 70.6218 95.8049C70.7159 96.1313 70.805 96.4478 70.8545 96.7841L70.7307 95.8543C70.7852 96.3044 70.7852 96.7396 70.7307 97.1896L70.8545 96.2598C70.8198 96.4824 70.7802 96.7 70.7208 96.9176C70.6911 97.0264 70.6565 97.1303 70.6218 97.2391C70.4535 97.7831 70.9485 96.5912 70.7456 96.9522C70.6317 97.1501 70.508 97.3479 70.399 97.5507C70.2159 97.8919 70.899 96.977 70.6317 97.2638C70.5278 97.3726 70.4337 97.4864 70.3297 97.5952C69.0525 98.9156 68.9189 101.255 70.3297 102.551C71.7109 103.817 73.9287 103.96 75.29 102.551C78.5424 99.1827 78.5622 93.8711 75.29 90.5081C74.4583 89.6525 73.597 88.8168 72.7505 87.9711C71.2703 86.4923 69.7852 85.0086 68.305 83.5299C67.3942 82.6199 66.5229 81.6605 65.5031 80.8692C63.6269 79.4201 61.3696 78.6734 58.9934 78.9899C57.038 79.252 55.3004 80.1768 53.9044 81.5665C52.6223 82.8474 51.5134 84.3608 51.1767 86.1857C50.7659 88.4013 51.0381 90.7703 52.345 92.6644C53.2114 93.9206 54.3549 94.9443 55.4291 96.0175C56.9192 97.5061 58.4092 98.9948 59.8993 100.483C60.7953 101.379 61.6765 102.284 62.5824 103.164C64.117 104.657 66.0081 105.459 68.1219 105.647C70.4238 105.854 72.6762 104.905 74.389 103.421C74.7059 103.149 74.993 102.837 75.2851 102.546C76.5821 101.25 76.6811 98.8711 75.2851 97.5902C73.8891 96.3093 71.7109 96.2054 70.3248 97.5902L70.3396 97.5952Z" fill="white"/>
<path d="M97.3787 69.6772C97.047 70.0085 96.6609 70.3251 96.3441 70.6663C96.9579 69.9888 96.7748 70.3399 96.4827 70.5179C96.3837 70.5773 96.2847 70.6317 96.1807 70.6861C95.854 70.8394 95.9777 70.7949 96.552 70.5427C96.1659 70.6218 95.8045 70.7751 95.4134 70.8345L96.3441 70.7108C95.8936 70.7652 95.458 70.7652 95.0075 70.7108L95.9381 70.8345C95.6609 70.7949 95.3887 70.7355 95.1164 70.6564C95.0075 70.6218 94.9035 70.5773 94.7946 70.5476C95.6956 70.8097 95.3936 70.8246 95.1659 70.691C95.0372 70.6168 94.2748 70.1025 94.7897 70.5031C95.3045 70.9037 94.7204 70.424 94.6015 70.3102C94.458 70.1717 94.3194 70.0283 94.1808 69.8898C93.3986 69.1084 92.6115 68.3221 91.8293 67.5407C89.9185 65.6317 88.0027 63.7178 86.0919 61.8088C85.8889 61.606 85.6859 61.4082 85.4879 61.2054C85.4384 61.1559 85.3939 61.1114 85.3443 61.057C85.2701 60.9779 85.1958 60.8642 85.1117 60.79C85.7057 61.3192 85.4632 61.2648 85.2602 60.9285C85.2008 60.8295 85.1513 60.7257 85.0919 60.6268C84.7652 60.0827 85.3443 61.4082 85.181 60.8394C85.0869 60.513 84.9978 60.1965 84.9483 59.8602L85.0721 60.79C85.0176 60.3399 85.0176 59.9047 85.0721 59.4547L84.9483 60.3844C84.9978 60.0481 85.082 59.7267 85.181 59.4052C85.3592 58.8365 84.7701 60.1619 85.0919 59.6179C85.1661 59.4942 85.2305 59.3656 85.3047 59.242C85.6958 58.6189 84.9236 59.6525 85.1661 59.3854C85.2651 59.2766 85.3641 59.1629 85.4681 59.0541C85.5869 58.9304 85.7107 58.8117 85.8295 58.6931C85.9334 58.5892 86.0324 58.4853 86.1414 58.3815C86.2107 58.3172 86.2849 58.2578 86.3542 58.1935C86.7601 57.8226 85.6067 58.7029 86.082 58.4062C86.1711 58.3518 86.9532 57.9413 86.9483 57.9166C86.9582 58.0254 86.0126 58.238 86.8245 58.0155C87.0225 57.9611 87.2255 57.9265 87.4334 57.8919L86.5027 58.0155C86.9285 57.9611 87.3443 57.966 87.77 58.0155L86.8394 57.8919C87.1611 57.9463 87.4582 58.0353 87.77 58.1243C88.0373 58.2034 88.1809 58.426 87.4334 57.9809C87.5324 58.0402 87.6413 58.0847 87.7453 58.1391C87.9829 58.2677 88.2007 58.4161 88.4235 58.5595C88.6363 58.698 88.8938 58.9848 88.0472 58.2578C88.1067 58.3073 88.1809 58.3567 88.2354 58.4111C88.3641 58.5397 88.4928 58.6683 88.6215 58.7969L90.9729 61.1461C92.8986 63.0699 94.8243 64.9937 96.75 66.9175C96.948 67.1154 97.151 67.3132 97.349 67.516C97.3985 67.5654 97.448 67.6149 97.4975 67.6693C97.5767 67.7583 97.651 67.8523 97.7302 67.9363C97.0817 67.2538 97.4183 67.5259 97.5817 67.7979C97.6411 67.8968 97.6906 68.0006 97.75 68.0995C98.0767 68.6436 97.4975 67.3181 97.6609 67.8869C97.7549 68.2133 97.844 68.5298 97.8935 68.8661L97.7698 67.9363C97.8242 68.3864 97.8242 68.8216 97.7698 69.2716L97.8935 68.3419C97.8589 68.5644 97.8193 68.782 97.7599 68.9996C97.7302 69.1084 97.6955 69.2123 97.6609 69.3211C97.4926 69.8651 97.9876 68.6732 97.7846 69.0343C97.6708 69.2321 97.547 69.4299 97.4381 69.6327C97.2549 69.9739 97.9381 69.059 97.6708 69.3458C97.5668 69.4546 97.4728 69.5684 97.3688 69.6772C96.0916 70.9977 95.9579 73.3369 97.3688 74.6327C98.7797 75.9284 100.968 76.0422 102.329 74.6327C105.581 71.2647 105.601 65.9532 102.329 62.5902C101.497 61.7346 100.636 60.8988 99.7895 60.0531C98.3094 58.5744 96.8243 57.0907 95.3441 55.6119C94.4332 54.702 93.562 53.7425 92.5422 52.9512C90.666 51.5022 88.4086 50.7554 86.0324 51.0719C84.0771 51.334 82.3395 52.2588 80.9435 53.6485C79.6613 54.9295 78.5524 56.4428 78.2158 58.2677C77.8049 60.4833 78.0772 62.8523 79.3841 64.7464C80.2504 66.0026 81.3939 67.0264 82.4682 68.0995C83.9582 69.5882 85.4483 71.0768 86.9384 72.5654C87.8344 73.4606 88.7155 74.3656 89.6215 75.2459C91.1561 76.7395 93.0471 77.5407 95.1609 77.7286C97.4629 77.9363 99.7153 76.9868 101.428 75.5031C101.745 75.2311 102.032 74.9195 102.324 74.6277C103.621 73.332 103.72 70.9531 102.324 69.6722C100.928 68.3913 98.75 68.2875 97.3639 69.6722L97.3787 69.6772Z" fill="white"/>
</svg>
