<svg width="60" height="60" viewBox="0 0 60 60" fill="none" xmlns="http://www.w3.org/2000/svg">
<path fill-rule="evenodd" clip-rule="evenodd" d="M21.8963 11.1431H23.662C24.2206 11.1431 24.6735 11.5959 24.6735 12.1545V13.9202C24.6735 14.4788 24.2206 14.9316 23.662 14.9316H21.8963C21.3377 14.9316 20.8849 14.4788 20.8849 13.9202V12.1545C20.8849 11.5959 21.3377 11.1431 21.8963 11.1431ZM31.2261 11.2116H29.4604C28.9018 11.2116 28.4489 11.6645 28.4489 12.2231V13.9888C28.4489 14.5474 28.9018 15.0002 29.4604 15.0002H31.2261C31.7847 15.0002 32.2375 14.5474 32.2375 13.9888V12.2231C32.2375 11.6645 31.7847 11.2116 31.2261 11.2116ZM25.6677 14.9316H27.4334C27.992 14.9316 28.4448 15.3845 28.4448 15.9431V17.7088C28.4448 18.2674 27.992 18.7202 27.4334 18.7202H25.6677C25.1091 18.7202 24.6563 18.2674 24.6563 17.7088V15.9431C24.6563 15.3845 25.1091 14.9316 25.6677 14.9316ZM16.1403 18.7973H14.3746C13.816 18.7973 13.3631 19.2502 13.3631 19.8088V21.5745C13.3631 22.1331 13.816 22.5859 14.3746 22.5859H16.1403C16.6989 22.5859 17.1517 22.1331 17.1517 21.5745V19.8088C17.1517 19.2502 16.6989 18.7973 16.1403 18.7973ZM19.8518 22.4402H18.0861C17.5275 22.4402 17.0746 22.893 17.0746 23.4516V25.2173C17.0746 25.7759 17.5275 26.2288 18.0861 26.2288H19.8518C20.4104 26.2288 20.8632 25.7759 20.8632 25.2173V23.4516C20.8632 22.893 20.4104 22.4402 19.8518 22.4402ZM14.2976 26.3059H16.0633C16.6219 26.3059 17.0747 26.7588 17.0747 27.3174V29.0831C17.0747 29.6417 16.6219 30.0945 16.0633 30.0945H14.2976C13.739 30.0945 13.2861 29.6417 13.2861 29.0831V27.3174C13.2861 26.7588 13.739 26.3059 14.2976 26.3059ZM27.4376 33.7331H22.1362C21.5776 33.7331 21.1247 34.1859 21.1247 34.7445V36.5102C21.1247 37.0688 21.5776 37.5216 22.1362 37.5216H27.4376C27.9962 37.5216 28.449 37.0688 28.449 36.5102V34.7445C28.449 34.1859 27.9962 33.7331 27.4376 33.7331ZM33.2489 26.3059H35.0146C35.5732 26.3059 36.026 26.7588 36.026 27.3174V29.0831C36.026 29.6417 35.5732 30.0945 35.0146 30.0945H33.2489C32.6903 30.0945 32.2374 29.6417 32.2374 29.0831V27.3174C32.2374 26.7588 32.6903 26.3059 33.2489 26.3059ZM31.2261 30.1631H29.4604C28.9018 30.1631 28.4489 30.6159 28.4489 31.1745V32.9402C28.4489 33.4988 28.9018 33.9516 29.4604 33.9516H31.2261C31.7847 33.9516 32.2375 33.4988 32.2375 32.9402V31.1745C32.2375 30.6159 31.7847 30.1631 31.2261 30.1631ZM32.9019 33.8145H34.6676C35.2262 33.8145 35.6791 34.2673 35.6791 34.8259V36.5916C35.6791 37.1502 35.2262 37.6031 34.6676 37.6031H32.9019C32.3433 37.6031 31.8905 37.1502 31.8905 36.5916V34.8259C31.8905 34.2673 32.3433 33.8145 32.9019 33.8145ZM38.5331 29.9316H36.7674C36.2088 29.9316 35.756 30.3845 35.756 30.9431V32.7088C35.756 33.2674 36.2088 33.7202 36.7674 33.7202H38.5331C39.0917 33.7202 39.5446 33.2674 39.5446 32.7088V30.9431C39.5446 30.3845 39.0917 29.9316 38.5331 29.9316ZM37.0378 33.8145H42.4035C42.9621 33.8145 43.4149 34.2673 43.4149 34.8259V36.5916C43.4149 37.1502 42.9621 37.6031 42.4035 37.6031H37.0378C36.4792 37.6031 36.0264 37.1502 36.0264 36.5916V34.8259C36.0264 34.2673 36.4792 33.8145 37.0378 33.8145ZM42.4076 45.2574H36.849C36.2904 45.2574 35.8376 45.7102 35.8376 46.2688V48.0345C35.8376 48.5931 36.2904 49.0459 36.849 49.0459H42.4076C42.9662 49.0459 43.419 48.5931 43.419 48.0345V46.2688C43.419 45.7102 42.9662 45.2574 42.4076 45.2574ZM29.4604 41.3959H35.0189C35.5775 41.3959 36.0304 41.8488 36.0304 42.4074V44.1731C36.0304 44.7317 35.5775 45.1845 35.0189 45.1845H29.4604C28.9018 45.1845 28.4489 44.7317 28.4489 44.1731V42.4074C28.4489 41.8488 28.9018 41.3959 29.4604 41.3959ZM46.0118 37.6674H44.2461C43.6875 37.6674 43.2347 38.1202 43.2347 38.6788V44.1174C43.2347 44.676 43.6875 45.1288 44.2461 45.1288H46.0118C46.5704 45.1288 47.0232 44.676 47.0232 44.1174V38.6788C47.0232 38.1202 46.5704 37.6674 46.0118 37.6674ZM37.0206 18.7759H38.7864C39.3449 18.7759 39.7978 19.2288 39.7978 19.7874V24.9774C39.7978 25.5359 39.3449 25.9888 38.7864 25.9888H37.0206C36.462 25.9888 36.0092 25.5359 36.0092 24.9774V19.7874C36.0092 19.2288 36.462 18.7759 37.0206 18.7759ZM19.8518 30.1631H18.0861C17.5275 30.1631 17.0746 30.6159 17.0746 31.1745V32.9402C17.0746 33.4988 17.5275 33.9516 18.0861 33.9516H19.8518C20.4104 33.9516 20.8632 33.4988 20.8632 32.9402V31.1745C20.8632 30.6159 20.4104 30.1631 19.8518 30.1631ZM33.2489 14.9316H35.0146C35.5732 14.9316 36.026 15.3845 36.026 15.9431V17.7088C36.026 18.2674 35.5732 18.7202 35.0146 18.7202H33.2489C32.6903 18.7202 32.2374 18.2674 32.2374 17.7088V15.9431C32.2374 15.3845 32.6903 14.9316 33.2489 14.9316ZM23.6449 18.7245H21.8792C21.3206 18.7245 20.8677 19.1773 20.8677 19.7359V21.5016C20.8677 22.0602 21.3206 22.5131 21.8792 22.5131H23.6449C24.2035 22.5131 24.6563 22.0602 24.6563 21.5016V19.7359C24.6563 19.1773 24.2035 18.7245 23.6449 18.7245Z" fill="#FFA63F"/>
</svg>
