<svg width="60" height="60" viewBox="0 0 60 60" fill="none" xmlns="http://www.w3.org/2000/svg">
<path fill-rule="evenodd" clip-rule="evenodd" d="M21.8963 11.1428H23.662C24.2206 11.1428 24.6735 11.5957 24.6735 12.1543V13.92C24.6735 14.4786 24.2206 14.9314 23.662 14.9314H21.8963C21.3377 14.9314 20.8849 14.4786 20.8849 13.92V12.1543C20.8849 11.5957 21.3377 11.1428 21.8963 11.1428ZM31.2261 11.2114H29.4604C28.9018 11.2114 28.4489 11.6642 28.4489 12.2228V13.9885C28.4489 14.5471 28.9018 15 29.4604 15H31.2261C31.7847 15 32.2375 14.5471 32.2375 13.9885V12.2228C32.2375 11.6642 31.7847 11.2114 31.2261 11.2114ZM25.6677 14.9314H27.4334C27.992 14.9314 28.4448 15.3842 28.4448 15.9428V17.7086C28.4448 18.2671 27.992 18.72 27.4334 18.72H25.6677C25.1091 18.72 24.6563 18.2671 24.6563 17.7086V15.9428C24.6563 15.3842 25.1091 14.9314 25.6677 14.9314ZM16.1403 18.7971H14.3746C13.816 18.7971 13.3631 19.2499 13.3631 19.8085V21.5742C13.3631 22.1328 13.816 22.5857 14.3746 22.5857H16.1403C16.6989 22.5857 17.1517 22.1328 17.1517 21.5742V19.8085C17.1517 19.2499 16.6989 18.7971 16.1403 18.7971ZM19.8518 22.44H18.0861C17.5275 22.44 17.0746 22.8928 17.0746 23.4514V25.2171C17.0746 25.7757 17.5275 26.2285 18.0861 26.2285H19.8518C20.4104 26.2285 20.8632 25.7757 20.8632 25.2171V23.4514C20.8632 22.8928 20.4104 22.44 19.8518 22.44ZM14.2976 26.3057H16.0633C16.6219 26.3057 17.0747 26.7585 17.0747 27.3171V29.0828C17.0747 29.6414 16.6219 30.0942 16.0633 30.0942H14.2976C13.739 30.0942 13.2861 29.6414 13.2861 29.0828V27.3171C13.2861 26.7585 13.739 26.3057 14.2976 26.3057ZM27.4376 33.7328H22.1362C21.5776 33.7328 21.1247 34.1857 21.1247 34.7443V36.51C21.1247 37.0686 21.5776 37.5214 22.1362 37.5214H27.4376C27.9962 37.5214 28.449 37.0686 28.449 36.51V34.7443C28.449 34.1857 27.9962 33.7328 27.4376 33.7328ZM33.2489 26.3057H35.0146C35.5732 26.3057 36.026 26.7585 36.026 27.3171V29.0828C36.026 29.6414 35.5732 30.0942 35.0146 30.0942H33.2489C32.6903 30.0942 32.2374 29.6414 32.2374 29.0828V27.3171C32.2374 26.7585 32.6903 26.3057 33.2489 26.3057ZM31.2261 30.1628H29.4604C28.9018 30.1628 28.4489 30.6157 28.4489 31.1743V32.94C28.4489 33.4986 28.9018 33.9514 29.4604 33.9514H31.2261C31.7847 33.9514 32.2375 33.4986 32.2375 32.94V31.1743C32.2375 30.6157 31.7847 30.1628 31.2261 30.1628ZM32.9019 33.8143H34.6676C35.2262 33.8143 35.6791 34.2671 35.6791 34.8257V36.5914C35.6791 37.15 35.2262 37.6028 34.6676 37.6028H32.9019C32.3433 37.6028 31.8905 37.15 31.8905 36.5914V34.8257C31.8905 34.2671 32.3433 33.8143 32.9019 33.8143ZM38.5331 29.9314H36.7674C36.2088 29.9314 35.756 30.3842 35.756 30.9428V32.7086C35.756 33.2671 36.2088 33.72 36.7674 33.72H38.5331C39.0917 33.72 39.5446 33.2671 39.5446 32.7086V30.9428C39.5446 30.3842 39.0917 29.9314 38.5331 29.9314ZM37.0378 33.8143H42.4035C42.9621 33.8143 43.4149 34.2671 43.4149 34.8257V36.5914C43.4149 37.15 42.9621 37.6028 42.4035 37.6028H37.0378C36.4792 37.6028 36.0264 37.15 36.0264 36.5914V34.8257C36.0264 34.2671 36.4792 33.8143 37.0378 33.8143ZM42.4076 45.2571H36.849C36.2904 45.2571 35.8376 45.71 35.8376 46.2686V48.0343C35.8376 48.5929 36.2904 49.0457 36.849 49.0457H42.4076C42.9662 49.0457 43.419 48.5929 43.419 48.0343V46.2686C43.419 45.71 42.9662 45.2571 42.4076 45.2571ZM29.4604 41.3957H35.0189C35.5775 41.3957 36.0304 41.8485 36.0304 42.4071V44.1728C36.0304 44.7314 35.5775 45.1843 35.0189 45.1843H29.4604C28.9018 45.1843 28.4489 44.7314 28.4489 44.1728V42.4071C28.4489 41.8485 28.9018 41.3957 29.4604 41.3957ZM46.0118 37.6671H44.2461C43.6875 37.6671 43.2347 38.1199 43.2347 38.6785V44.1171C43.2347 44.6757 43.6875 45.1285 44.2461 45.1285H46.0118C46.5704 45.1285 47.0232 44.6757 47.0232 44.1171V38.6785C47.0232 38.1199 46.5704 37.6671 46.0118 37.6671ZM37.0206 18.7757H38.7864C39.3449 18.7757 39.7978 19.2285 39.7978 19.7871V24.9771C39.7978 25.5357 39.3449 25.9885 38.7864 25.9885H37.0206C36.462 25.9885 36.0092 25.5357 36.0092 24.9771V19.7871C36.0092 19.2285 36.462 18.7757 37.0206 18.7757ZM19.8518 30.1628H18.0861C17.5275 30.1628 17.0746 30.6157 17.0746 31.1743V32.94C17.0746 33.4986 17.5275 33.9514 18.0861 33.9514H19.8518C20.4104 33.9514 20.8632 33.4986 20.8632 32.94V31.1743C20.8632 30.6157 20.4104 30.1628 19.8518 30.1628ZM33.2489 14.9314H35.0146C35.5732 14.9314 36.026 15.3842 36.026 15.9428V17.7086C36.026 18.2671 35.5732 18.72 35.0146 18.72H33.2489C32.6903 18.72 32.2374 18.2671 32.2374 17.7086V15.9428C32.2374 15.3842 32.6903 14.9314 33.2489 14.9314ZM23.6449 18.7243H21.8792C21.3206 18.7243 20.8677 19.1771 20.8677 19.7357V21.5014C20.8677 22.06 21.3206 22.5128 21.8792 22.5128H23.6449C24.2035 22.5128 24.6563 22.06 24.6563 21.5014V19.7357C24.6563 19.1771 24.2035 18.7243 23.6449 18.7243Z" fill="#242424"/>
</svg>
