<svg width="24" height="24" viewBox="0 0 24 24" fill="none" xmlns="http://www.w3.org/2000/svg">
<g id="Question">
<path id="Back" fill-rule="evenodd" clip-rule="evenodd" d="M12 3C7.02944 3 3 7.02944 3 12C3 16.9706 7.02944 21 12 21C16.9706 21 21 16.9706 21 12C21 7.02944 16.9706 3 12 3ZM11.25 9.20096C11.478 9.06931 11.7367 9 12 9C12.2633 9 12.5219 9.06931 12.75 9.20096C12.978 9.33261 13.1674 9.52197 13.299 9.75C13.4307 9.97803 13.5 10.2367 13.5 10.5C13.5 10.7633 13.4307 11.022 13.299 11.25C13.1674 11.478 12.978 11.6674 12.75 11.799C12.5219 11.9307 12.2633 12 12 12C11.4477 12 11 12.4477 11 13C11 13.5523 11.4477 14 12 14C12.6144 14 13.2179 13.8383 13.75 13.5311C14.282 13.2239 14.7239 12.7821 15.0311 12.25C15.3383 11.7179 15.5 11.1144 15.5 10.5C15.5 9.88562 15.3383 9.28207 15.0311 8.75C14.7239 8.21793 14.282 7.7761 13.75 7.46891C13.2179 7.16172 12.6144 7 12 7C11.3856 7 10.782 7.16172 10.25 7.46891C9.71791 7.7761 9.27608 8.21793 8.96889 8.75C8.69275 9.22829 8.85662 9.83988 9.33491 10.116C9.81321 10.3922 10.4248 10.2283 10.7009 9.75C10.8326 9.52197 11.0219 9.33261 11.25 9.20096ZM12 15C11.4477 15 11 15.4477 11 16C11 16.5523 11.4477 17 12 17C12.5523 17 13 16.5523 13 16C13 15.4477 12.5523 15 12 15Z" fill="#171717"/>
</g>
</svg>
