<svg width="24" height="24" viewBox="0 0 24 24" fill="none" xmlns="http://www.w3.org/2000/svg">
<g clip-path="url(#clip0_577_70006)">
<path d="M19.4374 15.7338C19.4374 16.4242 18.8777 16.9838 18.1874 16.9838C17.497 16.9838 16.9374 16.4242 16.9374 15.7338L16.9374 9.35522C16.9374 9.13249 16.6681 9.02095 16.5106 9.17844L6.69686 18.9922C6.20871 19.4803 5.41726 19.4803 4.9291 18.9922C4.44095 18.504 4.44095 17.7126 4.9291 17.2244L14.7428 7.41069C14.9003 7.2532 14.7888 6.98391 14.5661 6.98391L8.18744 6.98391C7.49709 6.98391 6.93745 6.42427 6.93745 5.73392C6.93745 5.04357 7.49709 4.48393 8.18744 4.48393L18.1874 4.48393C18.8777 4.48393 19.4374 5.04357 19.4374 5.73392L19.4374 15.7338Z" fill="#81E4BB" stroke="#81E4BB" stroke-linecap="round" stroke-linejoin="round"/>
</g>
<defs>
<clipPath id="clip0_577_70006">
<rect width="24" height="24" fill="white"/>
</clipPath>
</defs>
</svg>
