<svg width="24" height="24" viewBox="0 0 24 24" fill="none" xmlns="http://www.w3.org/2000/svg">
<g id="Share">
<g id="Back">
<path d="M10.6586 6.7556C10.7846 6.62961 11 6.71884 11 6.89703V14C11 14.5523 11.4478 15 12 15C12.5523 15 13 14.5523 13 14V6.8971C13 6.71892 13.2155 6.62968 13.3415 6.75568L15.5355 8.94975C15.9261 9.34028 16.5592 9.34028 16.9498 8.94975C17.3403 8.55923 17.3403 7.92606 16.9498 7.53554L12.7126 3.29836C12.625 3.20942 12.5209 3.1368 12.4052 3.08548C12.2814 3.03053 12.1443 3 12 3C11.8684 3 11.7428 3.02542 11.6277 3.07163C11.5058 3.12044 11.3916 3.19419 11.2929 3.2929L7.05026 7.53554C6.65973 7.92606 6.65973 8.55923 7.05026 8.94975C7.44078 9.34028 8.07395 9.34028 8.46447 8.94975L10.6586 6.7556Z" fill="#171717"/>
<path d="M3 13C3 11.8954 3.89543 11 5 11H8C8.55228 11 9 11.4477 9 12V14C9 15.6569 10.3431 17 12 17C13.6569 17 15 15.6569 15 14V12C15 11.4477 15.4477 11 16 11H19C20.1046 11 21 11.8954 21 13V17C21 19.2091 19.2091 21 17 21H7C4.79086 21 3 19.2091 3 17V13Z" fill="#171717"/>
</g>
</g>
</svg>
