<svg width="24" height="24" viewBox="0 0 24 24" fill="none" xmlns="http://www.w3.org/2000/svg">
<g id="Shuffle">
<g id="Back">
<path d="M7 3C4.95985 3 3.27643 4.52736 3.03082 6.50099C2.99672 6.77502 3.22386 7 3.5 7L5.89151 7C6.92587 7 7.88729 7.53286 8.4355 8.41L9.5 10.1132L10.5645 8.41C11.1127 7.53286 12.0741 7 13.1085 7H15.5858L14.7929 6.20711C14.4024 5.81658 14.4024 5.18342 14.7929 4.79289C15.1834 4.40237 15.8166 4.40237 16.2071 4.79289L18.7071 7.29289C19.0976 7.68342 19.0976 8.31658 18.7071 8.70711L16.2071 11.2071C15.8166 11.5976 15.1834 11.5976 14.7929 11.2071C14.4024 10.8166 14.4024 10.1834 14.7929 9.79289L15.5858 9H13.1085C12.7637 9 12.4432 9.17762 12.2605 9.47L10.6792 12L12.2605 14.53C12.4432 14.8224 12.7637 15 13.1085 15H15.5858L14.7929 14.2071C14.4024 13.8166 14.4024 13.1834 14.7929 12.7929C15.1834 12.4024 15.8166 12.4024 16.2071 12.7929L18.7071 15.2929C18.8946 15.4804 19 15.7348 19 16C19 16.2652 18.8946 16.5196 18.7071 16.7071L16.2071 19.2071C15.8166 19.5976 15.1834 19.5976 14.7929 19.2071C14.4024 18.8166 14.4024 18.1834 14.7929 17.7929L15.5858 17L13.1085 17C12.0741 17 11.1127 16.4671 10.5645 15.59L9.5 13.8868L8.4355 15.59C7.88728 16.4671 6.92587 17 5.8915 17L3.5 17C3.22386 17 2.99672 17.225 3.03082 17.499C3.27643 19.4726 4.95985 21 7 21H17C19.2091 21 21 19.2091 21 17V7C21 4.79086 19.2091 3 17 3H7Z" fill="#171717"/>
<path d="M3 14.5C3 14.7761 3.22386 15 3.5 15H5.89151C6.23629 15 6.55676 14.8224 6.7395 14.53L8.32075 12L6.7395 9.47C6.55676 9.17762 6.23629 9 5.89151 9H3.5C3.22386 9 3 9.22386 3 9.5V14.5Z" fill="#171717"/>
</g>
</g>
</svg>
