<svg width="140" height="140" viewBox="0 0 140 140" fill="none" xmlns="http://www.w3.org/2000/svg">
<path fill-rule="evenodd" clip-rule="evenodd" d="M46.2328 23L31.3342 23C29.7657 23 28.4941 24.2667 28.4941 25.8292V29.3538C28.4941 30.9163 29.7657 32.183 31.3342 32.183H46.2328C47.8014 32.183 49.0729 30.9163 49.0729 29.3538V25.8292C49.0729 24.2667 47.8014 23 46.2328 23ZM24.3782 32.8903H20.8401C19.2716 32.8903 18 34.157 18 35.7195L18 51.2683C18 52.8309 19.2716 54.0975 20.8401 54.0975H24.3782C25.9468 54.0975 27.2183 52.8309 27.2183 51.2683L27.2183 35.7195C27.2183 34.157 25.9468 32.8903 24.3782 32.8903ZM35.0159 54.8048H31.4778C29.9092 54.8048 28.6377 56.0715 28.6377 57.6341L28.6377 61.1586C28.6377 62.7211 29.9092 63.9878 31.4778 63.9878H35.0159C36.5845 63.9878 37.856 62.7211 37.856 61.1586V57.6341C37.856 56.0715 36.5845 54.8048 35.0159 54.8048ZM41.8274 65.4025H56.726C58.2945 65.4025 59.5661 66.6692 59.5661 68.2317V71.7563C59.5661 73.3188 58.2945 74.5855 56.726 74.5855H41.8274C40.2589 74.5855 38.9873 73.3188 38.9873 71.7563V68.2317C38.9873 66.6692 40.2589 65.4025 41.8274 65.4025ZM52.7776 33.5976L56.3157 33.5976C57.8843 33.5976 59.1558 34.8643 59.1558 36.4268V39.9514C59.1558 41.5139 57.8843 42.7806 56.3157 42.7806H52.7776C51.2091 42.7806 49.9375 41.5139 49.9375 39.9514V36.4268C49.9375 34.8643 51.2091 33.5976 52.7776 33.5976ZM66.763 43.5478H63.2249C61.6563 43.5478 60.3848 44.8145 60.3848 46.377L60.3848 61.8179C60.3848 63.3805 61.6563 64.6472 63.2249 64.6472H66.763C68.3315 64.6472 69.6031 63.3805 69.6031 61.8179V46.377C69.6031 44.8145 68.3315 43.5478 66.763 43.5478ZM116.621 54.0975H120.159C121.728 54.0975 123 55.3642 123 56.9268V72.6314C123 74.1939 121.728 75.4606 120.159 75.4606H116.621C115.053 75.4606 113.781 74.1939 113.781 72.6314V56.9268C113.781 55.3642 115.053 54.0975 116.621 54.0975ZM109.581 76.0121H106.043C104.475 76.0121 103.203 77.2787 103.203 78.8413L103.203 82.3658C103.203 83.9284 104.475 85.1951 106.043 85.1951H109.581C111.15 85.1951 112.421 83.9284 112.421 82.3658L112.421 78.8413C112.421 77.2787 111.15 76.0121 109.581 76.0121ZM84.4163 86.6097H99.3148C100.883 86.6097 102.155 87.8764 102.155 89.4389V92.9635C102.155 94.526 100.883 95.7927 99.3148 95.7927H84.4163C82.8478 95.7927 81.5762 94.526 81.5762 92.9635V89.4389C81.5762 87.8764 82.8478 86.6097 84.4163 86.6097ZM110.242 44.2072H94.7903C93.2218 44.2072 91.9502 45.4739 91.9502 47.0365V50.561C91.9502 52.1236 93.2218 53.3902 94.7903 53.3902H110.242C111.811 53.3902 113.083 52.1236 113.083 50.561V47.0365C113.083 45.4739 111.811 44.2072 110.242 44.2072ZM84.7542 54.8048H88.2923C89.8609 54.8048 91.1324 56.0715 91.1324 57.6341V61.1586C91.1324 62.7211 89.8609 63.9878 88.2923 63.9878H84.7542C83.1856 63.9878 81.9141 62.7211 81.9141 61.1586V57.6341C81.9141 56.0715 83.1856 54.8048 84.7542 54.8048ZM56.2445 107.817H52.7063C51.1378 107.817 49.8662 109.084 49.8662 110.646V114.171C49.8662 115.733 51.1378 117 52.7063 117H56.2445C57.813 117 59.0846 115.733 59.0846 114.171V110.646C59.0846 109.084 57.813 107.817 56.2445 107.817ZM43.1272 44.9145H46.6653C48.2339 44.9145 49.5055 46.1812 49.5055 47.7437V51.2683C49.5055 52.8308 48.2339 54.0975 46.6653 54.0975H43.1272C41.5587 54.0975 40.2871 52.8308 40.2871 51.2683V47.7437C40.2871 46.1812 41.5587 44.9145 43.1272 44.9145ZM55.594 54.0975H52.0559C50.4874 54.0975 49.2158 55.3642 49.2158 56.9268V60.4513C49.2158 62.0139 50.4874 63.2805 52.0559 63.2805H55.594C57.1626 63.2805 58.4341 62.0139 58.4341 60.4513V56.9268C58.4341 55.3642 57.1626 54.0975 55.594 54.0975ZM63.7669 65.5942H67.305C68.8736 65.5942 70.1451 66.8609 70.1451 68.4235V71.948C70.1451 73.5106 68.8736 74.7773 67.305 74.7773H63.7669C62.1983 74.7773 60.9268 73.5106 60.9268 71.948V68.4235C60.9268 66.8609 62.1983 65.5942 63.7669 65.5942ZM89.0979 75.3048H85.5598C83.9913 75.3048 82.7197 76.5715 82.7197 78.134L82.7197 81.6586C82.7197 83.2211 83.9913 84.4878 85.5598 84.4878H89.0979C90.6665 84.4878 91.9381 83.2211 91.9381 81.6586L91.9381 78.134C91.9381 76.5715 90.6665 75.3048 89.0979 75.3048ZM94.6341 66.2656H98.1722C99.7407 66.2656 101.012 67.5323 101.012 69.0948V72.6194C101.012 74.1819 99.7407 75.4486 98.1722 75.4486H94.6341C93.0655 75.4486 91.7939 74.1819 91.7939 72.6194V69.0948C91.7939 67.5323 93.0655 66.2656 94.6341 66.2656ZM66.9436 75.7243H63.4055C61.837 75.7243 60.5654 76.991 60.5654 78.5536V104.472C60.5654 106.035 61.837 107.301 63.4055 107.301H66.9436C68.5122 107.301 69.7838 106.035 69.7838 104.472V78.5536C69.7838 76.991 68.5122 75.7243 66.9436 75.7243ZM74.0081 65.1267H77.5462C79.1147 65.1267 80.3863 66.3934 80.3863 67.9559V82.7494C80.3863 84.312 79.1147 85.5787 77.5462 85.5787H74.0081C72.4395 85.5787 71.168 84.312 71.168 82.7494V67.9559C71.168 66.3934 72.4395 65.1267 74.0081 65.1267Z" fill="#3D3D3D"/>
</svg>
