<svg width="32" height="32" viewBox="0 0 32 32" fill="none" xmlns="http://www.w3.org/2000/svg">
<path fill-rule="evenodd" clip-rule="evenodd" d="M10.5675 5.25684H7.16208C6.80356 5.25684 6.51292 5.54637 6.51292 5.90352V6.70913C6.51292 7.06628 6.80356 7.35581 7.16208 7.35581H10.5675C10.926 7.35581 11.2166 7.06628 11.2166 6.70913V5.90352C11.2166 5.54637 10.926 5.25684 10.5675 5.25684ZM5.57214 7.51748H4.76343C4.4049 7.51748 4.11426 7.80701 4.11426 8.16416V11.7182C4.11426 12.0753 4.4049 12.3648 4.76343 12.3648H5.57214C5.93066 12.3648 6.22131 12.0753 6.22131 11.7182V8.16416C6.22131 7.80701 5.93066 7.51748 5.57214 7.51748ZM8.00361 12.5265H7.1949C6.83637 12.5265 6.54573 12.816 6.54573 13.1732V13.9788C6.54573 14.336 6.83637 14.6255 7.1949 14.6255H8.00361C8.36213 14.6255 8.65278 14.336 8.65278 13.9788V13.1732C8.65278 12.816 8.36213 12.5265 8.00361 12.5265ZM9.56052 14.9488H12.9659C13.3244 14.9488 13.6151 15.2384 13.6151 15.5955V16.4011C13.6151 16.7583 13.3244 17.0478 12.9659 17.0478H9.56052C9.20199 17.0478 8.91136 16.7583 8.91136 16.4011V15.5955C8.91136 15.2384 9.20199 14.9488 9.56052 14.9488ZM12.0634 7.67914H12.8721C13.2307 7.67914 13.5213 7.96867 13.5213 8.32582V9.13144C13.5213 9.48859 13.2307 9.77812 12.8721 9.77812H12.0634C11.7049 9.77812 11.4143 9.48859 11.4143 9.13144V8.32582C11.4143 7.96867 11.7049 7.67914 12.0634 7.67914ZM15.2601 9.95348H14.4514C14.0928 9.95348 13.8022 10.243 13.8022 10.6002V14.1295C13.8022 14.4867 14.0928 14.7762 14.4514 14.7762H15.2601C15.6186 14.7762 15.9092 14.4867 15.9092 14.1295V10.6002C15.9092 10.243 15.6186 9.95348 15.2601 9.95348ZM26.6563 12.3648H27.465C27.8235 12.3648 28.1142 12.6544 28.1142 13.0115V16.6012C28.1142 16.9583 27.8235 17.2478 27.465 17.2478H26.6563C26.2978 17.2478 26.0071 16.9583 26.0071 16.6012V13.0115C26.0071 12.6544 26.2978 12.3648 26.6563 12.3648ZM25.0471 17.3739H24.2384C23.8799 17.3739 23.5893 17.6634 23.5893 18.0206V18.8262C23.5893 19.1833 23.8799 19.4729 24.2384 19.4729H25.0471C25.4057 19.4729 25.6963 19.1833 25.6963 18.8262V18.0206C25.6963 17.6634 25.4057 17.3739 25.0471 17.3739ZM19.2951 19.7962H22.7005C23.059 19.7962 23.3497 20.0857 23.3497 20.4429V21.2485C23.3497 21.6056 23.059 21.8952 22.7005 21.8952H19.2951C18.9366 21.8952 18.646 21.6056 18.646 21.2485V20.4429C18.646 20.0857 18.9366 19.7962 19.2951 19.7962ZM25.1982 10.1042H21.6663C21.3078 10.1042 21.0172 10.3937 21.0172 10.7509V11.5565C21.0172 11.9136 21.3078 12.2032 21.6663 12.2032H25.1982C25.5568 12.2032 25.8474 11.9136 25.8474 11.5565V10.7509C25.8474 10.3937 25.5568 10.1042 25.1982 10.1042ZM19.3724 12.5265H20.1811C20.5396 12.5265 20.8302 12.816 20.8302 13.1732V13.9788C20.8302 14.336 20.5396 14.6255 20.1811 14.6255H19.3724C19.0138 14.6255 18.7232 14.336 18.7232 13.9788V13.1732C18.7232 12.816 19.0138 12.5265 19.3724 12.5265ZM12.8558 24.6436H12.0471C11.6886 24.6436 11.398 24.9331 11.398 25.2902V26.0959C11.398 26.453 11.6886 26.7425 12.0471 26.7425H12.8558C13.2144 26.7425 13.505 26.453 13.505 26.0959V25.2902C13.505 24.9331 13.2144 24.6436 12.8558 24.6436ZM9.85762 10.2659H10.6663C11.0249 10.2659 11.3155 10.5554 11.3155 10.9125V11.7182C11.3155 12.0753 11.0249 12.3648 10.6663 12.3648H9.85762C9.49909 12.3648 9.20845 12.0753 9.20845 11.7182V10.9125C9.20845 10.5554 9.49909 10.2659 9.85762 10.2659ZM12.7072 12.3648H11.8985C11.5399 12.3648 11.2493 12.6544 11.2493 13.0115V13.8171C11.2493 14.1743 11.5399 14.4638 11.8985 14.4638H12.7072C13.0657 14.4638 13.3563 14.1743 13.3563 13.8171V13.0115C13.3563 12.6544 13.0657 12.3648 12.7072 12.3648ZM14.5753 14.9927H15.384C15.7425 14.9927 16.0331 15.2822 16.0331 15.6393V16.445C16.0331 16.8021 15.7425 17.0916 15.384 17.0916H14.5753C14.2167 17.0916 13.9261 16.8021 13.9261 16.445V15.6393C13.9261 15.2822 14.2167 14.9927 14.5753 14.9927ZM20.3652 17.2122H19.5565C19.198 17.2122 18.9073 17.5017 18.9073 17.8589V18.6645C18.9073 19.0217 19.198 19.3112 19.5565 19.3112H20.3652C20.7237 19.3112 21.0144 19.0217 21.0144 18.6645V17.8589C21.0144 17.5017 20.7237 17.2122 20.3652 17.2122ZM21.6306 15.1461H22.4393C22.7979 15.1461 23.0885 15.4356 23.0885 15.7928V16.5984C23.0885 16.9556 22.7979 17.2451 22.4393 17.2451H21.6306C21.2721 17.2451 20.9814 16.9556 20.9814 16.5984V15.7928C20.9814 15.4356 21.2721 15.1461 21.6306 15.1461ZM15.3014 17.3081H14.4927C14.1341 17.3081 13.8435 17.5976 13.8435 17.9548V23.8791C13.8435 24.2362 14.1341 24.5257 14.4927 24.5257H15.3014C15.6599 24.5257 15.9505 24.2362 15.9505 23.8791V17.9548C15.9505 17.5976 15.6599 17.3081 15.3014 17.3081ZM16.9161 14.8858H17.7248C18.0833 14.8858 18.374 15.1753 18.374 15.5325V18.9139C18.374 19.271 18.0833 19.5605 17.7248 19.5605H16.9161C16.5576 19.5605 16.2669 19.271 16.2669 18.9139V15.5325C16.2669 15.1753 16.5576 14.8858 16.9161 14.8858Z" fill="#81E4BB"/>
</svg>
