<svg width="60" height="60" viewBox="0 0 60 60" fill="none" xmlns="http://www.w3.org/2000/svg">
<path fill-rule="evenodd" clip-rule="evenodd" d="M21.1967 13.2856H15.891C15.3324 13.2856 14.8796 13.7385 14.8796 14.2971V15.5571C14.8796 16.1157 15.3324 16.5685 15.891 16.5685H21.1967C21.7553 16.5685 22.2082 16.1157 22.2082 15.5571V14.2971C22.2082 13.7385 21.7553 13.2856 21.1967 13.2856ZM13.414 16.8214H12.154C11.5954 16.8214 11.1426 17.2742 11.1426 17.8328V23.3914C11.1426 23.95 11.5954 24.4028 12.154 24.4028H13.414C13.9726 24.4028 14.4254 23.95 14.4254 23.3914V17.8328C14.4254 17.2742 13.9726 16.8214 13.414 16.8214ZM17.2025 24.6556H15.9425C15.3839 24.6556 14.9311 25.1085 14.9311 25.6671V26.9271C14.9311 27.4857 15.3839 27.9385 15.9425 27.9385H17.2025C17.7611 27.9385 18.2139 27.4857 18.2139 26.9271V25.6671C18.2139 25.1085 17.7611 24.6556 17.2025 24.6556ZM19.6281 28.4442H24.9338C25.4924 28.4442 25.9452 28.897 25.9452 29.4556V30.7156C25.9452 31.2742 25.4924 31.7271 24.9338 31.7271H19.6281C19.0695 31.7271 18.6166 31.2742 18.6166 30.7156V29.4556C18.6166 28.897 19.0695 28.4442 19.6281 28.4442ZM23.5279 17.0742H24.7879C25.3465 17.0742 25.7993 17.527 25.7993 18.0856V19.3456C25.7993 19.9042 25.3465 20.3571 24.7879 20.3571H23.5279C22.9693 20.3571 22.5165 19.9042 22.5165 19.3456V18.0856C22.5165 17.527 22.9693 17.0742 23.5279 17.0742ZM28.5082 20.6313H27.2482C26.6896 20.6313 26.2367 21.0842 26.2367 21.6428V27.1628C26.2367 27.7214 26.6896 28.1742 27.2482 28.1742H28.5082C29.0668 28.1742 29.5196 27.7214 29.5196 27.1628V21.6428C29.5196 21.0842 29.0668 20.6313 28.5082 20.6313ZM46.2639 24.4028H47.5239C48.0825 24.4028 48.5354 24.8556 48.5354 25.4142V31.0285C48.5354 31.5871 48.0825 32.0399 47.5239 32.0399H46.2639C45.7053 32.0399 45.2525 31.5871 45.2525 31.0285V25.4142C45.2525 24.8556 45.7053 24.4028 46.2639 24.4028ZM43.7568 32.2371H42.4968C41.9382 32.2371 41.4854 32.6899 41.4854 33.2485V34.5085C41.4854 35.0671 41.9382 35.5199 42.4968 35.5199H43.7568C44.3154 35.5199 44.7682 35.0671 44.7682 34.5085V33.2485C44.7682 32.6899 44.3154 32.2371 43.7568 32.2371ZM34.7951 36.0256H40.1008C40.6594 36.0256 41.1122 36.4785 41.1122 37.0371V38.2971C41.1122 38.8557 40.6594 39.3085 40.1008 39.3085H34.7951C34.2365 39.3085 33.7836 38.8557 33.7836 38.2971V37.0371C33.7836 36.4785 34.2365 36.0256 34.7951 36.0256ZM43.9922 20.8671H38.4894C37.9308 20.8671 37.478 21.3199 37.478 21.8785V23.1385C37.478 23.6971 37.9308 24.1499 38.4894 24.1499H43.9922C44.5508 24.1499 45.0037 23.6971 45.0037 23.1385V21.8785C45.0037 21.3199 44.5508 20.8671 43.9922 20.8671ZM34.9152 24.6556H36.1752C36.7338 24.6556 37.1866 25.1085 37.1866 25.6671V26.9271C37.1866 27.4857 36.7338 27.9385 36.1752 27.9385H34.9152C34.3566 27.9385 33.9037 27.4857 33.9037 26.9271V25.6671C33.9037 25.1085 34.3566 24.6556 34.9152 24.6556ZM24.7624 43.6071H23.5024C22.9438 43.6071 22.4909 44.0599 22.4909 44.6185V45.8785C22.4909 46.4371 22.9438 46.8899 23.5024 46.8899H24.7624C25.321 46.8899 25.7738 46.4371 25.7738 45.8785V44.6185C25.7738 44.0599 25.321 43.6071 24.7624 43.6071ZM20.0909 21.1199H21.3509C21.9095 21.1199 22.3624 21.5727 22.3624 22.1313V23.3913C22.3624 23.9499 21.9095 24.4028 21.3509 24.4028H20.0909C19.5323 24.4028 19.0795 23.9499 19.0795 23.3913V22.1313C19.0795 21.5727 19.5323 21.1199 20.0909 21.1199ZM24.5309 24.4028H23.2709C22.7123 24.4028 22.2595 24.8556 22.2595 25.4142V26.6742C22.2595 27.2328 22.7123 27.6856 23.2709 27.6856H24.5309C25.0895 27.6856 25.5423 27.2328 25.5423 26.6742V25.4142C25.5423 24.8556 25.0895 24.4028 24.5309 24.4028ZM27.4411 28.5128H28.7011C29.2597 28.5128 29.7125 28.9656 29.7125 29.5242V30.7842C29.7125 31.3428 29.2597 31.7956 28.7011 31.7956H27.4411C26.8825 31.7956 26.4297 31.3428 26.4297 30.7842V29.5242C26.4297 28.9656 26.8825 28.5128 27.4411 28.5128ZM36.4623 31.9842H35.2023C34.6437 31.9842 34.1908 32.437 34.1908 32.9956V34.2556C34.1908 34.8142 34.6437 35.2671 35.2023 35.2671H36.4623C37.0209 35.2671 37.4737 34.8142 37.4737 34.2556V32.9956C37.4737 32.437 37.0209 31.9842 36.4623 31.9842ZM38.4337 28.7528H39.6937C40.2523 28.7528 40.7052 29.2056 40.7052 29.7642V31.0242C40.7052 31.5828 40.2523 32.0356 39.6937 32.0356H38.4337C37.8751 32.0356 37.4223 31.5828 37.4223 31.0242V29.7642C37.4223 29.2056 37.8751 28.7528 38.4337 28.7528ZM28.5722 32.1342H27.3122C26.7536 32.1342 26.3008 32.587 26.3008 33.1456V42.4114C26.3008 42.97 26.7536 43.4228 27.3122 43.4228H28.5722C29.1308 43.4228 29.5836 42.97 29.5836 42.4114V33.1456C29.5836 32.587 29.1308 32.1342 28.5722 32.1342ZM31.0882 28.3456H32.3482C32.9067 28.3456 33.3596 28.7985 33.3596 29.3571V34.6456C33.3596 35.2042 32.9067 35.6571 32.3482 35.6571H31.0882C30.5296 35.6571 30.0767 35.2042 30.0767 34.6456V29.3571C30.0767 28.7985 30.5296 28.3456 31.0882 28.3456Z" fill="#242424"/>
</svg>
