<svg width="270" height="360" viewBox="0 0 270 360" fill="none" xmlns="http://www.w3.org/2000/svg">
<rect width="270" height="360" rx="24" fill="#81E4BB"/>
<path d="M124.446 169.146V169.646H123.946H91.384C65.6502 169.646 44.7781 190.518 44.7781 216.252C44.7781 246.144 68.9982 270.364 98.8901 270.364C124.624 270.364 145.496 249.492 145.496 223.758V192.006V191.506H145.996H178.558C204.292 191.506 225.164 170.634 225.164 144.9C225.164 115.008 200.944 90.7881 171.052 90.7881C145.318 90.7881 124.446 111.66 124.446 137.394V169.146Z" fill="#252525" stroke="#242424"/>
<path fill-rule="evenodd" clip-rule="evenodd" d="M24.1967 20.2856H18.891C18.3324 20.2856 17.8796 20.7385 17.8796 21.2971V22.5571C17.8796 23.1157 18.3324 23.5685 18.891 23.5685H24.1967C24.7553 23.5685 25.2082 23.1157 25.2082 22.5571V21.2971C25.2082 20.7385 24.7553 20.2856 24.1967 20.2856ZM16.414 23.8214H15.154C14.5954 23.8214 14.1426 24.2742 14.1426 24.8328V30.3914C14.1426 30.95 14.5954 31.4028 15.154 31.4028H16.414C16.9726 31.4028 17.4254 30.95 17.4254 30.3914V24.8328C17.4254 24.2742 16.9726 23.8214 16.414 23.8214ZM20.2025 31.6556H18.9425C18.3839 31.6556 17.9311 32.1085 17.9311 32.6671V33.9271C17.9311 34.4857 18.3839 34.9385 18.9425 34.9385H20.2025C20.7611 34.9385 21.2139 34.4857 21.2139 33.9271V32.6671C21.2139 32.1085 20.7611 31.6556 20.2025 31.6556ZM22.6281 35.4442H27.9338C28.4924 35.4442 28.9452 35.897 28.9452 36.4556V37.7156C28.9452 38.2742 28.4924 38.7271 27.9338 38.7271H22.6281C22.0695 38.7271 21.6166 38.2742 21.6166 37.7156V36.4556C21.6166 35.897 22.0695 35.4442 22.6281 35.4442ZM26.5279 24.0742H27.7879C28.3465 24.0742 28.7993 24.527 28.7993 25.0856V26.3456C28.7993 26.9042 28.3465 27.3571 27.7879 27.3571H26.5279C25.9693 27.3571 25.5165 26.9042 25.5165 26.3456V25.0856C25.5165 24.527 25.9693 24.0742 26.5279 24.0742ZM31.5082 27.6313H30.2482C29.6896 27.6313 29.2367 28.0842 29.2367 28.6428V34.1628C29.2367 34.7214 29.6896 35.1742 30.2482 35.1742H31.5082C32.0668 35.1742 32.5196 34.7214 32.5196 34.1628V28.6428C32.5196 28.0842 32.0668 27.6313 31.5082 27.6313ZM49.2639 31.4028H50.5239C51.0825 31.4028 51.5354 31.8556 51.5354 32.4142V38.0285C51.5354 38.5871 51.0825 39.0399 50.5239 39.0399H49.2639C48.7053 39.0399 48.2525 38.5871 48.2525 38.0285V32.4142C48.2525 31.8556 48.7053 31.4028 49.2639 31.4028ZM46.7568 39.2371H45.4968C44.9382 39.2371 44.4854 39.6899 44.4854 40.2485V41.5085C44.4854 42.0671 44.9382 42.5199 45.4968 42.5199H46.7568C47.3154 42.5199 47.7682 42.0671 47.7682 41.5085V40.2485C47.7682 39.6899 47.3154 39.2371 46.7568 39.2371ZM37.7951 43.0256H43.1008C43.6594 43.0256 44.1122 43.4785 44.1122 44.0371V45.2971C44.1122 45.8557 43.6594 46.3085 43.1008 46.3085H37.7951C37.2365 46.3085 36.7836 45.8557 36.7836 45.2971V44.0371C36.7836 43.4785 37.2365 43.0256 37.7951 43.0256ZM46.9922 27.8671H41.4894C40.9308 27.8671 40.478 28.3199 40.478 28.8785V30.1385C40.478 30.6971 40.9308 31.1499 41.4894 31.1499H46.9922C47.5508 31.1499 48.0037 30.6971 48.0037 30.1385V28.8785C48.0037 28.3199 47.5508 27.8671 46.9922 27.8671ZM37.9152 31.6556H39.1752C39.7338 31.6556 40.1866 32.1085 40.1866 32.6671V33.9271C40.1866 34.4857 39.7338 34.9385 39.1752 34.9385H37.9152C37.3566 34.9385 36.9037 34.4857 36.9037 33.9271V32.6671C36.9037 32.1085 37.3566 31.6556 37.9152 31.6556ZM27.7624 50.6071H26.5024C25.9438 50.6071 25.4909 51.0599 25.4909 51.6185V52.8785C25.4909 53.4371 25.9438 53.8899 26.5024 53.8899H27.7624C28.321 53.8899 28.7738 53.4371 28.7738 52.8785V51.6185C28.7738 51.0599 28.321 50.6071 27.7624 50.6071ZM23.0909 28.1199H24.3509C24.9095 28.1199 25.3624 28.5727 25.3624 29.1313V30.3913C25.3624 30.9499 24.9095 31.4028 24.3509 31.4028H23.0909C22.5323 31.4028 22.0795 30.9499 22.0795 30.3913V29.1313C22.0795 28.5727 22.5323 28.1199 23.0909 28.1199ZM27.5309 31.4028H26.2709C25.7123 31.4028 25.2595 31.8556 25.2595 32.4142V33.6742C25.2595 34.2328 25.7123 34.6856 26.2709 34.6856H27.5309C28.0895 34.6856 28.5423 34.2328 28.5423 33.6742V32.4142C28.5423 31.8556 28.0895 31.4028 27.5309 31.4028ZM30.4411 35.5128H31.7011C32.2597 35.5128 32.7125 35.9656 32.7125 36.5242V37.7842C32.7125 38.3428 32.2597 38.7956 31.7011 38.7956H30.4411C29.8825 38.7956 29.4297 38.3428 29.4297 37.7842V36.5242C29.4297 35.9656 29.8825 35.5128 30.4411 35.5128ZM39.4623 38.9842H38.2023C37.6437 38.9842 37.1908 39.437 37.1908 39.9956V41.2556C37.1908 41.8142 37.6437 42.2671 38.2023 42.2671H39.4623C40.0209 42.2671 40.4737 41.8142 40.4737 41.2556V39.9956C40.4737 39.437 40.0209 38.9842 39.4623 38.9842ZM41.4337 35.7528H42.6937C43.2523 35.7528 43.7052 36.2056 43.7052 36.7642V38.0242C43.7052 38.5828 43.2523 39.0356 42.6937 39.0356H41.4337C40.8751 39.0356 40.4223 38.5828 40.4223 38.0242V36.7642C40.4223 36.2056 40.8751 35.7528 41.4337 35.7528ZM31.5722 39.1342H30.3122C29.7536 39.1342 29.3008 39.587 29.3008 40.1456V49.4114C29.3008 49.97 29.7536 50.4228 30.3122 50.4228H31.5722C32.1308 50.4228 32.5836 49.97 32.5836 49.4114V40.1456C32.5836 39.587 32.1308 39.1342 31.5722 39.1342ZM34.0882 35.3456H35.3482C35.9067 35.3456 36.3596 35.7985 36.3596 36.3571V41.6456C36.3596 42.2042 35.9067 42.6571 35.3482 42.6571H34.0882C33.5296 42.6571 33.0767 42.2042 33.0767 41.6456V36.3571C33.0767 35.7985 33.5296 35.3456 34.0882 35.3456Z" fill="#242424"/>
<path fill-rule="evenodd" clip-rule="evenodd" d="M230.197 313.286H224.891C224.332 313.286 223.88 313.738 223.88 314.297V315.557C223.88 316.116 224.332 316.569 224.891 316.569H230.197C230.755 316.569 231.208 316.116 231.208 315.557V314.297C231.208 313.738 230.755 313.286 230.197 313.286ZM221.154 316.821H222.414C222.973 316.821 223.425 317.274 223.425 317.833V323.391C223.425 323.95 222.973 324.403 222.414 324.403H221.154C220.595 324.403 220.143 323.95 220.143 323.391V317.833C220.143 317.274 220.595 316.821 221.154 316.821ZM226.203 324.656H224.943C224.384 324.656 223.931 325.108 223.931 325.667V326.927C223.931 327.486 224.384 327.938 224.943 327.938H226.203C226.761 327.938 227.214 327.486 227.214 326.927V325.667C227.214 325.108 226.761 324.656 226.203 324.656ZM228.628 328.444H233.934C234.492 328.444 234.945 328.897 234.945 329.456V330.716C234.945 331.274 234.492 331.727 233.934 331.727H228.628C228.069 331.727 227.617 331.274 227.617 330.716V329.456C227.617 328.897 228.069 328.444 228.628 328.444ZM232.528 317.074H233.788C234.346 317.074 234.799 317.527 234.799 318.086V319.346C234.799 319.904 234.346 320.357 233.788 320.357H232.528C231.969 320.357 231.516 319.904 231.516 319.346V318.086C231.516 317.527 231.969 317.074 232.528 317.074ZM237.508 320.631H236.248C235.69 320.631 235.237 321.084 235.237 321.643V327.163C235.237 327.721 235.69 328.174 236.248 328.174H237.508C238.067 328.174 238.52 327.721 238.52 327.163V321.643C238.52 321.084 238.067 320.631 237.508 320.631ZM255.264 324.403H256.524C257.083 324.403 257.535 324.856 257.535 325.414V331.029C257.535 331.587 257.083 332.04 256.524 332.04H255.264C254.705 332.04 254.253 331.587 254.253 331.029V325.414C254.253 324.856 254.705 324.403 255.264 324.403ZM252.757 332.237H251.497C250.938 332.237 250.485 332.69 250.485 333.248V334.508C250.485 335.067 250.938 335.52 251.497 335.52H252.757C253.315 335.52 253.768 335.067 253.768 334.508V333.248C253.768 332.69 253.315 332.237 252.757 332.237ZM243.795 336.026H249.101C249.659 336.026 250.112 336.478 250.112 337.037V338.297C250.112 338.856 249.659 339.308 249.101 339.308H243.795C243.236 339.308 242.784 338.856 242.784 338.297V337.037C242.784 336.478 243.236 336.026 243.795 336.026ZM252.992 320.867H247.489C246.931 320.867 246.478 321.32 246.478 321.879V323.139C246.478 323.697 246.931 324.15 247.489 324.15H252.992C253.551 324.15 254.004 323.697 254.004 323.139V321.879C254.004 321.32 253.551 320.867 252.992 320.867ZM243.915 324.656H245.175C245.734 324.656 246.187 325.108 246.187 325.667V326.927C246.187 327.486 245.734 327.938 245.175 327.938H243.915C243.357 327.938 242.904 327.486 242.904 326.927V325.667C242.904 325.108 243.357 324.656 243.915 324.656ZM233.762 343.607H232.502C231.944 343.607 231.491 344.06 231.491 344.619V345.879C231.491 346.437 231.944 346.89 232.502 346.89H233.762C234.321 346.89 234.774 346.437 234.774 345.879V344.619C234.774 344.06 234.321 343.607 233.762 343.607ZM229.091 321.12H230.351C230.91 321.12 231.362 321.573 231.362 322.131V323.391C231.362 323.95 230.91 324.403 230.351 324.403H229.091C228.532 324.403 228.08 323.95 228.08 323.391V322.131C228.08 321.573 228.532 321.12 229.091 321.12ZM233.531 324.403H232.271C231.712 324.403 231.259 324.856 231.259 325.414V326.674C231.259 327.233 231.712 327.686 232.271 327.686H233.531C234.09 327.686 234.542 327.233 234.542 326.674V325.414C234.542 324.856 234.09 324.403 233.531 324.403ZM236.441 328.513H237.701C238.26 328.513 238.713 328.966 238.713 329.524V330.784C238.713 331.343 238.26 331.796 237.701 331.796H236.441C235.883 331.796 235.43 331.343 235.43 330.784V329.524C235.43 328.966 235.883 328.513 236.441 328.513ZM245.462 331.984H244.202C243.644 331.984 243.191 332.437 243.191 332.996V334.256C243.191 334.814 243.644 335.267 244.202 335.267H245.462C246.021 335.267 246.474 334.814 246.474 334.256V332.996C246.474 332.437 246.021 331.984 245.462 331.984ZM247.434 328.753H248.694C249.252 328.753 249.705 329.206 249.705 329.764V331.024C249.705 331.583 249.252 332.036 248.694 332.036H247.434C246.875 332.036 246.422 331.583 246.422 331.024V329.764C246.422 329.206 246.875 328.753 247.434 328.753ZM237.572 332.134H236.312C235.754 332.134 235.301 332.587 235.301 333.146V342.411C235.301 342.97 235.754 343.423 236.312 343.423H237.572C238.131 343.423 238.584 342.97 238.584 342.411V333.146C238.584 332.587 238.131 332.134 237.572 332.134ZM240.088 328.346H241.348C241.907 328.346 242.36 328.798 242.36 329.357V334.646C242.36 335.204 241.907 335.657 241.348 335.657H240.088C239.53 335.657 239.077 335.204 239.077 334.646V329.357C239.077 328.798 239.53 328.346 240.088 328.346Z" fill="#242424"/>
<g clip-path="url(#clip0_577_68937)">
<path d="M40.4374 336.734C40.4374 337.424 39.8777 337.984 39.1874 337.984C38.497 337.984 37.9374 337.424 37.9374 336.734L37.9374 330.355C37.9374 330.132 37.6681 330.021 37.5106 330.178L27.6969 339.992C27.2087 340.48 26.4173 340.48 25.9291 339.992C25.441 339.504 25.441 338.713 25.9291 338.224L35.7428 328.411C35.9003 328.253 35.7888 327.984 35.5661 327.984L29.1874 327.984C28.4971 327.984 27.9374 327.424 27.9374 326.734C27.9374 326.044 28.4971 325.484 29.1874 325.484L39.1874 325.484C39.8777 325.484 40.4374 326.044 40.4374 326.734L40.4374 336.734Z" fill="#242424" stroke="#242424" stroke-linecap="round" stroke-linejoin="round"/>
</g>
<g clip-path="url(#clip1_577_68937)">
<path d="M231.563 33.2662C231.563 32.5758 232.122 32.0162 232.813 32.0162C233.503 32.0162 234.063 32.5758 234.063 33.2662L234.063 39.6448C234.063 39.8675 234.332 39.979 234.489 39.8216L244.303 30.0078C244.791 29.5197 245.583 29.5197 246.071 30.0078C246.559 30.496 246.559 31.2874 246.071 31.7756L236.257 41.5893C236.1 41.7468 236.211 42.0161 236.434 42.0161L242.813 42.0161C243.503 42.0161 244.063 42.5757 244.063 43.2661C244.063 43.9564 243.503 44.5161 242.813 44.5161L232.813 44.5161C232.122 44.5161 231.563 43.9564 231.563 43.2661L231.563 33.2662Z" fill="#242424" stroke="#242424" stroke-linecap="round" stroke-linejoin="round"/>
</g>
<defs>
<clipPath id="clip0_577_68937">
<rect width="24" height="24" fill="white" transform="translate(21 321)"/>
</clipPath>
<clipPath id="clip1_577_68937">
<rect width="24" height="24" fill="white" transform="matrix(-1 0 0 -1 251 49)"/>
</clipPath>
</defs>
</svg>
