<svg width="252" height="252" viewBox="0 0 252 252" fill="none" xmlns="http://www.w3.org/2000/svg">
<path d="M167.14 116.561H140.873V90.9673C140.873 69.998 123.859 53 102.869 53C78.5329 53 58.8057 72.7082 58.8057 97.0207C58.8057 117.99 75.8201 134.988 96.8097 134.988H123.076V160.581C123.076 181.551 140.091 198.549 161.08 198.549C185.416 198.549 205.144 178.84 205.144 154.528C205.144 133.559 188.129 116.561 167.14 116.561Z" fill="#242424"/>
<path d="M143.096 100.858C142.363 102.54 141.566 104.192 140.764 105.839C138.764 109.934 136.63 113.969 134.368 117.926C131.437 123.049 128.289 128.054 124.814 132.832C124.368 133.445 123.918 134.053 123.457 134.657C123.235 134.948 123.012 135.24 122.789 135.532C123.631 134.434 122.715 135.626 122.492 135.903C121.561 137.08 120.606 138.232 119.621 139.365C117.695 141.575 115.656 143.692 113.463 145.636C112.933 146.106 112.393 146.566 111.844 147.016C111.591 147.223 111.329 147.426 111.077 147.629C110.671 147.95 111.883 147.016 111.304 147.451C111.161 147.56 111.012 147.668 110.869 147.777C109.814 148.559 108.72 149.291 107.582 149.953C107.042 150.265 106.498 150.567 105.943 150.843C105.681 150.977 105.413 151.106 105.146 151.229C105.012 151.289 104.879 151.353 104.745 151.412C104.681 151.442 104.611 151.472 104.542 151.501C104.057 151.714 105.017 151.298 105.027 151.298C104.79 151.308 104.448 151.531 104.22 151.615C103.918 151.729 103.616 151.833 103.314 151.932C102.765 152.11 102.206 152.263 101.646 152.396C101.087 152.53 100.532 152.629 99.968 152.708L100.899 152.584C99.8541 152.723 98.7898 152.802 97.7403 152.673L98.671 152.797C98.3987 152.762 98.1314 152.713 97.869 152.639C97.7403 152.604 97.6165 152.565 97.4878 152.52C96.8443 152.312 98.2848 152.901 97.9432 152.718C97.7403 152.609 97.5472 152.505 97.3492 152.387C96.8492 152.08 98.0423 152.99 97.765 152.708C97.6858 152.629 97.5967 152.56 97.5175 152.48C97.4482 152.411 97.3888 152.327 97.3145 152.258C97.1611 152.11 97.9482 153.188 97.6462 152.678C97.5373 152.495 97.4383 152.307 97.3393 152.124C97.9482 153.242 97.5868 152.777 97.4482 152.283C97.3839 152.05 97.3393 151.813 97.3047 151.575L97.4284 152.505C97.3294 151.753 97.3591 150.992 97.4532 150.24L97.3294 151.17C97.5274 149.716 97.9779 148.316 98.5274 146.956C98.7848 146.318 98.0918 147.95 98.4383 147.174C98.5175 146.996 98.5967 146.818 98.6808 146.64C98.864 146.249 99.0521 145.863 99.2551 145.482C99.6462 144.736 100.072 144.004 100.517 143.287C100.963 142.57 101.448 141.862 101.958 141.18C102.057 141.046 102.161 140.913 102.265 140.774C101.423 141.892 101.948 141.185 102.151 140.928C102.418 140.591 102.696 140.265 102.978 139.938C103.503 139.345 104.047 138.766 104.626 138.222C104.889 137.975 105.156 137.733 105.433 137.5C105.567 137.387 105.7 137.278 105.839 137.169C106.062 136.986 106.453 136.734 105.399 137.505C105.488 137.441 105.577 137.372 105.666 137.302C106.25 136.877 106.869 136.486 107.527 136.18C107.592 136.15 107.656 136.12 107.72 136.091C108.131 135.898 106.666 136.501 107.205 136.313C107.354 136.259 107.502 136.205 107.651 136.16C107.933 136.076 108.225 136.012 108.517 135.967L107.587 136.091C107.918 136.051 108.255 136.046 108.587 136.086L107.656 135.962C107.884 135.992 108.096 136.051 108.319 136.116C108.928 136.294 107.394 135.646 107.849 135.918C107.948 135.977 108.052 136.031 108.151 136.091C108.2 136.12 108.245 136.16 108.299 136.19C108.656 136.402 107.483 135.512 107.78 135.789C107.874 135.873 107.968 135.952 108.057 136.041C108.151 136.135 108.23 136.239 108.319 136.333C108.611 136.655 107.705 135.487 107.938 135.844C107.983 135.913 108.032 135.982 108.082 136.051C108.205 136.244 108.319 136.442 108.418 136.65C108.681 137.194 108.299 136.378 108.225 136.17C108.265 136.279 108.309 136.383 108.344 136.486C108.502 136.946 108.606 137.421 108.671 137.906L108.547 136.976C108.671 137.94 108.631 138.91 108.502 139.869L108.626 138.939C108.458 140.166 108.136 141.373 107.73 142.54C107.616 142.861 107.502 143.178 107.374 143.489C107.319 143.628 107.26 143.771 107.205 143.91C107.022 144.365 107.616 142.96 107.418 143.41C107.369 143.524 107.319 143.638 107.27 143.752C106.968 144.429 106.641 145.092 106.295 145.745C105.537 147.169 104.676 148.544 103.75 149.869C103.512 150.206 103.275 150.542 103.027 150.868C102.913 151.022 102.8 151.17 102.686 151.323C102.517 151.546 102.176 151.956 102.953 150.977C102.859 151.096 102.765 151.219 102.666 151.343C102.102 152.055 101.517 152.752 100.913 153.435C99.6412 154.879 98.2898 156.249 96.874 157.555C96.1314 158.237 95.369 158.9 94.5918 159.543C94.2107 159.859 93.8295 160.166 93.4434 160.473C93.3345 160.557 93.2305 160.641 93.1216 160.725C94.0671 159.978 93.6117 160.344 93.3988 160.507C93.1859 160.67 92.9632 160.839 92.7404 161.002C89.1959 163.623 85.3644 165.853 81.3348 167.634C81.0377 167.762 79.815 168.262 81.0674 167.757C80.7853 167.871 80.508 167.99 80.2259 168.099C79.612 168.346 78.9932 168.578 78.3695 168.806C77.1022 169.261 75.82 169.676 74.528 170.047C71.8399 170.814 69.1024 171.383 66.3351 171.758L67.2658 171.635C61.8848 172.352 56.4344 172.322 51.0533 171.605L51.984 171.729C51.8008 171.704 51.6127 171.679 51.4295 171.65C50.4543 171.511 49.6128 171.486 48.7267 172.001C47.999 172.426 47.3059 173.262 47.1128 174.098C46.9099 174.993 46.9544 176.002 47.4643 176.798C47.9247 177.51 48.6821 178.282 49.5633 178.41C55.1176 179.201 60.6967 179.424 66.2757 178.766C71.3449 178.168 76.3151 177.055 81.0922 175.245C89.5276 172.045 97.2997 167.149 103.666 160.74C108.473 155.903 112.849 150.008 114.809 143.395C115.581 140.794 115.903 137.995 115.294 135.329C114.685 132.664 112.552 129.77 109.616 129.221C106.196 128.583 103.206 130.28 100.651 132.377C98.0967 134.474 96.1314 137.045 94.4384 139.741C92.7453 142.436 91.3395 145.319 90.7058 148.371C90.0722 151.422 90.1613 154.998 92.5374 157.416C95.2156 160.146 99.359 159.948 102.819 159.276C106.329 158.593 109.695 156.971 112.666 155.008C119.725 150.349 125.334 143.811 130.314 137.065C134.952 130.784 139.026 124.088 142.739 117.228C144.912 113.213 146.982 109.127 148.863 104.963C148.952 104.765 149.041 104.568 149.125 104.37C149.516 103.475 149.749 102.654 149.477 101.67C149.254 100.858 148.625 99.9732 147.863 99.5726C147.051 99.1423 146.061 98.9297 145.16 99.2215C144.348 99.4836 143.417 100.018 143.061 100.834L143.096 100.858Z" fill="white"/>
<path d="M142.813 140.077C146.011 143.272 149.214 146.472 152.412 149.667C157.481 154.731 162.546 159.79 167.615 164.854C168.788 166.027 169.956 167.194 171.13 168.366C172.427 169.662 174.808 169.76 176.09 168.366C177.372 166.971 177.476 164.795 176.09 163.41C172.892 160.215 169.689 157.016 166.491 153.821C161.422 148.757 156.358 143.697 151.289 138.633C150.115 137.461 148.947 136.294 147.774 135.122C146.477 133.826 144.096 133.727 142.813 135.122C141.531 136.516 141.427 138.692 142.813 140.077Z" fill="white"/>
<path d="M120.74 108.474C117.517 105.255 114.3 102.04 111.077 98.8207C105.983 93.7317 100.889 88.6427 95.7952 83.5537C94.6269 82.3865 93.4586 81.2194 92.2904 80.0522C90.9934 78.7565 88.6122 78.6576 87.3301 80.0522C86.0479 81.4469 85.944 83.6229 87.3301 85.0077C90.5528 88.2273 93.7705 91.4419 96.9932 94.6615C102.087 99.7505 107.181 104.839 112.275 109.928C113.443 111.096 114.612 112.263 115.78 113.43C117.077 114.726 119.458 114.825 120.74 113.43C122.022 112.035 122.126 109.859 120.74 108.474Z" fill="white"/>
</svg>
