<svg width="32" height="32" viewBox="0 0 32 32" fill="none" xmlns="http://www.w3.org/2000/svg">
<path fill-rule="evenodd" clip-rule="evenodd" d="M6.84412 6.40039H10.3778C10.7329 6.40039 11.0208 6.68973 11.0208 7.04665V7.85172C11.0208 8.20864 10.7329 8.49798 10.3778 8.49798H6.84412C6.48901 8.49798 6.20113 8.20864 6.20113 7.85172V7.04665C6.20113 6.68973 6.48901 6.40039 6.84412 6.40039ZM19.3059 6.40039H22.5045C22.8596 6.40039 23.1475 6.68973 23.1475 7.04665V7.85172C23.1475 8.20864 22.8596 8.49798 22.5045 8.49798H19.3059C18.9508 8.49798 18.6629 8.20864 18.6629 7.85172V7.04665C18.6629 6.68973 18.9508 6.40039 19.3059 6.40039ZM12.7726 16.1681H11.9716C11.6165 16.1681 11.3286 16.4575 11.3286 16.8144V19.8814C11.3286 20.2383 11.6165 20.5276 11.9716 20.5276H12.7726C13.1277 20.5276 13.4156 20.2383 13.4156 19.8814V16.8144C13.4156 16.4575 13.1277 16.1681 12.7726 16.1681ZM7.16553 11.1624H7.96654C8.32165 11.1624 8.60953 11.4518 8.60953 11.8087V12.6138C8.60953 12.9707 8.32165 13.26 7.96654 13.26H7.16553C6.81042 13.26 6.52255 12.9707 6.52255 12.6138V11.8087C6.52255 11.4518 6.81042 11.1624 7.16553 11.1624ZM10.5386 11.1624H9.73763C9.38251 11.1624 9.09464 11.4518 9.09464 11.8087V12.6138C9.09464 12.9707 9.38251 13.26 9.73763 13.26H10.5386C10.8937 13.26 11.1816 12.9707 11.1816 12.6138V11.8087C11.1816 11.4518 10.8937 11.1624 10.5386 11.1624ZM12.0506 13.553H12.8516C13.2067 13.553 13.4946 13.8423 13.4946 14.1993V15.0043C13.4946 15.3613 13.2067 15.6506 12.8516 15.6506H12.0506C11.6955 15.6506 11.4076 15.3613 11.4076 15.0043V14.1993C11.4076 13.8423 11.6955 13.553 12.0506 13.553ZM22.5045 20.7686H21.7035C21.3484 20.7686 21.0605 21.0579 21.0605 21.4149V22.2199C21.0605 22.5769 21.3484 22.8662 21.7035 22.8662H22.5045C22.8596 22.8662 23.1475 22.5769 23.1475 22.2199V21.4149C23.1475 21.0579 22.8596 20.7686 22.5045 20.7686ZM9.57691 20.8508H10.3779C10.733 20.8508 11.0209 21.1401 11.0209 21.497V24.7256C11.0209 25.0825 10.733 25.3718 10.3779 25.3718H9.57691C9.2218 25.3718 8.93393 25.0825 8.93393 24.7256V21.497C8.93393 21.1401 9.2218 20.8508 9.57691 20.8508ZM8.00739 20.8508H7.20638C6.85126 20.8508 6.56339 21.1401 6.56339 21.497V22.3021C6.56339 22.659 6.85126 22.9484 7.20638 22.9484H8.00739C8.3625 22.9484 8.65038 22.659 8.65038 22.3021V21.497C8.65038 21.1401 8.3625 20.8508 8.00739 20.8508ZM12.0506 20.8508H12.8516C13.2067 20.8508 13.4946 21.1401 13.4946 21.497V22.3021C13.4946 22.659 13.2067 22.9484 12.8516 22.9484H12.0506C11.6955 22.9484 11.4076 22.659 11.4076 22.3021V21.497C11.4076 21.1401 11.6955 20.8508 12.0506 20.8508ZM15.3255 20.8508H14.5245C14.1694 20.8508 13.8815 21.1401 13.8815 21.497V22.3021C13.8815 22.659 14.1694 22.9484 14.5245 22.9484H15.3255C15.6806 22.9484 15.9685 22.659 15.9685 22.3021V21.497C15.9685 21.1401 15.6806 20.8508 15.3255 20.8508ZM16.7751 18.4273H20.1781C20.5332 18.4273 20.821 18.7166 20.821 19.0736V19.8786C20.821 20.2356 20.5332 20.5249 20.1781 20.5249H16.7751C16.42 20.5249 16.1321 20.2356 16.1321 19.8786V19.0736C16.1321 18.7166 16.42 18.4273 16.7751 18.4273ZM5.55828 8.74169H4.75727C4.40216 8.74169 4.11429 9.03103 4.11429 9.38795V10.193C4.11429 10.5499 4.40216 10.8393 4.75727 10.8393H5.55828C5.9134 10.8393 6.20127 10.5499 6.20127 10.193V9.38795C6.20127 9.03103 5.9134 8.74169 5.55828 8.74169ZM23.9568 23.2715H24.9131C25.2682 23.2715 25.5561 23.5608 25.5561 23.9177V24.7228C25.5561 25.0797 25.2682 25.3691 24.9131 25.3691H23.9568C23.6017 25.3691 23.3138 25.0797 23.3138 24.7228V23.9177C23.3138 23.5608 23.6017 23.2715 23.9568 23.2715ZM27.2427 18.1863H26.4416C26.0865 18.1863 25.7987 18.4757 25.7987 18.8326V22.3842C25.7987 22.7412 26.0865 23.0305 26.4416 23.0305H27.2427C27.5978 23.0305 27.8856 22.7412 27.8856 22.3842V18.8326C27.8856 18.4757 27.5978 18.1863 27.2427 18.1863ZM24.0631 16.0066H25.0194C25.3745 16.0066 25.6624 16.2959 25.6624 16.6529V17.4579C25.6624 17.8148 25.3745 18.1042 25.0194 18.1042H24.0631C23.708 18.1042 23.4201 17.8148 23.4201 17.4579V16.6529C23.4201 16.2959 23.708 16.0066 24.0631 16.0066ZM12.8654 6.40039H11.9091C11.5539 6.40039 11.2661 6.68973 11.2661 7.04665V7.85172C11.2661 8.20864 11.5539 8.49798 11.9091 8.49798H12.8654C13.2205 8.49798 13.5083 8.20864 13.5083 7.85172V7.04665C13.5083 6.68973 13.2205 6.40039 12.8654 6.40039ZM14.2329 8.65954H17.7639C18.119 8.65954 18.4069 8.94888 18.4069 9.3058V10.1109C18.4069 10.4678 18.119 10.7571 17.7639 10.7571H14.2329C13.8778 10.7571 13.59 10.4678 13.59 10.1109V9.3058C13.59 8.94888 13.8778 8.65954 14.2329 8.65954ZM24.7687 8.74169H23.8124C23.4573 8.74169 23.1694 9.03103 23.1694 9.38795V10.193C23.1694 10.5499 23.4573 10.8393 23.8124 10.8393H24.7687C25.1238 10.8393 25.4117 10.5499 25.4117 10.193V9.38795C25.4117 9.03103 25.1238 8.74169 24.7687 8.74169ZM21.5457 11.4855H22.502C22.8571 11.4855 23.145 11.7749 23.145 12.1318V15.1988C23.145 15.5557 22.8571 15.845 22.502 15.845H21.5457C21.1906 15.845 20.9027 15.5557 20.9027 15.1988V12.1318C20.9027 11.7749 21.1906 11.4855 21.5457 11.4855Z" fill="#9FA9FF"/>
</svg>
