<svg width="140" height="140" viewBox="0 0 140 140" fill="none" xmlns="http://www.w3.org/2000/svg">
<path fill-rule="evenodd" clip-rule="evenodd" d="M29.943 28L45.403 28C46.9566 28 48.216 29.2659 48.216 30.8274V34.3496C48.216 35.9111 46.9566 37.1769 45.403 37.1769H29.943C28.3894 37.1769 27.13 35.9111 27.13 34.3496V30.8274C27.13 29.2659 28.3894 28 29.943 28ZM84.4634 28L98.4573 28C100.011 28 101.27 29.2659 101.27 30.8274V34.3496C101.27 35.9111 100.011 37.1769 98.4573 37.1769L84.4634 37.1769C82.9098 37.1769 81.6504 35.9111 81.6504 34.3496V30.8274C81.6504 29.2659 82.9098 28 84.4634 28ZM55.88 70.7339H52.3756C50.822 70.7339 49.5625 71.9998 49.5625 73.5613V86.9793C49.5625 88.5408 50.822 89.8067 52.3756 89.8067H55.88C57.4336 89.8067 58.693 88.5408 58.693 86.9793V73.5613C58.693 71.9998 57.4336 70.7339 55.88 70.7339ZM31.3492 48.8339H34.8536C36.4072 48.8339 37.6667 50.0997 37.6667 51.6612V55.1835C37.6667 56.745 36.4072 58.0108 34.8536 58.0108H31.3492C29.7956 58.0108 28.5361 56.745 28.5361 55.1835V51.6612C28.5361 50.0997 29.7956 48.8339 31.3492 48.8339ZM46.1065 48.8339H42.6021C41.0485 48.8339 39.7891 50.0997 39.7891 51.6612V55.1835C39.7891 56.745 41.0485 58.0108 42.6021 58.0108H46.1065C47.6601 58.0108 48.9196 56.745 48.9196 55.1835V51.6612C48.9196 50.0997 47.6601 48.8339 46.1065 48.8339ZM52.7213 59.2927H56.2257C57.7793 59.2927 59.0387 60.5586 59.0387 62.1201V65.6423C59.0387 67.2038 57.7793 68.4697 56.2257 68.4697H52.7213C51.1676 68.4697 49.9082 67.2038 49.9082 65.6423V62.1201C49.9082 60.5586 51.1676 59.2927 52.7213 59.2927ZM98.4571 90.8609H94.9527C93.3991 90.8609 92.1396 92.1268 92.1396 93.6883V97.2105C92.1396 98.772 93.3991 100.038 94.9527 100.038H98.4571C100.011 100.038 101.27 98.772 101.27 97.2105V93.6883C101.27 92.1268 100.011 90.8609 98.4571 90.8609ZM41.899 91.2204H45.4034C46.957 91.2204 48.2164 92.4863 48.2164 94.0478L48.2164 108.173C48.2164 109.734 46.957 111 45.4034 111H41.899C40.3454 111 39.0859 109.734 39.0859 108.173L39.0859 94.0478C39.0859 92.4863 40.3454 91.2204 41.899 91.2204ZM35.0323 91.2204H31.5279C29.9743 91.2204 28.7148 92.4863 28.7148 94.0478V97.57C28.7148 99.1315 29.9743 100.397 31.5279 100.397H35.0323C36.5859 100.397 37.8454 99.1315 37.8454 97.57V94.0478C37.8454 92.4863 36.5859 91.2204 35.0323 91.2204ZM52.7213 91.2204H56.2257C57.7793 91.2204 59.0387 92.4863 59.0387 94.0478V97.57C59.0387 99.1315 57.7793 100.397 56.2257 100.397H52.7213C51.1676 100.397 49.9082 99.1315 49.9082 97.57V94.0478C49.9082 92.4863 51.1676 91.2204 52.7213 91.2204ZM67.0489 91.2204H63.5445C61.9909 91.2204 60.7314 92.4863 60.7314 94.0478V97.57C60.7314 99.1315 61.9909 100.397 63.5445 100.397H67.0489C68.6026 100.397 69.862 99.1315 69.862 97.57V94.0478C69.862 92.4863 68.6026 91.2204 67.0489 91.2204ZM73.3912 80.6177H88.279C89.8326 80.6177 91.092 81.8836 91.092 83.4451L91.092 86.9673C91.092 88.5288 89.8326 89.7947 88.279 89.7947H73.3912C71.8376 89.7947 70.5781 88.5288 70.5781 86.9673V83.4451C70.5781 81.8836 71.8376 80.6177 73.3912 80.6177ZM24.3175 38.2432H20.8131C19.2595 38.2432 18 39.509 18 41.0706L18 44.5928C18 46.1543 19.2595 47.4202 20.8131 47.4202H24.3175C25.8711 47.4202 27.1305 46.1543 27.1305 44.5928V41.0706C27.1305 39.509 25.8711 38.2432 24.3175 38.2432ZM104.811 101.811H108.995C110.549 101.811 111.808 103.077 111.808 104.638V108.161C111.808 109.722 110.549 110.988 108.995 110.988H104.811C103.257 110.988 101.998 109.722 101.998 108.161V104.638C101.998 103.077 103.257 101.811 104.811 101.811ZM119.187 79.5635H115.682C114.129 79.5635 112.869 80.8293 112.869 82.3908L112.869 97.9294C112.869 99.4909 114.129 100.757 115.682 100.757H119.187C120.74 100.757 122 99.4909 122 97.9294L122 82.3908C122 80.8293 120.74 79.5635 119.187 79.5635ZM105.276 70.0271H109.46C111.013 70.0271 112.273 71.293 112.273 72.8545V76.3767C112.273 77.9382 111.013 79.2041 109.46 79.2041H105.276C103.722 79.2041 102.463 77.9382 102.463 76.3767V72.8545C102.463 71.293 103.722 70.0271 105.276 70.0271ZM56.286 28H52.1021C50.5485 28 49.2891 29.2659 49.2891 30.8274V34.3496C49.2891 35.9111 50.5485 37.1769 52.1021 37.1769L56.286 37.1769C57.8396 37.1769 59.099 35.9111 59.099 34.3496V30.8274C59.099 29.2659 57.8396 28 56.286 28ZM62.2691 37.8838H77.7171C79.2707 37.8838 80.5302 39.1497 80.5302 40.7112V44.2334C80.5302 45.7949 79.2707 47.0607 77.7171 47.0607H62.2691C60.7155 47.0607 59.4561 45.7949 59.4561 44.2334V40.7112C59.4561 39.1497 60.7155 37.8838 62.2691 37.8838ZM108.363 38.2432H104.179C102.626 38.2432 101.366 39.509 101.366 41.0706V44.5928C101.366 46.1543 102.626 47.4202 104.179 47.4202H108.363C109.917 47.4202 111.176 46.1543 111.176 44.5928V41.0706C111.176 39.509 109.917 38.2432 108.363 38.2432ZM94.2623 50.2475H98.4461C99.9997 50.2475 101.259 51.5134 101.259 53.0749V66.4929C101.259 68.0544 99.9997 69.3203 98.4461 69.3203H94.2623C92.7087 69.3203 91.4492 68.0544 91.4492 66.4929V53.0749C91.4492 51.5134 92.7087 50.2475 94.2623 50.2475Z" fill="#3D3D3D"/>
</svg>
