<svg width="48" height="48" viewBox="0 0 48 48" fill="none" xmlns="http://www.w3.org/2000/svg">
<rect x="29.3135" y="10.6301" width="17.2828" height="23.0438" rx="4" transform="rotate(15 29.3135 10.6301)" fill="#C190FF"/>
<path d="M37.8102 25.2426L37.8102 25.2426L37.55 24.8155L37.5184 24.7637L37.5732 24.7376L38.0246 24.5221L38.0482 24.5716L38.0246 24.5221C38.9169 24.0963 38.7807 22.7858 37.8197 22.5526L37.3337 22.4346L37.2747 22.4203L37.295 22.3631L37.4619 21.8915C37.7918 20.9594 36.7687 20.129 35.9244 20.6436L35.9244 20.6436L35.4973 20.9039L35.4455 20.9355L35.4193 20.8807L35.2039 20.4293L35.2039 20.4293C34.778 19.5369 33.4675 19.6731 33.2343 20.6341L33.1164 21.1201L33.1021 21.1791L33.0448 21.1589L32.5733 20.992L37.8102 25.2426ZM37.8102 25.2426C38.3248 26.087 37.4945 27.11 36.5623 26.7801L36.0908 26.6132L36.0336 26.593L36.0192 26.652L35.9013 27.138C35.6681 28.099 34.3576 28.2352 33.9317 27.3428L33.8823 27.3664L33.9317 27.3428L33.7163 26.8914L33.6901 26.8366L33.6383 26.8682L33.2112 27.1285L33.2112 27.1285C32.3669 27.6431 31.3439 26.8127 31.6737 25.8806L31.8406 25.409L31.8609 25.3518L31.8019 25.3375L31.3159 25.2195C30.3549 24.9863 30.2187 23.6758 31.1111 23.2499L31.0875 23.2005L31.1111 23.2499L31.5624 23.0345L31.6172 23.0084L31.5856 22.9566L31.3254 22.5295L31.3254 22.5295M37.8102 25.2426L31.3254 22.5295M31.3254 22.5295C30.8108 21.6851 31.6411 20.6621 32.5733 20.992L31.3254 22.5295Z" fill="#242424" stroke="#242424" stroke-width="0.109589"/>
<rect x="15.4189" y="10.6301" width="17.2828" height="23.0438" rx="4" fill="#242424"/>
<path d="M27.3289 20.6005L26.4049 19.6765L26.3895 19.6611L26.3742 19.6457L25.4502 18.7217C24.5451 17.8167 23.0783 17.8167 22.1732 18.7217L20.0886 20.8064C19.8917 21.0033 19.8917 21.3221 20.0886 21.5181L20.3876 21.8171C21.3766 22.8061 22.9347 22.8811 24.0095 22.0411C23.1695 23.1169 23.2436 24.674 24.2335 25.6631L24.5325 25.962C24.7294 26.1589 25.0482 26.1589 25.2442 25.962L27.3289 23.8774C28.2339 22.9723 28.2339 21.5055 27.3289 20.6005Z" fill="#9FA9FF"/>
<rect x="1.58594" y="15.1033" width="17.2828" height="23.0438" rx="4" transform="rotate(-15 1.58594 15.1033)" fill="#81E4BB"/>
<path d="M15.9433 23.0464L15.9179 23.0903C15.9061 23.1097 15.894 23.129 15.8817 23.148L15.8521 23.1942L15.8982 23.2238C16.8808 23.8536 17.2032 25.1522 16.6137 26.1733C16.0242 27.1943 14.7399 27.5631 13.7038 27.0297L13.6574 27.0058L13.6312 27.051L13.6304 27.0525L13.6301 27.053L13.63 27.0531L13.63 27.0532L13.63 27.0532L13.63 27.0532L13.6299 27.0532C13.0232 28.1053 11.6783 28.4657 10.6259 27.8581L10.6259 27.8581C9.57564 27.2524 9.21466 25.9111 9.81785 24.8596L9.87135 24.8121L9.79969 24.7756C9.76778 24.7594 9.73595 24.7424 9.70494 24.7245L9.70491 24.7245C8.65283 24.1178 8.29242 22.7729 8.90001 21.7205L8.90002 21.7205C9.50673 20.6684 10.8517 20.308 11.904 20.9156C11.9367 20.9345 11.9682 20.9533 11.9988 20.9732L12.0496 21.006L12.0773 20.9523C12.0955 20.917 12.1144 20.8818 12.1343 20.8473L12.1343 20.8473C12.741 19.7952 14.0859 19.4348 15.1383 20.0424L15.1383 20.0424C16.1904 20.6491 16.5508 21.9941 15.9433 23.0464Z" fill="#242424" stroke="#242424" stroke-width="0.109589"/>
</svg>
