<svg width="24" height="24" viewBox="0 0 24 24" fill="none" xmlns="http://www.w3.org/2000/svg">
<g id="Top">
<path id="Back" fill-rule="evenodd" clip-rule="evenodd" d="M12 3C7.02944 3 3 7.02944 3 12C3 16.9706 7.02944 21 12 21C16.9706 21 21 16.9706 21 12C21 7.02944 16.9706 3 12 3ZM11.2929 9.29289C11.3888 9.19702 11.4993 9.12468 11.6172 9.07588C11.9797 8.92591 12.4125 8.99825 12.7071 9.29289L15.2071 11.7929C15.5976 12.1834 15.5976 12.8166 15.2071 13.2071C14.8166 13.5976 14.1834 13.5976 13.7929 13.2071L13 12.4142V15C13 15.5523 12.5523 16 12 16C11.4477 16 11 15.5523 11 15V12.4142L10.2071 13.2071C9.81658 13.5976 9.18342 13.5976 8.79289 13.2071C8.40237 12.8166 8.40237 12.1834 8.79289 11.7929L11.2929 9.29289Z" fill="#171717"/>
</g>
</svg>
