<svg width="20" height="20" viewBox="0 0 20 20" fill="none" xmlns="http://www.w3.org/2000/svg">
<g id="Touch">
<path id="Back" d="M8.6428 5C9.35542 5 9.93312 5.59695 9.93312 6.33333V7.9338C9.93312 8.19052 10.2146 8.36149 10.4621 8.33867C10.5004 8.33514 10.5391 8.33333 10.5783 8.33333C10.9926 8.33333 11.3613 8.53512 11.5974 8.84877C11.7269 9.02083 11.9699 9.10423 12.1734 9.04687C12.2819 9.01631 12.396 9 12.5138 9C13.0114 9 13.4432 9.29106 13.6585 9.71741C13.7445 9.88789 13.9278 10.0019 14.1139 10.0001C14.1181 10 14.1224 10 14.1267 10C14.8393 10 15.417 10.597 15.417 11.3333V13.1667C15.417 16.0201 13.1784 18.3333 10.417 18.3333C7.65557 18.3333 5.41699 16.0201 5.41699 13.1667V12.3333C5.41699 11.597 5.99469 11 6.70731 11C6.74648 11 6.78523 11.0018 6.82351 11.0053C7.07096 11.0282 7.35248 10.8572 7.35248 10.6005L7.35248 6.33333C7.35248 5.59695 7.93017 5 8.6428 5Z" fill="#171717"/>
<path id="Ellipse 37" d="M12.5 5.83333C12.5 3.99238 10.8211 2.5 8.75 2.5C6.67893 2.5 5 3.99238 5 5.83333" stroke="black" stroke-width="2" stroke-linecap="round"/>
</g>
</svg>
