<svg width="20" height="20" viewBox="0 0 20 20" fill="none" xmlns="http://www.w3.org/2000/svg">
<path d="M8.64243 5C9.35506 5 9.93275 5.59695 9.93275 6.33333V7.9338C9.93275 8.19052 10.2143 8.36149 10.4617 8.33867C10.5 8.33514 10.5388 8.33333 10.5779 8.33333C10.9922 8.33333 11.3609 8.53512 11.597 8.84877C11.7265 9.02083 11.9695 9.10423 12.1731 9.04687C12.2815 9.01631 12.3956 9 12.5134 9C13.011 9 13.4428 9.29106 13.6581 9.71741C13.7442 9.88789 13.9274 10.0019 14.1135 10.0001C14.1178 10 14.122 10 14.1263 10C14.8389 10 15.4166 10.597 15.4166 11.3333V13.1667C15.4166 16.0201 13.178 18.3333 10.4166 18.3333C7.6552 18.3333 5.41663 16.0201 5.41663 13.1667V12.3333C5.41663 11.597 5.99432 11 6.70695 11C6.74611 11 6.78487 11.0018 6.82314 11.0053C7.0706 11.0282 7.35211 10.8572 7.35211 10.6005L7.35211 6.33333C7.35211 5.59695 7.92981 5 8.64243 5Z" fill="white"/>
<path d="M12.5 5.83333C12.5 3.99238 10.8211 2.5 8.75 2.5C6.67893 2.5 5 3.99238 5 5.83333" stroke="white" stroke-width="2" stroke-linecap="round"/>
</svg>
