<svg width="24" height="24" viewBox="0 0 24 24" fill="none" xmlns="http://www.w3.org/2000/svg">
<g id="Trash">
<path id="Back" fill-rule="evenodd" clip-rule="evenodd" d="M7.44 6C7.74928 6 8 5.74928 8 5.44V5C8 3.34315 9.34315 2 11 2H13C14.6569 2 16 3.34315 16 5V5.44C16 5.74928 16.2507 6 16.56 6H20C20.5523 6 21 6.44772 21 7C21 7.55228 20.5523 8 20 8H19.56C19.2507 8 19 8.25072 19 8.56V18C19 20.2091 17.2091 22 15 22H9C6.79086 22 5 20.2091 5 18V8.56C5 8.25072 4.74928 8 4.44 8H4C3.44772 8 3 7.55228 3 7C3 6.44772 3.44772 6 4 6H7.44ZM10 5C10 4.44772 10.4477 4 11 4H13C13.5523 4 14 4.44772 14 5V5.44C14 5.74928 13.7493 6 13.44 6H10.56C10.2507 6 10 5.74928 10 5.44V5ZM9 11C9 10.4477 9.44772 10 10 10C10.5523 10 11 10.4477 11 11V17C11 17.5523 10.5523 18 10 18C9.44772 18 9 17.5523 9 17V11ZM14 10C13.4477 10 13 10.4477 13 11V17C13 17.5523 13.4477 18 14 18C14.5523 18 15 17.5523 15 17V11C15 10.4477 14.5523 10 14 10Z" fill="#171717"/>
</g>
</svg>
