<svg width="140" height="140" viewBox="0 0 140 140" fill="none" xmlns="http://www.w3.org/2000/svg">
<path fill-rule="evenodd" clip-rule="evenodd" d="M78.5027 18H94.0977C95.6649 18 96.9353 19.2707 96.9353 20.8382V24.3738C96.9353 25.9413 95.6649 27.212 94.0977 27.212H78.5027C76.9355 27.212 75.665 25.9413 75.665 24.3738V20.8382C75.665 19.2707 76.9355 18 78.5027 18ZM71.9127 28.6672H68.3777C66.8105 28.6672 65.54 29.9378 65.54 31.5053V35.041C65.54 36.6085 66.8105 37.8792 68.3777 37.8792H71.9127C73.4799 37.8792 74.7504 36.6085 74.7504 35.041V31.5053C74.7504 29.9378 73.4799 28.6672 71.9127 28.6672ZM82.5426 39.3343H79.0076C77.4404 39.3343 76.1699 40.605 76.1699 42.1725V45.7081C76.1699 47.2756 77.4404 48.5463 79.0076 48.5463H82.5426C84.1098 48.5463 85.3802 47.2756 85.3802 45.7081V42.1725C85.3802 40.605 84.1098 39.3343 82.5426 39.3343ZM90.0447 102.628H93.5797C95.1469 102.628 96.4174 103.898 96.4174 105.466V109.002C96.4174 110.569 95.1469 111.84 93.5797 111.84H90.0447C88.4775 111.84 87.207 110.569 87.207 109.002V105.466C87.207 103.898 88.4775 102.628 90.0447 102.628ZM25.8377 113.788H29.3727C30.9399 113.788 32.2103 115.059 32.2103 116.626V120.162C32.2103 121.729 30.9399 123 29.3727 123H25.8377C24.2705 123 23 121.729 23 120.162L23 116.626C23 115.059 24.2705 113.788 25.8377 113.788ZM68.3777 49.9775H71.9127C73.4799 49.9775 74.7504 51.2481 74.7504 52.8156V56.3513C74.7504 57.9188 73.4799 59.1895 71.9127 59.1895H68.3777C66.8105 59.1895 65.54 57.9188 65.54 56.3513V52.8156C65.54 51.2481 66.8105 49.9775 68.3777 49.9775ZM36.4792 60.6085H40.0143C41.5815 60.6085 42.8519 61.8792 42.8519 63.4466V66.9823C42.8519 68.5498 41.5815 69.8205 40.0143 69.8205H36.4792C34.912 69.8205 33.6416 68.5498 33.6416 66.9823V63.4466C33.6416 61.8792 34.912 60.6085 36.4792 60.6085ZM93.4963 39.0097H89.324C87.7568 39.0097 86.4863 40.2803 86.4863 41.8478V56.195C86.4863 57.7624 87.7568 59.0331 89.324 59.0331H93.4963C95.0634 59.0331 96.3339 57.7624 96.3339 56.195V41.8478C96.3339 40.2803 95.0634 39.0097 93.4963 39.0097ZM100.277 39.3343H115.163C116.73 39.3343 118 40.605 118 42.1725V45.7081C118 47.2756 116.73 48.5463 115.163 48.5463H100.277C98.7099 48.5463 97.4395 47.2756 97.4395 45.7081V42.1725C97.4395 40.605 98.7099 39.3343 100.277 39.3343ZM93.5436 60.3199H78.658C77.0908 60.3199 75.8203 61.5906 75.8203 63.1581V66.6937C75.8203 68.2612 77.0908 69.5319 78.658 69.5319H93.5436C95.1108 69.5319 96.3812 68.2612 96.3812 66.6937V63.1581C96.3812 61.5906 95.1108 60.3199 93.5436 60.3199ZM36.4792 91.8042H40.0143C41.5815 91.8042 42.8519 93.0749 42.8519 94.6424V110.24C42.8519 111.808 41.5815 113.078 40.0143 113.078H36.4792C34.912 113.078 33.6416 111.808 33.6416 110.24L33.6416 94.6424C33.6416 93.0749 34.912 91.8042 36.4792 91.8042ZM29.3727 70.53H25.8377C24.2705 70.53 23 71.8007 23 73.3682V88.9661C23 90.5335 24.2705 91.8042 25.8377 91.8042H29.3727C30.9399 91.8042 32.2103 90.5335 32.2103 88.9661V73.3682C32.2103 71.8007 30.9399 70.53 29.3727 70.53ZM100.277 70.53H103.812C105.379 70.53 106.65 71.8007 106.65 73.3682L106.65 99.7896C106.65 101.357 105.379 102.628 103.812 102.628H100.277C98.7099 102.628 97.4395 101.357 97.4395 99.7896L97.4395 73.3682C97.4395 71.8007 98.7099 70.53 100.277 70.53ZM103.812 28.6672L100.277 28.6672C98.7099 28.6672 97.4395 29.9378 97.4395 31.5053V35.041C97.4395 36.6085 98.7099 37.8792 100.277 37.8792H103.812C105.379 37.8792 106.65 36.6085 106.65 35.041V31.5053C106.65 29.9378 105.379 28.6672 103.812 28.6672ZM83.2872 113.788L35.7927 113.788C34.2256 113.788 32.9551 115.059 32.9551 116.626V120.162C32.9551 121.729 34.2256 123 35.7927 123L83.2872 123C84.8544 123 86.1248 121.729 86.1248 120.162V116.626C86.1248 115.059 84.8544 113.788 83.2872 113.788ZM46.3982 49.9775H61.3079C62.875 49.9775 64.1455 51.2481 64.1455 52.8156V56.3513C64.1455 57.9188 62.875 59.1895 61.3079 59.1895L46.3982 59.1895C44.831 59.1895 43.5605 57.9188 43.5605 56.3513V52.8156C43.5605 51.2481 44.831 49.9775 46.3982 49.9775Z" fill="#3D3D3D"/>
</svg>
