<svg width="32" height="32" viewBox="0 0 32 32" fill="none" xmlns="http://www.w3.org/2000/svg">
<path fill-rule="evenodd" clip-rule="evenodd" d="M17.9435 4.11426H21.508C21.8663 4.11426 22.1567 4.4047 22.1567 4.76298V5.57113C22.1567 5.92941 21.8663 6.21986 21.508 6.21986H17.9435C17.5853 6.21986 17.2949 5.92941 17.2949 5.57113V4.76298C17.2949 4.4047 17.5853 4.11426 17.9435 4.11426ZM16.4372 6.55246H15.6292C15.271 6.55246 14.9806 6.84291 14.9806 7.20119V8.00934C14.9806 8.36762 15.271 8.65806 15.6292 8.65806H16.4372C16.7954 8.65806 17.0858 8.36762 17.0858 8.00934V7.20119C17.0858 6.84291 16.7954 6.55246 16.4372 6.55246ZM18.8669 8.99067H18.0589C17.7007 8.99067 17.4103 9.28111 17.4103 9.63939V10.4475C17.4103 10.8058 17.7007 11.0963 18.0589 11.0963H18.8669C19.2251 11.0963 19.5155 10.8058 19.5155 10.4475V9.63939C19.5155 9.28111 19.2251 8.99067 18.8669 8.99067ZM20.5816 23.4577H21.3897C21.7479 23.4577 22.0383 23.7482 22.0383 24.1065V24.9146C22.0383 25.2729 21.7479 25.5633 21.3897 25.5633H20.5816C20.2234 25.5633 19.933 25.2729 19.933 24.9146V24.1065C19.933 23.7482 20.2234 23.4577 20.5816 23.4577ZM5.90575 26.0087H6.71376C7.07197 26.0087 7.36236 26.2991 7.36236 26.6574V27.4655C7.36236 27.8238 7.07197 28.1143 6.71376 28.1143H5.90575C5.54753 28.1143 5.25714 27.8238 5.25714 27.4655V26.6574C5.25714 26.2991 5.54753 26.0087 5.90575 26.0087ZM15.6292 11.4234H16.4372C16.7954 11.4234 17.0858 11.7138 17.0858 12.0721V12.8803C17.0858 13.2385 16.7954 13.529 16.4372 13.529H15.6292C15.271 13.529 14.9806 13.2385 14.9806 12.8803V12.0721C14.9806 11.7138 15.271 11.4234 15.6292 11.4234ZM8.33811 13.8533H9.14612C9.50433 13.8533 9.79472 14.1438 9.79472 14.5021V15.3102C9.79472 15.6685 9.50433 15.9589 9.14612 15.9589H8.33811C7.97989 15.9589 7.68951 15.6685 7.68951 15.3102V14.5021C7.68951 14.1438 7.97989 13.8533 8.33811 13.8533ZM21.3706 8.91647H20.4169C20.0587 8.91647 19.7683 9.20691 19.7683 9.56519V12.8445C19.7683 13.2028 20.0587 13.4933 20.4169 13.4933H21.3706C21.7288 13.4933 22.0192 13.2028 22.0192 12.8445V9.56519C22.0192 9.20691 21.7288 8.91647 21.3706 8.91647ZM22.9205 8.99067H26.3229C26.6811 8.99067 26.9715 9.28111 26.9715 9.63939V10.4475C26.9715 10.8058 26.6811 11.0963 26.3229 11.0963H22.9205C22.5623 11.0963 22.2719 10.8058 22.2719 10.4475V9.63939C22.2719 9.28111 22.5623 8.99067 22.9205 8.99067ZM21.3814 13.7874H17.979C17.6207 13.7874 17.3304 14.0778 17.3304 14.4361V15.2443C17.3304 15.6025 17.6207 15.893 17.979 15.893H21.3814C21.7396 15.893 22.03 15.6025 22.03 15.2443V14.4361C22.03 14.0778 21.7396 13.7874 21.3814 13.7874ZM8.33811 20.9838H9.14612C9.50433 20.9838 9.79472 21.2742 9.79472 21.6325V25.1977C9.79472 25.556 9.50433 25.8465 9.14612 25.8465H8.33811C7.97989 25.8465 7.68951 25.556 7.68951 25.1977V21.6325C7.68951 21.2742 7.97989 20.9838 8.33811 20.9838ZM6.71376 16.1211H5.90575C5.54753 16.1211 5.25714 16.4116 5.25714 16.7698V20.3351C5.25714 20.6934 5.54753 20.9838 5.90575 20.9838H6.71376C7.07197 20.9838 7.36236 20.6934 7.36236 20.3351V16.7698C7.36236 16.4116 7.07197 16.1211 6.71376 16.1211ZM22.9205 16.1211H23.7285C24.0867 16.1211 24.3771 16.4116 24.3771 16.7698V22.809C24.3771 23.1673 24.0867 23.4577 23.7285 23.4577H22.9205C22.5623 23.4577 22.2719 23.1673 22.2719 22.809V16.7698C22.2719 16.4116 22.5623 16.1211 22.9205 16.1211ZM23.7285 6.55246H22.9205C22.5623 6.55246 22.2719 6.84291 22.2719 7.20119V8.00934C22.2719 8.36762 22.5623 8.65806 22.9205 8.65806H23.7285C24.0867 8.65806 24.3771 8.36762 24.3771 8.00934V7.20119C24.3771 6.84291 24.0867 6.55246 23.7285 6.55246ZM19.0371 26.0087H8.1812C7.82298 26.0087 7.53259 26.2991 7.53259 26.6574V27.4655C7.53259 27.8238 7.82298 28.1143 8.1812 28.1143H19.0371C19.3953 28.1143 19.6857 27.8238 19.6857 27.4655V26.6574C19.6857 26.2991 19.3953 26.0087 19.0371 26.0087ZM10.6053 11.4234H14.0132C14.3714 11.4234 14.6618 11.7138 14.6618 12.0721V12.8803C14.6618 13.2385 14.3714 13.529 14.0132 13.529H10.6053C10.2471 13.529 9.95669 13.2385 9.95669 12.8803V12.0721C9.95669 11.7138 10.2471 11.4234 10.6053 11.4234Z" fill="#FFA63F"/>
</svg>
