<svg width="20" height="20" viewBox="0 0 20 20" fill="none" xmlns="http://www.w3.org/2000/svg">
<g id="Welcome">
<g id="Back">
<path d="M14.1666 5.83333C14.1666 7.67428 12.6742 9.16667 10.8332 9.16667C8.99228 9.16667 7.49989 7.67428 7.49989 5.83333C7.49989 3.99238 8.99228 2.5 10.8332 2.5C12.6742 2.5 14.1666 3.99238 14.1666 5.83333Z" fill="black"/>
<path d="M17.2942 15.8502C16.6424 13.2899 14.5087 11.3214 11.8601 10.9119C11.7985 10.8921 11.7342 10.8782 11.6682 10.8709C10.9579 10.7925 10.2607 10.614 9.59788 10.3394C8.67782 9.95832 7.84184 9.39974 7.13767 8.69556C6.43349 7.99138 5.8749 7.1554 5.49381 6.23535C5.21924 5.5725 5.04068 4.87536 4.9623 4.165C4.91183 3.70754 4.54346 3.33333 4.08323 3.33333H2.49989C2.03965 3.33333 1.66323 3.70698 1.69859 4.16585C1.78627 5.30341 2.05325 6.42177 2.4912 7.47907C2.83082 8.29899 3.2691 9.07216 3.795 9.78205C4.02655 10.0946 4.16656 10.4685 4.16656 10.8575V15.8333C4.16656 16.7538 4.91275 17.5 5.83323 17.5H15.8332C16.7537 17.5 17.5213 16.7422 17.2942 15.8502Z" fill="black"/>
</g>
</g>
</svg>
